M48
;Layer_Color=9474304
;FILE_FORMAT=2:4
INCH,TZ
;TYPE=PLATED
T01F00S00C0.0118
;TYPE=NON_PLATED
T02F00S00C0.0354
%
T01
X3346Y3740
X4528
Y2559
Y1378
Y197
X5906Y591
X6299Y984
X6890Y1969
X7480
X7087Y3346
X6693Y2953
X5512Y2362
X7874Y3740
X11614Y3346
Y2953
X12205Y3543
X12598
X13780Y1575
X14370Y984
Y591
X15157Y2165
X15551
Y2756
X16732Y2364
Y3150
X16339Y3543
X16929Y1772
X16831Y394
X17815Y787
X10827Y1575
X11220Y3937
X13780
X14370Y4724
X12992Y7087
X12205
X16535Y6496
X15354Y10827
X14567Y11220
X14370Y12992
X15551Y14173
X15630Y15591
X15984
X16339
X16693
X17047
X17402
X17756
X18110
X18465
X19220Y17060
Y17760
Y18460
Y19160
X16161
Y18460
Y17760
Y17060
Y16360
X17520Y12992
X12992Y11614
X11220Y11220
X10827Y10827
X10433Y11220
X7480
X7874Y12402
X5118
X4921Y11220
X5118Y10728
X4921Y14272
X5807
X5906Y18898
X12598Y14173
X8465Y5118
X7874Y4724
X4331Y5512
X2362
Y4528
X197
Y5512
Y11713
X2165Y11909
X394Y13878
X7480Y20472
X16170Y20560
X16161Y19860
Y21260
X19220
Y20560
Y19860
T02
X1142Y20906
X3819
M30
