G04*
G04 #@! TF.GenerationSoftware,Altium Limited,Altium Designer,25.5.2 (35)*
G04*
G04 Layer_Physical_Order=1*
G04 Layer_Color=255*
%FSLAX25Y25*%
%MOIN*%
G70*
G04*
G04 #@! TF.SameCoordinates,38EB6A6A-CC72-40A8-BBF4-0EDFD8540081*
G04*
G04*
G04 #@! TF.FilePolarity,Positive*
G04*
G01*
G75*
%ADD12C,0.01000*%
%ADD18R,0.06299X0.05118*%
%ADD19R,0.19685X0.19685*%
%ADD20R,0.05000X0.07874*%
G04:AMPARAMS|DCode=21|XSize=21.65mil|YSize=19.68mil|CornerRadius=2.46mil|HoleSize=0mil|Usage=FLASHONLY|Rotation=90.000|XOffset=0mil|YOffset=0mil|HoleType=Round|Shape=RoundedRectangle|*
%AMROUNDEDRECTD21*
21,1,0.02165,0.01476,0,0,90.0*
21,1,0.01673,0.01968,0,0,90.0*
1,1,0.00492,0.00738,0.00837*
1,1,0.00492,0.00738,-0.00837*
1,1,0.00492,-0.00738,-0.00837*
1,1,0.00492,-0.00738,0.00837*
%
%ADD21ROUNDEDRECTD21*%
%ADD22R,0.08661X0.04134*%
%ADD23R,0.05750X0.02200*%
%ADD24R,0.02254X0.01438*%
%ADD25R,0.02000X0.05800*%
%ADD26R,0.01575X0.07480*%
%ADD27R,0.01438X0.02254*%
%ADD28R,0.01968X0.01378*%
%ADD29R,0.01000X0.01900*%
%ADD30R,0.04724X0.09843*%
%ADD31R,0.01654X0.07008*%
%ADD32R,0.01500X0.01000*%
%ADD33R,0.19685X0.19685*%
%ADD34R,0.10630X0.03150*%
%ADD35R,0.04134X0.03937*%
G04:AMPARAMS|DCode=36|XSize=21.65mil|YSize=19.68mil|CornerRadius=2.46mil|HoleSize=0mil|Usage=FLASHONLY|Rotation=180.000|XOffset=0mil|YOffset=0mil|HoleType=Round|Shape=RoundedRectangle|*
%AMROUNDEDRECTD36*
21,1,0.02165,0.01476,0,0,180.0*
21,1,0.01673,0.01968,0,0,180.0*
1,1,0.00492,-0.00837,0.00738*
1,1,0.00492,0.00837,0.00738*
1,1,0.00492,0.00837,-0.00738*
1,1,0.00492,-0.00837,-0.00738*
%
%ADD36ROUNDEDRECTD36*%
%ADD37R,0.08503X0.03791*%
%ADD38R,0.05800X0.02000*%
%ADD39R,0.03950X0.07100*%
%ADD47R,0.02756X0.07087*%
%ADD48R,0.03150X0.07087*%
%ADD53C,0.03543*%
%ADD55C,0.03937*%
%ADD56C,0.00591*%
%ADD57C,0.01575*%
%ADD58C,0.01500*%
%ADD59C,0.01693*%
%ADD60C,0.02000*%
%ADD61C,0.03150*%
%ADD62C,0.01968*%
%ADD63C,0.01968*%
G36*
X137167Y157545D02*
X137222Y157268D01*
X137378Y157034D01*
X137612Y156877D01*
X137889Y156822D01*
X154531D01*
X154359Y156405D01*
X156299D01*
Y155905D01*
X156799D01*
Y153965D01*
X157423Y154223D01*
X157981Y154781D01*
X158071Y154998D01*
X158160Y154781D01*
X158719Y154223D01*
X159343Y153965D01*
Y155905D01*
X160343D01*
Y153965D01*
X160967Y154223D01*
X161525Y154781D01*
X161614Y154998D01*
X161704Y154781D01*
X162262Y154223D01*
X162886Y153965D01*
Y155905D01*
X163886D01*
Y153965D01*
X164510Y154223D01*
X165068Y154781D01*
X165157Y154998D01*
X165247Y154781D01*
X165805Y154223D01*
X166429Y153965D01*
Y155905D01*
X167429D01*
Y153965D01*
X168053Y154223D01*
X168611Y154781D01*
X168701Y154998D01*
X168790Y154781D01*
X169349Y154223D01*
X169972Y153965D01*
Y155905D01*
X170972D01*
Y153965D01*
X171596Y154223D01*
X172155Y154781D01*
X172244Y154998D01*
X172334Y154781D01*
X172892Y154223D01*
X173516Y153965D01*
Y155905D01*
X174516D01*
Y153965D01*
X175140Y154223D01*
X175698Y154781D01*
X175787Y154998D01*
X175877Y154781D01*
X176435Y154223D01*
X177059Y153965D01*
Y155905D01*
X178059D01*
Y153965D01*
X178683Y154223D01*
X179241Y154781D01*
X179331Y154998D01*
X179420Y154781D01*
X179978Y154223D01*
X180602Y153965D01*
Y155905D01*
X181602D01*
Y153965D01*
X182226Y154223D01*
X182784Y154781D01*
X182874Y154998D01*
X182964Y154781D01*
X183522Y154223D01*
X184146Y153965D01*
Y155905D01*
X184646D01*
Y156405D01*
X186586D01*
X186414Y156822D01*
X187352D01*
X187163Y156539D01*
X187066Y156053D01*
Y155717D01*
X189075D01*
X191084D01*
Y156053D01*
X190987Y156539D01*
X190798Y156822D01*
X191492D01*
X191473Y156675D01*
X191456Y156592D01*
X191441Y156535D01*
X191435Y156520D01*
X191424Y156500D01*
X191374Y156426D01*
X191300Y156053D01*
Y154380D01*
X191374Y154007D01*
X191396Y153975D01*
X191396Y153973D01*
X191372Y153921D01*
X191332Y153853D01*
X191331Y153851D01*
X191276Y153768D01*
X191241Y153592D01*
X191239Y153587D01*
X191239Y153584D01*
X191202Y153396D01*
Y151919D01*
X191276Y151547D01*
X191487Y151231D01*
X191803Y151020D01*
X192175Y150946D01*
X193848D01*
X194221Y151020D01*
X194537Y151231D01*
X194748Y151547D01*
X194822Y151919D01*
Y153396D01*
X194784Y153584D01*
X194784Y153587D01*
X194783Y153592D01*
X194748Y153768D01*
X194693Y153851D01*
X194692Y153853D01*
X194652Y153921D01*
X194628Y153973D01*
X194627Y153975D01*
X194649Y154007D01*
X194723Y154380D01*
Y156053D01*
X194649Y156426D01*
X194599Y156500D01*
X194589Y156520D01*
X194588Y156523D01*
X194547Y156694D01*
X194533Y156787D01*
X194531Y156822D01*
X196850D01*
Y22388D01*
X196718D01*
Y24881D01*
X196114D01*
Y25147D01*
X196718D01*
Y27931D01*
Y30787D01*
X193046D01*
Y30382D01*
X192745D01*
Y30387D01*
X192013Y30291D01*
X191331Y30008D01*
X190745Y29559D01*
X190296Y28973D01*
X190013Y28291D01*
X189917Y27559D01*
X189921D01*
X189926Y27535D01*
X189763Y27141D01*
X189369Y26978D01*
X189345Y26983D01*
X181726D01*
Y27450D01*
Y27927D01*
X184671D01*
Y27920D01*
X185597Y28042D01*
X186459Y28399D01*
X187200Y28967D01*
X187768Y29708D01*
X188125Y30571D01*
X188247Y31496D01*
X188240D01*
Y43307D01*
X188244D01*
X188135Y44137D01*
X187815Y44909D01*
X187305Y45573D01*
X186642Y46082D01*
X185869Y46402D01*
X185039Y46512D01*
Y46508D01*
X181102D01*
Y46520D01*
X180825Y46575D01*
X180591Y46732D01*
X180434Y46967D01*
X180379Y47244D01*
X180366D01*
Y54360D01*
X180371D01*
X180256Y55236D01*
X180197Y55379D01*
Y63996D01*
X173780D01*
Y54705D01*
X177824D01*
X177893Y54360D01*
X177901D01*
Y47244D01*
X177898D01*
X178007Y46415D01*
X178327Y45642D01*
X178836Y44978D01*
X179500Y44469D01*
X180273Y44149D01*
X181102Y44039D01*
Y44043D01*
X185039D01*
Y44031D01*
X185316Y43976D01*
X185551Y43819D01*
X185708Y43584D01*
X185763Y43307D01*
X185775D01*
Y31496D01*
X185770D01*
X185687Y31075D01*
X185448Y30719D01*
X185092Y30480D01*
X184671Y30397D01*
Y30391D01*
X181726D01*
Y30550D01*
Y31027D01*
X181865D01*
Y31003D01*
X182807Y31190D01*
X183606Y31724D01*
X184140Y32523D01*
X184327Y33465D01*
X184303D01*
Y39370D01*
X184307D01*
X184198Y40200D01*
X183878Y40972D01*
X183368Y41636D01*
X182705Y42145D01*
X181932Y42465D01*
X181102Y42575D01*
Y42571D01*
X177165D01*
Y42583D01*
X176888Y42638D01*
X176654Y42795D01*
X176497Y43030D01*
X176442Y43307D01*
X176429D01*
Y49213D01*
X176433D01*
X176324Y50042D01*
X176004Y50815D01*
X175494Y51479D01*
X174831Y51988D01*
X174058Y52308D01*
X173228Y52417D01*
Y52413D01*
X171260D01*
X171234Y52408D01*
X170867Y52560D01*
X170715Y52927D01*
X170721Y52953D01*
Y54705D01*
X172697D01*
Y63996D01*
X172492D01*
Y124893D01*
X172603Y124908D01*
X173855Y125426D01*
X174930Y126251D01*
X175755Y127326D01*
X176273Y128578D01*
X176277Y128607D01*
X176632Y128962D01*
X176890Y129585D01*
Y130258D01*
X176632Y130880D01*
X176156Y131356D01*
X175534Y131614D01*
X174860D01*
X174238Y131356D01*
X173762Y130880D01*
X173504Y130258D01*
Y129585D01*
X173762Y128962D01*
X173599Y128570D01*
X173170Y128011D01*
X172611Y127582D01*
X172492Y127533D01*
Y133858D01*
X172499D01*
X172377Y134785D01*
X172019Y135649D01*
X171450Y136391D01*
X170708Y136960D01*
X169844Y137318D01*
X168917Y137440D01*
Y137433D01*
X167852D01*
Y138009D01*
X160685D01*
Y134989D01*
X159449Y135111D01*
Y135091D01*
X149606D01*
Y135103D01*
X149329Y135158D01*
X149094Y135315D01*
X148938Y135550D01*
X148882Y135827D01*
X148870D01*
Y143701D01*
X148879D01*
X148751Y144669D01*
X148377Y145571D01*
X147783Y146346D01*
X147008Y146940D01*
X146402Y147191D01*
Y148009D01*
X139235D01*
Y144392D01*
X146169D01*
X146307Y144185D01*
X146404Y143701D01*
X146405D01*
Y135827D01*
X146402D01*
Y138009D01*
X139922D01*
Y139392D01*
X146402D01*
Y143009D01*
X139235D01*
Y140907D01*
X138295D01*
Y139187D01*
X137795D01*
Y138687D01*
X135668D01*
Y137468D01*
X135960D01*
Y136881D01*
X135941Y136866D01*
X135524Y136323D01*
X135262Y135690D01*
X135175Y135030D01*
X135171Y135011D01*
Y132466D01*
Y131757D01*
X134976D01*
Y131447D01*
X131890D01*
Y131447D01*
X130985Y131328D01*
X130142Y130979D01*
X129419Y130424D01*
X128864Y129700D01*
X128514Y128857D01*
X128395Y127953D01*
X128396D01*
Y116883D01*
X128228Y116479D01*
Y115805D01*
X128486Y115183D01*
X128962Y114707D01*
X129585Y114449D01*
X130258D01*
X130880Y114707D01*
X131356Y115183D01*
X131614Y115805D01*
Y116479D01*
X131447Y116883D01*
Y127953D01*
X131442Y127976D01*
X131566Y128276D01*
X131867Y128401D01*
X131890Y128396D01*
X134976D01*
Y128086D01*
X140615D01*
Y128689D01*
X142539D01*
X142742Y128486D01*
X143364Y128228D01*
X144037D01*
X144660Y128486D01*
X145136Y128962D01*
X145394Y129585D01*
Y130258D01*
X145136Y130880D01*
X144782Y131234D01*
X147061D01*
Y131233D01*
X147563Y131133D01*
X147989Y130849D01*
X148273Y130423D01*
X148373Y129921D01*
X148374D01*
X148469Y129195D01*
X148750Y128517D01*
X149196Y127936D01*
X149777Y127490D01*
X150454Y127209D01*
X151181Y127114D01*
Y127114D01*
X160382D01*
Y126988D01*
X158406D01*
Y117697D01*
X164823D01*
Y126988D01*
X162847D01*
Y127362D01*
X162866D01*
X162696Y128218D01*
X162211Y128943D01*
X161486Y129428D01*
X160630Y129598D01*
Y129579D01*
X151181D01*
Y129579D01*
X150939Y129679D01*
X150839Y129921D01*
X150847D01*
X150718Y130901D01*
X150340Y131814D01*
X149738Y132598D01*
X149703Y132626D01*
X159449D01*
X159468Y132630D01*
X160746Y132504D01*
X161993Y132126D01*
X163142Y131511D01*
X164149Y130685D01*
X164976Y129677D01*
X165590Y128528D01*
X165969Y127281D01*
X166094Y126003D01*
X166091Y125984D01*
Y78740D01*
X166078D01*
X166023Y78463D01*
X165866Y78228D01*
X165631Y78071D01*
X165354Y78016D01*
Y78023D01*
X164050Y77852D01*
X162834Y77348D01*
X161791Y76547D01*
X160990Y75503D01*
X160486Y74288D01*
X160314Y72983D01*
X160334D01*
Y64730D01*
Y63966D01*
X158358D01*
Y54675D01*
X160334D01*
Y51032D01*
X160331D01*
X160435Y50242D01*
X160741Y49505D01*
X161226Y48872D01*
X161859Y48387D01*
X162595Y48082D01*
X163386Y47978D01*
Y47980D01*
X171181D01*
X171182Y47978D01*
X171185Y47977D01*
Y47868D01*
X161817D01*
Y48159D01*
X160317D01*
Y44259D01*
Y40359D01*
X161817D01*
Y40650D01*
X167460D01*
X167283Y40420D01*
X166718Y39987D01*
X166060Y39714D01*
X165354Y39621D01*
Y39618D01*
X162402D01*
Y39622D01*
X161572Y39513D01*
X160799Y39193D01*
X160136Y38683D01*
X159626Y38020D01*
X159306Y37247D01*
X159197Y36417D01*
X159201D01*
Y33465D01*
X159181D01*
X159352Y32609D01*
X159836Y31884D01*
X160562Y31399D01*
X161417Y31229D01*
Y31236D01*
X161694Y31181D01*
X161929Y31024D01*
X162086Y30789D01*
X162141Y30512D01*
X162153D01*
Y22638D01*
X162134D01*
X162304Y21782D01*
X162789Y21057D01*
X163514Y20572D01*
X164370Y20402D01*
Y20421D01*
X164393Y20426D01*
X164744Y20280D01*
X164890Y19929D01*
X164885Y19906D01*
Y14759D01*
X163517D01*
Y10859D01*
Y6959D01*
X164517D01*
X164423Y6733D01*
X163872Y6014D01*
X163153Y5462D01*
X162510Y5196D01*
X161119D01*
X161049Y5365D01*
X161050Y5368D01*
Y6959D01*
X162517D01*
Y10859D01*
Y14759D01*
X161017D01*
Y14468D01*
X158717D01*
Y14759D01*
X157217D01*
Y10859D01*
Y6959D01*
X158585D01*
Y5368D01*
X158584D01*
X158607Y5196D01*
X155645D01*
Y4993D01*
X152890Y4982D01*
X153164Y5096D01*
X153822Y5601D01*
X154327Y6259D01*
X154645Y7025D01*
X154674Y7250D01*
X154717D01*
Y6959D01*
X156217D01*
Y10859D01*
Y14759D01*
X154717D01*
Y14468D01*
X148709D01*
Y11075D01*
X144863D01*
X144660Y11278D01*
X144037Y11535D01*
X143364D01*
X142742Y11278D01*
X142266Y10802D01*
X142008Y10179D01*
Y9506D01*
X142266Y8884D01*
X142742Y8407D01*
X143364Y8150D01*
X144037D01*
X144660Y8407D01*
X144863Y8610D01*
X148709D01*
Y7250D01*
X151911D01*
X151842Y7204D01*
X151575Y7151D01*
Y7138D01*
X144863D01*
X144660Y7341D01*
X144037Y7598D01*
X143364D01*
X142742Y7341D01*
X142266Y6865D01*
X142008Y6242D01*
Y5569D01*
X142243Y5001D01*
X135091D01*
Y20802D01*
X137662D01*
Y23586D01*
Y24727D01*
X141109D01*
Y24250D01*
Y21150D01*
Y17950D01*
Y16980D01*
X138957D01*
X138754Y17183D01*
X138132Y17441D01*
X137459D01*
X136836Y17183D01*
X136360Y16707D01*
X136102Y16085D01*
Y15411D01*
X136360Y14789D01*
X136836Y14313D01*
X137459Y14055D01*
X138132D01*
X138754Y14313D01*
X138957Y14516D01*
X143906D01*
Y14500D01*
X144694Y14657D01*
X144984Y14850D01*
X148326D01*
Y17950D01*
Y18427D01*
X149580D01*
Y18423D01*
X150417Y18533D01*
X151196Y18856D01*
X151865Y19369D01*
X152378Y20038D01*
X152436Y20178D01*
X152534Y20218D01*
X153010Y20695D01*
X153268Y21317D01*
Y21990D01*
X153010Y22613D01*
X152534Y23089D01*
X151911Y23346D01*
X151238D01*
X150759Y23148D01*
X150854Y23622D01*
X150851D01*
X150906Y23899D01*
X151063Y24134D01*
X151298Y24291D01*
X151575Y24346D01*
Y24358D01*
X153543D01*
Y24346D01*
X153820Y24291D01*
X154055Y24134D01*
X154212Y23899D01*
X154267Y23622D01*
X154279D01*
Y22815D01*
X154077Y22613D01*
X153819Y21990D01*
Y21317D01*
X154077Y20695D01*
X154553Y20218D01*
X155175Y19961D01*
X155849D01*
X156471Y20218D01*
X156947Y20695D01*
X157205Y21317D01*
Y21990D01*
X156947Y22613D01*
X156744Y22815D01*
Y23622D01*
X156748D01*
X156639Y24452D01*
X156319Y25224D01*
X155826Y25866D01*
X155849D01*
X156471Y26124D01*
X156947Y26600D01*
X157205Y27222D01*
Y27896D01*
X156947Y28518D01*
X156471Y28994D01*
X155849Y29252D01*
X155175D01*
X154553Y28994D01*
X154141Y28583D01*
X148674D01*
X148669Y28582D01*
X148669Y28592D01*
X148326Y28524D01*
Y30550D01*
Y33750D01*
Y36850D01*
Y40268D01*
X144984D01*
X144694Y40462D01*
X143906Y40618D01*
Y40602D01*
X138957D01*
X138754Y40805D01*
X138132Y41063D01*
X137459D01*
X136836Y40805D01*
X136360Y40329D01*
X136102Y39707D01*
Y39033D01*
X136360Y38411D01*
X136836Y37935D01*
X137459Y37677D01*
X138132D01*
X138754Y37935D01*
X138957Y38138D01*
X141109D01*
Y36850D01*
Y33750D01*
Y33491D01*
X117835D01*
Y33801D01*
X117577Y34424D01*
X117101Y34900D01*
X116479Y35157D01*
X115805D01*
X115183Y34900D01*
X114707Y34424D01*
X114449Y33801D01*
Y33128D01*
X114707Y32506D01*
X115183Y32029D01*
X115487Y31903D01*
X115607Y31724D01*
X116360Y31220D01*
X115805D01*
X115183Y30963D01*
X114707Y30487D01*
X114449Y29864D01*
Y29191D01*
X114707Y28569D01*
X115183Y28092D01*
X115805Y27835D01*
X116479D01*
X117101Y28092D01*
X117304Y28295D01*
X141109D01*
Y27450D01*
Y27191D01*
X136772D01*
Y27210D01*
X135932Y27043D01*
X135219Y26567D01*
X135136Y26442D01*
X133991D01*
Y23586D01*
Y23385D01*
X133738Y23335D01*
X133148Y22941D01*
X132753Y22350D01*
X132615Y21654D01*
X132626D01*
Y4354D01*
X105856D01*
Y111463D01*
X106024Y111868D01*
Y112541D01*
X105766Y113164D01*
X105290Y113640D01*
X104667Y113898D01*
X103994D01*
X103372Y113640D01*
X102895Y113164D01*
X102638Y112541D01*
Y111868D01*
X102805Y111463D01*
Y3937D01*
Y3937D01*
Y3122D01*
X102921Y2538D01*
X103252Y2043D01*
X103747Y1712D01*
X104331Y1596D01*
X104914Y1712D01*
X105179Y1889D01*
X133689D01*
Y1886D01*
X134227Y1993D01*
X134683Y2297D01*
X134842Y2536D01*
X143064D01*
X143059Y2508D01*
X143106Y2489D01*
X143106Y2536D01*
X143112D01*
X143158Y2545D01*
X143290Y2519D01*
X143319Y2525D01*
X143701Y2475D01*
X143715Y2476D01*
X143715Y2480D01*
X155353Y2527D01*
Y1484D01*
X157480D01*
Y484D01*
X155353D01*
Y0D01*
X45708D01*
X46400Y286D01*
X46958Y845D01*
X47216Y1469D01*
X45276D01*
Y1969D01*
X44776D01*
Y3909D01*
X44152Y3651D01*
X43990Y3489D01*
Y12259D01*
X44152Y12097D01*
X44776Y11839D01*
Y13780D01*
Y15720D01*
X44152Y15462D01*
X43990Y15300D01*
Y24070D01*
X44152Y23908D01*
X44776Y23650D01*
Y25591D01*
Y27531D01*
X44152Y27273D01*
X43990Y27111D01*
Y34657D01*
X43935Y34933D01*
X43779Y35168D01*
X43544Y35324D01*
X43268Y35379D01*
X10359D01*
X10363Y35512D01*
X10384Y35770D01*
X10385Y35781D01*
X10397Y35799D01*
X10471Y36171D01*
Y37844D01*
X10411Y38149D01*
X10381Y38634D01*
X10397Y38775D01*
X10415Y38875D01*
X10432Y38941D01*
X10439Y38959D01*
X10447Y38973D01*
X10496Y39047D01*
X10570Y39419D01*
Y40896D01*
X10496Y41268D01*
X10285Y41584D01*
X9969Y41795D01*
X9596Y41869D01*
X7923D01*
X7551Y41795D01*
X7235Y41584D01*
X7024Y41268D01*
X6950Y40896D01*
Y39419D01*
X7024Y39047D01*
X7073Y38973D01*
X7081Y38959D01*
X7087Y38941D01*
X7104Y38875D01*
X7119Y38792D01*
X7149Y38350D01*
X7141Y38257D01*
X7138Y38241D01*
X7122Y38217D01*
X7048Y37844D01*
Y36171D01*
X7112Y35852D01*
X7143Y35379D01*
X6531D01*
X6735Y35685D01*
X6831Y36171D01*
Y36508D01*
X4823D01*
X2814D01*
Y36171D01*
X2911Y35685D01*
X3115Y35379D01*
X0D01*
Y44843D01*
X286Y44152D01*
X845Y43593D01*
X1469Y43335D01*
Y45276D01*
Y47216D01*
X845Y46958D01*
X286Y46400D01*
X0Y45708D01*
Y54685D01*
X286Y53994D01*
X845Y53436D01*
X1469Y53177D01*
Y55118D01*
Y57059D01*
X845Y56800D01*
X286Y56242D01*
X0Y55551D01*
Y116918D01*
X3Y116902D01*
X464Y116212D01*
X537Y116164D01*
X736Y115964D01*
Y115157D01*
X717D01*
X887Y114302D01*
X1372Y113576D01*
X2097Y113092D01*
X2953Y112922D01*
Y112941D01*
X4452D01*
Y112331D01*
X6171D01*
Y111831D01*
X6671D01*
Y109705D01*
X7890D01*
Y109996D01*
X10383D01*
Y110599D01*
X11760D01*
Y105827D01*
X2244D01*
Y97323D01*
X3045D01*
Y90211D01*
X3044D01*
X3142Y89470D01*
X3427Y88780D01*
X3882Y88188D01*
X4475Y87733D01*
X5165Y87447D01*
X5906Y87349D01*
Y87350D01*
X53150D01*
Y87338D01*
X53427Y87283D01*
X53661Y87126D01*
X53818Y86891D01*
X53873Y86614D01*
X53886D01*
Y86614D01*
Y24784D01*
X53683Y24581D01*
X53425Y23959D01*
Y23285D01*
X53683Y22663D01*
X54159Y22187D01*
X54781Y21929D01*
X55455D01*
X56077Y22187D01*
X56553Y22663D01*
X56811Y23285D01*
Y23959D01*
X56553Y24581D01*
X56350Y24784D01*
Y86614D01*
Y86614D01*
X56354D01*
X56245Y87444D01*
X55925Y88217D01*
X55416Y88880D01*
X54752Y89389D01*
X53979Y89710D01*
X53150Y89819D01*
Y89815D01*
X5906D01*
X5899Y89814D01*
X5623Y89928D01*
X5508Y90204D01*
X5509Y90211D01*
Y97323D01*
X29083D01*
Y93701D01*
X29059D01*
X29245Y92768D01*
X29773Y91978D01*
X30564Y91450D01*
X31496Y91264D01*
Y91287D01*
X57087D01*
Y91275D01*
X57364Y91220D01*
X57598Y91063D01*
X57755Y90828D01*
X57810Y90551D01*
X57823D01*
Y7067D01*
X57620Y6865D01*
X57362Y6242D01*
Y5569D01*
X57620Y4947D01*
X58096Y4470D01*
X58718Y4213D01*
X59392D01*
X60014Y4470D01*
X60490Y4947D01*
X60748Y5569D01*
Y6242D01*
X60490Y6865D01*
X60287Y7067D01*
Y90551D01*
X60291D01*
X60182Y91381D01*
X59862Y92154D01*
X59353Y92817D01*
X58689Y93326D01*
X57916Y93647D01*
X57087Y93756D01*
Y93752D01*
X31559D01*
X31555Y93760D01*
X31547Y93764D01*
Y97323D01*
X33413D01*
Y97244D01*
X33398D01*
X33553Y96465D01*
X33994Y95805D01*
X34654Y95364D01*
X35433Y95209D01*
Y95224D01*
X61024D01*
Y95212D01*
X61301Y95157D01*
X61535Y95000D01*
X61692Y94765D01*
X61747Y94488D01*
X61760D01*
Y11004D01*
X61557Y10802D01*
X61299Y10179D01*
Y9506D01*
X61557Y8884D01*
X62033Y8407D01*
X62655Y8150D01*
X63329D01*
X63951Y8407D01*
X64427Y8884D01*
X64685Y9506D01*
Y10179D01*
X64427Y10802D01*
X64224Y11004D01*
Y94488D01*
X64228D01*
X64119Y95318D01*
X63799Y96091D01*
X63290Y96754D01*
X62626Y97263D01*
X61853Y97584D01*
X61024Y97693D01*
Y97689D01*
X41354D01*
Y101075D01*
X38976D01*
Y101575D01*
X38476D01*
Y106118D01*
X36598D01*
Y105827D01*
X26954D01*
Y105972D01*
X26943Y106031D01*
X27133Y107476D01*
X27713Y108877D01*
X28636Y110080D01*
X29840Y111003D01*
X31241Y111584D01*
X31316Y111594D01*
Y110950D01*
X39321D01*
Y110659D01*
X40540D01*
Y112786D01*
Y114913D01*
X39321D01*
Y114621D01*
X31316D01*
Y113687D01*
X31212Y113677D01*
X29738Y113230D01*
X28410Y112520D01*
Y115024D01*
X27333D01*
X27057Y115493D01*
X27067Y115493D01*
X27020Y115607D01*
Y121821D01*
X27256D01*
Y123771D01*
Y125721D01*
X26256D01*
Y125430D01*
X18673D01*
Y124997D01*
X17585Y124854D01*
X16392Y124360D01*
X16119Y124150D01*
X16376Y124485D01*
X16676Y125208D01*
X16770Y125924D01*
X16786Y125931D01*
X16791Y125945D01*
X18181D01*
Y125760D01*
X21099D01*
Y127728D01*
Y129697D01*
Y129882D01*
X24606D01*
Y129863D01*
X25382Y130017D01*
X26040Y130456D01*
X26479Y131114D01*
X26633Y131890D01*
X26620D01*
X26518Y132666D01*
X26219Y133389D01*
X25742Y134010D01*
X25217Y134413D01*
X26256D01*
Y134121D01*
X27256D01*
Y136071D01*
Y138021D01*
X27020D01*
Y143504D01*
X27043D01*
X26857Y144436D01*
X26329Y145227D01*
X25539Y145755D01*
X24606Y145940D01*
Y145917D01*
X23622D01*
Y145921D01*
X22925Y146012D01*
X22484Y146195D01*
X22476Y146203D01*
X22376Y146302D01*
Y149759D01*
X22386Y149761D01*
X22443Y149766D01*
X22479D01*
Y148714D01*
X24606D01*
X26733D01*
Y149934D01*
X26442D01*
Y152426D01*
X22771D01*
Y152231D01*
X22443D01*
X22386Y152236D01*
X22376Y152237D01*
Y153865D01*
X17009D01*
Y145348D01*
X19228D01*
X19274Y145340D01*
X19356Y145318D01*
X19447Y145284D01*
X19548Y145238D01*
X19658Y145178D01*
X19768Y145109D01*
X19929Y144987D01*
X19958Y144950D01*
X20217Y144751D01*
X20219Y144749D01*
X20220Y144748D01*
X21031Y144126D01*
X22281Y143609D01*
X23622Y143432D01*
Y143453D01*
X24544D01*
X24547Y143445D01*
X24555Y143441D01*
Y139489D01*
X24551Y139498D01*
X23947Y140286D01*
X23160Y140890D01*
X22243Y141269D01*
X21260Y141399D01*
Y141390D01*
X12992D01*
X12965Y141384D01*
X12254Y141526D01*
X11629Y141944D01*
X11211Y142569D01*
X11069Y143280D01*
X11075Y143307D01*
Y145281D01*
X11080Y145338D01*
X11082Y145348D01*
X12526D01*
Y153865D01*
X7159D01*
Y152237D01*
X7149Y152236D01*
X7092Y152231D01*
X6757D01*
Y152426D01*
X3086D01*
Y149934D01*
X2903D01*
Y156431D01*
X3543Y156346D01*
Y156349D01*
X16338D01*
Y156340D01*
X17500Y156492D01*
X18582Y156941D01*
X19388Y157559D01*
X23149D01*
Y159803D01*
X23819D01*
Y159799D01*
X24544Y159895D01*
X25219Y160174D01*
X25798Y160619D01*
X26243Y161199D01*
X26523Y161874D01*
X26618Y162598D01*
X26617D01*
X26726Y163428D01*
X27046Y164201D01*
X27556Y164865D01*
X27839Y165082D01*
Y164772D01*
X31807D01*
Y165807D01*
X31988D01*
X31995Y165808D01*
X32311Y165678D01*
X32442Y165362D01*
X32441Y165354D01*
X32420D01*
X32582Y164540D01*
X33043Y163850D01*
X33642Y163450D01*
X33519Y163152D01*
X33464Y162736D01*
X31807D01*
Y163772D01*
X27839D01*
Y162583D01*
X28130D01*
Y160315D01*
Y157756D01*
X28799D01*
Y156187D01*
X28788D01*
X28799Y156072D01*
Y150675D01*
X28788D01*
X28912Y149420D01*
X29278Y148213D01*
X29872Y147100D01*
X30672Y146125D01*
X31648Y145325D01*
X32760Y144730D01*
X33794Y144417D01*
Y143440D01*
X39434D01*
Y144043D01*
X46654D01*
Y144042D01*
X47161Y143941D01*
X47591Y143654D01*
X47701Y143490D01*
X47520Y143053D01*
Y142380D01*
X47777Y141758D01*
X47980Y141555D01*
Y137304D01*
X38807D01*
Y137730D01*
X29256D01*
Y138021D01*
X28256D01*
Y136071D01*
Y134121D01*
X29256D01*
Y134413D01*
X38807D01*
Y134839D01*
X48473D01*
Y134824D01*
X49233Y134976D01*
X49878Y135406D01*
X50308Y136051D01*
X50459Y136811D01*
X50445D01*
Y141555D01*
X50648Y141758D01*
X50906Y142380D01*
Y143053D01*
X50648Y143675D01*
X50172Y144152D01*
X50130Y144169D01*
X49945Y144617D01*
X49341Y145404D01*
X48554Y146008D01*
X47637Y146387D01*
X46654Y146517D01*
Y146508D01*
X39434D01*
Y147111D01*
X33794D01*
Y146563D01*
X33031Y146879D01*
X32123Y147576D01*
X31427Y148484D01*
X30989Y149540D01*
X30842Y150653D01*
X30846Y150675D01*
Y151494D01*
X31648Y150837D01*
X32760Y150242D01*
X33794Y149928D01*
Y148952D01*
X39434D01*
Y149555D01*
X52902D01*
Y134843D01*
X52889D01*
X52834Y134566D01*
X52677Y134331D01*
X52442Y134174D01*
X52165Y134119D01*
Y134106D01*
X37840D01*
X37721Y134083D01*
X36382D01*
Y131665D01*
Y129697D01*
Y127728D01*
Y125760D01*
X39299D01*
Y127728D01*
Y127913D01*
X40290D01*
Y127886D01*
X39999D01*
Y126667D01*
X42126D01*
X44253D01*
Y127886D01*
X43962D01*
Y130379D01*
X40290D01*
Y129961D01*
X39299D01*
Y131642D01*
X52165D01*
Y131638D01*
X52902Y131735D01*
Y108315D01*
X52863Y108407D01*
X52305Y108966D01*
X51681Y109224D01*
Y107283D01*
Y105343D01*
X52305Y105601D01*
X52863Y106159D01*
X52902Y106252D01*
Y101378D01*
X52882D01*
X53052Y100522D01*
X53537Y99797D01*
X54263Y99312D01*
X55118Y99142D01*
Y99161D01*
X64961D01*
Y99149D01*
X65238Y99094D01*
X65472Y98937D01*
X65629Y98702D01*
X65684Y98425D01*
X65697D01*
Y30689D01*
X65494Y30487D01*
X65236Y29864D01*
Y29191D01*
X65494Y28569D01*
X65970Y28092D01*
X66592Y27835D01*
X67266D01*
X67888Y28092D01*
X68364Y28569D01*
X68622Y29191D01*
Y29864D01*
X68364Y30487D01*
X68161Y30689D01*
Y98425D01*
X68165D01*
X68056Y99255D01*
X67736Y100028D01*
X67227Y100691D01*
X66563Y101200D01*
X65790Y101521D01*
X64961Y101630D01*
Y101626D01*
X55366D01*
Y134814D01*
X55370Y134843D01*
X55366D01*
Y150591D01*
X55370D01*
X55366Y150610D01*
Y151575D01*
X55385D01*
X55215Y153297D01*
X54713Y154954D01*
X53897Y156480D01*
X52799Y157818D01*
X51461Y158917D01*
X49934Y159733D01*
X48278Y160235D01*
X46555Y160405D01*
Y160386D01*
X39587D01*
Y160480D01*
X50886D01*
X50894Y160482D01*
X52048Y160368D01*
X53165Y160029D01*
X54194Y159479D01*
X55097Y158738D01*
X55837Y157836D01*
X56388Y156807D01*
X56726Y155689D01*
X56840Y154535D01*
X56839Y154528D01*
Y143878D01*
X56636Y143675D01*
X56378Y143053D01*
Y142380D01*
X56636Y141758D01*
X56839Y141555D01*
Y105315D01*
X56819D01*
X56989Y104459D01*
X57474Y103734D01*
X58200Y103249D01*
X59055Y103079D01*
Y103098D01*
X68898D01*
Y103086D01*
X69175Y103031D01*
X69409Y102874D01*
X69566Y102639D01*
X69621Y102362D01*
X69634D01*
Y34626D01*
X69431Y34424D01*
X69173Y33801D01*
Y33128D01*
X69431Y32506D01*
X69907Y32029D01*
X70529Y31772D01*
X71203D01*
X71825Y32029D01*
X72301Y32506D01*
X72559Y33128D01*
Y33801D01*
X72301Y34424D01*
X72098Y34626D01*
Y102362D01*
X72102D01*
X71993Y103192D01*
X71673Y103964D01*
X71164Y104628D01*
X70500Y105138D01*
X69727Y105458D01*
X68898Y105567D01*
Y105563D01*
X59303D01*
Y141555D01*
X59506Y141758D01*
X59764Y142380D01*
Y143053D01*
X59506Y143675D01*
X59303Y143878D01*
Y154528D01*
X59320D01*
X59158Y156173D01*
X58678Y157755D01*
X57899Y159213D01*
X56850Y160492D01*
X55572Y161540D01*
X54114Y162320D01*
X52531Y162800D01*
X50886Y162962D01*
Y162945D01*
X39587D01*
Y165142D01*
X39878D01*
Y166331D01*
X35909D01*
Y165295D01*
X34547D01*
Y165323D01*
X34525Y165332D01*
X34516Y165354D01*
X34517D01*
X34325Y166322D01*
X33776Y167142D01*
X32956Y167691D01*
X31988Y167883D01*
Y167854D01*
X31516D01*
Y168228D01*
X28130D01*
Y167565D01*
X27182Y167172D01*
X26088Y166333D01*
X25249Y165239D01*
X24721Y163965D01*
X24541Y162598D01*
X24551D01*
X24495Y162319D01*
X24336Y162081D01*
X24099Y161923D01*
X23819Y161867D01*
Y161851D01*
X23149D01*
Y164095D01*
X15433D01*
Y159399D01*
X3543D01*
Y159408D01*
X3302Y159456D01*
X3097Y159593D01*
X2960Y159798D01*
X2912Y160039D01*
X2903D01*
Y160590D01*
X10592D01*
Y169016D01*
X2903D01*
Y179984D01*
X3209Y179587D01*
X3768Y179157D01*
X4419Y178887D01*
X5026Y178808D01*
X5118Y178789D01*
X12480D01*
Y178031D01*
X24528D01*
Y182598D01*
X12480D01*
Y181840D01*
X5462D01*
Y183685D01*
X5997D01*
Y188189D01*
Y192693D01*
X4670D01*
Y192402D01*
X0D01*
Y216535D01*
X43673D01*
Y206384D01*
X54516D01*
X65358D01*
Y216535D01*
X111705D01*
Y207425D01*
X74803D01*
X74104Y207333D01*
X73453Y207063D01*
X72894Y206634D01*
X72465Y206075D01*
X72195Y205423D01*
X72103Y204724D01*
Y191299D01*
X72108Y191263D01*
X71971Y189874D01*
X71555Y188503D01*
X70880Y187239D01*
X69971Y186132D01*
X68863Y185223D01*
X67600Y184548D01*
X66229Y184132D01*
X64839Y183995D01*
X64803Y184000D01*
X43228D01*
Y184567D01*
X35512D01*
Y178032D01*
X43228D01*
Y178599D01*
X64803D01*
Y178583D01*
X66792Y178740D01*
X68733Y179205D01*
X70576Y179969D01*
X72278Y181012D01*
X73795Y182308D01*
X75091Y183825D01*
X76134Y185526D01*
X76897Y187370D01*
X77363Y189310D01*
X77520Y191299D01*
X77503D01*
Y202024D01*
X111705D01*
Y195770D01*
X132807D01*
Y216535D01*
X137167D01*
Y157545D01*
D02*
G37*
G36*
X193764Y157533D02*
X193814Y156712D01*
X193837Y156558D01*
X193895Y156310D01*
X193931Y156217D01*
X193971Y156144D01*
X192053D01*
X192093Y156217D01*
X192128Y156310D01*
X192160Y156424D01*
X192187Y156558D01*
X192228Y156887D01*
X192253Y157297D01*
X192262Y157790D01*
X193762D01*
X193764Y157533D01*
D02*
G37*
G36*
X193765Y154904D02*
X193811Y154301D01*
X193839Y154129D01*
X193912Y153828D01*
X193958Y153700D01*
X194010Y153586D01*
X194069Y153487D01*
X191955D01*
X192013Y153586D01*
X192065Y153700D01*
X192111Y153828D01*
X192151Y153971D01*
X192185Y154129D01*
X192234Y154487D01*
X192250Y154688D01*
X192262Y155134D01*
X193762D01*
X193765Y154904D01*
D02*
G37*
G36*
X21656Y151903D02*
X21688Y151818D01*
X21740Y151743D01*
X21811Y151678D01*
X21903Y151623D01*
X22014Y151578D01*
X22144Y151543D01*
X22295Y151518D01*
X22465Y151503D01*
X22656Y151498D01*
Y150498D01*
X22465Y150493D01*
X22295Y150478D01*
X22144Y150453D01*
X22014Y150418D01*
X21903Y150373D01*
X21811Y150318D01*
X21740Y150253D01*
X21688Y150178D01*
X21656Y150093D01*
X21644Y149998D01*
Y151998D01*
X21656Y151903D01*
D02*
G37*
G36*
X7891Y149998D02*
X7879Y150093D01*
X7847Y150178D01*
X7795Y150253D01*
X7724Y150318D01*
X7632Y150373D01*
X7521Y150418D01*
X7391Y150453D01*
X7240Y150478D01*
X7070Y150493D01*
X6880Y150498D01*
Y151498D01*
X7070Y151503D01*
X7240Y151518D01*
X7391Y151543D01*
X7521Y151578D01*
X7632Y151623D01*
X7724Y151678D01*
X7795Y151743D01*
X7847Y151818D01*
X7879Y151903D01*
X7891Y151998D01*
Y149998D01*
D02*
G37*
G36*
X21655Y146068D02*
X21660Y146045D01*
X21675Y146014D01*
X21700Y145977D01*
X21735Y145932D01*
X21835Y145821D01*
X21974Y145683D01*
X22154Y145515D01*
X20660Y145322D01*
X20497Y145464D01*
X20179Y145703D01*
X20024Y145801D01*
X19872Y145885D01*
X19722Y145953D01*
X19574Y146007D01*
X19430Y146046D01*
X19287Y146071D01*
X19148Y146080D01*
X21655Y146068D01*
D02*
G37*
G36*
X10747Y146068D02*
X10662Y146036D01*
X10588Y145984D01*
X10522Y145913D01*
X10468Y145821D01*
X10423Y145710D01*
X10387Y145579D01*
X10362Y145429D01*
X10347Y145258D01*
X10343Y145068D01*
X9342D01*
X9337Y145258D01*
X9323Y145429D01*
X9297Y145579D01*
X9262Y145710D01*
X9217Y145821D01*
X9162Y145913D01*
X9098Y145984D01*
X9023Y146036D01*
X8937Y146068D01*
X8843Y146080D01*
X10842D01*
X10747Y146068D01*
D02*
G37*
G36*
X7149Y149761D02*
X7159Y149759D01*
Y145348D01*
X8604D01*
X8605Y145338D01*
X8610Y145281D01*
Y143307D01*
X8596D01*
X8746Y142169D01*
X9185Y141109D01*
X9884Y140199D01*
X10794Y139500D01*
X11854Y139061D01*
X12992Y138911D01*
Y138925D01*
X15318D01*
X14922Y138621D01*
X14382Y137918D01*
X14043Y137099D01*
X14040Y137072D01*
X13125D01*
Y136668D01*
X2903D01*
Y137060D01*
X3437Y136839D01*
Y138779D01*
Y140720D01*
X2903Y140499D01*
Y146495D01*
X4421D01*
Y148214D01*
X4921D01*
Y148714D01*
X7048D01*
Y149766D01*
X7092D01*
X7149Y149761D01*
D02*
G37*
G36*
X18673Y134413D02*
X21122D01*
X21138Y134374D01*
X20140D01*
Y133374D01*
X21390D01*
Y133979D01*
X21643Y133650D01*
X22222Y133205D01*
X22897Y132926D01*
X23622Y132830D01*
Y132822D01*
X23979Y132751D01*
X24281Y132549D01*
X24484Y132247D01*
X24547Y131929D01*
X21390D01*
Y132374D01*
X19640D01*
X17890D01*
Y131929D01*
X17087D01*
Y132360D01*
X14961D01*
X12834D01*
Y131929D01*
X9435D01*
Y131944D01*
X8402Y131808D01*
X7439Y131409D01*
X6613Y130775D01*
X5979Y129948D01*
X5912Y129788D01*
X5054D01*
Y126117D01*
X7125D01*
Y124516D01*
X8844D01*
Y124016D01*
X9344D01*
Y121889D01*
X10563D01*
Y122180D01*
X10668D01*
Y120579D01*
X12387D01*
Y120079D01*
X12888D01*
Y117952D01*
X14107D01*
Y118243D01*
X16599D01*
Y121070D01*
X17109Y121833D01*
X17914Y122371D01*
X18673Y122522D01*
Y122113D01*
X24555D01*
Y115487D01*
X24556Y115482D01*
X24538Y115482D01*
X24570Y115316D01*
X22479D01*
Y113689D01*
X24198D01*
Y113189D01*
X24699D01*
Y111062D01*
X25918D01*
Y111353D01*
X27047D01*
X26213Y110336D01*
X25487Y108978D01*
X25040Y107505D01*
X24889Y105972D01*
X24907D01*
Y105827D01*
X14224D01*
Y110105D01*
X14756D01*
Y109814D01*
X15975D01*
Y111941D01*
Y114068D01*
X14756D01*
Y113777D01*
X14222D01*
X13772Y114364D01*
X13030Y114933D01*
X12167Y115290D01*
X11240Y115412D01*
Y115406D01*
X3201D01*
Y115964D01*
X3404Y116167D01*
X3661Y116789D01*
Y117463D01*
X3404Y118085D01*
X2928Y118561D01*
X2903Y118571D01*
Y134620D01*
X13125D01*
Y134579D01*
X12834D01*
Y133360D01*
X14961D01*
X17087D01*
Y134579D01*
X16796D01*
Y137072D01*
X16318D01*
X16380Y137164D01*
X16812Y137453D01*
X17323Y137554D01*
Y137559D01*
X18673D01*
Y134413D01*
D02*
G37*
G36*
X9607Y39433D02*
X9614Y39328D01*
X9817D01*
X9777Y39253D01*
X9741Y39154D01*
X9709Y39030D01*
X9682Y38882D01*
X9656Y38653D01*
X9697Y37984D01*
X9719Y37936D01*
X9613D01*
X9606Y37490D01*
X7913D01*
X7911Y37782D01*
X7901Y37936D01*
X7801D01*
X7823Y37984D01*
X7842Y38062D01*
X7858Y38169D01*
X7874Y38342D01*
X7838Y38882D01*
X7810Y39030D01*
X7779Y39154D01*
X7743Y39253D01*
X7703Y39328D01*
X7910D01*
X7913Y39747D01*
X9606D01*
X9607Y39433D01*
D02*
G37*
G36*
X9699Y36034D02*
X9681Y35958D01*
X9666Y35852D01*
X9641Y35551D01*
X9616Y34590D01*
X9615Y34275D01*
X7922Y34263D01*
X7921Y34576D01*
X7824Y36029D01*
X7801Y36080D01*
X9719D01*
X9699Y36034D01*
D02*
G37*
G36*
X193046Y27931D02*
Y25147D01*
X193649D01*
Y24881D01*
X193046D01*
Y22388D01*
X192755D01*
Y21169D01*
X194882D01*
Y20669D01*
X195382D01*
Y18950D01*
X196850D01*
Y0D01*
X163544D01*
Y484D01*
X161417D01*
Y1484D01*
X163544D01*
Y2536D01*
X167314D01*
X167348Y2502D01*
X167970Y2244D01*
X168644D01*
X169266Y2502D01*
X169742Y2978D01*
X170000Y3600D01*
Y4274D01*
X169742Y4896D01*
X169266Y5372D01*
X168644Y5630D01*
X167970D01*
X167348Y5372D01*
X166976Y5001D01*
X166215D01*
X166354Y5170D01*
X166903Y6196D01*
X167222Y7250D01*
X168749D01*
X168832Y6976D01*
X169770Y5221D01*
X171032Y3683D01*
X172570Y2421D01*
X174324Y1484D01*
X176228Y906D01*
X178208Y711D01*
Y736D01*
X178347D01*
Y721D01*
X179934Y877D01*
X181461Y1340D01*
X182868Y2092D01*
X184101Y3104D01*
X185113Y4337D01*
X185151Y4409D01*
X186732D01*
Y12547D01*
X188173D01*
Y9358D01*
X191748D01*
Y11952D01*
X192376Y11470D01*
X192963Y10705D01*
X193189Y10160D01*
Y4409D01*
X196181D01*
Y13307D01*
X194006D01*
X193186Y13980D01*
X192974Y14093D01*
X192925Y14138D01*
X192012Y14687D01*
X191929Y14716D01*
X191691Y14875D01*
X190748Y15063D01*
Y15039D01*
X189173D01*
Y15063D01*
X188873Y15003D01*
X188830Y15012D01*
X188824D01*
X188824Y15059D01*
X188784Y15043D01*
X188789Y15012D01*
X186408D01*
X186413Y15043D01*
X186373Y15059D01*
X186372Y15012D01*
X186367D01*
X186324Y15003D01*
X186024Y15063D01*
Y15039D01*
X184449D01*
Y15063D01*
X184148Y15003D01*
X184106Y15012D01*
X184100D01*
X184100Y15059D01*
X184060Y15043D01*
X184065Y15012D01*
X181726D01*
Y17950D01*
Y21150D01*
Y24250D01*
Y24936D01*
X189345D01*
Y24933D01*
X190025Y25022D01*
X190658Y25284D01*
X191202Y25702D01*
X191619Y26246D01*
X191882Y26879D01*
X191971Y27559D01*
X191984D01*
X192042Y27850D01*
X192207Y28097D01*
X192454Y28262D01*
X192745Y28319D01*
Y28335D01*
X193046D01*
Y27931D01*
D02*
G37*
G36*
X175338Y12547D02*
X183740D01*
Y7165D01*
X183265Y6018D01*
X182363Y4842D01*
X181186Y3940D01*
X179816Y3372D01*
X178414Y3187D01*
X178347Y3201D01*
X178208D01*
X178172Y3194D01*
X176712Y3338D01*
X175273Y3774D01*
X173947Y4483D01*
X172785Y5436D01*
X171832Y6599D01*
X171483Y7250D01*
X174126D01*
Y12037D01*
X174140Y12057D01*
X174689Y12425D01*
X175322Y12550D01*
X175338Y12547D01*
D02*
G37*
%LPC*%
G36*
X38682Y211535D02*
X37696D01*
X36784Y211158D01*
X36086Y210460D01*
X35709Y209548D01*
Y208562D01*
X36086Y207650D01*
X36784Y206952D01*
X37696Y206575D01*
X38682D01*
X39594Y206952D01*
X40292Y207650D01*
X40669Y208562D01*
Y209548D01*
X40292Y210460D01*
X39594Y211158D01*
X38682Y211535D01*
D02*
G37*
G36*
X11911D02*
X10924D01*
X10012Y211158D01*
X9315Y210460D01*
X8937Y209548D01*
Y208562D01*
X9315Y207650D01*
X10012Y206952D01*
X10924Y206575D01*
X11911D01*
X12822Y206952D01*
X13520Y207650D01*
X13898Y208562D01*
Y209548D01*
X13520Y210460D01*
X12822Y211158D01*
X11911Y211535D01*
D02*
G37*
G36*
X18323Y204150D02*
X15461D01*
Y198728D01*
X18323D01*
Y204150D01*
D02*
G37*
G36*
X14461D02*
X11598D01*
Y198728D01*
X14461D01*
Y204150D01*
D02*
G37*
G36*
X65358Y205384D02*
X55016D01*
Y195041D01*
X65358D01*
Y205384D01*
D02*
G37*
G36*
X54016D02*
X43673D01*
Y195041D01*
X54016D01*
Y205384D01*
D02*
G37*
G36*
X37716Y203858D02*
X31575D01*
Y192615D01*
X31240Y193051D01*
X27874Y196417D01*
Y203858D01*
X21732D01*
Y192598D01*
X24055D01*
X26050Y190604D01*
X24528D01*
Y191260D01*
X12480D01*
Y190703D01*
X10592D01*
Y192402D01*
X8324D01*
Y192693D01*
X6997D01*
Y188189D01*
Y183685D01*
X8324D01*
Y183976D01*
X10592D01*
Y187251D01*
X12480D01*
Y186693D01*
X24528D01*
Y187152D01*
X26654D01*
Y185512D01*
X34370D01*
Y192047D01*
X31854D01*
X31669Y192492D01*
X31587Y192598D01*
X36670D01*
Y192047D01*
X35512D01*
Y185512D01*
X43228D01*
Y192047D01*
X42070D01*
Y193504D01*
X42083D01*
X41940Y194955D01*
X41517Y196350D01*
X40830Y197636D01*
X39905Y198763D01*
X38778Y199688D01*
X37716Y200255D01*
Y203858D01*
D02*
G37*
G36*
X18323Y197728D02*
X15461D01*
Y192307D01*
X18323D01*
Y197728D01*
D02*
G37*
G36*
X14461D02*
X11598D01*
Y192307D01*
X14461D01*
Y197728D01*
D02*
G37*
G36*
X59555Y190917D02*
Y189476D01*
X60996D01*
X60737Y190100D01*
X60179Y190658D01*
X59555Y190917D01*
D02*
G37*
G36*
X58555D02*
X57931Y190658D01*
X57373Y190100D01*
X57114Y189476D01*
X58555D01*
Y190917D01*
D02*
G37*
G36*
X60996Y188476D02*
X59555D01*
Y187036D01*
X60179Y187294D01*
X60737Y187852D01*
X60996Y188476D01*
D02*
G37*
G36*
X58555D02*
X57114D01*
X57373Y187852D01*
X57931Y187294D01*
X58555Y187036D01*
Y188476D01*
D02*
G37*
G36*
X34661Y184858D02*
X31012D01*
Y181799D01*
X34661D01*
Y184858D01*
D02*
G37*
G36*
X30012D02*
X26362D01*
Y181799D01*
X30012D01*
Y184858D01*
D02*
G37*
G36*
X34661Y180799D02*
X31012D01*
Y177740D01*
X34661D01*
Y180799D01*
D02*
G37*
G36*
X30012D02*
X26362D01*
Y177740D01*
X30012D01*
Y180799D01*
D02*
G37*
G36*
X23441Y171866D02*
X19791D01*
Y168807D01*
X23441D01*
Y171866D01*
D02*
G37*
G36*
X18791D02*
X15142D01*
Y168807D01*
X18791D01*
Y171866D01*
D02*
G37*
G36*
X39878Y168520D02*
X38394D01*
Y167331D01*
X39878D01*
Y168520D01*
D02*
G37*
G36*
X37394D02*
X35909D01*
Y167331D01*
X37394D01*
Y168520D01*
D02*
G37*
G36*
X23441Y167807D02*
X19791D01*
Y164748D01*
X23441D01*
Y167807D01*
D02*
G37*
G36*
X18791D02*
X15142D01*
Y164748D01*
X18791D01*
Y167807D01*
D02*
G37*
G36*
X186586Y155405D02*
X185146D01*
Y153965D01*
X185770Y154223D01*
X186328Y154781D01*
X186586Y155405D01*
D02*
G37*
G36*
X155799D02*
X154359D01*
X154617Y154781D01*
X155175Y154223D01*
X155799Y153965D01*
Y155405D01*
D02*
G37*
G36*
X191084Y154717D02*
X189575D01*
Y153110D01*
X189813D01*
X190299Y153206D01*
X190711Y153482D01*
X190987Y153894D01*
X191084Y154380D01*
Y154717D01*
D02*
G37*
G36*
X188575D02*
X187066D01*
Y154380D01*
X187163Y153894D01*
X187438Y153482D01*
X187850Y153206D01*
X188337Y153110D01*
X188575D01*
Y154717D01*
D02*
G37*
G36*
X146402Y153009D02*
X139235D01*
Y152433D01*
X123642D01*
Y152434D01*
X122910Y152337D01*
X122228Y152055D01*
X121642Y151605D01*
X121193Y151020D01*
X120911Y150338D01*
X120814Y149606D01*
X120815D01*
Y72028D01*
X120612Y71825D01*
X120354Y71203D01*
Y70529D01*
X120612Y69907D01*
X120815Y69704D01*
Y36595D01*
X120612Y36392D01*
X120354Y35770D01*
Y35096D01*
X120612Y34474D01*
X121088Y33998D01*
X121711Y33740D01*
X122384D01*
X123006Y33998D01*
X123482Y34474D01*
X123740Y35096D01*
Y35770D01*
X123482Y36392D01*
X123280Y36595D01*
Y69704D01*
X123482Y69907D01*
X123740Y70529D01*
Y71203D01*
X123482Y71825D01*
X123280Y72028D01*
Y149606D01*
X123279Y149609D01*
X123385Y149863D01*
X123640Y149969D01*
X123642Y149969D01*
X139235D01*
Y149392D01*
X146402D01*
Y153009D01*
D02*
G37*
G36*
X168143Y153301D02*
X164768D01*
Y151701D01*
X168143D01*
Y153301D01*
D02*
G37*
G36*
X163768D02*
X160393D01*
Y151701D01*
X163768D01*
Y153301D01*
D02*
G37*
G36*
X168143Y150701D02*
X164768D01*
Y149101D01*
X168143D01*
Y150701D01*
D02*
G37*
G36*
X163768D02*
X160393D01*
Y149101D01*
X163768D01*
Y150701D01*
D02*
G37*
G36*
X26733Y147714D02*
X25106D01*
Y146495D01*
X26733D01*
Y147714D01*
D02*
G37*
G36*
X24106D02*
X22479D01*
Y146495D01*
X24106D01*
Y147714D01*
D02*
G37*
G36*
X189813Y147776D02*
X189575D01*
Y146169D01*
X191084D01*
Y146506D01*
X190987Y146992D01*
X190711Y147404D01*
X190299Y147680D01*
X189813Y147776D01*
D02*
G37*
G36*
X188575D02*
X188337D01*
X187850Y147680D01*
X187438Y147404D01*
X187163Y146992D01*
X187066Y146506D01*
Y146169D01*
X188575D01*
Y147776D01*
D02*
G37*
G36*
X193848Y150432D02*
X192175D01*
X191803Y150358D01*
X191487Y150147D01*
X191276Y149831D01*
X191202Y149459D01*
Y147982D01*
X191239Y147794D01*
X191239Y147791D01*
X191241Y147786D01*
X191276Y147610D01*
X191331Y147527D01*
X191332Y147525D01*
X191372Y147457D01*
X191396Y147405D01*
X191419Y147341D01*
X191472Y147123D01*
X191456Y147044D01*
X191441Y146988D01*
X191435Y146973D01*
X191424Y146953D01*
X191374Y146878D01*
X191300Y146506D01*
Y144898D01*
X191084D01*
Y145169D01*
X189075D01*
X187066D01*
Y144898D01*
X181579D01*
Y142331D01*
X186909D01*
Y141831D01*
X187409D01*
Y138764D01*
X191361D01*
X191357Y138749D01*
X191338Y138701D01*
X190138D01*
Y133346D01*
X191373D01*
Y133330D01*
Y133283D01*
X187409D01*
Y130217D01*
X186909D01*
Y129717D01*
X181579D01*
Y127150D01*
X181736D01*
Y122843D01*
X185236D01*
X188736D01*
Y127150D01*
X191683D01*
X191652Y127036D01*
X191633Y126988D01*
X189902D01*
Y117697D01*
X196319D01*
Y126988D01*
X194784D01*
X194765Y127036D01*
X194733Y127155D01*
X194706Y127318D01*
X194696Y127432D01*
Y130212D01*
X194711Y130463D01*
X194722Y130546D01*
X195044D01*
Y131257D01*
X195046Y131267D01*
X195044Y131276D01*
Y133330D01*
Y133346D01*
X195689D01*
Y138701D01*
X194489D01*
X194470Y138749D01*
X194438Y138867D01*
X194411Y139031D01*
X194401Y139145D01*
Y143544D01*
X194410Y143665D01*
X194452Y143975D01*
X194476Y144084D01*
X194503Y144181D01*
X194530Y144255D01*
X194554Y144307D01*
X194593Y144375D01*
X194594Y144378D01*
X194649Y144460D01*
X194684Y144636D01*
X194686Y144641D01*
X194686Y144644D01*
X194723Y144833D01*
Y146506D01*
X194649Y146878D01*
X194599Y146953D01*
X194589Y146973D01*
X194588Y146976D01*
X194552Y147128D01*
X194574Y147234D01*
X194601Y147330D01*
X194628Y147405D01*
X194652Y147457D01*
X194692Y147525D01*
X194693Y147527D01*
X194748Y147610D01*
X194783Y147786D01*
X194784Y147791D01*
X194784Y147794D01*
X194822Y147982D01*
Y149459D01*
X194748Y149831D01*
X194537Y150147D01*
X194221Y150358D01*
X193848Y150432D01*
D02*
G37*
G36*
X167852Y148009D02*
X160685D01*
Y144392D01*
X167852D01*
Y148009D01*
D02*
G37*
G36*
X137295Y140907D02*
X135668D01*
Y139687D01*
X137295D01*
Y140907D01*
D02*
G37*
G36*
X155849Y143425D02*
X155175D01*
X154553Y143167D01*
X154077Y142691D01*
X153819Y142069D01*
Y141395D01*
X154077Y140773D01*
X154553Y140297D01*
X155175Y140039D01*
X155634D01*
X156043Y139958D01*
Y139969D01*
X160685D01*
Y139392D01*
X167852D01*
Y143009D01*
X160685D01*
Y142433D01*
X157054D01*
X156947Y142691D01*
X156471Y143167D01*
X155849Y143425D01*
D02*
G37*
G36*
X186409Y141331D02*
X181579D01*
Y138764D01*
X186409D01*
Y141331D01*
D02*
G37*
G36*
Y133283D02*
X181579D01*
Y130717D01*
X186409D01*
Y133283D01*
D02*
G37*
G36*
X44253Y125667D02*
X42626D01*
Y124448D01*
X44253D01*
Y125667D01*
D02*
G37*
G36*
X41626D02*
X39999D01*
Y124448D01*
X41626D01*
Y125667D01*
D02*
G37*
G36*
X29256Y125721D02*
X28256D01*
Y123771D01*
Y121821D01*
X28492D01*
Y118898D01*
X28477D01*
X28632Y118119D01*
X29073Y117459D01*
X29733Y117017D01*
X30512Y116862D01*
Y116878D01*
X47244D01*
Y116866D01*
X47521Y116810D01*
X47756Y116654D01*
X47913Y116419D01*
X47968Y116142D01*
X47980D01*
Y113366D01*
X47777Y113164D01*
X47520Y112541D01*
Y111868D01*
X47777Y111246D01*
X48254Y110769D01*
X48876Y110512D01*
X49549D01*
X50172Y110769D01*
X50648Y111246D01*
X50906Y111868D01*
Y112541D01*
X50648Y113164D01*
X50445Y113366D01*
Y116142D01*
X50449D01*
X50340Y116971D01*
X50019Y117744D01*
X49510Y118408D01*
X48938Y118846D01*
X49213D01*
Y118843D01*
X50042Y118952D01*
X50815Y119272D01*
X51479Y119781D01*
X51988Y120445D01*
X52308Y121218D01*
X52417Y122047D01*
X52413D01*
Y122854D01*
X52616Y123057D01*
X52874Y123679D01*
Y124353D01*
X52616Y124975D01*
X52140Y125451D01*
X51518Y125709D01*
X50844D01*
X50222Y125451D01*
X49746Y124975D01*
X49488Y124353D01*
Y123679D01*
X49746Y123057D01*
X49949Y122854D01*
Y122047D01*
X49936D01*
X49881Y121770D01*
X49724Y121536D01*
X49490Y121379D01*
X49213Y121324D01*
Y121311D01*
X36862D01*
Y122113D01*
X38807D01*
Y125430D01*
X29256D01*
Y125721D01*
D02*
G37*
G36*
X141201Y126996D02*
X134784D01*
Y117705D01*
X141201D01*
Y126996D01*
D02*
G37*
G36*
X188736Y121843D02*
X185736D01*
Y117405D01*
X188736D01*
Y121843D01*
D02*
G37*
G36*
X184736D02*
X181736D01*
Y117405D01*
X184736D01*
Y121843D01*
D02*
G37*
G36*
X42759Y114913D02*
X41540D01*
Y113286D01*
X42759D01*
Y114913D01*
D02*
G37*
G36*
Y112286D02*
X41540D01*
Y110659D01*
X42759D01*
Y112286D01*
D02*
G37*
G36*
X148701Y126996D02*
X142284D01*
Y117705D01*
X144437D01*
Y113366D01*
X144234Y113164D01*
X143976Y112541D01*
Y111868D01*
X144234Y111246D01*
X144710Y110769D01*
X145333Y110512D01*
X146006D01*
X146628Y110769D01*
X147105Y111246D01*
X147362Y111868D01*
Y112541D01*
X147105Y113164D01*
X146902Y113366D01*
Y117705D01*
X148701D01*
Y126996D01*
D02*
G37*
G36*
X5671Y111331D02*
X4452D01*
Y109705D01*
X5671D01*
Y111331D01*
D02*
G37*
G36*
X50681Y109224D02*
X50057Y108966D01*
X49499Y108407D01*
X49240Y107783D01*
X50681D01*
Y109224D01*
D02*
G37*
G36*
X156949Y126988D02*
X150532D01*
Y117697D01*
X152508D01*
Y109626D01*
X152108Y109227D01*
X151850Y108605D01*
Y107931D01*
X152108Y107309D01*
X152584Y106833D01*
X153207Y106575D01*
X153880D01*
X154502Y106833D01*
X154979Y107309D01*
X155236Y107931D01*
Y108605D01*
X154979Y109227D01*
X154973Y109233D01*
Y117697D01*
X156949D01*
Y126988D01*
D02*
G37*
G36*
X50681Y106783D02*
X49240D01*
X49499Y106159D01*
X50057Y105601D01*
X50681Y105343D01*
Y106783D01*
D02*
G37*
G36*
X41354Y106118D02*
X39476D01*
Y102075D01*
X41354D01*
Y106118D01*
D02*
G37*
G36*
X3831Y68717D02*
X1953D01*
Y64673D01*
X3831D01*
Y68717D01*
D02*
G37*
G36*
X15567D02*
X13492D01*
Y64173D01*
X12492D01*
Y68717D01*
X10417D01*
Y68425D01*
X6709D01*
Y68717D01*
X4831D01*
Y64173D01*
Y59630D01*
X6709D01*
Y59921D01*
X6974D01*
X7005Y59834D01*
X7036Y59694D01*
X7076Y59322D01*
Y56847D01*
X7055Y56546D01*
X6826D01*
Y55835D01*
X6824Y55825D01*
X6826Y55816D01*
Y53690D01*
Y50906D01*
X7076D01*
Y49050D01*
X7066Y48753D01*
X7042Y48494D01*
X7040Y48477D01*
X7024Y48453D01*
X6950Y48081D01*
Y46407D01*
X7024Y46035D01*
X7073Y45961D01*
X7081Y45947D01*
X7087Y45929D01*
X7104Y45863D01*
X7119Y45780D01*
X7133Y45572D01*
X7123Y45477D01*
X7104Y45377D01*
X7087Y45311D01*
X7081Y45293D01*
X7073Y45279D01*
X7024Y45205D01*
X6950Y44833D01*
Y43356D01*
X7024Y42984D01*
X7235Y42668D01*
X7551Y42457D01*
X7923Y42383D01*
X9596D01*
X9969Y42457D01*
X10285Y42668D01*
X10496Y42984D01*
X10570Y43356D01*
Y44833D01*
X10496Y45205D01*
X10447Y45279D01*
X10439Y45293D01*
X10432Y45311D01*
X10415Y45377D01*
X10400Y45460D01*
X10346Y46271D01*
X10373Y46407D01*
Y48081D01*
X10312Y48385D01*
X10305Y48504D01*
X12913D01*
Y53858D01*
X10497D01*
Y55816D01*
X10499Y55825D01*
X10497Y55835D01*
Y56546D01*
X10279D01*
X10247Y57017D01*
Y59370D01*
X10255Y59481D01*
X10284Y59681D01*
X10318Y59834D01*
X10349Y59921D01*
X10417D01*
Y59630D01*
X10811D01*
Y57488D01*
X16142D01*
X21472D01*
Y59921D01*
X41063D01*
Y68425D01*
X15567D01*
Y68717D01*
D02*
G37*
G36*
X141492Y64288D02*
X138492D01*
Y59851D01*
X141492D01*
Y64288D01*
D02*
G37*
G36*
X137492D02*
X134492D01*
Y59851D01*
X137492D01*
Y64288D01*
D02*
G37*
G36*
X196610Y64258D02*
X193610D01*
Y59820D01*
X196610D01*
Y64258D01*
D02*
G37*
G36*
X192610D02*
X189610D01*
Y59820D01*
X192610D01*
Y64258D01*
D02*
G37*
G36*
X3831Y63673D02*
X1953D01*
Y59630D01*
X3831D01*
Y63673D01*
D02*
G37*
G36*
X43807Y57059D02*
Y55618D01*
X45248D01*
X44989Y56242D01*
X44431Y56800D01*
X43807Y57059D01*
D02*
G37*
G36*
X42807D02*
X42183Y56800D01*
X41625Y56242D01*
X41366Y55618D01*
X42807D01*
Y57059D01*
D02*
G37*
G36*
X24122D02*
Y55618D01*
X25563D01*
X25304Y56242D01*
X24746Y56800D01*
X24122Y57059D01*
D02*
G37*
G36*
X23122D02*
X22498Y56800D01*
X21940Y56242D01*
X21681Y55618D01*
X23122D01*
Y57059D01*
D02*
G37*
G36*
X2468D02*
Y55618D01*
X3909D01*
X3651Y56242D01*
X3093Y56800D01*
X2468Y57059D01*
D02*
G37*
G36*
X188195Y63988D02*
X181778D01*
Y54697D01*
X188195D01*
Y63988D01*
D02*
G37*
G36*
X130258Y72559D02*
X129585D01*
X128962Y72301D01*
X128486Y71825D01*
X128228Y71203D01*
Y70529D01*
X128486Y69907D01*
X128962Y69431D01*
X129585Y69173D01*
X130258D01*
X130880Y69431D01*
X131083Y69634D01*
X151575D01*
Y69621D01*
X151852Y69566D01*
X152087Y69409D01*
X152243Y69175D01*
X152299Y68898D01*
X152311D01*
Y63988D01*
X150532D01*
Y54697D01*
X156949D01*
Y63988D01*
X154776D01*
Y68898D01*
X154779D01*
X154670Y69727D01*
X154350Y70500D01*
X153841Y71164D01*
X153177Y71673D01*
X152404Y71993D01*
X151575Y72102D01*
Y72098D01*
X131083D01*
X130880Y72301D01*
X130258Y72559D01*
D02*
G37*
G36*
X126321Y143425D02*
X125647D01*
X125025Y143167D01*
X124549Y142691D01*
X124291Y142069D01*
Y141395D01*
X124549Y140773D01*
X124752Y140570D01*
Y66929D01*
Y36595D01*
X124549Y36392D01*
X124291Y35770D01*
Y35096D01*
X124549Y34474D01*
X125025Y33998D01*
X125647Y33740D01*
X126321D01*
X126943Y33998D01*
X127419Y34474D01*
X127677Y35096D01*
Y35770D01*
X127419Y36392D01*
X127217Y36595D01*
Y65697D01*
X143701D01*
Y65684D01*
X143978Y65629D01*
X144213Y65472D01*
X144369Y65238D01*
X144424Y64961D01*
X144437D01*
Y63966D01*
X142658D01*
Y54675D01*
X149075D01*
Y63966D01*
X146902D01*
Y64961D01*
X146905D01*
X146796Y65790D01*
X146476Y66563D01*
X145967Y67227D01*
X145303Y67736D01*
X144530Y68056D01*
X143701Y68165D01*
Y68161D01*
X127217D01*
Y140570D01*
X127419Y140773D01*
X127677Y141395D01*
Y142069D01*
X127419Y142691D01*
X126943Y143167D01*
X126321Y143425D01*
D02*
G37*
G36*
X141492Y58851D02*
X138492D01*
Y54413D01*
X141492D01*
Y58851D01*
D02*
G37*
G36*
X137492D02*
X134492D01*
Y54413D01*
X137492D01*
Y58851D01*
D02*
G37*
G36*
X196610Y58820D02*
X193610D01*
Y54383D01*
X196610D01*
Y58820D01*
D02*
G37*
G36*
X192610D02*
X189610D01*
Y54383D01*
X192610D01*
Y58820D01*
D02*
G37*
G36*
X21472Y56488D02*
X16642D01*
Y53921D01*
X21472D01*
Y56488D01*
D02*
G37*
G36*
X15642D02*
X10811D01*
Y53921D01*
X15642D01*
Y56488D01*
D02*
G37*
G36*
X45248Y54618D02*
X43807D01*
Y53177D01*
X44431Y53436D01*
X44989Y53994D01*
X45248Y54618D01*
D02*
G37*
G36*
X42807D02*
X41366D01*
X41625Y53994D01*
X42183Y53436D01*
X42807Y53177D01*
Y54618D01*
D02*
G37*
G36*
X25563D02*
X24122D01*
Y53177D01*
X24746Y53436D01*
X25304Y53994D01*
X25563Y54618D01*
D02*
G37*
G36*
X23122D02*
X21681D01*
X21940Y53994D01*
X22498Y53436D01*
X23122Y53177D01*
Y54618D01*
D02*
G37*
G36*
X3909D02*
X2468D01*
Y53177D01*
X3093Y53436D01*
X3651Y53994D01*
X3909Y54618D01*
D02*
G37*
G36*
X85146Y53122D02*
Y51681D01*
X86586D01*
X86328Y52305D01*
X85770Y52863D01*
X85146Y53122D01*
D02*
G37*
G36*
X84146D02*
X83522Y52863D01*
X82964Y52305D01*
X82705Y51681D01*
X84146D01*
Y53122D01*
D02*
G37*
G36*
X86586Y50681D02*
X85146D01*
Y49240D01*
X85770Y49499D01*
X86328Y50057D01*
X86586Y50681D01*
D02*
G37*
G36*
X84146D02*
X82705D01*
X82964Y50057D01*
X83522Y49499D01*
X84146Y49240D01*
Y50681D01*
D02*
G37*
G36*
X5463Y49351D02*
X5224D01*
Y47744D01*
X6733D01*
Y48081D01*
X6636Y48567D01*
X6361Y48979D01*
X5949Y49255D01*
X5463Y49351D01*
D02*
G37*
G36*
X140907Y49371D02*
X139687D01*
Y47744D01*
X140907D01*
Y49371D01*
D02*
G37*
G36*
X4224Y49351D02*
X3986D01*
X3500Y49255D01*
X3088Y48979D01*
X2812Y48567D01*
X2716Y48081D01*
Y47114D01*
X2468Y47216D01*
Y45276D01*
Y43335D01*
X3093Y43593D01*
X3651Y44152D01*
X3953Y44881D01*
Y45144D01*
X3986Y45137D01*
X4224D01*
Y47244D01*
Y49351D01*
D02*
G37*
G36*
X21472Y48441D02*
X16642D01*
Y45874D01*
X21472D01*
Y48441D01*
D02*
G37*
G36*
X15642D02*
X10811D01*
Y45874D01*
X15642D01*
Y48441D01*
D02*
G37*
G36*
X24122Y47216D02*
Y45776D01*
X25563D01*
X25304Y46400D01*
X24746Y46958D01*
X24122Y47216D01*
D02*
G37*
G36*
X23122D02*
X22498Y46958D01*
X21940Y46400D01*
X21681Y45776D01*
X23122D01*
Y47216D01*
D02*
G37*
G36*
X79077Y125709D02*
X78403D01*
X77781Y125451D01*
X77305Y124975D01*
X77047Y124353D01*
Y123679D01*
X77305Y123057D01*
X77508Y122854D01*
Y48406D01*
X77305Y48203D01*
X77047Y47581D01*
Y46907D01*
X77305Y46285D01*
X77781Y45809D01*
X78403Y45551D01*
X79077D01*
X79699Y45809D01*
X80175Y46285D01*
X80433Y46907D01*
Y47581D01*
X80175Y48203D01*
X79972Y48406D01*
Y122854D01*
X80175Y123057D01*
X80433Y123679D01*
Y124353D01*
X80175Y124975D01*
X79699Y125451D01*
X79077Y125709D01*
D02*
G37*
G36*
X6733Y46744D02*
X5224D01*
Y45137D01*
X5463D01*
X5949Y45234D01*
X6361Y45509D01*
X6636Y45921D01*
X6733Y46407D01*
Y46744D01*
D02*
G37*
G36*
X145669Y50449D02*
X144840Y50340D01*
X144067Y50019D01*
X143403Y49510D01*
X142894Y48846D01*
X142842Y48721D01*
X142742Y48679D01*
X142266Y48203D01*
X142008Y47581D01*
Y46907D01*
X142266Y46285D01*
X142742Y45809D01*
X143364Y45551D01*
X144037D01*
X144660Y45809D01*
X145136Y46285D01*
X145394Y46907D01*
Y47581D01*
X145286Y47842D01*
X145392Y47913D01*
X145669Y47968D01*
Y47980D01*
X151575D01*
Y47967D01*
X151842Y47914D01*
X151911Y47868D01*
X148709D01*
Y44539D01*
X140615D01*
Y45117D01*
X140907D01*
Y46744D01*
X139187D01*
Y47244D01*
X138687D01*
Y49371D01*
X137468D01*
Y49080D01*
X134976D01*
Y45408D01*
X135171D01*
Y45143D01*
X134976D01*
Y41471D01*
X140615D01*
Y42075D01*
X148709D01*
Y40650D01*
X157817D01*
Y40359D01*
X159317D01*
Y44259D01*
Y48159D01*
X157817D01*
Y47868D01*
X154674D01*
X154645Y48093D01*
X154327Y48859D01*
X153822Y49518D01*
X153164Y50023D01*
X152397Y50340D01*
X151575Y50449D01*
Y50445D01*
X145669D01*
Y50449D01*
D02*
G37*
G36*
X25563Y44776D02*
X24122D01*
Y43335D01*
X24746Y43593D01*
X25304Y44152D01*
X25563Y44776D01*
D02*
G37*
G36*
X23122D02*
X21681D01*
X21940Y44152D01*
X22498Y43593D01*
X23122Y43335D01*
Y44776D01*
D02*
G37*
G36*
X21472Y44874D02*
X16642D01*
Y42307D01*
X21472D01*
Y44874D01*
D02*
G37*
G36*
X15642D02*
X10811D01*
Y42307D01*
X15642D01*
Y44874D01*
D02*
G37*
G36*
X79240Y39342D02*
Y37902D01*
X80681D01*
X80422Y38526D01*
X79864Y39084D01*
X79240Y39342D01*
D02*
G37*
G36*
X78240D02*
X77616Y39084D01*
X77058Y38526D01*
X76799Y37902D01*
X78240D01*
Y39342D01*
D02*
G37*
G36*
X45776D02*
Y37902D01*
X47216D01*
X46958Y38526D01*
X46400Y39084D01*
X45776Y39342D01*
D02*
G37*
G36*
X44776D02*
X44152Y39084D01*
X43593Y38526D01*
X43335Y37902D01*
X44776D01*
Y39342D01*
D02*
G37*
G36*
X33965D02*
Y37902D01*
X35405D01*
X35147Y38526D01*
X34589Y39084D01*
X33965Y39342D01*
D02*
G37*
G36*
X32965D02*
X32341Y39084D01*
X31782Y38526D01*
X31524Y37902D01*
X32965D01*
Y39342D01*
D02*
G37*
G36*
X112541Y113898D02*
X111868D01*
X111246Y113640D01*
X110769Y113164D01*
X110512Y112541D01*
Y111868D01*
X110769Y111246D01*
X110972Y111043D01*
Y40532D01*
X110769Y40329D01*
X110512Y39707D01*
Y39033D01*
X110769Y38411D01*
X111246Y37935D01*
X111868Y37677D01*
X112541D01*
X113164Y37935D01*
X113640Y38411D01*
X113898Y39033D01*
Y39707D01*
X113640Y40329D01*
X113437Y40532D01*
Y111043D01*
X113640Y111246D01*
X113898Y111868D01*
Y112541D01*
X113640Y113164D01*
X113164Y113640D01*
X112541Y113898D01*
D02*
G37*
G36*
X5561Y39115D02*
X5323D01*
Y37508D01*
X6831D01*
Y37844D01*
X6735Y38331D01*
X6459Y38743D01*
X6047Y39018D01*
X5561Y39115D01*
D02*
G37*
G36*
X4323D02*
X4085D01*
X3599Y39018D01*
X3186Y38743D01*
X2911Y38331D01*
X2814Y37844D01*
Y37508D01*
X4323D01*
Y39115D01*
D02*
G37*
G36*
X80681Y36902D02*
X79240D01*
Y35461D01*
X79864Y35719D01*
X80422Y36278D01*
X80681Y36902D01*
D02*
G37*
G36*
X78240D02*
X76799D01*
X77058Y36278D01*
X77616Y35719D01*
X78240Y35461D01*
Y36902D01*
D02*
G37*
G36*
X47216D02*
X45776D01*
Y35461D01*
X46400Y35719D01*
X46958Y36278D01*
X47216Y36902D01*
D02*
G37*
G36*
X44776D02*
X43335D01*
X43593Y36278D01*
X44152Y35719D01*
X44776Y35461D01*
Y36902D01*
D02*
G37*
G36*
X35405D02*
X33965D01*
Y35461D01*
X34589Y35719D01*
X35147Y36278D01*
X35405Y36902D01*
D02*
G37*
G36*
X32965D02*
X31524D01*
X31782Y36278D01*
X32341Y35719D01*
X32965Y35461D01*
Y36902D01*
D02*
G37*
G36*
X45776Y27531D02*
Y26091D01*
X47216D01*
X46958Y26715D01*
X46400Y27273D01*
X45776Y27531D01*
D02*
G37*
G36*
X47216Y25091D02*
X45776D01*
Y23650D01*
X46400Y23908D01*
X46958Y24467D01*
X47216Y25091D01*
D02*
G37*
G36*
X69398Y21626D02*
Y20185D01*
X70838D01*
X70580Y20809D01*
X70022Y21367D01*
X69398Y21626D01*
D02*
G37*
G36*
X68398D02*
X67774Y21367D01*
X67216Y20809D01*
X66957Y20185D01*
X68398D01*
Y21626D01*
D02*
G37*
G36*
X75140Y113898D02*
X74466D01*
X73844Y113640D01*
X73368Y113164D01*
X73110Y112541D01*
Y111868D01*
X73368Y111246D01*
X73571Y111043D01*
Y20847D01*
X73368Y20644D01*
X73110Y20022D01*
Y19348D01*
X73368Y18726D01*
X73844Y18250D01*
X74466Y17992D01*
X75140D01*
X75762Y18250D01*
X76238Y18726D01*
X76496Y19348D01*
Y20022D01*
X76238Y20644D01*
X76035Y20847D01*
Y111043D01*
X76238Y111246D01*
X76496Y111868D01*
Y112541D01*
X76238Y113164D01*
X75762Y113640D01*
X75140Y113898D01*
D02*
G37*
G36*
X70838Y19185D02*
X69398D01*
Y17744D01*
X70022Y18003D01*
X70580Y18561D01*
X70838Y19185D01*
D02*
G37*
G36*
X68398D02*
X66957D01*
X67216Y18561D01*
X67774Y18003D01*
X68398Y17744D01*
Y19185D01*
D02*
G37*
G36*
X45776Y15720D02*
Y14279D01*
X47216D01*
X46958Y14904D01*
X46400Y15462D01*
X45776Y15720D01*
D02*
G37*
G36*
X108605Y109961D02*
X107931D01*
X107309Y109703D01*
X106833Y109227D01*
X106575Y108605D01*
Y107931D01*
X106833Y107309D01*
X107035Y107106D01*
Y16910D01*
X106833Y16707D01*
X106575Y16085D01*
Y15411D01*
X106833Y14789D01*
X107309Y14313D01*
X107931Y14055D01*
X108605D01*
X109227Y14313D01*
X109703Y14789D01*
X109961Y15411D01*
Y16085D01*
X109703Y16707D01*
X109500Y16910D01*
Y107106D01*
X109703Y107309D01*
X109961Y107931D01*
Y108605D01*
X109703Y109227D01*
X109227Y109703D01*
X108605Y109961D01*
D02*
G37*
G36*
X47216Y13280D02*
X45776D01*
Y11839D01*
X46400Y12097D01*
X46958Y12655D01*
X47216Y13280D01*
D02*
G37*
G36*
X45776Y3909D02*
Y2468D01*
X47216D01*
X46958Y3093D01*
X46400Y3651D01*
X45776Y3909D01*
D02*
G37*
%LPD*%
G36*
X193764Y147986D02*
X193770Y147891D01*
X194069D01*
X194010Y147792D01*
X193958Y147678D01*
X193912Y147550D01*
X193872Y147407D01*
X193839Y147249D01*
X193821Y147119D01*
X193837Y147010D01*
X193895Y146763D01*
X193931Y146670D01*
X193971Y146597D01*
X193772D01*
X193762Y146244D01*
X192262D01*
X192259Y146474D01*
X192249Y146597D01*
X192053D01*
X192093Y146670D01*
X192128Y146763D01*
X192160Y146876D01*
X192187Y147010D01*
X192203Y147138D01*
X192185Y147249D01*
X192111Y147550D01*
X192065Y147678D01*
X192013Y147792D01*
X191955Y147891D01*
X192256D01*
X192262Y148242D01*
X193762D01*
X193764Y147986D01*
D02*
G37*
G36*
X193912Y144642D02*
X193860Y144528D01*
X193814Y144400D01*
X193774Y144257D01*
X193740Y144100D01*
X193691Y143741D01*
X193676Y143540D01*
X193663Y143094D01*
X192163Y143125D01*
X192162Y143402D01*
X192093Y144624D01*
X192074Y144695D01*
X192053Y144741D01*
X193971D01*
X193912Y144642D01*
D02*
G37*
G36*
X193671Y139195D02*
X193693Y138940D01*
X193731Y138714D01*
X193783Y138518D01*
X193851Y138352D01*
X193933Y138216D01*
X194031Y138109D01*
X194143Y138032D01*
X194271Y137985D01*
X194413Y137968D01*
X191413D01*
X191556Y137985D01*
X191683Y138032D01*
X191796Y138109D01*
X191893Y138216D01*
X191976Y138352D01*
X192043Y138518D01*
X192096Y138714D01*
X192133Y138940D01*
X192156Y139195D01*
X192163Y139480D01*
X193663D01*
X193671Y139195D01*
D02*
G37*
G36*
X194254Y131252D02*
X194192Y131207D01*
X194138Y131132D01*
X194090Y131027D01*
X194050Y130892D01*
X194017Y130727D01*
X193991Y130532D01*
X193962Y130052D01*
X193959Y129767D01*
X192459D01*
X192455Y130052D01*
X192400Y130727D01*
X192367Y130892D01*
X192327Y131027D01*
X192280Y131132D01*
X192225Y131207D01*
X192163Y131252D01*
X192094Y131267D01*
X194324D01*
X194254Y131252D01*
D02*
G37*
G36*
X193966Y127482D02*
X193989Y127227D01*
X194026Y127001D01*
X194079Y126806D01*
X194146Y126639D01*
X194229Y126503D01*
X194326Y126397D01*
X194439Y126320D01*
X194566Y126273D01*
X194709Y126256D01*
X191709D01*
X191851Y126273D01*
X191979Y126320D01*
X192091Y126397D01*
X192189Y126503D01*
X192271Y126639D01*
X192339Y126806D01*
X192391Y127001D01*
X192429Y127227D01*
X192451Y127482D01*
X192459Y127768D01*
X193959D01*
X193966Y127482D01*
D02*
G37*
G36*
X10088Y60625D02*
X9966Y60574D01*
X9859Y60490D01*
X9766Y60371D01*
X9687Y60219D01*
X9623Y60032D01*
X9572Y59812D01*
X9537Y59558D01*
X9515Y59271D01*
X9508Y58949D01*
X7815D01*
X7808Y59271D01*
X7750Y59812D01*
X7700Y60032D01*
X7636Y60219D01*
X7557Y60371D01*
X7464Y60490D01*
X7356Y60574D01*
X7235Y60625D01*
X7099Y60642D01*
X10224D01*
X10088Y60625D01*
D02*
G37*
G36*
X9511Y57197D02*
X9575Y56248D01*
X9605Y56096D01*
X9639Y55978D01*
X9680Y55893D01*
X9725Y55842D01*
X9776Y55825D01*
X7547D01*
X7598Y55842D01*
X7643Y55893D01*
X7683Y55978D01*
X7718Y56096D01*
X7748Y56248D01*
X7772Y56435D01*
X7804Y56909D01*
X7815Y57518D01*
X9508D01*
X9511Y57197D01*
D02*
G37*
G36*
X9508Y49983D02*
X9509Y49669D01*
X9599Y48220D01*
X9620Y48172D01*
X7703D01*
X7724Y48220D01*
X7743Y48298D01*
X7760Y48406D01*
X7787Y48709D01*
X7811Y49385D01*
X7815Y49983D01*
X9508Y49983D01*
D02*
G37*
G36*
X9608Y46470D02*
X9619Y46316D01*
X9620D01*
X9619Y46309D01*
X9682Y45369D01*
X9709Y45222D01*
X9741Y45098D01*
X9777Y44999D01*
X9817Y44924D01*
X9608D01*
X9606Y44603D01*
X7913Y44478D01*
X7911Y44770D01*
X7901Y44924D01*
X7703D01*
X7743Y44999D01*
X7779Y45098D01*
X7810Y45222D01*
X7838Y45369D01*
X7859Y45554D01*
X7838Y45871D01*
X7810Y46018D01*
X7779Y46142D01*
X7743Y46241D01*
X7703Y46316D01*
X7907D01*
X7913Y46762D01*
X9606D01*
X9608Y46470D01*
D02*
G37*
%LPC*%
G36*
X7048Y147714D02*
X5421D01*
Y146495D01*
X7048D01*
Y147714D01*
D02*
G37*
G36*
X4437Y140720D02*
Y139279D01*
X5878D01*
X5619Y139903D01*
X5061Y140462D01*
X4437Y140720D01*
D02*
G37*
G36*
X5878Y138279D02*
X4437D01*
Y136839D01*
X5061Y137097D01*
X5619Y137655D01*
X5878Y138279D01*
D02*
G37*
G36*
X19140Y134374D02*
X17890D01*
Y133374D01*
X19140D01*
Y134374D01*
D02*
G37*
G36*
X8344Y123516D02*
X7125D01*
Y121889D01*
X8344D01*
Y123516D01*
D02*
G37*
G36*
X22153Y121035D02*
Y119595D01*
X23594D01*
X23336Y120219D01*
X22777Y120777D01*
X22153Y121035D01*
D02*
G37*
G36*
X21154D02*
X20530Y120777D01*
X19971Y120219D01*
X19713Y119595D01*
X21154D01*
Y121035D01*
D02*
G37*
G36*
X11887Y119579D02*
X10668D01*
Y117952D01*
X11887D01*
Y119579D01*
D02*
G37*
G36*
X23594Y118595D02*
X22153D01*
Y117154D01*
X22777Y117412D01*
X23336Y117971D01*
X23594Y118595D01*
D02*
G37*
G36*
X21154D02*
X19713D01*
X19971Y117971D01*
X20530Y117412D01*
X21154Y117154D01*
Y118595D01*
D02*
G37*
G36*
X18194Y114068D02*
X16975D01*
Y112441D01*
X18194D01*
Y114068D01*
D02*
G37*
G36*
X23698Y112689D02*
X22479D01*
Y111062D01*
X23698D01*
Y112689D01*
D02*
G37*
G36*
X18194Y111441D02*
X16975D01*
Y109814D01*
X18194D01*
Y111441D01*
D02*
G37*
G36*
X194382Y20169D02*
X192755D01*
Y18950D01*
X194382D01*
Y20169D01*
D02*
G37*
G36*
X191748Y8358D02*
X190461D01*
Y4118D01*
X191748D01*
Y8358D01*
D02*
G37*
G36*
X189461D02*
X188173D01*
Y4118D01*
X189461D01*
Y8358D01*
D02*
G37*
G36*
X178650Y9815D02*
Y8374D01*
X180090D01*
X179832Y8998D01*
X179274Y9556D01*
X178650Y9815D01*
D02*
G37*
G36*
X177650D02*
X177026Y9556D01*
X176468Y8998D01*
X176209Y8374D01*
X177650D01*
Y9815D01*
D02*
G37*
G36*
X180090Y7374D02*
X178650D01*
Y5933D01*
X179274Y6192D01*
X179832Y6750D01*
X180090Y7374D01*
D02*
G37*
G36*
X177650D02*
X176209D01*
X176468Y6750D01*
X177026Y6192D01*
X177650Y5933D01*
Y7374D01*
D02*
G37*
%LPD*%
D12*
X193110Y122343D02*
G03*
X193209Y122441I0J98D01*
G01*
X161614Y127362D02*
G03*
X160630Y128347I-984J0D01*
G01*
X149606Y129921D02*
G03*
X151181Y128347I1575J0D01*
G01*
X149606Y129921D02*
G03*
X147061Y132466I-2545J0D01*
G01*
X167323Y125984D02*
G03*
X159449Y133858I-7874J0D01*
G01*
X147638Y135827D02*
G03*
X149606Y133858I1969J0D01*
G01*
X137795Y136403D02*
G03*
X137998Y136201I203J0D01*
G01*
X165354Y38386D02*
G03*
X169317Y42349I0J3963D01*
G01*
X162402Y38386D02*
G03*
X160433Y36417I0J-1969D01*
G01*
X163386Y30512D02*
G03*
X161417Y32480I-1969J0D01*
G01*
X160433Y33465D02*
G03*
X161417Y32480I984J0D01*
G01*
X137795Y136403D02*
G03*
X136403Y135011I0J-1392D01*
G01*
X166117Y19906D02*
G03*
X164370Y21654I-1747J0D01*
G01*
X163386Y22638D02*
G03*
X164370Y21654I984J0D01*
G01*
X161417Y3768D02*
G03*
X166117Y8468I0J4700D01*
G01*
X168138Y3768D02*
G03*
X168307Y3937I0J169D01*
G01*
X159817Y5368D02*
G03*
X161417Y3768I1600J0D01*
G01*
X134435Y22230D02*
G03*
X133858Y21654I0J-576D01*
G01*
X143290Y3751D02*
G03*
X143112Y3768I-182J-983D01*
G01*
X143290Y3751D02*
G03*
X143710Y3713I411J2154D01*
G01*
X134336Y3768D02*
G03*
X133689Y3122I0J-647D01*
G01*
D02*
G03*
X133858Y3291I0J169D01*
G01*
X13581Y111831D02*
G03*
X11240Y114173I-2342J0D01*
G01*
X12992Y111635D02*
G03*
X12795Y111831I-197J0D01*
G01*
X1969Y115157D02*
G03*
X2953Y114173I984J0D01*
G01*
X30315Y93701D02*
G03*
X31496Y92520I1181J0D01*
G01*
X34646Y97244D02*
G03*
X35433Y96457I787J0D01*
G01*
X153543Y68898D02*
G03*
X151575Y70866I-1969J0D01*
G01*
X123642Y151201D02*
G03*
X122047Y149606I0J-1595D01*
G01*
X171260Y35433D02*
G03*
X167323Y31496I0J-3937D01*
G01*
X153543Y56695D02*
G03*
X153740Y56498I197J0D01*
G01*
X161566Y51032D02*
G03*
X163386Y49213I1820J0D01*
G01*
X147638Y143701D02*
G03*
X145138Y146201I-2500J0D01*
G01*
X165354Y76772D02*
G03*
X161566Y72983I0J-3788D01*
G01*
X172417Y48055D02*
G03*
X171260Y49213I-1158J0D01*
G01*
X165354Y76772D02*
G03*
X167323Y78740I0J1969D01*
G01*
X144717Y38559D02*
G03*
X143906Y39370I-811J0D01*
G01*
X145669Y119329D02*
G03*
X145492Y119506I-177J0D01*
G01*
X145669Y56673D02*
G03*
X145866Y56476I197J0D01*
G01*
X145669Y64961D02*
G03*
X143701Y66929I-1969J0D01*
G01*
X155512Y141732D02*
G03*
X156043Y141201I532J0D01*
G01*
X166945Y35433D02*
G03*
X167268Y35488I-5J1000D01*
G01*
D02*
G03*
X167323Y35816I-945J327D01*
G01*
X174171Y37402D02*
G03*
X174640Y37521I-5J1000D01*
G01*
X174885Y37621D02*
G03*
X174640Y37521I332J-1162D01*
G01*
X168909Y37402D02*
G03*
X167323Y35816I0J-1586D01*
G01*
X143906Y15748D02*
G03*
X144717Y16559I0J811D01*
G01*
X153543Y108268D02*
G03*
X153740Y108465I0J197D01*
G01*
X169488Y52953D02*
G03*
X171260Y51181I1772J0D01*
G01*
X169488Y56506D02*
G03*
X171260Y58278I0J1772D01*
G01*
Y133858D02*
G03*
X168917Y136201I-2342J0D01*
G01*
X181865Y32259D02*
G03*
X183071Y33465I0J1206D01*
G01*
Y39370D02*
G03*
X181102Y41339I-1969J0D01*
G01*
X171260Y125984D02*
G03*
X175197Y129921I0J3937D01*
G01*
Y43307D02*
G03*
X177165Y41339I1969J0D01*
G01*
X175197Y49213D02*
G03*
X173228Y51181I-1969J0D01*
G01*
X179134Y54360D02*
G03*
X176988Y56506I-2146J0D01*
G01*
X179134Y47244D02*
G03*
X181102Y45276I1969J0D01*
G01*
X184671Y29159D02*
G03*
X187008Y31496I0J2337D01*
G01*
Y43307D02*
G03*
X185039Y45276I-1969J0D01*
G01*
X25787Y115487D02*
G03*
X25939Y114963I1000J5D01*
G01*
X25962Y114924D02*
G03*
X25939Y114963I-1044J-608D01*
G01*
X9843Y143307D02*
G03*
X12992Y140157I3150J0D01*
G01*
X25787Y143504D02*
G03*
X24606Y144685I-1181J0D01*
G01*
X19692Y148615D02*
G03*
X23622Y144685I3929J0D01*
G01*
X21084Y150998D02*
G03*
X19692Y149606I0J-1392D01*
G01*
X9843D02*
G03*
X8450Y150998I-1392J0D01*
G01*
X23819Y137598D02*
G03*
X21260Y140157I-2559J0D01*
G01*
X49213Y142717D02*
G03*
X46654Y145276I-2559J0D01*
G01*
X54134Y150591D02*
G03*
X53937Y150787I-197J0D01*
G01*
X54134Y151575D02*
G03*
X46555Y159153I-7579J0D01*
G01*
X58071Y154528D02*
G03*
X50886Y161713I-7185J0D01*
G01*
X48473Y136071D02*
G03*
X49213Y136811I0J740D01*
G01*
X116142Y33465D02*
G03*
X117347Y32259I1206J0D01*
G01*
X58071Y105315D02*
G03*
X59055Y104331I984J0D01*
G01*
X70866Y102362D02*
G03*
X68898Y104331I-1969J0D01*
G01*
X54134Y101378D02*
G03*
X55118Y100394I984J0D01*
G01*
X52165Y132874D02*
G03*
X54134Y134843I0J1969D01*
G01*
X144717Y29159D02*
G03*
X144349Y29528I-368J0D01*
G01*
X66929Y98425D02*
G03*
X64961Y100394I-1969J0D01*
G01*
X178347Y1969D02*
G03*
X185236Y8858I0J6890D01*
G01*
X169317Y10859D02*
G03*
X178208Y1969I8891J0D01*
G01*
X194398Y10515D02*
G03*
X192290Y13082I-4634J-1657D01*
G01*
X191377Y13630D02*
G03*
X190748Y13807I-629J-1032D01*
G01*
X189173D02*
G03*
X188980Y13792I0J-1209D01*
G01*
X188830Y13780D02*
G03*
X188980Y13792I-5J1000D01*
G01*
X186217Y13792D02*
G03*
X186367Y13780I154J988D01*
G01*
X186217Y13792D02*
G03*
X186024Y13807I-194J-1193D01*
G01*
X184449D02*
G03*
X184255Y13792I0J-1209D01*
G01*
X184106Y13780D02*
G03*
X184255Y13792I-5J1000D01*
G01*
X175338Y13780D02*
G03*
X172417Y10859I0J-2921D01*
G01*
X18864Y123771D02*
G03*
X15171Y120079I0J-3692D01*
G01*
X169291Y17717D02*
G03*
X170449Y16559I1158J0D01*
G01*
X29724Y118898D02*
G03*
X30512Y118110I787J0D01*
G01*
X49213Y116142D02*
G03*
X47244Y118110I-1969J0D01*
G01*
X145669Y49213D02*
G03*
X143701Y47244I0J-1969D01*
G01*
X153517Y47270D02*
G03*
X151575Y49213I-1942J0D01*
G01*
X49213Y120079D02*
G03*
X51181Y122047I0J1969D01*
G01*
X35630Y120866D02*
G03*
X36417Y120079I787J0D01*
G01*
X151575Y25591D02*
G03*
X149606Y23622I0J-1969D01*
G01*
X155512D02*
G03*
X153543Y25591I-1969J0D01*
G01*
X148843Y22859D02*
G03*
X149606Y23622I0J763D01*
G01*
X149580Y19659D02*
G03*
X151575Y21654I0J1994D01*
G01*
X4277Y90211D02*
G03*
X5906Y88583I1628J0D01*
G01*
X55118Y86614D02*
G03*
X53150Y88583I-1969J0D01*
G01*
X151575Y5906D02*
G03*
X153517Y7848I0J1942D01*
G01*
X149401Y9843D02*
G03*
X150417Y10859I0J1017D01*
G01*
X62992Y94488D02*
G03*
X61024Y96457I-1969J0D01*
G01*
X59055Y90551D02*
G03*
X57087Y92520I-1969J0D01*
G01*
X136772Y25959D02*
G03*
X135827Y25014I0J-945D01*
G01*
X149465Y43307D02*
G03*
X150417Y44259I0J952D01*
G01*
X133858Y3291D02*
Y21654D01*
X12795Y111831D02*
X13581D01*
X161614Y123917D02*
Y127362D01*
X151181Y128347D02*
X160630D01*
X136403Y132466D02*
X147061D01*
X136403D02*
Y135011D01*
X139187Y129921D02*
X143701D01*
X149606Y133858D02*
X159449D01*
X161566Y51032D02*
Y64730D01*
X147638Y135827D02*
Y143701D01*
X137998Y136201D02*
X142818D01*
X169317Y42349D02*
Y44259D01*
X162402Y38386D02*
X165354D01*
X163386Y22638D02*
Y30512D01*
X160433Y33465D02*
Y36417D01*
X136403Y129921D02*
Y132466D01*
X166117Y10859D02*
Y19906D01*
Y8468D02*
Y10859D01*
X159817Y5368D02*
Y10859D01*
X157480Y3768D02*
X161417D01*
X168138D01*
X134435Y22230D02*
X135827D01*
X156853Y3766D02*
X157480Y3768D01*
X143710Y3713D02*
X156853Y3766D01*
X134336Y3768D02*
X143112D01*
X104331Y3122D02*
X133689D01*
X12992Y101575D02*
X17323D01*
X1969Y115157D02*
Y117126D01*
X8955Y111831D02*
X12795D01*
X12992Y101575D02*
Y111635D01*
X2953Y114173D02*
X11240D01*
X8661Y101575D02*
X12992D01*
X30315Y93701D02*
Y101575D01*
X34646Y97244D02*
Y101575D01*
X4277D02*
X4331D01*
X4277Y90211D02*
Y101575D01*
X122047Y35433D02*
Y70866D01*
X153543Y56695D02*
Y68898D01*
X122047Y70866D02*
Y149606D01*
X129921Y70866D02*
X151575D01*
X123642Y151201D02*
X142818D01*
X171260Y35433D02*
X178117D01*
X161566Y64730D02*
Y72983D01*
X142818Y146201D02*
X145138D01*
X163386Y49213D02*
X171260D01*
X172417Y44259D02*
Y48055D01*
X167323Y78740D02*
Y125984D01*
X112205Y39370D02*
Y112205D01*
X137795Y39370D02*
X143906D01*
X145669Y112205D02*
Y119329D01*
X125984Y35433D02*
Y66929D01*
X145669Y56673D02*
Y64961D01*
X125984Y66929D02*
X143701D01*
X125984D02*
Y141732D01*
X156043Y141201D02*
X164268D01*
X163386Y35433D02*
X166945D01*
X174885Y37621D02*
X176394Y38059D01*
X178117Y38559D01*
X168909Y37402D02*
X174171D01*
X108268Y15748D02*
Y108268D01*
X137795Y15748D02*
X143906D01*
X153740Y108465D02*
Y119498D01*
X169488Y52953D02*
Y56506D01*
X171260Y58278D02*
Y125984D01*
X164268Y136201D02*
X168917D01*
X177165Y41339D02*
X181102D01*
X181102D01*
X178117Y32259D02*
X181865D01*
X183071Y33465D02*
Y39370D01*
X171260Y51181D02*
X173228D01*
X171260Y125984D02*
Y133858D01*
X175197Y43307D02*
Y49213D01*
X179134Y47244D02*
Y54360D01*
X181102Y45276D02*
X185039D01*
X178117Y29159D02*
X184671D01*
X187008Y31496D02*
Y43307D01*
X25787Y115487D02*
Y123771D01*
X25962Y114924D02*
X26763Y113562D01*
X26983Y113189D01*
X9843Y143307D02*
Y149606D01*
X25787Y136071D02*
Y143504D01*
X23622Y144685D02*
X24606D01*
X19692Y148615D02*
Y149606D01*
X21084Y150998D02*
X24606D01*
X4921D02*
X8450D01*
X23819Y136071D02*
Y137598D01*
X12992Y140157D02*
X21260D01*
X35528Y112786D02*
X38256D01*
X38006Y145276D02*
X46654D01*
X38006Y150787D02*
X53937D01*
X54134Y150591D02*
Y151575D01*
X37894Y159153D02*
X46555D01*
X37894Y161713D02*
X50886D01*
X37598Y136071D02*
X48473D01*
X49213Y136811D02*
Y142717D01*
X117347Y32259D02*
X144717D01*
X58071Y142717D02*
Y154528D01*
Y105315D02*
Y142717D01*
X70866Y33465D02*
Y102362D01*
X59055Y104331D02*
X68898D01*
X37840Y132874D02*
X52165D01*
X54134Y134843D02*
Y150591D01*
X116142Y29528D02*
X144349D01*
X54134Y101378D02*
Y134843D01*
X55118Y100394D02*
X64961D01*
X66929Y29528D02*
Y98425D01*
X178208Y1969D02*
X178347D01*
X194398Y10515D02*
X194685Y8858D01*
X191377Y13630D02*
X192290Y13082D01*
X189173Y13807D02*
X190748D01*
X186367Y13780D02*
X188830D01*
X184449Y13807D02*
X186024D01*
X175338Y13780D02*
X184106D01*
X18864Y123771D02*
X19882D01*
X74803Y19685D02*
Y112205D01*
X170449Y16559D02*
X178117D01*
X30512Y118110D02*
X47244D01*
X29724Y118898D02*
Y123771D01*
X49213Y112205D02*
Y116142D01*
X145669Y49213D02*
X151575D01*
X153517Y44259D02*
Y47270D01*
X78740Y47244D02*
Y124016D01*
X143701Y47244D02*
Y47244D01*
X51181Y122047D02*
Y124016D01*
X36417Y120079D02*
X49213D01*
X35630Y120866D02*
Y123771D01*
X155512Y21654D02*
Y23622D01*
X151575Y25591D02*
X153543D01*
X168368Y22859D02*
X178117D01*
X167323Y23642D02*
X167585D01*
X168368Y22859D01*
X144717D02*
X148843D01*
X144717Y19659D02*
X149580D01*
X55118Y86614D02*
Y86614D01*
Y23622D02*
Y86614D01*
X5906Y88583D02*
X53150D01*
X62992Y9843D02*
Y94488D01*
X59055Y5906D02*
Y90551D01*
X153517Y7848D02*
Y10859D01*
X143701Y5906D02*
X151575D01*
X143701Y9843D02*
X149401D01*
X35433Y96457D02*
X61024D01*
X31496Y92520D02*
X57087D01*
X194882Y23453D02*
Y26575D01*
X136772Y25959D02*
X144717D01*
X136403Y43307D02*
Y47244D01*
X139187Y43307D02*
X149465D01*
D18*
X39370Y181299D02*
D03*
X30512D02*
D03*
X19291Y168307D02*
D03*
Y160827D02*
D03*
X39370Y188779D02*
D03*
X30512D02*
D03*
D19*
X122256Y206321D02*
D03*
D20*
X193110Y59320D02*
D03*
X137992Y59351D02*
D03*
X185236Y122343D02*
D03*
X193110D02*
D03*
X153740D02*
D03*
X145492Y122351D02*
D03*
X137992D02*
D03*
X184986Y59342D02*
D03*
X145866Y59320D02*
D03*
X153740Y59342D02*
D03*
X169488Y59351D02*
D03*
X176988D02*
D03*
X161566Y59320D02*
D03*
X161614Y122343D02*
D03*
D21*
X189075Y155217D02*
D03*
Y145669D02*
D03*
X4724Y47244D02*
D03*
X4823Y37008D02*
D03*
X8661Y47244D02*
D03*
X8760Y37008D02*
D03*
X193012Y155217D02*
D03*
Y145669D02*
D03*
D22*
X186909Y141831D02*
D03*
Y130217D02*
D03*
X16142Y56988D02*
D03*
Y45374D02*
D03*
D23*
X164268Y151201D02*
D03*
X142818Y136201D02*
D03*
Y151201D02*
D03*
Y146201D02*
D03*
X164268Y141201D02*
D03*
Y136201D02*
D03*
Y146201D02*
D03*
X142818Y141201D02*
D03*
D24*
X137795Y139187D02*
D03*
X194882Y20669D02*
D03*
X161417Y984D02*
D03*
X157480D02*
D03*
X24606Y148214D02*
D03*
X42126Y126167D02*
D03*
X4921Y148214D02*
D03*
X14961Y132860D02*
D03*
X42126Y128951D02*
D03*
X137795Y136403D02*
D03*
X161417Y3768D02*
D03*
X135827Y22230D02*
D03*
X157480Y3768D02*
D03*
X14961Y135644D02*
D03*
X8661Y52334D02*
D03*
X193209Y131974D02*
D03*
X4921Y150998D02*
D03*
X24606D02*
D03*
X194882Y29359D02*
D03*
X135827Y25014D02*
D03*
X194882Y26575D02*
D03*
Y23453D02*
D03*
X8661Y55118D02*
D03*
X193209Y134758D02*
D03*
D25*
X163017Y10859D02*
D03*
X159817Y44259D02*
D03*
X156717Y10859D02*
D03*
X169317Y44259D02*
D03*
X166117Y10859D02*
D03*
X159817D02*
D03*
X172417Y44259D02*
D03*
X150417Y10859D02*
D03*
X153517D02*
D03*
X150417Y44259D02*
D03*
X153517D02*
D03*
X156717D02*
D03*
X163017D02*
D03*
X166117D02*
D03*
X172417Y10859D02*
D03*
X169317D02*
D03*
D26*
X189961Y8858D02*
D03*
X185236D02*
D03*
X194685D02*
D03*
D27*
X139187Y47244D02*
D03*
X8844Y124016D02*
D03*
X41040Y112786D02*
D03*
X12387Y120079D02*
D03*
X6171Y111831D02*
D03*
X16475Y111941D02*
D03*
X24198Y113189D02*
D03*
X136403Y129921D02*
D03*
X35222Y145276D02*
D03*
Y150787D02*
D03*
X13691Y111941D02*
D03*
X6482Y127953D02*
D03*
X8955Y111831D02*
D03*
X139187Y129921D02*
D03*
X26983Y113189D02*
D03*
X32744Y112786D02*
D03*
X35528D02*
D03*
X11628Y124016D02*
D03*
X38256Y112786D02*
D03*
X38006Y145276D02*
D03*
Y150787D02*
D03*
X9266Y127953D02*
D03*
X15171Y120079D02*
D03*
X139187Y43307D02*
D03*
X136403D02*
D03*
Y47244D02*
D03*
D28*
X37894Y166831D02*
D03*
X29823Y164272D02*
D03*
X37894D02*
D03*
X29823Y166831D02*
D03*
Y161713D02*
D03*
Y159153D02*
D03*
X37894Y161713D02*
D03*
Y159153D02*
D03*
D29*
X27756Y136071D02*
D03*
Y123771D02*
D03*
X21850Y136071D02*
D03*
X23819D02*
D03*
X25787D02*
D03*
X37598D02*
D03*
X19882D02*
D03*
X29724D02*
D03*
X31693D02*
D03*
X33661D02*
D03*
X35630D02*
D03*
X37598Y123771D02*
D03*
X35630D02*
D03*
X33661D02*
D03*
X31693D02*
D03*
X29724D02*
D03*
X25787D02*
D03*
X23819D02*
D03*
X21850D02*
D03*
X19882D02*
D03*
D30*
X14961Y198228D02*
D03*
X24803D02*
D03*
X34646D02*
D03*
D31*
X6497Y188189D02*
D03*
X1378D02*
D03*
Y164803D02*
D03*
X3937Y188189D02*
D03*
X9056Y164803D02*
D03*
X6497D02*
D03*
X3937D02*
D03*
X9056Y188189D02*
D03*
D32*
X19640Y132874D02*
D03*
Y130905D02*
D03*
X37840Y132874D02*
D03*
Y130905D02*
D03*
Y128937D02*
D03*
Y126969D02*
D03*
X19640D02*
D03*
Y128937D02*
D03*
D33*
X54516Y205884D02*
D03*
D34*
X18504Y180315D02*
D03*
Y188977D02*
D03*
D35*
X192913Y136024D02*
D03*
X10138Y51181D02*
D03*
D36*
X8760Y44094D02*
D03*
Y40157D02*
D03*
X193012Y152657D02*
D03*
Y148721D02*
D03*
D37*
X8768Y29639D02*
D03*
Y3948D02*
D03*
D38*
X178117Y35459D02*
D03*
X144717Y38559D02*
D03*
X178117D02*
D03*
X144717Y16559D02*
D03*
X178117Y32259D02*
D03*
Y29159D02*
D03*
X144717Y32259D02*
D03*
Y29159D02*
D03*
X178117Y22859D02*
D03*
X144717Y19659D02*
D03*
Y22859D02*
D03*
Y25959D02*
D03*
Y35459D02*
D03*
X178117Y25959D02*
D03*
Y19659D02*
D03*
Y16559D02*
D03*
D39*
X9843Y149606D02*
D03*
X19692D02*
D03*
D47*
X38976Y101575D02*
D03*
X4331Y64173D02*
D03*
X38976D02*
D03*
X4331Y101575D02*
D03*
D48*
X12992Y64173D02*
D03*
X17323Y101575D02*
D03*
X12992D02*
D03*
X8661D02*
D03*
X25984D02*
D03*
X21654D02*
D03*
X8661Y64173D02*
D03*
X17323D02*
D03*
X21654D02*
D03*
X25984D02*
D03*
X30315D02*
D03*
X34646D02*
D03*
X30315Y101575D02*
D03*
X34646D02*
D03*
D53*
X11417Y209055D02*
D03*
X38189D02*
D03*
D55*
X120659Y204724D02*
G03*
X122256Y206321I0J1596D01*
G01*
X64803Y181299D02*
G03*
X74803Y191299I0J10000D01*
G01*
X39370Y193504D02*
G03*
X34646Y198228I-4724J0D01*
G01*
X74803Y204724D02*
X120659D01*
X74803Y191299D02*
Y204724D01*
X39370Y181299D02*
X64803D01*
X24803Y195669D02*
Y198228D01*
Y195669D02*
X29331Y191142D01*
Y189370D02*
Y191142D01*
Y189370D02*
X29921Y188779D01*
X30512D01*
X39370D02*
Y193504D01*
D56*
X23819Y160827D02*
G03*
X25591Y162598I0J1771D01*
G01*
X29823Y166831D02*
G03*
X25591Y162598I0J-4232D01*
G01*
X33465Y165354D02*
G03*
X31988Y166831I-1476J0D01*
G01*
X33465Y165354D02*
G03*
X34547Y164272I1083J0D01*
G01*
X36319D02*
G03*
X34449Y162402I0J-1870D01*
G01*
X33760Y161713D02*
G03*
X34449Y162402I0J689D01*
G01*
X29823Y156187D02*
G03*
X35222Y150787I5399J0D01*
G01*
X29823Y150675D02*
G03*
X35222Y145276I5399J0D01*
G01*
X17323Y138583D02*
G03*
X14961Y136221I0J-2362D01*
G01*
X21850Y136071D02*
G03*
X19339Y138583I-2511J0D01*
G01*
X1378Y135827D02*
G03*
X1561Y135644I183J0D01*
G01*
X21850Y135630D02*
G03*
X23622Y133858I1772J0D01*
G01*
X24606Y130905D02*
G03*
X25591Y131890I0J984D01*
G01*
D02*
G03*
X23622Y133858I-1969J0D01*
G01*
X9435Y130905D02*
G03*
X6482Y127953I0J-2953D01*
G01*
X161797Y64961D02*
G03*
X161566Y64730I0J-231D01*
G01*
X10250Y128937D02*
G03*
X9266Y127953I0J-984D01*
G01*
X32744Y112786D02*
G03*
X25931Y105972I0J-6814D01*
G01*
X16732Y126969D02*
G03*
X15748Y125984I0J-984D01*
G01*
X13780Y124016D02*
G03*
X15748Y125984I0J1969D01*
G01*
X192745Y29359D02*
G03*
X190945Y27559I0J-1800D01*
G01*
X189345Y25959D02*
G03*
X190945Y27559I0J1600D01*
G01*
X148674D02*
G03*
X148287Y27411I3J-591D01*
G01*
X147617Y27155D02*
G03*
X148287Y27411I0J1004D01*
G01*
X145506Y27155D02*
G03*
X145040Y26922I3J-591D01*
G01*
D02*
G03*
X144881Y26664I1278J-963D01*
G01*
X157480Y984D02*
X161417D01*
X19291Y160827D02*
X23819D01*
X29823Y166831D02*
X29823D01*
X31988D01*
X36319Y164272D02*
X37894D01*
X34547D02*
X36319D01*
X29823Y156187D02*
Y159153D01*
Y150675D02*
Y156187D01*
Y161713D02*
X33760D01*
X29823Y159153D02*
Y161713D01*
X17323Y138583D02*
X19339D01*
X14961Y135644D02*
Y136221D01*
X1561Y135644D02*
X14961D01*
X21850Y135630D02*
Y136071D01*
X9435Y130905D02*
X19640D01*
X24606D01*
X161797Y64961D02*
X165354D01*
X10250Y128937D02*
X19640D01*
X25931Y104801D02*
Y105972D01*
X11628Y124016D02*
X13780D01*
X37840Y128937D02*
X42126D01*
Y128951D01*
X16732Y126969D02*
X19640D01*
X192745Y29359D02*
X194882D01*
X178117Y25959D02*
X189345D01*
X148674Y27559D02*
X155512D01*
X145506Y27155D02*
X147617D01*
X144717Y25959D02*
X144881Y26664D01*
D57*
X16338Y157874D02*
G03*
X19291Y160827I0J2953D01*
G01*
X131890Y129921D02*
G03*
X129921Y127953I0J-1969D01*
G01*
X1378Y160039D02*
G03*
X3543Y157874I2165J0D01*
G01*
X1378Y117717D02*
G03*
X1969Y117126I591J0D01*
G01*
X3937Y181496D02*
G03*
X5118Y180315I1181J0D01*
G01*
X1378Y117717D02*
Y135827D01*
X3543Y157874D02*
X16338D01*
X131890Y129921D02*
X136403D01*
X129921Y116142D02*
Y127953D01*
X104331Y3937D02*
Y112205D01*
Y3122D02*
Y3937D01*
Y3937D02*
Y3937D01*
X1378Y164803D02*
Y188189D01*
Y160039D02*
Y164803D01*
Y135827D02*
Y160039D01*
X5118Y180315D02*
X18504D01*
X3937Y181496D02*
Y188189D01*
D58*
X193012Y145669D02*
G03*
X192913Y145571I0J-98D01*
G01*
X193012Y155217D02*
Y163575D01*
Y152657D02*
Y155217D01*
Y145669D02*
Y148721D01*
X192913Y136024D02*
Y145571D01*
X193209Y122441D02*
Y131693D01*
D59*
X8760Y47146D02*
G03*
X8661Y47244I-98J0D01*
G01*
X8768Y29639D02*
Y37008D01*
X8760Y44094D02*
Y47146D01*
X8661Y47244D02*
Y52334D01*
Y55512D02*
Y64567D01*
X8661Y64173D02*
X8661D01*
X8760Y37008D02*
Y40157D01*
Y37008D02*
X8768D01*
D60*
X192200Y163600D02*
D03*
D61*
X161613D02*
X192200D01*
X161613Y205600D02*
X192200D01*
X161613Y170600D02*
X192200D01*
X161613Y177600D02*
X192200D01*
X161613Y184600D02*
X192200D01*
X161613Y191600D02*
X192200D01*
X161613Y198600D02*
X192200D01*
X161613Y212600D02*
X192200D01*
D62*
X30413Y188878D02*
X30512Y188779D01*
X18603Y188878D02*
X30413D01*
X9056Y188977D02*
X18504D01*
X9056Y188189D02*
Y188977D01*
D63*
X74803Y204724D02*
D03*
X1969Y45276D02*
D03*
Y55118D02*
D03*
X43307D02*
D03*
X23622D02*
D03*
Y45276D02*
D03*
X33465Y37402D02*
D03*
X45276D02*
D03*
Y25591D02*
D03*
Y13780D02*
D03*
Y1969D02*
D03*
X156299Y155905D02*
D03*
X159843D02*
D03*
X163386D02*
D03*
X166929D02*
D03*
X170472D02*
D03*
X174016D02*
D03*
X177559D02*
D03*
X181102D02*
D03*
X184646D02*
D03*
X178150Y7874D02*
D03*
X59055Y188976D02*
D03*
X84646Y51181D02*
D03*
X78740Y37402D02*
D03*
X68898Y19685D02*
D03*
X51181Y107283D02*
D03*
X3937Y138779D02*
D03*
X21654Y119095D02*
D03*
X192200Y205600D02*
D03*
X161613Y163600D02*
D03*
X192200Y170600D02*
D03*
X161613D02*
D03*
X192200Y177600D02*
D03*
X161613D02*
D03*
X192200Y184600D02*
D03*
X161613D02*
D03*
X192200Y191600D02*
D03*
X161613D02*
D03*
X192200Y198600D02*
D03*
X161613D02*
D03*
X192200Y212600D02*
D03*
X161613D02*
D03*
X161700Y205600D02*
D03*
X143701Y129921D02*
D03*
X129921Y116142D02*
D03*
X104331Y112205D02*
D03*
X168307Y3937D02*
D03*
X1969Y117126D02*
D03*
X122047Y35433D02*
D03*
Y70866D02*
D03*
X129921D02*
D03*
X167323Y31496D02*
D03*
X165354Y64961D02*
D03*
X137795Y39370D02*
D03*
X112205D02*
D03*
Y112205D02*
D03*
X145669D02*
D03*
X125984Y35433D02*
D03*
Y141732D02*
D03*
X155512D02*
D03*
X163386Y35433D02*
D03*
X137795Y15748D02*
D03*
X108268D02*
D03*
Y108268D02*
D03*
X153543D02*
D03*
X175197Y129921D02*
D03*
X49213Y142717D02*
D03*
X58071D02*
D03*
X70866Y33465D02*
D03*
X116142D02*
D03*
X66929Y29528D02*
D03*
X116142D02*
D03*
X74803Y19685D02*
D03*
X169291Y17717D02*
D03*
X74803Y112205D02*
D03*
X49213D02*
D03*
X143701Y47244D02*
D03*
X78740Y124016D02*
D03*
X51181D02*
D03*
X78740Y47244D02*
D03*
X155512Y27559D02*
D03*
X167323Y23642D02*
D03*
X151575Y21654D02*
D03*
X155512D02*
D03*
X55118Y23622D02*
D03*
X143701Y5906D02*
D03*
Y9843D02*
D03*
X62992D02*
D03*
X59055Y5906D02*
D03*
M02*
