G04*
G04 #@! TF.GenerationSoftware,Altium Limited,Altium Designer,25.5.2 (35)*
G04*
G04 Layer_Color=255*
%FSLAX25Y25*%
%MOIN*%
G70*
G04*
G04 #@! TF.SameCoordinates,38EB6A6A-CC72-40A8-BBF4-0EDFD8540081*
G04*
G04*
G04 #@! TF.FilePolarity,Positive*
G04*
G01*
G75*
%ADD18R,0.06299X0.05118*%
%ADD19R,0.19685X0.19685*%
%ADD20R,0.05000X0.07874*%
G04:AMPARAMS|DCode=21|XSize=21.65mil|YSize=19.68mil|CornerRadius=2.46mil|HoleSize=0mil|Usage=FLASHONLY|Rotation=90.000|XOffset=0mil|YOffset=0mil|HoleType=Round|Shape=RoundedRectangle|*
%AMROUNDEDRECTD21*
21,1,0.02165,0.01476,0,0,90.0*
21,1,0.01673,0.01968,0,0,90.0*
1,1,0.00492,0.00738,0.00837*
1,1,0.00492,0.00738,-0.00837*
1,1,0.00492,-0.00738,-0.00837*
1,1,0.00492,-0.00738,0.00837*
%
%ADD21ROUNDEDRECTD21*%
%ADD22R,0.08661X0.04134*%
%ADD23R,0.05750X0.02200*%
%ADD24R,0.02254X0.01438*%
%ADD25R,0.02000X0.05800*%
%ADD26R,0.01575X0.07480*%
%ADD27R,0.01438X0.02254*%
%ADD28R,0.01968X0.01378*%
%ADD29R,0.01000X0.01900*%
%ADD30R,0.04724X0.09843*%
%ADD31R,0.01654X0.07008*%
%ADD32R,0.01500X0.01000*%
%ADD33R,0.19685X0.19685*%
%ADD34R,0.10630X0.03150*%
%ADD35R,0.04134X0.03937*%
G04:AMPARAMS|DCode=36|XSize=21.65mil|YSize=19.68mil|CornerRadius=2.46mil|HoleSize=0mil|Usage=FLASHONLY|Rotation=180.000|XOffset=0mil|YOffset=0mil|HoleType=Round|Shape=RoundedRectangle|*
%AMROUNDEDRECTD36*
21,1,0.02165,0.01476,0,0,180.0*
21,1,0.01673,0.01968,0,0,180.0*
1,1,0.00492,-0.00837,0.00738*
1,1,0.00492,0.00837,0.00738*
1,1,0.00492,0.00837,-0.00738*
1,1,0.00492,-0.00837,-0.00738*
%
%ADD36ROUNDEDRECTD36*%
%ADD37R,0.08503X0.03791*%
%ADD38R,0.05800X0.02000*%
%ADD39R,0.03950X0.07100*%
%ADD47R,0.02756X0.07087*%
%ADD48R,0.03150X0.07087*%
%ADD53C,0.03543*%
%ADD60C,0.02000*%
D18*
X39370Y181299D02*
D03*
X30512D02*
D03*
X19291Y168307D02*
D03*
Y160827D02*
D03*
X39370Y188779D02*
D03*
X30512D02*
D03*
D19*
X122256Y206321D02*
D03*
D20*
X193110Y59320D02*
D03*
X137992Y59351D02*
D03*
X185236Y122343D02*
D03*
X193110D02*
D03*
X153740D02*
D03*
X145492Y122351D02*
D03*
X137992D02*
D03*
X184986Y59342D02*
D03*
X145866Y59320D02*
D03*
X153740Y59342D02*
D03*
X169488Y59351D02*
D03*
X176988D02*
D03*
X161566Y59320D02*
D03*
X161614Y122343D02*
D03*
D21*
X189075Y155217D02*
D03*
Y145669D02*
D03*
X4724Y47244D02*
D03*
X4823Y37008D02*
D03*
X8661Y47244D02*
D03*
X8760Y37008D02*
D03*
X193012Y155217D02*
D03*
Y145669D02*
D03*
D22*
X186909Y141831D02*
D03*
Y130217D02*
D03*
X16142Y56988D02*
D03*
Y45374D02*
D03*
D23*
X164268Y151201D02*
D03*
X142818Y136201D02*
D03*
Y151201D02*
D03*
Y146201D02*
D03*
X164268Y141201D02*
D03*
Y136201D02*
D03*
Y146201D02*
D03*
X142818Y141201D02*
D03*
D24*
X137795Y139187D02*
D03*
X194882Y20669D02*
D03*
X161417Y984D02*
D03*
X157480D02*
D03*
X24606Y148214D02*
D03*
X42126Y126167D02*
D03*
X4921Y148214D02*
D03*
X14961Y132860D02*
D03*
X42126Y128951D02*
D03*
X137795Y136403D02*
D03*
X161417Y3768D02*
D03*
X135827Y22230D02*
D03*
X157480Y3768D02*
D03*
X14961Y135644D02*
D03*
X8661Y52334D02*
D03*
X193209Y131974D02*
D03*
X4921Y150998D02*
D03*
X24606D02*
D03*
X194882Y29359D02*
D03*
X135827Y25014D02*
D03*
X194882Y26575D02*
D03*
Y23453D02*
D03*
X8661Y55118D02*
D03*
X193209Y134758D02*
D03*
D25*
X163017Y10859D02*
D03*
X159817Y44259D02*
D03*
X156717Y10859D02*
D03*
X169317Y44259D02*
D03*
X166117Y10859D02*
D03*
X159817D02*
D03*
X172417Y44259D02*
D03*
X150417Y10859D02*
D03*
X153517D02*
D03*
X150417Y44259D02*
D03*
X153517D02*
D03*
X156717D02*
D03*
X163017D02*
D03*
X166117D02*
D03*
X172417Y10859D02*
D03*
X169317D02*
D03*
D26*
X189961Y8858D02*
D03*
X185236D02*
D03*
X194685D02*
D03*
D27*
X139187Y47244D02*
D03*
X8844Y124016D02*
D03*
X41040Y112786D02*
D03*
X12387Y120079D02*
D03*
X6171Y111831D02*
D03*
X16475Y111941D02*
D03*
X24198Y113189D02*
D03*
X136403Y129921D02*
D03*
X35222Y145276D02*
D03*
Y150787D02*
D03*
X13691Y111941D02*
D03*
X6482Y127953D02*
D03*
X8955Y111831D02*
D03*
X139187Y129921D02*
D03*
X26983Y113189D02*
D03*
X32744Y112786D02*
D03*
X35528D02*
D03*
X11628Y124016D02*
D03*
X38256Y112786D02*
D03*
X38006Y145276D02*
D03*
Y150787D02*
D03*
X9266Y127953D02*
D03*
X15171Y120079D02*
D03*
X139187Y43307D02*
D03*
X136403D02*
D03*
Y47244D02*
D03*
D28*
X37894Y166831D02*
D03*
X29823Y164272D02*
D03*
X37894D02*
D03*
X29823Y166831D02*
D03*
Y161713D02*
D03*
Y159153D02*
D03*
X37894Y161713D02*
D03*
Y159153D02*
D03*
D29*
X27756Y136071D02*
D03*
Y123771D02*
D03*
X21850Y136071D02*
D03*
X23819D02*
D03*
X25787D02*
D03*
X37598D02*
D03*
X19882D02*
D03*
X29724D02*
D03*
X31693D02*
D03*
X33661D02*
D03*
X35630D02*
D03*
X37598Y123771D02*
D03*
X35630D02*
D03*
X33661D02*
D03*
X31693D02*
D03*
X29724D02*
D03*
X25787D02*
D03*
X23819D02*
D03*
X21850D02*
D03*
X19882D02*
D03*
D30*
X14961Y198228D02*
D03*
X24803D02*
D03*
X34646D02*
D03*
D31*
X6497Y188189D02*
D03*
X1378D02*
D03*
Y164803D02*
D03*
X3937Y188189D02*
D03*
X9056Y164803D02*
D03*
X6497D02*
D03*
X3937D02*
D03*
X9056Y188189D02*
D03*
D32*
X19640Y132874D02*
D03*
Y130905D02*
D03*
X37840Y132874D02*
D03*
Y130905D02*
D03*
Y128937D02*
D03*
Y126969D02*
D03*
X19640D02*
D03*
Y128937D02*
D03*
D33*
X54516Y205884D02*
D03*
D34*
X18504Y180315D02*
D03*
Y188977D02*
D03*
D35*
X192913Y136024D02*
D03*
X10138Y51181D02*
D03*
D36*
X8760Y44094D02*
D03*
Y40157D02*
D03*
X193012Y152657D02*
D03*
Y148721D02*
D03*
D37*
X8768Y29639D02*
D03*
Y3948D02*
D03*
D38*
X178117Y35459D02*
D03*
X144717Y38559D02*
D03*
X178117D02*
D03*
X144717Y16559D02*
D03*
X178117Y32259D02*
D03*
Y29159D02*
D03*
X144717Y32259D02*
D03*
Y29159D02*
D03*
X178117Y22859D02*
D03*
X144717Y19659D02*
D03*
Y22859D02*
D03*
Y25959D02*
D03*
Y35459D02*
D03*
X178117Y25959D02*
D03*
Y19659D02*
D03*
Y16559D02*
D03*
D39*
X9843Y149606D02*
D03*
X19692D02*
D03*
D47*
X38976Y101575D02*
D03*
X4331Y64173D02*
D03*
X38976D02*
D03*
X4331Y101575D02*
D03*
D48*
X12992Y64173D02*
D03*
X17323Y101575D02*
D03*
X12992D02*
D03*
X8661D02*
D03*
X25984D02*
D03*
X21654D02*
D03*
X8661Y64173D02*
D03*
X17323D02*
D03*
X21654D02*
D03*
X25984D02*
D03*
X30315D02*
D03*
X34646D02*
D03*
X30315Y101575D02*
D03*
X34646D02*
D03*
D53*
X11417Y209055D02*
D03*
X38189D02*
D03*
D60*
X192200Y163600D02*
D03*
M02*
