G04*
G04 #@! TF.GenerationSoftware,Altium Limited,Altium Designer,25.5.2 (35)*
G04*
G04 Layer_Color=16711935*
%FSLAX25Y25*%
%MOIN*%
G70*
G04*
G04 #@! TF.SameCoordinates,38EB6A6A-CC72-40A8-BBF4-0EDFD8540081*
G04*
G04*
G04 #@! TF.FilePolarity,Negative*
G04*
G01*
G75*
%ADD24R,0.02254X0.01438*%
%ADD41R,0.20485X0.20485*%
%ADD49R,0.20485X0.20485*%
%ADD53C,0.03543*%
%ADD54C,0.02769*%
%ADD67R,0.04934X0.09461*%
%ADD68R,0.04737X0.04934*%
%ADD69O,0.12674X0.06737*%
D24*
X143701Y85222D02*
D03*
Y88006D02*
D03*
D41*
X54516Y206321D02*
D03*
D49*
X122256Y205884D02*
D03*
D53*
X11417Y209055D02*
D03*
X38189D02*
D03*
D54*
X1969Y45276D02*
D03*
Y55118D02*
D03*
X43307D02*
D03*
X23622D02*
D03*
Y45276D02*
D03*
X33465Y37402D02*
D03*
X45276D02*
D03*
Y25591D02*
D03*
Y13780D02*
D03*
Y1969D02*
D03*
X156299Y155905D02*
D03*
X159843D02*
D03*
X163386D02*
D03*
X166929D02*
D03*
X170472D02*
D03*
X174016D02*
D03*
X177559D02*
D03*
X181102D02*
D03*
X184646D02*
D03*
X192200Y205600D02*
D03*
X161613Y163600D02*
D03*
X192200Y170600D02*
D03*
X161613D02*
D03*
X192200Y177600D02*
D03*
X161613D02*
D03*
X192200Y184600D02*
D03*
X161613D02*
D03*
X192200Y191600D02*
D03*
X161613D02*
D03*
X192200Y198600D02*
D03*
X161613D02*
D03*
X192200Y212600D02*
D03*
X161613D02*
D03*
X161700Y205600D02*
D03*
D67*
X170177Y98425D02*
D03*
X158563D02*
D03*
X179232D02*
D03*
X190846D02*
D03*
X149508D02*
D03*
X137894D02*
D03*
D68*
X185039Y92421D02*
D03*
X143701D02*
D03*
X164370D02*
D03*
D69*
X188976Y75433D02*
D03*
Y5433D02*
D03*
Y45433D02*
D03*
Y65433D02*
D03*
Y55433D02*
D03*
Y15433D02*
D03*
Y25433D02*
D03*
Y35433D02*
D03*
M02*
