G04*
G04 #@! TF.GenerationSoftware,Altium Limited,Altium Designer,25.8.1 (18)*
G04*
G04 Layer_Color=16711935*
%FSLAX25Y25*%
%MOIN*%
G70*
G04*
G04 #@! TF.SameCoordinates,505960B2-D5C5-487F-9968-D24D6DC54575*
G04*
G04*
G04 #@! TF.FilePolarity,Negative*
G04*
G01*
G75*
%ADD30R,0.02254X0.01438*%
%ADD48R,0.07099X0.05918*%
%ADD51R,0.09461X0.04934*%
%ADD54R,0.20485X0.08674*%
%ADD60R,0.04934X0.04737*%
%ADD63R,0.20485X0.08674*%
%ADD64C,0.02769*%
%ADD65C,0.01968*%
%ADD77O,0.08674X0.07099*%
G04:AMPARAMS|DCode=78|XSize=70.99mil|YSize=86.74mil|CornerRadius=19.75mil|HoleSize=0mil|Usage=FLASHONLY|Rotation=90.000|XOffset=0mil|YOffset=0mil|HoleType=Round|Shape=RoundedRectangle|*
%AMROUNDEDRECTD78*
21,1,0.07099,0.04724,0,0,90.0*
21,1,0.03150,0.08674,0,0,90.0*
1,1,0.03950,0.02362,0.01575*
1,1,0.03950,0.02362,-0.01575*
1,1,0.03950,-0.02362,-0.01575*
1,1,0.03950,-0.02362,0.01575*
%
%ADD78ROUNDEDRECTD78*%
D30*
X27559Y128134D02*
D03*
X16875D02*
D03*
X2953Y115157D02*
D03*
Y134039D02*
D03*
Y137614D02*
D03*
Y118732D02*
D03*
X27559Y131709D02*
D03*
X16875D02*
D03*
X27559Y137976D02*
D03*
Y141551D02*
D03*
X16875Y137976D02*
D03*
Y141551D02*
D03*
X2953Y124197D02*
D03*
Y127772D02*
D03*
D48*
X151575Y63189D02*
D03*
Y70669D02*
D03*
D51*
X137795Y68799D02*
D03*
Y49114D02*
D03*
Y29429D02*
D03*
Y37500D02*
D03*
Y57185D02*
D03*
Y17815D02*
D03*
D54*
X126390Y182852D02*
D03*
X69303Y171360D02*
D03*
D60*
X143799Y23622D02*
D03*
Y43307D02*
D03*
Y62992D02*
D03*
D63*
X105894Y171360D02*
D03*
X58650Y183289D02*
D03*
D64*
X46260Y21654D02*
D03*
Y5906D02*
D03*
Y13780D02*
D03*
Y29528D02*
D03*
X175197Y174522D02*
D03*
Y161024D02*
D03*
Y167773D02*
D03*
X174213Y187992D02*
D03*
X166339D02*
D03*
X175197Y181271D02*
D03*
X150591Y187992D02*
D03*
X142717D02*
D03*
X158465D02*
D03*
X43307Y35433D02*
D03*
X35433D02*
D03*
X27559D02*
D03*
X110331Y208661D02*
D03*
Y232283D02*
D03*
X118205Y208661D02*
D03*
Y232283D02*
D03*
X126079Y208661D02*
D03*
Y232283D02*
D03*
X133953Y208661D02*
D03*
Y232283D02*
D03*
X141827Y208661D02*
D03*
Y232283D02*
D03*
X149701Y208661D02*
D03*
Y232283D02*
D03*
X157575Y208661D02*
D03*
Y232283D02*
D03*
X165449Y208661D02*
D03*
Y232283D02*
D03*
X173323D02*
D03*
Y208661D02*
D03*
X181197Y232283D02*
D03*
D65*
X13780Y158465D02*
D03*
X11811Y156496D02*
D03*
X15748D02*
D03*
X13780Y154528D02*
D03*
D77*
X190945Y84803D02*
D03*
Y24803D02*
D03*
Y74803D02*
D03*
Y64803D02*
D03*
Y44803D02*
D03*
Y54803D02*
D03*
Y34803D02*
D03*
D78*
Y14803D02*
D03*
M02*
