G04*
G04 #@! TF.GenerationSoftware,Altium Limited,Altium Designer,25.8.1 (18)*
G04*
G04 Layer_Color=32896*
%FSLAX25Y25*%
%MOIN*%
G70*
G04*
G04 #@! TF.SameCoordinates,505960B2-D5C5-487F-9968-D24D6DC54575*
G04*
G04*
G04 #@! TF.FilePolarity,Positive*
G04*
G01*
G75*
%ADD13C,0.00600*%
%ADD14C,0.00787*%
%ADD15C,0.00598*%
%ADD19C,0.00315*%
%ADD66C,0.01000*%
D13*
X57190Y208565D02*
Y220376D01*
X55221Y218407D02*
X57190Y220376D01*
X55221Y218407D02*
X59158D01*
X47347Y206596D02*
Y210533D01*
X57190Y220376D02*
X59158Y218407D01*
X45379Y208565D02*
X47347Y210533D01*
X45379Y208565D02*
X57190D01*
X45379D02*
X47347Y206596D01*
X28543Y132874D02*
X29528D01*
Y125984D02*
Y132874D01*
X28543Y136811D02*
X29528D01*
Y142717D01*
X17717Y132874D02*
X18701D01*
Y125984D02*
Y132874D01*
X17717Y136811D02*
X18701D01*
Y142717D01*
X3937Y113189D02*
X4921D01*
Y120079D01*
X3937D02*
X4921D01*
X3937Y123031D02*
X4921D01*
Y128937D01*
X3937D02*
X4921D01*
X6890Y136811D02*
Y138779D01*
X5906Y137795D02*
X6890Y136811D01*
X5906Y137795D02*
X6890Y138779D01*
X3937Y131890D02*
X4921D01*
Y138779D01*
X3937D02*
X4921D01*
X17717Y125984D02*
X18701D01*
X17717Y142717D02*
X18701D01*
X28543Y125984D02*
X29528D01*
X28543Y142717D02*
X29528D01*
D14*
X132677Y41142D02*
Y45472D01*
Y21457D02*
Y25787D01*
Y60827D02*
Y65158D01*
X123098Y193372D02*
X123623Y193897D01*
X124672D01*
X125197Y193372D01*
Y192847D01*
X124672Y192322D01*
X123623D01*
X123098Y191798D01*
Y191273D01*
X123623Y190748D01*
X124672D01*
X125197Y191273D01*
X122048Y192322D02*
X119949D01*
X58137Y193372D02*
X58662Y193897D01*
X59711D01*
X60236Y193372D01*
Y192847D01*
X59711Y192322D01*
X58662D01*
X58137Y191798D01*
Y191273D01*
X58662Y190748D01*
X59711D01*
X60236Y191273D01*
X57088Y192322D02*
X54989D01*
X56038Y193372D02*
Y191273D01*
X98725Y231201D02*
Y228053D01*
X97151D01*
X96626Y228577D01*
Y230677D01*
X97151Y231201D01*
X98725D01*
X94002Y228053D02*
X95052D01*
X95577Y228577D01*
Y229627D01*
X95052Y230152D01*
X94002D01*
X93477Y229627D01*
Y229102D01*
X95577D01*
X90329Y230677D02*
X90854Y231201D01*
X91903D01*
X92428Y230677D01*
Y230152D01*
X91903Y229627D01*
X90854D01*
X90329Y229102D01*
Y228577D01*
X90854Y228053D01*
X91903D01*
X92428Y228577D01*
X87180Y230677D02*
X87705Y231201D01*
X88755D01*
X89279Y230677D01*
Y228577D01*
X88755Y228053D01*
X87705D01*
X87180Y228577D01*
X84032Y231201D02*
X86131D01*
Y228053D01*
X84032D01*
X86131Y229627D02*
X85081D01*
X82982Y228053D02*
Y231201D01*
X80883Y228053D01*
Y231201D01*
X79834D02*
X77735D01*
X78784D01*
Y228053D01*
X71437Y230677D02*
X71962Y231201D01*
X73012D01*
X73536Y230677D01*
Y228577D01*
X73012Y228053D01*
X71962D01*
X71437Y228577D01*
X70388Y231201D02*
Y228053D01*
Y229627D01*
X68289D01*
Y231201D01*
Y228053D01*
X67239Y231201D02*
X66190D01*
X66715D01*
Y228053D01*
X67239D01*
X66190D01*
X64615D02*
Y231201D01*
X63041D01*
X62516Y230677D01*
Y229627D01*
X63041Y229102D01*
X64615D01*
X59368Y230677D02*
X59893Y231201D01*
X60942D01*
X61467Y230677D01*
Y230152D01*
X60942Y229627D01*
X59893D01*
X59368Y229102D01*
Y228577D01*
X59893Y228053D01*
X60942D01*
X61467Y228577D01*
X58318Y228053D02*
Y230152D01*
X57269Y231201D01*
X56219Y230152D01*
Y228053D01*
Y229627D01*
X58318D01*
X55170Y231201D02*
X53071D01*
X54120D01*
Y228053D01*
X82977Y225296D02*
Y223197D01*
X81928Y222147D01*
X80878Y223197D01*
Y225296D01*
X78254Y222147D02*
X79304D01*
X79829Y222672D01*
Y223722D01*
X79304Y224246D01*
X78254D01*
X77729Y223722D01*
Y223197D01*
X79829D01*
X76680Y224246D02*
Y222147D01*
Y223197D01*
X76155Y223722D01*
X75630Y224246D01*
X75106D01*
X68284Y222147D02*
X70383D01*
X68284Y224246D01*
Y224771D01*
X68809Y225296D01*
X69858D01*
X70383Y224771D01*
X67234Y222147D02*
Y222672D01*
X66709D01*
Y222147D01*
X67234D01*
X64610Y224771D02*
X64086Y225296D01*
X63036D01*
X62511Y224771D01*
Y224246D01*
X63036Y223722D01*
X63561D01*
X63036D01*
X62511Y223197D01*
Y222672D01*
X63036Y222147D01*
X64086D01*
X64610Y222672D01*
X59363Y224771D02*
X59887Y225296D01*
X60937D01*
X61462Y224771D01*
Y224246D01*
X60937Y223722D01*
X59887D01*
X59363Y223197D01*
Y222672D01*
X59887Y222147D01*
X60937D01*
X61462Y222672D01*
X58313Y225296D02*
Y222147D01*
X56739D01*
X56214Y222672D01*
Y223197D01*
X56739Y223722D01*
X58313D01*
X56739D01*
X56214Y224246D01*
Y224771D01*
X56739Y225296D01*
X58313D01*
D15*
X184055Y117126D02*
Y156496D01*
X170276Y148622D02*
X195866D01*
X170276Y134843D02*
X195866D01*
X170276Y125000D02*
X195866D01*
D19*
X7417Y223573D02*
Y224885D01*
X9385D01*
Y223573D01*
X8401Y224885D02*
Y224229D01*
X9385Y222917D02*
X7417D01*
X9385Y221605D01*
X7417D01*
X8729Y218981D02*
Y217670D01*
X8073Y218981D02*
Y217670D01*
X7745Y213734D02*
X7417Y214062D01*
Y214718D01*
X7745Y215046D01*
X9057D01*
X9385Y214718D01*
Y214062D01*
X9057Y213734D01*
X8401D01*
Y214390D01*
X9385Y213078D02*
X7417D01*
X9385Y211766D01*
X7417D01*
Y211110D02*
X9385D01*
Y210126D01*
X9057Y209798D01*
X7745D01*
X7417Y210126D01*
Y211110D01*
X8073Y209142D02*
Y208814D01*
X8401D01*
Y209142D01*
X8073D01*
X9057D02*
Y208814D01*
X9385D01*
Y209142D01*
X9057D01*
X7417Y204222D02*
Y205534D01*
X9385D01*
Y204222D01*
X8401Y205534D02*
Y204878D01*
X9385Y203567D02*
X8073D01*
Y202583D01*
X8401Y202255D01*
X9385D01*
X8073Y201271D02*
Y200615D01*
X8401Y200287D01*
X9385D01*
Y201271D01*
X9057Y201599D01*
X8729Y201271D01*
Y200287D01*
X7417Y199631D02*
X9385D01*
Y198647D01*
X9057Y198319D01*
X8729D01*
X8401D01*
X8073Y198647D01*
Y199631D01*
X9385Y197663D02*
Y197007D01*
Y197335D01*
X7417D01*
Y197663D01*
X9385Y195039D02*
Y195695D01*
X9057Y196023D01*
X8401D01*
X8073Y195695D01*
Y195039D01*
X8401Y194711D01*
X8729D01*
Y196023D01*
X7745Y190775D02*
X7417Y191103D01*
Y191759D01*
X7745Y192087D01*
X8073D01*
X8401Y191759D01*
Y191103D01*
X8729Y190775D01*
X9057D01*
X9385Y191103D01*
Y191759D01*
X9057Y192087D01*
X9385Y189792D02*
Y189136D01*
X9057Y188808D01*
X8401D01*
X8073Y189136D01*
Y189792D01*
X8401Y190120D01*
X9057D01*
X9385Y189792D01*
Y188152D02*
Y187496D01*
Y187824D01*
X7417D01*
Y188152D01*
X8073Y186184D02*
Y185528D01*
X8401Y185200D01*
X9385D01*
Y186184D01*
X9057Y186512D01*
X8729Y186184D01*
Y185200D01*
X8073Y184544D02*
X9385D01*
X8729D01*
X8401Y184216D01*
X8073Y183888D01*
Y183560D01*
X7417Y180608D02*
Y179952D01*
Y180280D01*
X9385D01*
Y180608D01*
Y179952D01*
X7745Y177656D02*
X7417Y177984D01*
Y178640D01*
X7745Y178968D01*
X9057D01*
X9385Y178640D01*
Y177984D01*
X9057Y177656D01*
X52938Y206910D02*
Y204942D01*
X52282Y205598D01*
X51626Y204942D01*
Y206910D01*
X56772Y172558D02*
Y170591D01*
X55788D01*
X55460Y170919D01*
Y171247D01*
X55788Y171574D01*
X56772D01*
X55788D01*
X55460Y171903D01*
Y172230D01*
X55788Y172558D01*
X56772D01*
X54804Y171574D02*
X53492D01*
X54148Y172230D02*
Y170919D01*
X59473Y212187D02*
Y214155D01*
Y213171D01*
X60785D01*
Y212187D01*
Y214155D01*
X99094Y202086D02*
Y200118D01*
X97783D01*
X96799D02*
X96143D01*
X95815Y200446D01*
Y201102D01*
X96143Y201430D01*
X96799D01*
X97127Y201102D01*
Y200446D01*
X96799Y200118D01*
X95159D02*
Y202086D01*
X94175D01*
X93847Y201758D01*
Y201102D01*
X94175Y200774D01*
X95159D01*
X94503D02*
X93847Y200118D01*
X92863Y201430D02*
X92207D01*
X91879Y201102D01*
Y200118D01*
X92863D01*
X93191Y200446D01*
X92863Y200774D01*
X91879D01*
X89255Y200118D02*
Y202086D01*
X88271D01*
X87943Y201758D01*
Y201102D01*
X88271Y200774D01*
X89255D01*
X88599D02*
X87943Y200118D01*
X86959D02*
X86303D01*
X85975Y200446D01*
Y201102D01*
X86303Y201430D01*
X86959D01*
X87287Y201102D01*
Y200446D01*
X86959Y200118D01*
X84992D02*
X84336D01*
X84008Y200446D01*
Y201102D01*
X84336Y201430D01*
X84992D01*
X85320Y201102D01*
Y200446D01*
X84992Y200118D01*
X83352D02*
Y201430D01*
X83024D01*
X82696Y201102D01*
Y200118D01*
Y201102D01*
X82368Y201430D01*
X82040Y201102D01*
Y200118D01*
X79416Y202086D02*
Y200118D01*
X78432D01*
X78104Y200446D01*
Y200774D01*
X78432Y201102D01*
X79416D01*
X78432D01*
X78104Y201430D01*
Y201758D01*
X78432Y202086D01*
X79416D01*
X77120Y201430D02*
X76464D01*
X76136Y201102D01*
Y200118D01*
X77120D01*
X77448Y200446D01*
X77120Y200774D01*
X76136D01*
X75480Y200118D02*
X74496D01*
X74168Y200446D01*
X74496Y200774D01*
X75152D01*
X75480Y201102D01*
X75152Y201430D01*
X74168D01*
X72528Y200118D02*
X73184D01*
X73512Y200446D01*
Y201102D01*
X73184Y201430D01*
X72528D01*
X72200Y201102D01*
Y200774D01*
X73512D01*
X70232Y202086D02*
Y200118D01*
X71216D01*
X71544Y200446D01*
Y201102D01*
X71216Y201430D01*
X70232D01*
X67609Y201758D02*
X67281Y202086D01*
X66625D01*
X66297Y201758D01*
Y200446D01*
X66625Y200118D01*
X67281D01*
X67609Y200446D01*
Y201758D01*
X65641Y200118D02*
Y200446D01*
X65313D01*
Y200118D01*
X65641D01*
X64001D02*
X63345D01*
X63673D01*
Y202086D01*
X64001Y201758D01*
X61049Y202086D02*
X62361D01*
Y201102D01*
X61705Y201430D01*
X61377D01*
X61049Y201102D01*
Y200446D01*
X61377Y200118D01*
X62033D01*
X62361Y200446D01*
X60393Y200118D02*
Y201430D01*
X60065D01*
X59737Y201102D01*
Y200118D01*
Y201102D01*
X59409Y201430D01*
X59081Y201102D01*
Y200118D01*
X58425D02*
Y201430D01*
X58097D01*
X57769Y201102D01*
Y200118D01*
Y201102D01*
X57441Y201430D01*
X57113Y201102D01*
Y200118D01*
X53178Y201758D02*
X53506Y202086D01*
X54162D01*
X54490Y201758D01*
Y200446D01*
X54162Y200118D01*
X53506D01*
X53178Y200446D01*
X52522Y200118D02*
X51866D01*
X52194D01*
Y202086D01*
X52522D01*
X49898Y200118D02*
X50554D01*
X50882Y200446D01*
Y201102D01*
X50554Y201430D01*
X49898D01*
X49570Y201102D01*
Y200774D01*
X50882D01*
X48586Y201430D02*
X47930D01*
X47602Y201102D01*
Y200118D01*
X48586D01*
X48914Y200446D01*
X48586Y200774D01*
X47602D01*
X46946Y201430D02*
Y200118D01*
Y200774D01*
X46618Y201102D01*
X46290Y201430D01*
X45962D01*
X44650D02*
X43994D01*
X43666Y201102D01*
Y200118D01*
X44650D01*
X44978Y200446D01*
X44650Y200774D01*
X43666D01*
X43011Y200118D02*
Y201430D01*
X42026D01*
X41699Y201102D01*
Y200118D01*
X39731Y201430D02*
X40715D01*
X41043Y201102D01*
Y200446D01*
X40715Y200118D01*
X39731D01*
X38091D02*
X38747D01*
X39075Y200446D01*
Y201102D01*
X38747Y201430D01*
X38091D01*
X37763Y201102D01*
Y200774D01*
X39075D01*
X33827Y201758D02*
X34155Y202086D01*
X34811D01*
X35139Y201758D01*
Y200446D01*
X34811Y200118D01*
X34155D01*
X33827Y200446D01*
X32843Y200118D02*
X32187D01*
X31859Y200446D01*
Y201102D01*
X32187Y201430D01*
X32843D01*
X33171Y201102D01*
Y200446D01*
X32843Y200118D01*
X31203D02*
Y201430D01*
X30219D01*
X29891Y201102D01*
Y200118D01*
X29235D02*
X28251D01*
X27924Y200446D01*
X28251Y200774D01*
X28907D01*
X29235Y201102D01*
X28907Y201430D01*
X27924D01*
X26940Y201758D02*
Y201430D01*
X27268D01*
X26612D01*
X26940D01*
Y200446D01*
X26612Y200118D01*
X25628Y201430D02*
Y200118D01*
Y200774D01*
X25300Y201102D01*
X24972Y201430D01*
X24644D01*
X23332D02*
X22676D01*
X22348Y201102D01*
Y200118D01*
X23332D01*
X23660Y200446D01*
X23332Y200774D01*
X22348D01*
X21692Y200118D02*
X21036D01*
X21364D01*
Y201430D01*
X21692D01*
X20052Y200118D02*
Y201430D01*
X19068D01*
X18740Y201102D01*
Y200118D01*
X17756Y201758D02*
Y201430D01*
X18084D01*
X17428D01*
X17756D01*
Y200446D01*
X17428Y200118D01*
X178819Y117441D02*
Y119409D01*
X179803Y118425D01*
X178491D01*
X177835Y117441D02*
Y117769D01*
X177507D01*
Y117441D01*
X177835D01*
X176195Y119081D02*
X175867Y119409D01*
X175212D01*
X174883Y119081D01*
Y117769D01*
X175212Y117441D01*
X175867D01*
X176195Y117769D01*
Y119081D01*
X172916Y117441D02*
X174227D01*
X172916Y118753D01*
Y119081D01*
X173244Y119409D01*
X173900D01*
X174227Y119081D01*
X172260Y117441D02*
Y119409D01*
X171604Y118753D01*
X170948Y119409D01*
Y117441D01*
X178491Y123346D02*
X179147Y123018D01*
X179803Y122362D01*
Y121706D01*
X179475Y121378D01*
X178819D01*
X178491Y121706D01*
Y122034D01*
X178819Y122362D01*
X179803D01*
X177835Y121378D02*
Y121706D01*
X177507D01*
Y121378D01*
X177835D01*
X176195Y123018D02*
X175867Y123346D01*
X175212D01*
X174883Y123018D01*
Y121706D01*
X175212Y121378D01*
X175867D01*
X176195Y121706D01*
Y123018D01*
X173244Y121378D02*
Y123346D01*
X174227Y122362D01*
X172916D01*
X172260Y121378D02*
Y123346D01*
X171604Y122690D01*
X170948Y123346D01*
Y121378D01*
X195551Y117441D02*
Y119409D01*
X194567D01*
X194239Y119081D01*
Y118425D01*
X194567Y118097D01*
X195551D01*
X194895D02*
X194239Y117441D01*
X192599Y119409D02*
X193255D01*
X193583Y119081D01*
Y117769D01*
X193255Y117441D01*
X192599D01*
X192271Y117769D01*
Y119081D01*
X192599Y119409D01*
X190304Y119081D02*
X190631Y119409D01*
X191288D01*
X191615Y119081D01*
Y117769D01*
X191288Y117441D01*
X190631D01*
X190304Y117769D01*
X188336Y117441D02*
X189648D01*
X188336Y118753D01*
Y119081D01*
X188664Y119409D01*
X189320D01*
X189648Y119081D01*
X195551Y121378D02*
Y123346D01*
X194567D01*
X194239Y123018D01*
Y122362D01*
X194567Y122034D01*
X195551D01*
X194895D02*
X194239Y121378D01*
X192599Y123346D02*
X193255D01*
X193583Y123018D01*
Y121706D01*
X193255Y121378D01*
X192599D01*
X192271Y121706D01*
Y123018D01*
X192599Y123346D01*
X190304Y123018D02*
X190631Y123346D01*
X191288D01*
X191615Y123018D01*
Y121706D01*
X191288Y121378D01*
X190631D01*
X190304Y121706D01*
X189648Y121378D02*
X188992D01*
X189320D01*
Y123346D01*
X189648Y123018D01*
X179803Y128923D02*
X179475Y129251D01*
X178819D01*
X178491Y128923D01*
Y128595D01*
X178819Y128267D01*
X178491Y127939D01*
Y127611D01*
X178819Y127284D01*
X179475D01*
X179803Y127611D01*
Y127939D01*
X179475Y128267D01*
X179803Y128595D01*
Y128923D01*
X179475Y128267D02*
X178819D01*
X177835Y127284D02*
Y127611D01*
X177507D01*
Y127284D01*
X177835D01*
X174883D02*
X176195D01*
X174883Y128595D01*
Y128923D01*
X175212Y129251D01*
X175867D01*
X176195Y128923D01*
X172916Y129251D02*
X174227D01*
Y128267D01*
X173572Y128595D01*
X173244D01*
X172916Y128267D01*
Y127611D01*
X173244Y127284D01*
X173900D01*
X174227Y127611D01*
X172260Y127284D02*
Y129251D01*
X171604Y128595D01*
X170948Y129251D01*
Y127284D01*
X178819Y131220D02*
Y133188D01*
X179803Y132204D01*
X178491D01*
X177835Y131220D02*
Y131549D01*
X177507D01*
Y131220D01*
X177835D01*
X176195Y132860D02*
X175867Y133188D01*
X175212D01*
X174883Y132860D01*
Y132532D01*
X175212Y132204D01*
X174883Y131876D01*
Y131549D01*
X175212Y131220D01*
X175867D01*
X176195Y131549D01*
Y131876D01*
X175867Y132204D01*
X176195Y132532D01*
Y132860D01*
X175867Y132204D02*
X175212D01*
X174227Y133188D02*
X172916D01*
Y132860D01*
X174227Y131549D01*
Y131220D01*
X172260D02*
Y133188D01*
X171604Y132532D01*
X170948Y133188D01*
Y131220D01*
X179803Y137126D02*
X179147D01*
X179475D01*
Y139094D01*
X179803Y138766D01*
X178163Y137126D02*
Y137454D01*
X177835D01*
Y137126D01*
X178163D01*
X175212D02*
X176523D01*
X175212Y138438D01*
Y138766D01*
X175539Y139094D01*
X176195D01*
X176523Y138766D01*
X174556Y139094D02*
X173244D01*
Y138766D01*
X174556Y137454D01*
Y137126D01*
X172588D02*
Y139094D01*
X171932Y138438D01*
X171276Y139094D01*
Y137126D01*
X178491Y143031D02*
X179147Y142703D01*
X179803Y142047D01*
Y141391D01*
X179475Y141063D01*
X178819D01*
X178491Y141391D01*
Y141719D01*
X178819Y142047D01*
X179803D01*
X177835Y141063D02*
Y141391D01*
X177507D01*
Y141063D01*
X177835D01*
X176195Y142703D02*
X175867Y143031D01*
X175212D01*
X174883Y142703D01*
Y142375D01*
X175212Y142047D01*
X174883Y141719D01*
Y141391D01*
X175212Y141063D01*
X175867D01*
X176195Y141391D01*
Y141719D01*
X175867Y142047D01*
X176195Y142375D01*
Y142703D01*
X175867Y142047D02*
X175212D01*
X174227Y141063D02*
X173572D01*
X173900D01*
Y143031D01*
X174227Y142703D01*
X172588Y141063D02*
Y143031D01*
X171932Y142375D01*
X171276Y143031D01*
Y141063D01*
X178491Y146968D02*
X179803D01*
Y145984D01*
X179147Y146312D01*
X178819D01*
X178491Y145984D01*
Y145328D01*
X178819Y145000D01*
X179475D01*
X179803Y145328D01*
X177835Y145000D02*
Y145328D01*
X177507D01*
Y145000D01*
X177835D01*
X176195D02*
X175540D01*
X175867D01*
Y146968D01*
X176195Y146640D01*
X174556Y145000D02*
X173900D01*
X174227D01*
Y146968D01*
X174556Y146640D01*
X172916Y145000D02*
Y146968D01*
X172260Y146312D01*
X171604Y146968D01*
Y145000D01*
X179803Y152873D02*
X178491D01*
Y152545D01*
X179803Y151233D01*
Y150906D01*
X177835D02*
Y151233D01*
X177507D01*
Y150906D01*
X177835D01*
X176195Y152545D02*
X175867Y152873D01*
X175212D01*
X174883Y152545D01*
Y152217D01*
X175212Y151889D01*
X175540D01*
X175212D01*
X174883Y151561D01*
Y151233D01*
X175212Y150906D01*
X175867D01*
X176195Y151233D01*
X172916Y150906D02*
X174227D01*
X172916Y152217D01*
Y152545D01*
X173244Y152873D01*
X173900D01*
X174227Y152545D01*
X172260Y150906D02*
Y152873D01*
X171604Y152217D01*
X170948Y152873D01*
Y150906D01*
X178491Y156810D02*
X179803D01*
Y155826D01*
X179147Y156154D01*
X178819D01*
X178491Y155826D01*
Y155171D01*
X178819Y154842D01*
X179475D01*
X179803Y155171D01*
X177835Y154842D02*
Y155171D01*
X177507D01*
Y154842D01*
X177835D01*
X174883Y156810D02*
X175540Y156482D01*
X176195Y155826D01*
Y155171D01*
X175867Y154842D01*
X175212D01*
X174883Y155171D01*
Y155499D01*
X175212Y155826D01*
X176195D01*
X172916Y154842D02*
X174227D01*
X172916Y156154D01*
Y156482D01*
X173244Y156810D01*
X173900D01*
X174227Y156482D01*
X172260Y154842D02*
Y156810D01*
X171604Y156154D01*
X170948Y156810D01*
Y154842D01*
X195551Y127284D02*
Y129251D01*
X194567D01*
X194239Y128923D01*
Y128267D01*
X194567Y127939D01*
X195551D01*
X194895D02*
X194239Y127284D01*
X192599Y129251D02*
X193255D01*
X193583Y128923D01*
Y127611D01*
X193255Y127284D01*
X192599D01*
X192271Y127611D01*
Y128923D01*
X192599Y129251D01*
X191615D02*
Y127611D01*
X191288Y127284D01*
X190631D01*
X190304Y127611D01*
Y129251D01*
X189648D02*
X188336D01*
X188992D01*
Y127284D01*
X186368D02*
X187680D01*
X186368Y128595D01*
Y128923D01*
X186696Y129251D01*
X187352D01*
X187680Y128923D01*
X195551Y131220D02*
Y133188D01*
X194567D01*
X194239Y132860D01*
Y132204D01*
X194567Y131876D01*
X195551D01*
X194895D02*
X194239Y131220D01*
X192599Y133188D02*
X193255D01*
X193583Y132860D01*
Y131549D01*
X193255Y131220D01*
X192599D01*
X192271Y131549D01*
Y132860D01*
X192599Y133188D01*
X191615D02*
Y131549D01*
X191288Y131220D01*
X190631D01*
X190304Y131549D01*
Y133188D01*
X189648D02*
X188336D01*
X188992D01*
Y131220D01*
X187680D02*
X187024D01*
X187352D01*
Y133188D01*
X187680Y132860D01*
X195551Y137126D02*
Y139094D01*
X194567D01*
X194239Y138766D01*
Y138110D01*
X194567Y137782D01*
X195551D01*
X194895D02*
X194239Y137126D01*
X192599Y139094D02*
X193255D01*
X193583Y138766D01*
Y137454D01*
X193255Y137126D01*
X192599D01*
X192271Y137454D01*
Y138766D01*
X192599Y139094D01*
X191615D02*
Y137126D01*
Y137782D01*
X190304Y139094D01*
X191288Y138110D01*
X190304Y137126D01*
X189648Y138766D02*
X189320Y139094D01*
X188664D01*
X188336Y138766D01*
Y138438D01*
X188664Y138110D01*
X188992D01*
X188664D01*
X188336Y137782D01*
Y137454D01*
X188664Y137126D01*
X189320D01*
X189648Y137454D01*
X195551Y141063D02*
Y143031D01*
X194567D01*
X194239Y142703D01*
Y142047D01*
X194567Y141719D01*
X195551D01*
X194895D02*
X194239Y141063D01*
X192599Y143031D02*
X193255D01*
X193583Y142703D01*
Y141391D01*
X193255Y141063D01*
X192599D01*
X192271Y141391D01*
Y142703D01*
X192599Y143031D01*
X191615D02*
Y141063D01*
Y141719D01*
X190304Y143031D01*
X191288Y142047D01*
X190304Y141063D01*
X188336D02*
X189648D01*
X188336Y142375D01*
Y142703D01*
X188664Y143031D01*
X189320D01*
X189648Y142703D01*
X195551Y145000D02*
Y146968D01*
X194567D01*
X194239Y146640D01*
Y145984D01*
X194567Y145656D01*
X195551D01*
X194895D02*
X194239Y145000D01*
X192599Y146968D02*
X193255D01*
X193583Y146640D01*
Y145328D01*
X193255Y145000D01*
X192599D01*
X192271Y145328D01*
Y146640D01*
X192599Y146968D01*
X191615D02*
Y145000D01*
Y145656D01*
X190304Y146968D01*
X191288Y145984D01*
X190304Y145000D01*
X189648D02*
X188992D01*
X189320D01*
Y146968D01*
X189648Y146640D01*
X195551Y150906D02*
Y152873D01*
X194567D01*
X194239Y152545D01*
Y151889D01*
X194567Y151561D01*
X195551D01*
X194895D02*
X194239Y150906D01*
X192599Y152873D02*
X193255D01*
X193583Y152545D01*
Y151233D01*
X193255Y150906D01*
X192599D01*
X192271Y151233D01*
Y152545D01*
X192599Y152873D01*
X191615D02*
Y151561D01*
X190960Y150906D01*
X190304Y151561D01*
Y152873D01*
X188336Y150906D02*
X189648D01*
X188336Y152217D01*
Y152545D01*
X188664Y152873D01*
X189320D01*
X189648Y152545D01*
X195551Y154842D02*
Y156810D01*
X194567D01*
X194239Y156482D01*
Y155826D01*
X194567Y155499D01*
X195551D01*
X194895D02*
X194239Y154842D01*
X192599Y156810D02*
X193255D01*
X193583Y156482D01*
Y155171D01*
X193255Y154842D01*
X192599D01*
X192271Y155171D01*
Y156482D01*
X192599Y156810D01*
X191615D02*
Y155499D01*
X190960Y154842D01*
X190304Y155499D01*
Y156810D01*
X189648Y154842D02*
X188992D01*
X189320D01*
Y156810D01*
X189648Y156482D01*
X20000Y125315D02*
X21968D01*
Y126299D01*
X21640Y126627D01*
X20984D01*
X20656Y126299D01*
Y125315D01*
Y125971D02*
X20000Y126627D01*
X21968Y128267D02*
Y127611D01*
X21640Y127283D01*
X20328D01*
X20000Y127611D01*
Y128267D01*
X20328Y128595D01*
X21640D01*
X21968Y128267D01*
Y129251D02*
X20328D01*
X20000Y129579D01*
Y130235D01*
X20328Y130563D01*
X21968D01*
Y131219D02*
Y132530D01*
Y131875D01*
X20000D01*
Y133186D02*
Y133842D01*
Y133514D01*
X21968D01*
X21640Y133186D01*
X9173Y133189D02*
X11141D01*
Y134173D01*
X10813Y134501D01*
X10157D01*
X9829Y134173D01*
Y133189D01*
Y133845D02*
X9173Y134501D01*
X11141Y136141D02*
Y135485D01*
X10813Y135157D01*
X9501D01*
X9173Y135485D01*
Y136141D01*
X9501Y136469D01*
X10813D01*
X11141Y136141D01*
Y137125D02*
X9173D01*
X9829D01*
X11141Y138437D01*
X10157Y137453D01*
X9173Y138437D01*
X10813Y139093D02*
X11141Y139420D01*
Y140076D01*
X10813Y140404D01*
X10485D01*
X10157Y140076D01*
Y139749D01*
Y140076D01*
X9829Y140404D01*
X9501D01*
X9173Y140076D01*
Y139420D01*
X9501Y139093D01*
X6221Y113504D02*
X8188D01*
Y114488D01*
X7860Y114816D01*
X7204D01*
X6876Y114488D01*
Y113504D01*
Y114160D02*
X6221Y114816D01*
X8188Y116456D02*
Y115800D01*
X7860Y115472D01*
X6548D01*
X6221Y115800D01*
Y116456D01*
X6548Y116784D01*
X7860D01*
X8188Y116456D01*
Y117440D02*
X6221D01*
X6876D01*
X8188Y118752D01*
X7204Y117768D01*
X6221Y118752D01*
Y119407D02*
Y120063D01*
Y119736D01*
X8188D01*
X7860Y119407D01*
X6221Y122362D02*
X8188D01*
Y123346D01*
X7860Y123674D01*
X7204D01*
X6876Y123346D01*
Y122362D01*
Y123018D02*
X6221Y123674D01*
X8188Y125314D02*
Y124658D01*
X7860Y124330D01*
X6548D01*
X6221Y124658D01*
Y125314D01*
X6548Y125642D01*
X7860D01*
X8188Y125314D01*
Y126298D02*
X6221D01*
X6876D01*
X8188Y127610D01*
X7204Y126626D01*
X6221Y127610D01*
Y129578D02*
Y128266D01*
X7532Y129578D01*
X7860D01*
X8188Y129250D01*
Y128594D01*
X7860Y128266D01*
X20000Y135158D02*
X21968D01*
Y136141D01*
X21640Y136469D01*
X20984D01*
X20656Y136141D01*
Y135158D01*
Y135813D02*
X20000Y136469D01*
X21968Y138109D02*
Y137453D01*
X21640Y137125D01*
X20328D01*
X20000Y137453D01*
Y138109D01*
X20328Y138437D01*
X21640D01*
X21968Y138109D01*
Y139093D02*
X20328D01*
X20000Y139421D01*
Y140077D01*
X20328Y140405D01*
X21968D01*
Y141061D02*
Y142373D01*
Y141717D01*
X20000D01*
Y144341D02*
Y143029D01*
X21312Y144341D01*
X21640D01*
X21968Y144013D01*
Y143357D01*
X21640Y143029D01*
X30827Y126299D02*
X32795D01*
Y127283D01*
X32467Y127611D01*
X31811D01*
X31483Y127283D01*
Y126299D01*
Y126955D02*
X30827Y127611D01*
X32795Y129251D02*
Y128595D01*
X32467Y128267D01*
X31155D01*
X30827Y128595D01*
Y129251D01*
X31155Y129579D01*
X32467D01*
X32795Y129251D01*
Y130235D02*
X31483D01*
X30827Y130891D01*
X31483Y131547D01*
X32795D01*
X30827Y132203D02*
Y132859D01*
Y132531D01*
X32795D01*
X32467Y132203D01*
X30827Y136142D02*
X32795D01*
Y137126D01*
X32467Y137454D01*
X31811D01*
X31483Y137126D01*
Y136142D01*
Y136798D02*
X30827Y137454D01*
X32795Y139093D02*
Y138438D01*
X32467Y138110D01*
X31155D01*
X30827Y138438D01*
Y139093D01*
X31155Y139421D01*
X32467D01*
X32795Y139093D01*
Y140077D02*
X31483D01*
X30827Y140733D01*
X31483Y141389D01*
X32795D01*
X30827Y143357D02*
Y142045D01*
X32139Y143357D01*
X32467D01*
X32795Y143029D01*
Y142373D01*
X32467Y142045D01*
X120748Y172558D02*
Y170591D01*
X119764D01*
X119436Y170919D01*
Y171247D01*
X119764Y171574D01*
X120748D01*
X119764D01*
X119436Y171903D01*
Y172230D01*
X119764Y172558D01*
X120748D01*
X118780Y171574D02*
X117468D01*
X93189Y173214D02*
Y171247D01*
X92205D01*
X91877Y171574D01*
Y171902D01*
X92205Y172230D01*
X93189D01*
X92205D01*
X91877Y172558D01*
Y172886D01*
X92205Y173214D01*
X93189D01*
X90893Y172558D02*
X90237D01*
X89909Y172230D01*
Y171247D01*
X90893D01*
X91221Y171574D01*
X90893Y171902D01*
X89909D01*
X88925Y172886D02*
Y172558D01*
X89253D01*
X88597D01*
X88925D01*
Y171574D01*
X88597Y171247D01*
X87285Y172886D02*
Y172558D01*
X87613D01*
X86957D01*
X87285D01*
Y171574D01*
X86957Y171247D01*
X84990D02*
X85646D01*
X85974Y171574D01*
Y172230D01*
X85646Y172558D01*
X84990D01*
X84662Y172230D01*
Y171902D01*
X85974D01*
X84006Y172558D02*
Y171247D01*
Y171902D01*
X83678Y172230D01*
X83350Y172558D01*
X83022D01*
X82038D02*
Y171574D01*
X81710Y171247D01*
X80726D01*
Y170919D01*
X81054Y170591D01*
X81382D01*
X80726Y171247D02*
Y172558D01*
X99198Y206023D02*
X97886D01*
X98542D01*
Y204055D01*
X96902D02*
X96246D01*
X95918Y204383D01*
Y205039D01*
X96246Y205367D01*
X96902D01*
X97230Y205039D01*
Y204383D01*
X96902Y204055D01*
X93294Y205367D02*
Y204383D01*
X92966Y204055D01*
X91982D01*
Y205367D01*
X91326Y204055D02*
X90342D01*
X90014Y204383D01*
X90342Y204711D01*
X90998D01*
X91326Y205039D01*
X90998Y205367D01*
X90014D01*
X88374Y204055D02*
X89030D01*
X89358Y204383D01*
Y205039D01*
X89030Y205367D01*
X88374D01*
X88046Y205039D01*
Y204711D01*
X89358D01*
X87391Y205367D02*
Y204055D01*
Y204711D01*
X87063Y205039D01*
X86734Y205367D01*
X86406D01*
X85423D02*
X85095D01*
Y205039D01*
X85423D01*
Y205367D01*
Y204383D02*
X85095D01*
Y204055D01*
X85423D01*
Y204383D01*
X81815Y204055D02*
Y206023D01*
X80831D01*
X80503Y205695D01*
Y205039D01*
X80831Y204711D01*
X81815D01*
X79847Y205367D02*
Y204383D01*
X79519Y204055D01*
X78535D01*
Y205367D01*
X77551Y205695D02*
Y205367D01*
X77879D01*
X77223D01*
X77551D01*
Y204383D01*
X77223Y204055D01*
X74271D02*
Y206023D01*
X73287D01*
X72960Y205695D01*
Y205039D01*
X73287Y204711D01*
X74271D01*
X73615D02*
X72960Y204055D01*
X71320D02*
Y206023D01*
X72303Y205039D01*
X70992D01*
X67056Y206023D02*
X68368D01*
Y205039D01*
X67712D01*
X68368D01*
Y204055D01*
X66400D02*
X65744D01*
X66072D01*
Y205367D01*
X66400D01*
X64760D02*
Y204055D01*
Y204711D01*
X64432Y205039D01*
X64104Y205367D01*
X63776D01*
X62792Y204055D02*
X61808D01*
X61480Y204383D01*
X61808Y204711D01*
X62464D01*
X62792Y205039D01*
X62464Y205367D01*
X61480D01*
X60496Y205695D02*
Y205367D01*
X60824D01*
X60168D01*
X60496D01*
Y204383D01*
X60168Y204055D01*
X19371Y111562D02*
Y112874D01*
X20355D01*
X20027Y112218D01*
Y111890D01*
X20355Y111562D01*
X21011D01*
X21339Y111890D01*
Y112546D01*
X21011Y112874D01*
X19699Y110906D02*
X19371Y110578D01*
Y109922D01*
X19699Y109594D01*
X21011D01*
X21339Y109922D01*
Y110578D01*
X21011Y110906D01*
X19699D01*
X99198Y213800D02*
Y211832D01*
X98214D01*
X97886Y212160D01*
Y212488D01*
X98214Y212816D01*
X99198D01*
X98214D01*
X97886Y213144D01*
Y213472D01*
X98214Y213800D01*
X99198D01*
X96246D02*
X96902D01*
X97230Y213472D01*
Y212160D01*
X96902Y211832D01*
X96246D01*
X95918Y212160D01*
Y213472D01*
X96246Y213800D01*
X95262Y211832D02*
Y213144D01*
X94606Y213800D01*
X93950Y213144D01*
Y211832D01*
Y212816D01*
X95262D01*
X93294Y211832D02*
Y213800D01*
X92310D01*
X91982Y213472D01*
Y212816D01*
X92310Y212488D01*
X93294D01*
X92638D02*
X91982Y211832D01*
X91326Y213800D02*
Y211832D01*
X90342D01*
X90014Y212160D01*
Y213472D01*
X90342Y213800D01*
X91326D01*
X86079Y213472D02*
X86406Y213800D01*
X87063D01*
X87391Y213472D01*
Y213144D01*
X87063Y212816D01*
X86406D01*
X86079Y212488D01*
Y212160D01*
X86406Y211832D01*
X87063D01*
X87391Y212160D01*
X85423Y213800D02*
X84767D01*
X85095D01*
Y211832D01*
X85423D01*
X84767D01*
X83783Y213800D02*
X82471D01*
Y213472D01*
X83783Y212160D01*
Y211832D01*
X82471D01*
X80503Y213800D02*
X81815D01*
Y211832D01*
X80503D01*
X81815Y212816D02*
X81159D01*
X79847Y213144D02*
X79519D01*
Y212816D01*
X79847D01*
Y213144D01*
Y212160D02*
X79519D01*
Y211832D01*
X79847D01*
Y212160D01*
X76239Y213800D02*
Y211832D01*
X75583Y212488D01*
X74927Y211832D01*
Y213800D01*
X72303Y212488D02*
X70992D01*
X72303Y213144D02*
X70992D01*
X67056Y213800D02*
X68368D01*
Y212816D01*
X67712Y213144D01*
X67384D01*
X67056Y212816D01*
Y212160D01*
X67384Y211832D01*
X68040D01*
X68368Y212160D01*
X66400Y213472D02*
X66072Y213800D01*
X65416D01*
X65088Y213472D01*
Y212160D01*
X65416Y211832D01*
X66072D01*
X66400Y212160D01*
Y213472D01*
X99198Y209863D02*
Y207895D01*
X98214D01*
X97886Y208223D01*
Y208551D01*
X98214Y208879D01*
X99198D01*
X98214D01*
X97886Y209207D01*
Y209535D01*
X98214Y209863D01*
X99198D01*
X96246D02*
X96902D01*
X97230Y209535D01*
Y208223D01*
X96902Y207895D01*
X96246D01*
X95918Y208223D01*
Y209535D01*
X96246Y209863D01*
X95262Y207895D02*
Y209207D01*
X94606Y209863D01*
X93950Y209207D01*
Y207895D01*
Y208879D01*
X95262D01*
X93294Y207895D02*
Y209863D01*
X92310D01*
X91982Y209535D01*
Y208879D01*
X92310Y208551D01*
X93294D01*
X92638D02*
X91982Y207895D01*
X91326Y209863D02*
Y207895D01*
X90342D01*
X90014Y208223D01*
Y209535D01*
X90342Y209863D01*
X91326D01*
X86079Y209535D02*
X86406Y209863D01*
X87063D01*
X87391Y209535D01*
Y209207D01*
X87063Y208879D01*
X86406D01*
X86079Y208551D01*
Y208223D01*
X86406Y207895D01*
X87063D01*
X87391Y208223D01*
X85423Y209863D02*
X84767D01*
X85095D01*
Y207895D01*
X85423D01*
X84767D01*
X83783Y209863D02*
X82471D01*
Y209535D01*
X83783Y208223D01*
Y207895D01*
X82471D01*
X80503Y209863D02*
X81815D01*
Y207895D01*
X80503D01*
X81815Y208879D02*
X81159D01*
X79847Y209207D02*
X79519D01*
Y208879D01*
X79847D01*
Y209207D01*
Y208223D02*
X79519D01*
Y207895D01*
X79847D01*
Y208223D01*
X76239Y209863D02*
Y207895D01*
Y208879D01*
X74927D01*
Y209863D01*
Y207895D01*
X72303Y208551D02*
X70992D01*
X72303Y209207D02*
X70992D01*
X67056Y209863D02*
X67712Y209535D01*
X68368Y208879D01*
Y208223D01*
X68040Y207895D01*
X67384D01*
X67056Y208223D01*
Y208551D01*
X67384Y208879D01*
X68368D01*
X66400Y209535D02*
X66072Y209863D01*
X65416D01*
X65088Y209535D01*
Y208223D01*
X65416Y207895D01*
X66072D01*
X66400Y208223D01*
Y209535D01*
X99198Y217737D02*
Y216425D01*
X98542Y215769D01*
X97886Y216425D01*
Y217737D01*
X96902Y217081D02*
X96246D01*
X95918Y216753D01*
Y215769D01*
X96902D01*
X97230Y216097D01*
X96902Y216425D01*
X95918D01*
X95262Y217081D02*
Y215769D01*
Y216425D01*
X94934Y216753D01*
X94606Y217081D01*
X94278D01*
X93294Y215769D02*
X92638D01*
X92966D01*
Y217081D01*
X93294D01*
X91326D02*
X90670D01*
X90342Y216753D01*
Y215769D01*
X91326D01*
X91654Y216097D01*
X91326Y216425D01*
X90342D01*
X89686Y215769D02*
Y217081D01*
X88702D01*
X88374Y216753D01*
Y215769D01*
X87390Y217409D02*
Y217081D01*
X87718D01*
X87063D01*
X87390D01*
Y216097D01*
X87063Y215769D01*
X84111D02*
X83455D01*
X83783D01*
Y217737D01*
X84111Y217409D01*
X147324Y58740D02*
X149291D01*
Y57428D01*
X183511Y85419D02*
X183839Y85747D01*
X184495D01*
X184823Y85419D01*
Y84108D01*
X184495Y83780D01*
X183839D01*
X183511Y84108D01*
Y84763D01*
X184167D01*
X182855Y83780D02*
Y85747D01*
X181543Y83780D01*
Y85747D01*
X180887D02*
Y83780D01*
X179903D01*
X179575Y84108D01*
Y85419D01*
X179903Y85747D01*
X180887D01*
X184823Y65697D02*
X183511D01*
X184167D01*
Y63729D01*
X182855Y65697D02*
X181543Y63729D01*
Y65697D02*
X182855Y63729D01*
X184823Y53704D02*
Y55672D01*
X183511Y53704D01*
Y55672D01*
X182855Y53704D02*
Y55672D01*
X181871D01*
X181543Y55344D01*
Y54688D01*
X181871Y54360D01*
X182855D01*
X182199D02*
X181543Y53704D01*
X179575Y55344D02*
X179903Y55672D01*
X180559D01*
X180887Y55344D01*
Y55015D01*
X180559Y54688D01*
X179903D01*
X179575Y54360D01*
Y54032D01*
X179903Y53704D01*
X180559D01*
X180887Y54032D01*
X178919Y55672D02*
X177607D01*
X178263D01*
Y53704D01*
X184823Y15570D02*
Y14258D01*
X184167Y13602D01*
X183511Y14258D01*
Y15570D01*
X181543Y15242D02*
X181871Y15570D01*
X182527D01*
X182855Y15242D01*
Y13930D01*
X182527Y13602D01*
X181871D01*
X181543Y13930D01*
X179575Y15242D02*
X179903Y15570D01*
X180559D01*
X180887Y15242D01*
Y13930D01*
X180559Y13602D01*
X179903D01*
X179575Y13930D01*
X184823Y35621D02*
Y33653D01*
X184167Y34309D01*
X183511Y33653D01*
Y35621D01*
X182855D02*
Y33653D01*
X181871D01*
X181543Y33981D01*
Y35293D01*
X181871Y35621D01*
X182855D01*
X180887D02*
X180231D01*
X180559D01*
Y33653D01*
X180887D01*
X180231D01*
X178263Y35621D02*
X178919D01*
X179247Y35293D01*
Y33981D01*
X178919Y33653D01*
X178263D01*
X177935Y33981D01*
Y35293D01*
X178263Y35621D01*
X183511Y25268D02*
X183839Y25596D01*
X184495D01*
X184823Y25268D01*
Y23956D01*
X184495Y23628D01*
X183839D01*
X183511Y23956D01*
Y24612D01*
X184167D01*
X182855Y23628D02*
Y25596D01*
X181543Y23628D01*
Y25596D01*
X180887D02*
Y23628D01*
X179903D01*
X179575Y23956D01*
Y25268D01*
X179903Y25596D01*
X180887D01*
X183511Y45318D02*
X183839Y45646D01*
X184495D01*
X184823Y45318D01*
Y44990D01*
X184495Y44662D01*
X183839D01*
X183511Y44334D01*
Y44006D01*
X183839Y43678D01*
X184495D01*
X184823Y44006D01*
X182855Y45646D02*
Y43678D01*
X182199Y44334D01*
X181543Y43678D01*
Y45646D01*
X179575Y45318D02*
X179903Y45646D01*
X180559D01*
X180887Y45318D01*
Y44006D01*
X180559Y43678D01*
X179903D01*
X179575Y44006D01*
X178919Y45646D02*
Y43678D01*
X177607D01*
X176951Y45646D02*
Y43678D01*
Y44334D01*
X175639Y45646D01*
X176623Y44662D01*
X175639Y43678D01*
X184823Y73754D02*
Y75722D01*
X183839D01*
X183511Y75394D01*
Y74738D01*
X183839Y74410D01*
X184823D01*
X184167D02*
X183511Y73754D01*
X182855Y75722D02*
X181543Y73754D01*
Y75722D02*
X182855Y73754D01*
X147324Y38071D02*
Y38727D01*
X147651Y39055D01*
X148963D01*
X149291Y38727D01*
Y38071D01*
X148963Y37743D01*
X147651D01*
X147324Y38071D01*
X147651Y18058D02*
X147324Y18386D01*
Y19042D01*
X147651Y19370D01*
X147979D01*
X148307Y19042D01*
Y18386D01*
X148635Y18058D01*
X148963D01*
X149291Y18386D01*
Y19042D01*
X148963Y19370D01*
D66*
X165354Y117126D02*
G03*
X168307Y120079I0J2953D01*
G01*
X165354Y123031D02*
G03*
X162402Y120079I-0J-2953D01*
G01*
M02*
