G04*
G04 #@! TF.GenerationSoftware,Altium Limited,Altium Designer,25.8.1 (18)*
G04*
G04 Layer_Physical_Order=1*
G04 Layer_Color=255*
%FSLAX25Y25*%
%MOIN*%
G70*
G04*
G04 #@! TF.SameCoordinates,505960B2-D5C5-487F-9968-D24D6DC54575*
G04*
G04*
G04 #@! TF.FilePolarity,Positive*
G04*
G01*
G75*
%ADD24R,0.03740X0.04331*%
%ADD25R,0.04331X0.04331*%
%ADD26R,0.05118X0.06299*%
%ADD27R,0.06299X0.05118*%
%ADD28R,0.05750X0.02200*%
%ADD29R,0.08661X0.04134*%
%ADD30R,0.02254X0.01438*%
%ADD31R,0.09055X0.03543*%
%ADD32R,0.03543X0.09055*%
%ADD33R,0.01438X0.02254*%
%ADD34R,0.19685X0.07874*%
%ADD35R,0.01968X0.01378*%
%ADD36R,0.01575X0.01900*%
%ADD37R,0.01500X0.01575*%
G04:AMPARAMS|DCode=38|XSize=59.06mil|YSize=59.06mil|CornerRadius=14.76mil|HoleSize=0mil|Usage=FLASHONLY|Rotation=270.000|XOffset=0mil|YOffset=0mil|HoleType=Round|Shape=RoundedRectangle|*
%AMROUNDEDRECTD38*
21,1,0.05906,0.02953,0,0,270.0*
21,1,0.02953,0.05906,0,0,270.0*
1,1,0.02953,-0.01476,-0.01476*
1,1,0.02953,-0.01476,0.01476*
1,1,0.02953,0.01476,0.01476*
1,1,0.02953,0.01476,-0.01476*
%
%ADD38ROUNDEDRECTD38*%
%ADD39R,0.12598X0.03937*%
%ADD40R,0.04300X0.07500*%
%ADD41R,0.04134X0.03937*%
%ADD42R,0.08503X0.03791*%
G04:AMPARAMS|DCode=43|XSize=19.68mil|YSize=19.68mil|CornerRadius=4.92mil|HoleSize=0mil|Usage=FLASHONLY|Rotation=0.000|XOffset=0mil|YOffset=0mil|HoleType=Round|Shape=RoundedRectangle|*
%AMROUNDEDRECTD43*
21,1,0.01968,0.00984,0,0,0.0*
21,1,0.00984,0.01968,0,0,0.0*
1,1,0.00984,0.00492,-0.00492*
1,1,0.00984,-0.00492,-0.00492*
1,1,0.00984,-0.00492,0.00492*
1,1,0.00984,0.00492,0.00492*
%
%ADD43ROUNDEDRECTD43*%
%ADD44R,0.03937X0.05118*%
%ADD45R,0.01968X0.03937*%
%ADD46R,0.19685X0.07874*%
%ADD49R,0.02756X0.07087*%
%ADD50R,0.03150X0.07087*%
%ADD56C,0.00992*%
%ADD57R,0.08071X0.08071*%
%ADD65C,0.01968*%
%ADD66C,0.01000*%
%ADD67C,0.00591*%
%ADD68C,0.01181*%
%ADD69C,0.03937*%
%ADD70C,0.05118*%
%ADD71R,0.03150X0.16929*%
%ADD72C,0.03543*%
%ADD73C,0.02756*%
%ADD74C,0.03937*%
G36*
X7878Y187999D02*
X7874Y187992D01*
X7874D01*
X7842Y187598D01*
Y180952D01*
X7426Y180625D01*
X4640D01*
Y188550D01*
X7570D01*
X7878Y187999D01*
D02*
G37*
G36*
X141732Y176225D02*
X141763Y176212D01*
X141776Y176181D01*
X141805D01*
Y173561D01*
X141254Y173394D01*
X141118Y173598D01*
X140497Y174013D01*
X139764Y174159D01*
Y174140D01*
X47244D01*
Y174147D01*
X46497Y174048D01*
X45801Y173760D01*
X45203Y173301D01*
X44744Y172703D01*
X44456Y172007D01*
X44357Y171260D01*
X44364D01*
Y135827D01*
X44352D01*
X44272Y135427D01*
X44046Y135088D01*
X43707Y134861D01*
X43307Y134782D01*
Y134779D01*
X42489Y134671D01*
X41728Y134356D01*
X41074Y133854D01*
X40571Y133200D01*
X40256Y132438D01*
X40148Y131620D01*
X40158D01*
Y122432D01*
X39258D01*
X39101Y122432D01*
X38707D01*
X38313Y122885D01*
Y128884D01*
X38570Y129141D01*
X38780Y129647D01*
Y130195D01*
X38570Y130702D01*
X38182Y131089D01*
X37676Y131299D01*
X37128D01*
X36621Y131089D01*
X36233Y130702D01*
X36024Y130195D01*
Y129647D01*
X36233Y129141D01*
X36490Y128884D01*
Y122432D01*
X34927D01*
X34770Y122432D01*
X34376D01*
X34219Y122432D01*
X30597D01*
X30439Y122432D01*
X30045D01*
X29888Y122432D01*
X26266D01*
X26108Y122432D01*
X25715D01*
X25557Y122432D01*
X24533D01*
Y127021D01*
X25143D01*
Y129247D01*
X22101D01*
Y127021D01*
X22711D01*
Y122432D01*
X21935D01*
X21778Y122432D01*
X21384D01*
X21226Y122432D01*
X17604D01*
X17447Y122432D01*
X17447Y122432D01*
X17053D01*
Y122432D01*
X16896Y122432D01*
X15996D01*
Y125538D01*
X16230D01*
Y128580D01*
X15996D01*
Y129475D01*
X16049D01*
Y132517D01*
X16341Y132947D01*
X21602D01*
X22101Y132822D01*
Y130596D01*
X25143D01*
Y132822D01*
X25642Y132947D01*
X37402D01*
Y132928D01*
X38134Y133073D01*
X38756Y133489D01*
X39171Y134110D01*
X39316Y134843D01*
X39297D01*
Y139227D01*
X39318D01*
Y141805D01*
X41285D01*
X41542Y141548D01*
X42049Y141339D01*
X42597D01*
X43103Y141548D01*
X43491Y141936D01*
X43701Y142443D01*
Y142991D01*
X43491Y143497D01*
X43234Y143754D01*
Y175197D01*
X43246D01*
X43326Y175597D01*
X43553Y175936D01*
X43892Y176162D01*
X44291Y176242D01*
Y176254D01*
X52165D01*
X137008Y176254D01*
X141732D01*
Y176225D01*
D02*
G37*
G36*
X25197Y170669D02*
X18898D01*
Y174496D01*
X18897Y174496D01*
X19325Y174721D01*
X20108Y175286D01*
X20770Y175989D01*
X21289Y176804D01*
X21646Y177701D01*
X21827Y178650D01*
X21828Y179616D01*
X21646Y180565D01*
X21290Y181463D01*
X20771Y182278D01*
X20109Y182980D01*
X19326Y183546D01*
X18898Y183771D01*
X18898Y183771D01*
Y187598D01*
X25197D01*
Y170669D01*
D02*
G37*
G36*
X14567Y183772D02*
X14568D01*
X14140Y183547D01*
X13357Y182981D01*
X12694Y182279D01*
X12175Y181464D01*
X11819Y180566D01*
X11637Y179618D01*
X11637Y178652D01*
X11818Y177703D01*
X12175Y176805D01*
X12693Y175990D01*
X13356Y175287D01*
X14139Y174722D01*
X14567Y174496D01*
X14567Y174496D01*
X14567Y174497D01*
Y170669D01*
X8268D01*
Y187598D01*
X14567D01*
Y183772D01*
D02*
G37*
G36*
X16299Y162165D02*
Y162056D01*
X16215Y161853D01*
X16060Y161698D01*
X15858Y161614D01*
X15638D01*
X15436Y161698D01*
X15281Y161853D01*
X15197Y162056D01*
Y162165D01*
Y164961D01*
X16299D01*
X16299Y162165D01*
D02*
G37*
G36*
X14331D02*
Y162056D01*
X14247Y161853D01*
X14092Y161698D01*
X13889Y161614D01*
X13670D01*
X13467Y161698D01*
X13312Y161853D01*
X13228Y162056D01*
Y162165D01*
Y164961D01*
X14331D01*
Y162165D01*
D02*
G37*
G36*
X12362D02*
Y162056D01*
X12278Y161853D01*
X12123Y161698D01*
X11921Y161614D01*
X11701D01*
X11499Y161698D01*
X11344Y161853D01*
X11260Y162056D01*
Y162165D01*
X11260D01*
Y164961D01*
X12362D01*
Y162165D01*
D02*
G37*
G36*
X10394D02*
Y162056D01*
X10310Y161853D01*
X10155Y161698D01*
X9952Y161614D01*
X9733D01*
X9530Y161698D01*
X9375Y161853D01*
X9291Y162056D01*
Y162165D01*
Y164961D01*
X10394D01*
Y162165D01*
D02*
G37*
G36*
X3235Y164370D02*
X3211D01*
X3356Y163641D01*
X3769Y163023D01*
X4387Y162610D01*
X5116Y162466D01*
Y162489D01*
X8865D01*
Y162056D01*
X8898Y161977D01*
Y161893D01*
X8982Y161690D01*
X8819Y161457D01*
X8585Y161294D01*
X8383Y161378D01*
X8298D01*
X8220Y161410D01*
X5315D01*
X5014Y161286D01*
X4952Y161135D01*
X3169D01*
X3137Y161214D01*
X2749Y161601D01*
X2243Y161811D01*
X1694D01*
X1188Y161601D01*
X800Y161214D01*
X591Y160707D01*
Y160159D01*
X800Y159652D01*
X1188Y159265D01*
X1694Y159055D01*
X2243D01*
X2749Y159265D01*
X3137Y159652D01*
X3169Y159731D01*
X4707D01*
X4941Y159218D01*
X4912Y159071D01*
X4889Y159016D01*
Y157913D01*
X4912Y157858D01*
X4941Y157711D01*
X4707Y157199D01*
X1969D01*
Y157218D01*
X1316Y157088D01*
X762Y156718D01*
X551Y156402D01*
X0Y156570D01*
Y188550D01*
X3235D01*
Y164370D01*
D02*
G37*
G36*
X22244Y159882D02*
X19339D01*
X19137Y159966D01*
X18981Y160121D01*
X18898Y160323D01*
Y160433D01*
Y160543D01*
X18981Y160745D01*
X19137Y160900D01*
X19339Y160984D01*
X22244D01*
Y159882D01*
D02*
G37*
G36*
X8422Y160900D02*
X8578Y160745D01*
X8661Y160543D01*
Y160433D01*
Y160323D01*
X8578Y160121D01*
X8422Y159966D01*
X8220Y159882D01*
X5315D01*
Y160984D01*
X8220D01*
X8422Y160900D01*
D02*
G37*
G36*
X22244Y157913D02*
X19339D01*
X19137Y157997D01*
X18981Y158152D01*
X18898Y158355D01*
Y158465D01*
Y158574D01*
X18981Y158777D01*
X19137Y158932D01*
X19339Y159016D01*
X19449D01*
Y159016D01*
X22244D01*
Y157913D01*
D02*
G37*
G36*
X8110Y159016D02*
X8220D01*
X8422Y158932D01*
X8578Y158777D01*
X8661Y158574D01*
Y158465D01*
Y158355D01*
X8578Y158152D01*
X8422Y157997D01*
X8220Y157913D01*
X5315D01*
Y159016D01*
X8110Y159016D01*
D02*
G37*
G36*
X22244Y155945D02*
X19339D01*
X19137Y156029D01*
X18981Y156184D01*
X18898Y156386D01*
Y156496D01*
Y156606D01*
X18981Y156808D01*
X19137Y156963D01*
X19339Y157047D01*
X22244D01*
Y155945D01*
D02*
G37*
G36*
X8422Y156963D02*
X8578Y156808D01*
X8661Y156606D01*
Y156496D01*
Y156386D01*
X8578Y156184D01*
X8422Y156029D01*
X8220Y155945D01*
X5315D01*
Y157047D01*
X8220D01*
X8422Y156963D01*
D02*
G37*
G36*
X22244Y152008D02*
X19339D01*
X19137Y152092D01*
X18981Y152247D01*
X18898Y152449D01*
Y152559D01*
Y152669D01*
X18981Y152871D01*
X19137Y153026D01*
X19339Y153110D01*
X22244D01*
Y152008D01*
D02*
G37*
G36*
X8422Y153026D02*
X8578Y152871D01*
X8661Y152669D01*
Y152559D01*
Y152449D01*
X8578Y152247D01*
X8422Y152092D01*
X8220Y152008D01*
X5315D01*
Y153110D01*
X8220D01*
X8422Y153026D01*
D02*
G37*
G36*
X16060Y151294D02*
X16215Y151139D01*
X16299Y150936D01*
Y150827D01*
X16299D01*
Y148031D01*
X15197D01*
Y150827D01*
Y150936D01*
X15281Y151139D01*
X15436Y151294D01*
X15638Y151378D01*
X15858D01*
X16060Y151294D01*
D02*
G37*
G36*
X14092D02*
X14247Y151139D01*
X14331Y150936D01*
Y150827D01*
Y148031D01*
X13228D01*
Y150827D01*
Y150936D01*
X13312Y151139D01*
X13467Y151294D01*
X13670Y151378D01*
X13889D01*
X14092Y151294D01*
D02*
G37*
G36*
X12123D02*
X12278Y151139D01*
X12362Y150936D01*
Y150827D01*
Y148031D01*
X11260D01*
X11260Y150827D01*
Y150936D01*
X11344Y151139D01*
X11499Y151294D01*
X11701Y151378D01*
X11921D01*
X12123Y151294D01*
D02*
G37*
G36*
X10155D02*
X10310Y151139D01*
X10394Y150936D01*
Y150827D01*
Y148031D01*
X9291D01*
Y150827D01*
Y150936D01*
X9375Y151139D01*
X9530Y151294D01*
X9733Y151378D01*
X9952D01*
X10155Y151294D01*
D02*
G37*
G36*
X196850Y0D02*
X45702D01*
Y33858D01*
X45577Y34160D01*
X45276Y34284D01*
X20175D01*
Y40897D01*
X20050Y41198D01*
X19748Y41323D01*
X18511D01*
Y46046D01*
X18511D01*
X18812Y46171D01*
X18937Y46472D01*
Y48835D01*
X18812Y49136D01*
X18511Y49261D01*
X18511D01*
Y54346D01*
X18385D01*
X17860Y54410D01*
Y61497D01*
X18368Y61601D01*
X21830D01*
Y62269D01*
X21994D01*
Y66994D01*
X21830D01*
Y67506D01*
X19054D01*
Y69479D01*
X18929Y69780D01*
X18628Y69905D01*
X18628D01*
Y74439D01*
X18628Y74489D01*
X18642Y74510D01*
X18640Y74565D01*
X18648Y74585D01*
X18628Y74990D01*
X18318Y74990D01*
X18297Y75004D01*
X18151Y75030D01*
X18076Y75075D01*
X17976Y75187D01*
X17863Y75391D01*
X17754Y75692D01*
X17658Y76086D01*
X17582Y76563D01*
X17493Y77760D01*
Y82677D01*
X17310Y83599D01*
X17053Y83983D01*
Y85030D01*
X15365D01*
X15085Y85086D01*
X14804Y85030D01*
X13116D01*
Y83983D01*
X12860Y83599D01*
X12676Y82677D01*
Y78109D01*
X12644Y77132D01*
X12588Y76569D01*
X12511Y76086D01*
X12415Y75692D01*
X12306Y75391D01*
X12193Y75187D01*
X12094Y75075D01*
X12018Y75030D01*
X11873Y75004D01*
X11851Y74990D01*
X11541Y74990D01*
X11521Y74585D01*
X11529Y74565D01*
X11528Y74510D01*
X11541Y74489D01*
X11541Y74439D01*
Y69905D01*
X11541D01*
X11240Y69780D01*
X11115Y69479D01*
Y67116D01*
X11240Y66815D01*
X11541Y66690D01*
X11541D01*
Y61923D01*
X9986D01*
X9685Y61798D01*
X9560Y61497D01*
Y54410D01*
X9685Y54109D01*
X9986Y53984D01*
X11424D01*
Y49261D01*
X11424D01*
X11123Y49136D01*
X10998Y48835D01*
Y46472D01*
X11123Y46171D01*
X11424Y46046D01*
X11424D01*
Y40961D01*
X11875Y40897D01*
Y34284D01*
X0D01*
Y141659D01*
X551Y141826D01*
X762Y141510D01*
X1316Y141140D01*
X1742Y141056D01*
X1785Y140952D01*
X2172Y140564D01*
X2679Y140354D01*
X3227D01*
X3733Y140564D01*
X4121Y140952D01*
X4331Y141458D01*
Y142006D01*
X4121Y142513D01*
X3733Y142901D01*
X3227Y143110D01*
X2679D01*
X2238Y142928D01*
X1946Y143038D01*
X1687Y143194D01*
Y155512D01*
X1703D01*
X1781Y155700D01*
X1969Y155777D01*
Y155794D01*
X4952D01*
X5014Y155644D01*
X5315Y155519D01*
X8220D01*
X8298Y155551D01*
X8383D01*
X8585Y155635D01*
X8646Y155695D01*
X8724Y155728D01*
X8879Y155883D01*
X8911Y155961D01*
X8971Y156021D01*
X9055Y156223D01*
Y156308D01*
X9088Y156386D01*
Y156606D01*
X9055Y156684D01*
X9055Y156769D01*
X8971Y156971D01*
X8911Y157031D01*
X8879Y157110D01*
X8845Y157143D01*
X8831Y157168D01*
X8768Y157480D01*
X8831Y157793D01*
X8845Y157817D01*
X8879Y157851D01*
X8911Y157929D01*
X8971Y157989D01*
X9055Y158192D01*
Y158277D01*
X9088Y158355D01*
Y158574D01*
X9055Y158652D01*
X9055Y158737D01*
X8971Y158940D01*
X8911Y159000D01*
X8879Y159078D01*
X8845Y159112D01*
X8831Y159136D01*
X8768Y159449D01*
X8831Y159761D01*
X8845Y159786D01*
X8879Y159819D01*
X8911Y159898D01*
X8971Y159958D01*
X9055Y160160D01*
Y160245D01*
X9088Y160323D01*
Y160543D01*
X9055Y160621D01*
X9055Y160706D01*
X8971Y160908D01*
X9134Y161141D01*
X9367Y161304D01*
X9570Y161221D01*
X9655D01*
X9733Y161188D01*
X9952D01*
X10030Y161221D01*
X10115D01*
X10318Y161304D01*
X10378Y161364D01*
X10456Y161397D01*
X10490Y161430D01*
X10514Y161444D01*
X10827Y161508D01*
X11139Y161444D01*
X11164Y161430D01*
X11197Y161397D01*
X11276Y161364D01*
X11336Y161304D01*
X11538Y161221D01*
X11623D01*
X11701Y161188D01*
X11921D01*
X11999Y161221D01*
X12084D01*
X12286Y161304D01*
X12346Y161364D01*
X12425Y161397D01*
X12458Y161430D01*
X12483Y161444D01*
X12795Y161508D01*
X13108Y161444D01*
X13132Y161430D01*
X13166Y161397D01*
X13244Y161364D01*
X13304Y161304D01*
X13507Y161221D01*
X13592D01*
X13670Y161188D01*
X13889D01*
X13968Y161221D01*
X14052D01*
X14255Y161304D01*
X14315Y161364D01*
X14393Y161397D01*
X14427Y161430D01*
X14451Y161444D01*
X14764Y161508D01*
X15076Y161444D01*
X15101Y161430D01*
X15134Y161397D01*
X15213Y161364D01*
X15273Y161304D01*
X15475Y161221D01*
X15560D01*
X15638Y161188D01*
X15858D01*
X15936Y161221D01*
X16021D01*
X16223Y161304D01*
X16283Y161364D01*
X16362Y161397D01*
X16517Y161552D01*
X16549Y161630D01*
X16609Y161690D01*
X16693Y161893D01*
Y161977D01*
X16725Y162056D01*
Y163059D01*
X16752Y163191D01*
Y173228D01*
X16766D01*
X16633Y174579D01*
X16239Y175878D01*
X15599Y177075D01*
X14738Y178124D01*
X13689Y178985D01*
X12492Y179624D01*
X12095Y179745D01*
X12230Y180446D01*
X12556Y181269D01*
X13032Y182016D01*
X13639Y182659D01*
X14365Y183184D01*
X14766Y183395D01*
X14808Y183445D01*
X14869Y183470D01*
X14909Y183566D01*
X14975Y183645D01*
X14969Y183711D01*
X14994Y183772D01*
X14993Y183774D01*
Y187598D01*
X15435Y187973D01*
X18030D01*
X18472Y187598D01*
Y183771D01*
X18497Y183710D01*
X18491Y183645D01*
X18492Y183644D01*
X18497Y183637D01*
X18496Y183627D01*
X18560Y183557D01*
X18596Y183469D01*
X18658Y183444D01*
X18699Y183394D01*
X18715Y183386D01*
X18716Y183385D01*
X18716Y183385D01*
X19101Y183183D01*
X19826Y182659D01*
X20433Y182015D01*
X20909Y181268D01*
X21235Y180445D01*
X21402Y179576D01*
X21401Y178691D01*
X21235Y177821D01*
X20908Y176999D01*
X20433Y176252D01*
X19825Y175608D01*
X19099Y175084D01*
X18698Y174873D01*
X18656Y174822D01*
X18596Y174797D01*
X18596Y174796D01*
X18592Y174794D01*
X18554Y174700D01*
X18490Y174622D01*
X18496Y174555D01*
X18494Y174550D01*
X18472Y174496D01*
Y174494D01*
X18470Y174492D01*
X18472Y174489D01*
Y170669D01*
X18596Y170368D01*
X18898Y170243D01*
X22711D01*
Y163581D01*
X22716Y163554D01*
X22550Y162721D01*
X22063Y161992D01*
X21335Y161505D01*
X20861Y161410D01*
X19339D01*
X19261Y161378D01*
X19176Y161378D01*
X18973Y161294D01*
X18914Y161234D01*
X18835Y161202D01*
X18680Y161047D01*
X18648Y160968D01*
X18588Y160908D01*
X18504Y160706D01*
Y160621D01*
X18472Y160543D01*
Y160323D01*
X18504Y160245D01*
Y160160D01*
X18588Y159958D01*
X18648Y159898D01*
X18680Y159819D01*
X18714Y159786D01*
X18728Y159761D01*
X18791Y159449D01*
X18728Y159136D01*
X18714Y159112D01*
X18680Y159078D01*
X18648Y159000D01*
X18588Y158940D01*
X18504Y158737D01*
Y158652D01*
X18472Y158574D01*
Y158355D01*
X18504Y158277D01*
Y158192D01*
X18588Y157989D01*
X18648Y157929D01*
X18680Y157851D01*
X18714Y157817D01*
X18728Y157793D01*
X18791Y157480D01*
X18728Y157168D01*
X18714Y157143D01*
X18680Y157110D01*
X18648Y157031D01*
X18588Y156971D01*
X18504Y156769D01*
Y156684D01*
X18472Y156606D01*
Y156386D01*
X18504Y156308D01*
Y156223D01*
X18588Y156021D01*
X18648Y155961D01*
X18680Y155883D01*
X18835Y155728D01*
X18914Y155695D01*
X18973Y155635D01*
X19176Y155551D01*
X19261D01*
X19339Y155519D01*
X22244D01*
X22545Y155644D01*
X22608Y155794D01*
X25591D01*
Y155774D01*
X26243Y155904D01*
X26797Y156274D01*
X27167Y156827D01*
X27205Y157019D01*
X27756Y156964D01*
Y153563D01*
X19490D01*
X19359Y153536D01*
X19339D01*
X19321Y153529D01*
X19196Y153504D01*
X19176D01*
X19158Y153497D01*
X19106Y153486D01*
X19062Y153457D01*
X18973Y153420D01*
X18914Y153360D01*
X18835Y153328D01*
X18680Y153173D01*
X18648Y153094D01*
X18588Y153034D01*
X18504Y152832D01*
Y152747D01*
X18472Y152669D01*
Y152449D01*
X18504Y152371D01*
Y152286D01*
X18588Y152084D01*
X18648Y152024D01*
X18680Y151945D01*
X18835Y151790D01*
X18914Y151758D01*
X18973Y151698D01*
X19062Y151661D01*
X19106Y151632D01*
X19158Y151622D01*
X19176Y151614D01*
X19196D01*
X19321Y151589D01*
X19339Y151582D01*
X19359D01*
X19490Y151556D01*
X31102D01*
Y151546D01*
X31976Y151661D01*
X32790Y151998D01*
X33489Y152534D01*
X33961Y153150D01*
X40860D01*
X41142Y153150D01*
X41412Y152710D01*
Y149652D01*
X41142Y149213D01*
X27756D01*
Y146581D01*
X16732D01*
Y146610D01*
X16701Y146623D01*
X16688Y146653D01*
X16659D01*
Y147872D01*
X16725Y148031D01*
Y150827D01*
X16725Y150827D01*
Y150936D01*
X16693Y151015D01*
X16693Y151100D01*
X16609Y151302D01*
X16549Y151362D01*
X16517Y151440D01*
X16362Y151595D01*
X16283Y151628D01*
X16223Y151688D01*
X16021Y151772D01*
X15936D01*
X15858Y151804D01*
X15638D01*
X15560Y151772D01*
X15475Y151772D01*
X15273Y151688D01*
X15213Y151628D01*
X15134Y151595D01*
X15101Y151562D01*
X15076Y151548D01*
X14764Y151484D01*
X14451Y151548D01*
X14427Y151562D01*
X14393Y151595D01*
X14315Y151628D01*
X14255Y151688D01*
X14052Y151772D01*
X13968D01*
X13889Y151804D01*
X13670D01*
X13592Y151772D01*
X13507Y151772D01*
X13304Y151688D01*
X13244Y151628D01*
X13166Y151595D01*
X13132Y151562D01*
X13108Y151548D01*
X12795Y151484D01*
X12483Y151548D01*
X12458Y151562D01*
X12425Y151595D01*
X12346Y151628D01*
X12286Y151688D01*
X12084Y151772D01*
X11999D01*
X11921Y151804D01*
X11701D01*
X11623Y151772D01*
X11538Y151772D01*
X11336Y151688D01*
X11276Y151628D01*
X11197Y151595D01*
X11164Y151562D01*
X11139Y151548D01*
X10827Y151484D01*
X10514Y151548D01*
X10490Y151562D01*
X10456Y151595D01*
X10378Y151628D01*
X10318Y151688D01*
X10115Y151772D01*
X10030D01*
X9952Y151804D01*
X9733D01*
X9655Y151772D01*
X9570Y151772D01*
X9396Y151699D01*
X9360Y151693D01*
X9134Y151851D01*
X8976Y152076D01*
X8983Y152112D01*
X9055Y152286D01*
Y152371D01*
X9088Y152449D01*
Y152669D01*
X9055Y152747D01*
X9055Y152832D01*
X8971Y153034D01*
X8911Y153094D01*
X8879Y153173D01*
X8724Y153328D01*
X8646Y153360D01*
X8585Y153420D01*
X8383Y153504D01*
X8298D01*
X8220Y153536D01*
X5315D01*
X5014Y153412D01*
X4889Y153110D01*
Y152008D01*
X5014Y151707D01*
X5315Y151582D01*
X5398D01*
Y134648D01*
X5382D01*
X5497Y134071D01*
X5512Y134049D01*
Y133584D01*
X5722Y133078D01*
X6109Y132690D01*
X6616Y132480D01*
X7164D01*
X7670Y132690D01*
X8058Y133078D01*
X8268Y133584D01*
Y134132D01*
X8058Y134639D01*
X7670Y135026D01*
X7164Y135236D01*
X6803D01*
Y151582D01*
X8220D01*
X8298Y151614D01*
X8383D01*
X8557Y151686D01*
X8593Y151693D01*
X8819Y151535D01*
X8976Y151309D01*
X8970Y151274D01*
X8898Y151100D01*
Y151015D01*
X8865Y150936D01*
Y148031D01*
X8990Y147730D01*
X9140Y147668D01*
Y131122D01*
X9062Y131089D01*
X8674Y130702D01*
X8465Y130195D01*
Y129647D01*
X8674Y129141D01*
X9062Y128753D01*
X9568Y128543D01*
X10117D01*
X10623Y128753D01*
X11011Y129141D01*
X11220Y129647D01*
Y130195D01*
X11011Y130702D01*
X10623Y131089D01*
X10545Y131122D01*
Y146801D01*
X10827Y146964D01*
X11108Y146801D01*
Y140748D01*
X11099D01*
X11190Y140054D01*
X11458Y139408D01*
X11884Y138853D01*
X12432Y138433D01*
X12611Y137999D01*
X12999Y137611D01*
X13505Y137402D01*
X14054D01*
X14560Y137611D01*
X14948Y137999D01*
X15157Y138505D01*
Y139054D01*
X14948Y139560D01*
X14560Y139948D01*
X14054Y140157D01*
X13505D01*
X13084Y139983D01*
X12734Y140211D01*
X12608Y140336D01*
X12526Y140748D01*
X12514D01*
Y143684D01*
X13058Y143701D01*
X13188Y143048D01*
X13557Y142494D01*
X14111Y142125D01*
X14764Y141995D01*
Y142014D01*
X22638D01*
Y141998D01*
X22826Y141920D01*
X22903Y141732D01*
X22920D01*
Y139980D01*
X22841Y139948D01*
X22454Y139560D01*
X22244Y139054D01*
Y138505D01*
X22454Y137999D01*
X22841Y137611D01*
X23348Y137402D01*
X23896D01*
X24403Y137611D01*
X24790Y137999D01*
X25000Y138505D01*
Y139054D01*
X24790Y139560D01*
X24403Y139948D01*
X24325Y139980D01*
Y141732D01*
X24344D01*
X24214Y142385D01*
X23844Y142939D01*
X23291Y143308D01*
X22638Y143438D01*
Y143419D01*
X14764D01*
Y143435D01*
X14576Y143513D01*
X14498Y143701D01*
X14482D01*
Y145724D01*
X14505Y145734D01*
X15033Y145816D01*
X15378Y145300D01*
X16000Y144885D01*
X16732Y144739D01*
Y144758D01*
X27756D01*
Y144488D01*
X37278D01*
Y142269D01*
X37092D01*
Y139227D01*
X37475D01*
Y134843D01*
X37446D01*
X37433Y134811D01*
X37402Y134799D01*
Y134769D01*
X15748D01*
Y134783D01*
X15141Y134662D01*
X14626Y134318D01*
X14281Y133802D01*
X14161Y133195D01*
X14174D01*
Y132517D01*
X13823D01*
Y129475D01*
X14174D01*
Y128580D01*
X14004D01*
Y125538D01*
X14174D01*
Y122432D01*
X13116D01*
Y122432D01*
X13077Y122428D01*
X12526Y122432D01*
Y122432D01*
X8982D01*
Y118840D01*
X5458D01*
Y119042D01*
X2416D01*
Y116816D01*
X5458D01*
Y117018D01*
X8982D01*
Y114558D01*
X12458D01*
X12526Y114558D01*
X13059Y114548D01*
X13360Y114423D01*
X20860D01*
X21161Y114548D01*
X21165Y114558D01*
X21384Y114558D01*
X21778D01*
X21935Y114558D01*
X25557D01*
X25715Y114558D01*
X26108D01*
X26266Y114558D01*
X29888D01*
X30045Y114558D01*
X30439D01*
X30597Y114558D01*
X31569D01*
Y105315D01*
X31550D01*
X31696Y104582D01*
X32111Y103961D01*
X32732Y103546D01*
X33465Y103400D01*
Y103419D01*
X41285D01*
X41542Y103163D01*
X42049Y102953D01*
X42597D01*
X43103Y103163D01*
X43491Y103550D01*
X43701Y104057D01*
Y104605D01*
X43491Y105111D01*
X43103Y105499D01*
X42597Y105709D01*
X42049D01*
X41542Y105499D01*
X41285Y105242D01*
X33465D01*
Y105271D01*
X33433Y105284D01*
X33421Y105315D01*
X33391D01*
Y114558D01*
X34219D01*
X34376Y114558D01*
X34770D01*
X34927Y114558D01*
X38549D01*
X38707Y114558D01*
X39101D01*
X39258Y114558D01*
X43038D01*
Y122432D01*
X41980D01*
Y128520D01*
X42527Y128753D01*
X43033Y128543D01*
X43581D01*
X44088Y128753D01*
X44474Y129139D01*
X44568Y129152D01*
X45743Y129639D01*
X46752Y130413D01*
X47527Y131422D01*
X47750Y131962D01*
X48301Y131852D01*
Y112205D01*
X48289D01*
X48209Y111805D01*
X47983Y111466D01*
X47644Y111239D01*
X47244Y111160D01*
Y111147D01*
X40408D01*
X40151Y111404D01*
X39644Y111614D01*
X39096D01*
X38590Y111404D01*
X38202Y111017D01*
X37992Y110510D01*
Y109962D01*
X38202Y109456D01*
X38590Y109068D01*
X39096Y108858D01*
X39644D01*
X40151Y109068D01*
X40408Y109325D01*
X47244D01*
Y109318D01*
X47991Y109416D01*
X48687Y109705D01*
X49285Y110163D01*
X49744Y110761D01*
X50033Y111458D01*
X50131Y112205D01*
X50124D01*
Y167323D01*
X50136D01*
X50216Y167723D01*
X50442Y168062D01*
X50781Y168288D01*
X51181Y168368D01*
Y168380D01*
X135827D01*
Y168351D01*
X135858Y168338D01*
X135871Y168307D01*
X135900D01*
Y128937D01*
X135880D01*
X136026Y128204D01*
X136441Y127583D01*
X137063Y127168D01*
X137795Y127022D01*
Y127042D01*
X140695D01*
X140952Y126785D01*
X141458Y126575D01*
X142006D01*
X142513Y126785D01*
X142901Y127172D01*
X143110Y127679D01*
Y128227D01*
X142901Y128733D01*
X142513Y129121D01*
X142489Y129131D01*
Y129727D01*
X142513Y129737D01*
X142901Y130125D01*
X143110Y130631D01*
Y131180D01*
X142901Y131686D01*
X142513Y132074D01*
X142489Y132084D01*
Y132680D01*
X142513Y132690D01*
X142901Y133078D01*
X143110Y133584D01*
Y134132D01*
X142901Y134639D01*
X142513Y135026D01*
X142006Y135236D01*
X141659D01*
Y158132D01*
X142210Y158299D01*
X142347Y158095D01*
X142968Y157680D01*
X143701Y157534D01*
Y157553D01*
X145722D01*
Y156944D01*
X145923D01*
Y156048D01*
X145722D01*
Y153007D01*
X147948D01*
Y156048D01*
X147746D01*
Y156944D01*
X147948D01*
Y159985D01*
X147746D01*
Y162168D01*
X150418D01*
Y165155D01*
X143880D01*
X143628Y165602D01*
Y166721D01*
X143880Y167168D01*
X144179Y167168D01*
X150418D01*
Y170155D01*
X144179D01*
X143880Y170155D01*
X143628Y170602D01*
Y171721D01*
X143880Y172168D01*
X144179Y172168D01*
X150418D01*
Y172168D01*
X150831Y172444D01*
X151246Y172272D01*
X151982Y171707D01*
X152547Y170970D01*
X152903Y170113D01*
X152903Y170108D01*
X152769Y169974D01*
X152559Y169467D01*
Y168919D01*
X152769Y168412D01*
X153156Y168025D01*
X153663Y167815D01*
X154211D01*
X154718Y168025D01*
X155105Y168412D01*
X155315Y168919D01*
Y169467D01*
X155105Y169974D01*
X154724Y170355D01*
X154693Y170593D01*
X154152Y171897D01*
X153293Y173017D01*
X152173Y173877D01*
X150868Y174417D01*
X150418Y174476D01*
Y175155D01*
X144179D01*
X143880Y175155D01*
X143628Y175602D01*
Y176162D01*
X143647Y176181D01*
X143647D01*
X143551Y176663D01*
X143532Y176761D01*
X143913Y177137D01*
X143970Y177168D01*
X144361Y177168D01*
X150418D01*
Y177750D01*
X156280D01*
Y177740D01*
X156963Y177650D01*
X157600Y177386D01*
X158148Y176967D01*
X158568Y176419D01*
X158757Y175962D01*
X158674Y175879D01*
X158465Y175373D01*
Y174824D01*
X158674Y174318D01*
X159062Y173930D01*
X159568Y173721D01*
X160117D01*
X160623Y173930D01*
X161011Y174318D01*
X161221Y174824D01*
Y175373D01*
X161011Y175879D01*
X160623Y176267D01*
X160619Y176268D01*
X160172Y177346D01*
X159458Y178277D01*
X158527Y178991D01*
X157443Y179440D01*
X156280Y179594D01*
Y179573D01*
X150418D01*
Y180155D01*
X143880D01*
Y177682D01*
X143880Y177673D01*
X143880Y177673D01*
X143880Y177339D01*
X143329Y177172D01*
X143086Y177535D01*
X142465Y177950D01*
X141732Y178096D01*
Y178077D01*
X137008D01*
X52165Y178077D01*
X44291D01*
Y178084D01*
X43544Y177985D01*
X42848Y177697D01*
X42250Y177238D01*
X41791Y176640D01*
X41503Y175944D01*
X41404Y175197D01*
X41412D01*
Y158313D01*
X41142Y157874D01*
X40860Y157874D01*
X28496D01*
X28027Y158425D01*
X28061Y158637D01*
X28064Y158639D01*
X28543Y158734D01*
Y158746D01*
X37402D01*
Y158727D01*
X38054Y158857D01*
X38351Y159055D01*
X38660D01*
X39166Y159265D01*
X39554Y159652D01*
X39764Y160159D01*
Y160707D01*
X39554Y161214D01*
X39166Y161601D01*
X38660Y161811D01*
X38112D01*
X37605Y161601D01*
X37218Y161214D01*
X37008Y160707D01*
Y160159D01*
X37003Y160151D01*
X32790D01*
Y162938D01*
X30564D01*
Y162120D01*
X28760D01*
X28727Y162198D01*
X28340Y162585D01*
X28262Y162618D01*
Y163834D01*
X28853D01*
Y166875D01*
X26627D01*
Y163834D01*
X26857D01*
Y162618D01*
X26779Y162585D01*
X26391Y162198D01*
X26351Y162102D01*
X25770Y161987D01*
X25087Y161530D01*
X24631Y160848D01*
X24471Y160043D01*
X24498D01*
Y159167D01*
X22852D01*
X22618Y159679D01*
X22647Y159826D01*
X22670Y159882D01*
Y160171D01*
X23357Y160698D01*
X24004Y161542D01*
X24412Y162525D01*
X24551Y163581D01*
X24533D01*
Y170243D01*
X25197D01*
X25275Y170276D01*
X25591D01*
Y170591D01*
X25623Y170669D01*
Y187598D01*
X26015Y187973D01*
X29528D01*
Y187964D01*
X29969Y187876D01*
X30343Y187627D01*
X30593Y187252D01*
X30610Y187165D01*
X30200Y186614D01*
X28740D01*
Y182008D01*
X28624Y181728D01*
X28516Y180905D01*
X28524D01*
Y178097D01*
X28007D01*
Y175871D01*
X31048D01*
Y175965D01*
X33913D01*
Y175871D01*
X36954D01*
Y178097D01*
X33913D01*
Y177972D01*
X31048D01*
Y178097D01*
X30531D01*
Y179528D01*
X33826D01*
Y179528D01*
X33951Y179226D01*
X34252Y179101D01*
X36614D01*
X36915Y179226D01*
X37040Y179528D01*
Y179528D01*
X42126D01*
Y180662D01*
X45276D01*
X45508Y180709D01*
X45746D01*
X45965Y180799D01*
X46197Y180846D01*
X46395Y180977D01*
X46614Y181068D01*
X46781Y181236D01*
X46979Y181368D01*
X47110Y181565D01*
X47278Y181733D01*
X47369Y181952D01*
X47501Y182149D01*
X47547Y182382D01*
X47638Y182601D01*
Y182838D01*
X47684Y183071D01*
X47638Y183303D01*
Y183541D01*
X47547Y183760D01*
X47501Y183993D01*
X47369Y184190D01*
X47278Y184409D01*
X47110Y184577D01*
X46979Y184774D01*
X46781Y184906D01*
X46614Y185073D01*
X46395Y185164D01*
X46197Y185296D01*
X45965Y185342D01*
X45746Y185433D01*
X45508D01*
X45276Y185479D01*
X42126D01*
Y186614D01*
X37040D01*
Y186614D01*
X36915Y186916D01*
X36614Y187040D01*
X34252D01*
X33951Y186916D01*
X33826Y186614D01*
Y186614D01*
X33174D01*
X32704Y186811D01*
X32596Y187633D01*
X32445Y187999D01*
X32813Y188550D01*
X178788D01*
Y186751D01*
X178618Y186529D01*
X178320Y185810D01*
X178219Y185039D01*
Y179852D01*
X178124Y179134D01*
Y174015D01*
X177559D01*
Y168930D01*
X177559D01*
X177258Y168805D01*
X177133Y168504D01*
Y166142D01*
X177258Y165840D01*
X177559Y165716D01*
X177559D01*
Y160630D01*
X178518D01*
Y159596D01*
X178346Y159481D01*
X175984D01*
X175683Y159356D01*
X175558Y159055D01*
Y151969D01*
X175683Y151667D01*
X175984Y151542D01*
X178346D01*
X178518Y151428D01*
Y150492D01*
X177953D01*
Y145407D01*
X177953D01*
X177651Y145282D01*
X177527Y144981D01*
Y142618D01*
X177651Y142317D01*
X177953Y142192D01*
X177953D01*
Y137658D01*
X177953Y137594D01*
X177935Y137562D01*
X177937Y137523D01*
X177932Y137512D01*
X177953Y137107D01*
X178277Y137107D01*
X178309Y137089D01*
X178554Y137060D01*
X178719Y136995D01*
X178870Y136882D01*
X179017Y136705D01*
X179156Y136450D01*
X179279Y136113D01*
X179380Y135695D01*
X179454Y135196D01*
X179499Y134620D01*
X179505Y134388D01*
Y130512D01*
X179548Y130297D01*
Y125591D01*
X183878D01*
Y130298D01*
X183921Y130512D01*
X183920Y130513D01*
Y134238D01*
X183956Y135214D01*
X184010Y135716D01*
X184085Y136145D01*
X184177Y136493D01*
X184281Y136756D01*
X184387Y136932D01*
X184480Y137027D01*
X184555Y137068D01*
X184702Y137092D01*
X184726Y137107D01*
X185039Y137107D01*
X185060Y137512D01*
X185053Y137530D01*
X185054Y137581D01*
X185039Y137605D01*
X185039Y137658D01*
Y142192D01*
X185039D01*
X185341Y142317D01*
X185466Y142618D01*
Y144606D01*
X188162D01*
Y150512D01*
X184474D01*
Y160630D01*
X184646D01*
Y165716D01*
X184646D01*
X184947Y165840D01*
X185072Y166142D01*
Y168504D01*
X184947Y168805D01*
X184646Y168930D01*
X184646D01*
Y174015D01*
X184081D01*
Y175164D01*
X186221D01*
X186522Y175289D01*
X186647Y175591D01*
Y182677D01*
X186522Y182978D01*
X186221Y183103D01*
X184175D01*
Y185039D01*
X184074Y185810D01*
X183776Y186529D01*
X183605Y186751D01*
Y188550D01*
X196850D01*
Y0D01*
D02*
G37*
G36*
X184415Y137477D02*
X184220Y137371D01*
X184047Y137194D01*
X183898Y136945D01*
X183772Y136627D01*
X183668Y136237D01*
X183588Y135776D01*
X183530Y135245D01*
X183484Y133969D01*
X179941D01*
X179925Y134642D01*
X179878Y135245D01*
X179799Y135776D01*
X179688Y136237D01*
X179545Y136627D01*
X179371Y136945D01*
X179166Y137194D01*
X178928Y137371D01*
X178659Y137477D01*
X178359Y137512D01*
X184634D01*
X184415Y137477D01*
D02*
G37*
G36*
X20860Y114849D02*
X13360D01*
Y121935D01*
X14174D01*
Y118494D01*
X14243Y118146D01*
X14440Y117850D01*
X14736Y117653D01*
X15085Y117583D01*
X15433Y117653D01*
X15729Y117850D01*
X15927Y118146D01*
X15996Y118494D01*
Y121935D01*
X20860D01*
Y114849D01*
D02*
G37*
G36*
X17065Y77774D02*
X17158Y76514D01*
X17240Y76002D01*
X17345Y75569D01*
X17474Y75214D01*
X17626Y74939D01*
X17801Y74742D01*
X18000Y74624D01*
X18222Y74585D01*
X11947D01*
X12169Y74624D01*
X12368Y74742D01*
X12543Y74939D01*
X12695Y75214D01*
X12824Y75569D01*
X12929Y76002D01*
X13011Y76514D01*
X13070Y77104D01*
X13116Y78522D01*
X17053D01*
X17065Y77774D01*
D02*
G37*
%LPC*%
G36*
X136626Y187620D02*
X116154D01*
Y185698D01*
X92738D01*
X92381Y185627D01*
X92064Y185585D01*
X91966Y185544D01*
X91817Y185514D01*
X91690Y185430D01*
X91437Y185325D01*
X90898Y184911D01*
X90484Y184372D01*
X90224Y183745D01*
X90215Y183681D01*
X90158Y183541D01*
Y183240D01*
X90135Y183071D01*
X90111D01*
X90158Y182601D01*
X90183Y182539D01*
X90248Y182382D01*
X90294Y182149D01*
X90426Y181952D01*
X90517Y181733D01*
X90685Y181565D01*
X90817Y181368D01*
X91014Y181236D01*
X91182Y181068D01*
X91401Y180977D01*
X91598Y180846D01*
X91831Y180799D01*
X92050Y180709D01*
X92220D01*
X92289Y180708D01*
X92520Y180662D01*
X92729Y180704D01*
X92738Y180696D01*
X92990Y180709D01*
X93205Y180798D01*
X93247Y180807D01*
X93247Y180807D01*
X93441Y180846D01*
X93494Y180881D01*
X116154D01*
Y178959D01*
X136626D01*
Y187620D01*
D02*
G37*
G36*
X171868Y175155D02*
X165330D01*
Y172168D01*
X171868D01*
Y175155D01*
D02*
G37*
G36*
Y170155D02*
X165330D01*
Y169573D01*
X158819D01*
Y169599D01*
X157948Y169426D01*
X157210Y168932D01*
X156997Y168614D01*
X156700Y168491D01*
X156312Y168103D01*
X156102Y167597D01*
Y167049D01*
X156312Y166542D01*
X156700Y166155D01*
X157206Y165945D01*
X157754D01*
X158261Y166155D01*
X158649Y166542D01*
X158858Y167049D01*
X158858Y167597D01*
X159368Y167750D01*
X165330D01*
Y167168D01*
X171868D01*
Y170155D01*
D02*
G37*
G36*
X36954Y174522D02*
X33913D01*
Y172297D01*
X34731D01*
Y170812D01*
X34501D01*
Y169010D01*
X33681D01*
X33648Y169088D01*
X33261Y169475D01*
X32754Y169685D01*
X32206D01*
X31700Y169475D01*
X31312Y169088D01*
X31102Y168581D01*
Y168033D01*
X31312Y167526D01*
X31700Y167139D01*
X32206Y166929D01*
X32754D01*
X33261Y167139D01*
X33648Y167526D01*
X33681Y167605D01*
X34630D01*
Y167585D01*
X35283Y167715D01*
X35366Y167771D01*
X36727D01*
Y170812D01*
X36136D01*
Y172297D01*
X36954D01*
Y174522D01*
D02*
G37*
G36*
X171868Y165155D02*
X165330D01*
Y164573D01*
X158248D01*
Y164583D01*
X157403Y164472D01*
X156616Y164146D01*
X155940Y163627D01*
X155421Y162951D01*
X155251Y162539D01*
X155125Y162487D01*
X154737Y162099D01*
X154528Y161593D01*
Y161045D01*
X154737Y160538D01*
X154994Y160281D01*
Y160024D01*
X154998Y160003D01*
X154845Y158835D01*
X154386Y157728D01*
X153656Y156777D01*
X152705Y156047D01*
X152074Y155786D01*
X151522Y156048D01*
Y156048D01*
X149297D01*
Y153007D01*
X151522D01*
Y153713D01*
X151662Y153726D01*
X152866Y154092D01*
X153977Y154685D01*
X154950Y155483D01*
X155748Y156456D01*
X156341Y157566D01*
X156707Y158771D01*
X156830Y160024D01*
X156830D01*
X157028Y160493D01*
X157074Y160538D01*
X157283Y161045D01*
Y161593D01*
X157079Y162087D01*
X157239Y162327D01*
X157702Y162637D01*
X158248Y162745D01*
Y162750D01*
X165330D01*
Y162168D01*
X171868D01*
Y165155D01*
D02*
G37*
G36*
X156299Y148031D02*
X150394D01*
Y145403D01*
X147190D01*
Y145814D01*
X144149D01*
Y143588D01*
X147190D01*
Y143998D01*
X150394D01*
Y140945D01*
X156299D01*
Y148031D01*
D02*
G37*
G36*
X169114Y135433D02*
X164784D01*
Y125591D01*
X169114D01*
Y135433D01*
D02*
G37*
G36*
X164193D02*
X159863D01*
Y125591D01*
X164193D01*
Y135433D01*
D02*
G37*
G36*
X159271D02*
X154941D01*
Y125591D01*
X159271D01*
Y135433D01*
D02*
G37*
G36*
X147190Y142239D02*
X144149D01*
Y140013D01*
X144967D01*
Y137303D01*
X144944D01*
X145089Y135836D01*
X145516Y134426D01*
X146211Y133127D01*
X147145Y131988D01*
X148284Y131053D01*
X149584Y130359D01*
X150020Y130227D01*
Y125591D01*
X154350D01*
Y135433D01*
X150020D01*
Y132281D01*
X149547Y131998D01*
X149082Y132246D01*
X148160Y133003D01*
X147404Y133924D01*
X146842Y134976D01*
X146496Y136116D01*
X146379Y137303D01*
X146372D01*
Y140013D01*
X147190D01*
Y142239D01*
D02*
G37*
G36*
X195492Y118898D02*
X185650D01*
Y116955D01*
X183465D01*
Y116962D01*
X182717Y116863D01*
X182021Y116575D01*
X181423Y116116D01*
X180964Y115518D01*
X180676Y114822D01*
X180578Y114075D01*
X180585D01*
Y112106D01*
X180572D01*
X180493Y111706D01*
X180266Y111367D01*
X179927Y111141D01*
X179528Y111061D01*
Y111049D01*
X178597D01*
X178340Y111306D01*
X177833Y111516D01*
X177285D01*
X176778Y111306D01*
X176391Y110918D01*
X176181Y110412D01*
Y109864D01*
X176391Y109357D01*
X176778Y108970D01*
X177285Y108760D01*
X177833D01*
X178340Y108970D01*
X178597Y109227D01*
X179528D01*
Y109219D01*
X180275Y109318D01*
X180971Y109606D01*
X181569Y110065D01*
X182028Y110663D01*
X182111Y110863D01*
X182551Y110951D01*
X182730Y110919D01*
X183191Y110728D01*
X183739D01*
X184245Y110938D01*
X184502Y111195D01*
X185650D01*
Y109646D01*
X188793D01*
X189029Y109094D01*
X189016Y109081D01*
X184502D01*
X184245Y109337D01*
X183739Y109547D01*
X183191D01*
X182684Y109337D01*
X182296Y108950D01*
X182087Y108443D01*
Y107895D01*
X182296Y107389D01*
X182684Y107001D01*
X183191Y106791D01*
X183739D01*
X184245Y107001D01*
X184502Y107258D01*
X185650D01*
Y104725D01*
X195492D01*
Y109055D01*
X190173D01*
X190132Y109094D01*
X190354Y109646D01*
X195492D01*
Y113976D01*
X185650D01*
Y113017D01*
X184502D01*
X184245Y113275D01*
X183739Y113484D01*
X183191D01*
X183110Y113451D01*
X182561Y113711D01*
X182420Y114075D01*
X182499Y114475D01*
X182726Y114814D01*
X183065Y115040D01*
X183465Y115120D01*
Y115132D01*
X185650D01*
Y114568D01*
X195492D01*
Y118898D01*
D02*
G37*
G36*
X148248D02*
X138406D01*
Y114568D01*
X148248D01*
Y118898D01*
D02*
G37*
G36*
X153817Y123425D02*
X153269D01*
X152763Y123215D01*
X152375Y122828D01*
X152165Y122321D01*
Y121773D01*
X152375Y121267D01*
X152632Y121010D01*
Y114173D01*
X152620D01*
X152540Y113773D01*
X152314Y113434D01*
X151975Y113208D01*
X151575Y113128D01*
Y113116D01*
X148248D01*
Y113976D01*
X138406D01*
Y109646D01*
X148248D01*
Y111293D01*
X151575D01*
Y111286D01*
X152322Y111385D01*
X153018Y111673D01*
X153616Y112132D01*
X154049Y112697D01*
X154108Y112699D01*
X154601Y112422D01*
Y110236D01*
X154594D01*
X154491Y109455D01*
X154190Y108727D01*
X153710Y108101D01*
X153084Y107622D01*
X152356Y107320D01*
X151575Y107217D01*
Y107210D01*
X148248D01*
Y109055D01*
X138406D01*
Y104725D01*
X148248D01*
Y105388D01*
X151575D01*
Y105364D01*
X152836Y105530D01*
X154011Y106017D01*
X155020Y106791D01*
X155794Y107800D01*
X156018Y108340D01*
X156569Y108230D01*
Y104331D01*
X156557D01*
X156477Y103931D01*
X156251Y103592D01*
X155912Y103365D01*
X155512Y103286D01*
Y103273D01*
X148248D01*
Y104134D01*
X138406D01*
Y99804D01*
X148248D01*
Y101451D01*
X155512D01*
Y101444D01*
X156259Y101542D01*
X156955Y101831D01*
X157553Y102289D01*
X157986Y102854D01*
X158045Y102857D01*
X158538Y102579D01*
Y98425D01*
X158525D01*
X158446Y98025D01*
X158219Y97686D01*
X157880Y97460D01*
X157480Y97380D01*
Y97368D01*
X148248D01*
Y99212D01*
X138406D01*
Y94882D01*
X148248D01*
Y95546D01*
X157480D01*
Y95538D01*
X157862Y95588D01*
X157905Y95555D01*
X158201Y95077D01*
X158071Y94762D01*
Y94214D01*
X158281Y93708D01*
X158668Y93320D01*
X159175Y93110D01*
X159723D01*
X160229Y93320D01*
X160486Y93577D01*
X169125D01*
X169585Y93026D01*
X169561Y92894D01*
X168877Y92611D01*
X167890Y91854D01*
X167242Y91008D01*
X166762Y91023D01*
X166627Y91081D01*
X166523Y91332D01*
X166135Y91719D01*
X165628Y91929D01*
X165080D01*
X164574Y91719D01*
X164186Y91332D01*
X164052Y91009D01*
X163468Y90767D01*
X162687Y90167D01*
X162087Y89386D01*
X161711Y88476D01*
X161673Y88189D01*
X159863D01*
Y78347D01*
X164193D01*
Y88189D01*
X163697D01*
X163402Y88740D01*
X163687Y89167D01*
X164348Y89609D01*
X164574Y89383D01*
X165080Y89173D01*
X165628D01*
X166052Y89349D01*
X166351Y89209D01*
X166567Y89036D01*
X166494Y88484D01*
X166066Y88189D01*
X164784D01*
Y78347D01*
X169114D01*
Y88189D01*
X168364D01*
X168342Y88204D01*
X167968Y88740D01*
X168048Y89345D01*
X168380Y90147D01*
X168909Y90835D01*
X169597Y91364D01*
X170212Y91619D01*
X170479Y91351D01*
X170986Y91142D01*
X171534D01*
X172040Y91351D01*
X172428Y91739D01*
X172638Y92246D01*
Y92794D01*
X172542Y93026D01*
X172871Y93577D01*
X177165D01*
Y93565D01*
X177565Y93485D01*
X177904Y93259D01*
X178070Y93011D01*
X178200Y92573D01*
X178210Y92520D01*
X178216Y92520D01*
X178314Y91773D01*
X178602Y91076D01*
X179061Y90478D01*
X179659Y90020D01*
X180355Y89731D01*
X181050Y89640D01*
X181058Y89621D01*
X181077Y89613D01*
Y88189D01*
X179548D01*
Y78347D01*
X183878D01*
Y88189D01*
X182899D01*
Y89665D01*
X182917D01*
X182779Y90360D01*
X182385Y90948D01*
X182200Y91072D01*
X182280Y91682D01*
X182324Y91700D01*
X182379Y91692D01*
X183071Y91601D01*
Y91609D01*
X185650D01*
Y89961D01*
X195492D01*
Y94291D01*
X185650D01*
Y93431D01*
X183071D01*
Y93443D01*
X182671Y93523D01*
X182332Y93749D01*
X182106Y94088D01*
X182026Y94488D01*
X182014D01*
Y96457D01*
X182021D01*
X181922Y97204D01*
X181634Y97900D01*
X181175Y98498D01*
X180577Y98957D01*
X179881Y99245D01*
X179134Y99344D01*
Y99336D01*
X164423D01*
X164166Y99593D01*
X163660Y99803D01*
X163112D01*
X162605Y99593D01*
X162218Y99206D01*
X162008Y98699D01*
Y98151D01*
X162218Y97645D01*
X162605Y97257D01*
X163112Y97047D01*
X163660D01*
X164166Y97257D01*
X164423Y97514D01*
X179134D01*
Y97502D01*
X179534Y97422D01*
X179873Y97196D01*
X180099Y96857D01*
X180179Y96457D01*
X180191D01*
Y94488D01*
X180184D01*
X180249Y93995D01*
X179712Y93851D01*
X179666Y93963D01*
X179207Y94561D01*
X178609Y95020D01*
X177912Y95308D01*
X177165Y95407D01*
Y95399D01*
X160486D01*
X160229Y95656D01*
X159723Y95866D01*
X159579Y96237D01*
X159547Y96417D01*
X159980Y96982D01*
X160269Y97678D01*
X160367Y98425D01*
X160360D01*
Y115104D01*
X160617Y115361D01*
X160827Y115868D01*
Y116416D01*
X160617Y116922D01*
X160229Y117310D01*
X159723Y117520D01*
X159175D01*
X158943Y117424D01*
X158391Y117753D01*
Y119041D01*
X158649Y119298D01*
X158858Y119805D01*
Y120353D01*
X158649Y120859D01*
X158261Y121247D01*
X157754Y121457D01*
X157206D01*
X156700Y121247D01*
X156312Y120859D01*
X156102Y120353D01*
Y119805D01*
X156312Y119298D01*
X156569Y119041D01*
Y117753D01*
X156018Y117424D01*
X155786Y117520D01*
X155238D01*
X155006Y117424D01*
X154455Y117753D01*
Y121010D01*
X154711Y121267D01*
X154921Y121773D01*
Y122321D01*
X154711Y122828D01*
X154324Y123215D01*
X153817Y123425D01*
D02*
G37*
G36*
X5458Y115467D02*
X2416D01*
Y113242D01*
X3026D01*
Y111274D01*
X2769Y111017D01*
X2559Y110510D01*
Y109962D01*
X2769Y109456D01*
X3156Y109068D01*
X3663Y108858D01*
X4211D01*
X4718Y109068D01*
X5105Y109456D01*
X5315Y109962D01*
Y110510D01*
X5105Y111017D01*
X4848Y111274D01*
Y113242D01*
X5458D01*
Y115467D01*
D02*
G37*
G36*
X174035Y135433D02*
X169705D01*
Y125591D01*
X171443D01*
Y105675D01*
X171076Y105308D01*
X170866Y104802D01*
Y104253D01*
X171076Y103747D01*
X171464Y103359D01*
X171970Y103150D01*
X172518D01*
X173025Y103359D01*
X173412Y103747D01*
X173622Y104253D01*
Y104802D01*
X173412Y105308D01*
X173025Y105696D01*
X172848Y105769D01*
Y125591D01*
X174035D01*
Y135433D01*
D02*
G37*
G36*
X183345Y105709D02*
X182797D01*
X182290Y105499D01*
X181903Y105111D01*
X181693Y104605D01*
Y104057D01*
X181903Y103550D01*
X182290Y103163D01*
X182682Y103000D01*
X182768Y102792D01*
X183128Y102323D01*
X182911Y101794D01*
X182890Y101772D01*
X182797D01*
X182290Y101562D01*
X181903Y101174D01*
X181693Y100668D01*
Y100120D01*
X181903Y99613D01*
X182290Y99225D01*
X182584Y99104D01*
X182892Y98358D01*
X183539Y97515D01*
X184382Y96868D01*
X185364Y96462D01*
X185650Y96424D01*
Y94882D01*
X195492D01*
Y99212D01*
X185650D01*
Y98385D01*
X185191Y98079D01*
X185102Y98116D01*
X184558Y98534D01*
X184140Y99079D01*
X184012Y99386D01*
X184239Y99613D01*
X184449Y100120D01*
Y100668D01*
X184363Y100875D01*
X184476Y101075D01*
X184766Y101341D01*
X185433Y101253D01*
X185650Y100792D01*
Y99804D01*
X195492D01*
Y104134D01*
X185650D01*
Y103144D01*
X185098Y102743D01*
X184800Y102802D01*
X184480Y103016D01*
X184239Y103550D01*
X184449Y104057D01*
Y104605D01*
X184239Y105111D01*
X183851Y105499D01*
X183345Y105709D01*
D02*
G37*
G36*
X148248Y94291D02*
X138406D01*
Y89961D01*
X148248D01*
Y94291D01*
D02*
G37*
G36*
X39101Y85030D02*
X38707D01*
X38549Y85030D01*
X34927D01*
X34770Y85030D01*
X34376D01*
X34219Y85030D01*
X30597D01*
X30439Y85030D01*
X30045D01*
X29888Y85030D01*
X26266D01*
X26108Y85030D01*
X25715D01*
X25557Y85030D01*
X21778D01*
Y77156D01*
X25557D01*
X25715Y77156D01*
X26108D01*
X26266Y77156D01*
X29888D01*
X30045Y77156D01*
X30439D01*
X30597Y77156D01*
X34219D01*
X34376Y77156D01*
X34770D01*
X34927Y77156D01*
X38549D01*
X38707Y77156D01*
X39101D01*
X39258Y77156D01*
X43038D01*
Y85030D01*
X39258D01*
X39101Y85030D01*
D02*
G37*
G36*
X47171Y85030D02*
X43628D01*
Y77156D01*
X47171D01*
Y85030D01*
D02*
G37*
G36*
X178957Y88189D02*
X174627D01*
Y78347D01*
X176156D01*
Y74705D01*
X176142D01*
X176107Y74531D01*
X175586Y74165D01*
X175471Y74213D01*
X174923D01*
X174416Y74003D01*
X174029Y73615D01*
X173819Y73109D01*
Y72561D01*
X174029Y72054D01*
X174416Y71667D01*
X174923Y71457D01*
X175471D01*
X175977Y71667D01*
X176365Y72054D01*
X176436Y72227D01*
X176591Y72291D01*
X177168Y72734D01*
X177611Y73311D01*
X177890Y73983D01*
X177985Y74705D01*
X177978D01*
Y78347D01*
X178957D01*
Y88189D01*
D02*
G37*
G36*
X42597Y73228D02*
X42049D01*
X41542Y73019D01*
X41155Y72631D01*
X40945Y72124D01*
Y71576D01*
X41155Y71070D01*
X41412Y70813D01*
Y69829D01*
X40802D01*
Y67604D01*
X43843D01*
Y69829D01*
X43234D01*
Y70813D01*
X43491Y71070D01*
X43701Y71576D01*
Y72124D01*
X43491Y72631D01*
X43103Y73019D01*
X42597Y73228D01*
D02*
G37*
G36*
X155118Y68536D02*
X148031D01*
X147730Y68412D01*
X147605Y68110D01*
Y65748D01*
X147730Y65447D01*
X148031Y65322D01*
X155118D01*
X155419Y65447D01*
X155544Y65748D01*
Y68110D01*
X155419Y68412D01*
X155118Y68536D01*
D02*
G37*
G36*
X43843Y66255D02*
X40802D01*
Y64029D01*
X41609D01*
Y59842D01*
X38780D01*
Y53937D01*
X45866D01*
Y59842D01*
X43431D01*
Y64029D01*
X43843D01*
Y66255D01*
D02*
G37*
G36*
X132432Y166765D02*
X51181D01*
X50880Y166640D01*
X50755Y166339D01*
Y43484D01*
X50204Y43448D01*
X50121Y44078D01*
X49823Y44796D01*
X49350Y45413D01*
X48733Y45886D01*
X48431Y46012D01*
X48412Y46056D01*
X48025Y46444D01*
X47518Y46654D01*
X46970D01*
X46464Y46444D01*
X46076Y46056D01*
X45866Y45550D01*
Y45002D01*
X46076Y44495D01*
X46464Y44107D01*
X46970Y43898D01*
X47518D01*
X47662Y43957D01*
X48137Y43607D01*
X48197Y43307D01*
X48209D01*
Y3937D01*
X48203D01*
X48304Y3166D01*
X48602Y2448D01*
X49075Y1831D01*
X49692Y1358D01*
X50410Y1060D01*
X51181Y959D01*
Y965D01*
X131890D01*
Y959D01*
X132661Y1060D01*
X133379Y1358D01*
X133996Y1831D01*
X134469Y2448D01*
X134766Y3166D01*
X134868Y3937D01*
X134862D01*
Y6870D01*
X137365D01*
Y6398D01*
X137510Y5668D01*
X137923Y5049D01*
X138542Y4636D01*
X139272Y4491D01*
X142224D01*
X142954Y4636D01*
X143573Y5049D01*
X143986Y5668D01*
X144131Y6398D01*
Y9350D01*
X143986Y10080D01*
X143573Y10699D01*
X142954Y11112D01*
X142224Y11257D01*
X139272D01*
X138542Y11112D01*
X137923Y10699D01*
X137510Y10080D01*
X137365Y9350D01*
Y8878D01*
X134862D01*
Y12868D01*
X178096D01*
X178353Y12611D01*
X178860Y12402D01*
X179408D01*
X179914Y12611D01*
X180171Y12868D01*
X192913D01*
Y12861D01*
X193661Y12959D01*
X194357Y13248D01*
X194955Y13707D01*
X195413Y14305D01*
X195702Y15001D01*
X195800Y15748D01*
X195793D01*
Y35418D01*
Y39370D01*
Y53331D01*
Y59146D01*
Y66929D01*
X195800D01*
X195702Y67676D01*
X195413Y68373D01*
X194955Y68971D01*
X194357Y69429D01*
X193661Y69718D01*
X192913Y69816D01*
Y69809D01*
X176916D01*
Y70418D01*
X174690D01*
Y67377D01*
X176916D01*
Y67986D01*
X192913D01*
Y67974D01*
X193313Y67895D01*
X193652Y67668D01*
X193879Y67329D01*
X193958Y66929D01*
X193971D01*
Y60057D01*
X192465D01*
Y60349D01*
X189424D01*
Y60057D01*
X188484D01*
Y62008D01*
X185728D01*
Y59843D01*
X185728Y59843D01*
Y59449D01*
X185728D01*
X185728Y59291D01*
Y57284D01*
X188484D01*
Y58235D01*
X189424D01*
Y58123D01*
X192465D01*
Y58235D01*
X193971D01*
Y54242D01*
X192465D01*
Y54263D01*
X189424D01*
Y54242D01*
X188484D01*
Y54331D01*
X185728D01*
Y52165D01*
X188484D01*
Y52420D01*
X189424D01*
Y52037D01*
X192465D01*
Y52420D01*
X193971D01*
Y40281D01*
X182215D01*
Y40891D01*
X179990D01*
Y37850D01*
X182215D01*
Y38459D01*
X193971D01*
Y36329D01*
X182215D01*
Y36938D01*
X179990D01*
Y33897D01*
X182215D01*
Y34506D01*
X193971D01*
Y15748D01*
X193958D01*
X193879Y15348D01*
X193652Y15009D01*
X193313Y14783D01*
X192913Y14703D01*
Y14691D01*
X180171D01*
X179914Y14948D01*
X179408Y15157D01*
X178860D01*
X178353Y14948D01*
X178096Y14691D01*
X169218D01*
Y16785D01*
X169828D01*
Y19011D01*
X166787D01*
Y16785D01*
X167396D01*
Y14691D01*
X134769D01*
Y32553D01*
X136470D01*
Y31944D01*
X138696D01*
Y34703D01*
X140045D01*
Y31944D01*
X142270D01*
Y32771D01*
X144967D01*
X145077Y32220D01*
X144415Y31946D01*
X143323Y31108D01*
X142484Y30015D01*
X141957Y28743D01*
X141924Y28491D01*
X141196D01*
Y26265D01*
X144237D01*
Y28491D01*
X144237D01*
X143993Y28856D01*
X144089Y29089D01*
X144633Y29797D01*
X145342Y30341D01*
X146167Y30683D01*
X147052Y30799D01*
Y30803D01*
X150440D01*
Y30533D01*
X152198D01*
X152225Y30411D01*
X151783Y29860D01*
X150645D01*
Y27173D01*
X151057D01*
Y22585D01*
X150448D01*
Y20360D01*
X153489D01*
Y22585D01*
X152880D01*
Y27173D01*
X156963D01*
Y22585D01*
X156353D01*
Y20360D01*
X159395D01*
Y22585D01*
X158785D01*
Y27173D01*
X158912D01*
Y29590D01*
X160487D01*
Y27173D01*
X160757D01*
Y23371D01*
X160752D01*
X160842Y22689D01*
X161105Y22054D01*
X161524Y21509D01*
X162069Y21090D01*
X162704Y20827D01*
X163386Y20737D01*
Y20742D01*
X166787D01*
Y20360D01*
X169828D01*
Y22585D01*
X166787D01*
Y22565D01*
X163386D01*
Y22582D01*
X163084Y22642D01*
X162828Y22813D01*
X162657Y23069D01*
X162597Y23371D01*
X162580D01*
Y27173D01*
X170724D01*
Y29860D01*
X169554D01*
X169112Y30411D01*
X169139Y30533D01*
X170928D01*
Y32436D01*
X170983Y32540D01*
X171479Y32885D01*
X171607Y32859D01*
X172085Y32539D01*
X172405Y32061D01*
X172518Y31496D01*
X172526D01*
Y29528D01*
X172517D01*
X172608Y28834D01*
X172876Y28187D01*
X173301Y27632D01*
X173857Y27206D01*
X174503Y26939D01*
X175197Y26847D01*
Y26857D01*
X176052D01*
Y25054D01*
X178278D01*
Y28095D01*
X176917D01*
X176834Y28151D01*
X176181Y28281D01*
Y28262D01*
X175197D01*
Y28274D01*
X174717Y28369D01*
X174310Y28641D01*
X174039Y29048D01*
X173943Y29528D01*
X173931D01*
Y31496D01*
X173942D01*
X173843Y32247D01*
X173554Y32946D01*
X173093Y33547D01*
X172492Y34008D01*
X172056Y34188D01*
X172165Y34740D01*
X176415D01*
Y33897D01*
X178640D01*
Y36938D01*
X176415D01*
Y36562D01*
X171493D01*
X171384Y37113D01*
X171467Y37148D01*
X172165Y37683D01*
X172700Y38380D01*
X173036Y39192D01*
X173151Y40064D01*
X173140D01*
Y60014D01*
X177486D01*
X177657Y59842D01*
Y59449D01*
X177486Y59277D01*
X175885D01*
X175471Y59449D01*
X174923D01*
X174416Y59239D01*
X174029Y58851D01*
X173819Y58345D01*
Y57797D01*
X174029Y57290D01*
X174416Y56903D01*
X174923Y56693D01*
X175471D01*
X175977Y56903D01*
X176365Y57290D01*
X176433Y57455D01*
X177486D01*
X177657Y57284D01*
Y56890D01*
X177657Y56732D01*
Y56520D01*
X176649Y56102D01*
X175660Y55344D01*
X174902Y54355D01*
X174425Y53204D01*
X174262Y51969D01*
X174286D01*
Y41339D01*
X174278D01*
X174377Y40591D01*
X174665Y39895D01*
X175124Y39297D01*
X175722Y38838D01*
X176415Y38552D01*
Y37850D01*
X178640D01*
Y40891D01*
X176415D01*
X176124Y41321D01*
X176120Y41339D01*
X176108D01*
Y51969D01*
X176116D01*
X176215Y52724D01*
X176507Y53429D01*
X176971Y54033D01*
X177576Y54497D01*
X178124Y54725D01*
X180413D01*
Y56732D01*
X180413Y56890D01*
Y57284D01*
X180413Y57441D01*
Y59291D01*
X180413Y59449D01*
Y59842D01*
X180413Y60000D01*
Y62008D01*
X177657D01*
Y61836D01*
X173140D01*
Y67377D01*
X173341D01*
Y70418D01*
X173140D01*
Y78347D01*
X174035D01*
Y88189D01*
X169705D01*
Y78347D01*
X171317D01*
Y70418D01*
X171116D01*
Y67377D01*
X171317D01*
Y61024D01*
X171315D01*
X171317Y61014D01*
Y58828D01*
X170766Y58718D01*
X170711Y58851D01*
X170323Y59239D01*
X169817Y59449D01*
X169268D01*
X168762Y59239D01*
X168374Y58851D01*
X168165Y58345D01*
Y57797D01*
X168374Y57290D01*
X168475Y57190D01*
X168391Y56639D01*
X168391D01*
Y53597D01*
X168631D01*
Y42160D01*
X160487D01*
Y39943D01*
X158912D01*
Y42160D01*
X158642D01*
Y47981D01*
X158657D01*
X158530Y48947D01*
X158157Y49847D01*
X157564Y50620D01*
X157344Y50789D01*
Y54931D01*
X156050D01*
Y57820D01*
X153824D01*
Y54931D01*
X152256D01*
Y46644D01*
X152029Y46187D01*
X147971D01*
X147744Y46644D01*
Y54931D01*
X146176D01*
Y57820D01*
X143950D01*
Y54931D01*
X142656D01*
Y46644D01*
X144164D01*
Y45870D01*
X144152D01*
X144268Y45289D01*
X144597Y44797D01*
X145089Y44468D01*
X145669Y44353D01*
Y44364D01*
X153543D01*
Y44352D01*
X153943Y44272D01*
X154282Y44046D01*
X154509Y43707D01*
X154588Y43307D01*
X154601D01*
Y42160D01*
X150645D01*
Y39473D01*
X152342D01*
Y36832D01*
X150440D01*
Y36562D01*
X148765D01*
Y36727D01*
X145723D01*
Y36525D01*
X134769D01*
Y71923D01*
X163386D01*
Y71911D01*
X163786Y71832D01*
X164125Y71605D01*
X164351Y71266D01*
X164431Y70866D01*
X164443D01*
Y55693D01*
X164432D01*
X164546Y55120D01*
X164816Y54715D01*
Y53597D01*
X167042D01*
Y56639D01*
X166265D01*
Y70866D01*
X166273D01*
X166174Y71613D01*
X165886Y72310D01*
X165427Y72908D01*
X164829Y73366D01*
X164133Y73655D01*
X163386Y73753D01*
Y73746D01*
X134769D01*
Y76772D01*
X134776D01*
X134879Y77553D01*
X135181Y78281D01*
X135660Y78907D01*
X136286Y79386D01*
X137014Y79688D01*
X137795Y79791D01*
Y79798D01*
X141196D01*
Y79415D01*
X144237D01*
Y79793D01*
X150020D01*
Y78347D01*
X154350D01*
Y88189D01*
X150020D01*
Y81615D01*
X144237D01*
Y81640D01*
X141196D01*
Y81620D01*
X137795D01*
Y81644D01*
X136534Y81478D01*
X135359Y80991D01*
X134350Y80217D01*
X133576Y79208D01*
X133410Y78807D01*
X132858Y78917D01*
Y166339D01*
X132734Y166640D01*
X132432Y166765D01*
D02*
G37*
%LPD*%
G36*
X188058Y60057D02*
X188071Y60026D01*
Y58265D01*
X188058Y58235D01*
Y57710D01*
X186154D01*
Y59291D01*
X186154Y59291D01*
X186154Y59291D01*
X186154Y59449D01*
X186154Y59449D01*
Y59842D01*
X186154Y59843D01*
Y61582D01*
X188058D01*
Y60057D01*
D02*
G37*
D24*
X9350Y205709D02*
D03*
D25*
X9055Y192717D02*
D03*
D26*
X22307Y37354D02*
D03*
X14827D02*
D03*
X7427Y57954D02*
D03*
X14907D02*
D03*
X173425Y155512D02*
D03*
X180905D02*
D03*
X188779Y179134D02*
D03*
X181299D02*
D03*
X39173Y183071D02*
D03*
X31693D02*
D03*
X160827Y144488D02*
D03*
X153347D02*
D03*
D27*
X181102Y171063D02*
D03*
Y163583D02*
D03*
X14967Y43913D02*
D03*
Y51394D02*
D03*
X181496Y140059D02*
D03*
Y147539D02*
D03*
X15085Y72038D02*
D03*
Y64558D02*
D03*
X42323Y49410D02*
D03*
Y56890D02*
D03*
D28*
X168599Y178661D02*
D03*
X147149Y163661D02*
D03*
Y168661D02*
D03*
Y173661D02*
D03*
Y178661D02*
D03*
X168599Y173661D02*
D03*
Y168661D02*
D03*
Y163661D02*
D03*
D29*
X190945Y141831D02*
D03*
Y153445D02*
D03*
X25537Y70438D02*
D03*
Y58824D02*
D03*
D30*
X190945Y62811D02*
D03*
X142717Y76953D02*
D03*
X190945Y56724D02*
D03*
X157874Y17898D02*
D03*
X151969D02*
D03*
X147244Y39189D02*
D03*
X142717Y23803D02*
D03*
X29528Y173409D02*
D03*
X5906Y183087D02*
D03*
X23622Y131709D02*
D03*
Y128134D02*
D03*
X5906Y179512D02*
D03*
X29528Y176984D02*
D03*
X35433Y173409D02*
D03*
Y176984D02*
D03*
X145669Y141126D02*
D03*
Y144701D02*
D03*
X142717Y27378D02*
D03*
X190945Y53150D02*
D03*
Y59236D02*
D03*
X142717Y80528D02*
D03*
X3937Y114354D02*
D03*
X147244Y35614D02*
D03*
X168307Y21472D02*
D03*
Y17898D02*
D03*
X42323Y65142D02*
D03*
Y68717D02*
D03*
X151969Y21472D02*
D03*
X3937Y117929D02*
D03*
X157874Y21472D02*
D03*
D31*
X190571Y121654D02*
D03*
X143327D02*
D03*
X190571Y116733D02*
D03*
Y101969D02*
D03*
Y92126D02*
D03*
Y106890D02*
D03*
X143327Y101969D02*
D03*
X190571Y97047D02*
D03*
X143327Y106890D02*
D03*
X190571Y111811D02*
D03*
X143327D02*
D03*
Y97047D02*
D03*
Y92126D02*
D03*
Y116733D02*
D03*
D32*
X176792Y130512D02*
D03*
X157106Y83268D02*
D03*
X171870D02*
D03*
X181713Y130512D02*
D03*
X176792Y83268D02*
D03*
X152185D02*
D03*
X181713D02*
D03*
X152185Y130512D02*
D03*
X166949Y83268D02*
D03*
X171870Y130512D02*
D03*
X162028Y83268D02*
D03*
X157106Y130512D02*
D03*
X162028D02*
D03*
X166949D02*
D03*
D33*
X150409Y158465D02*
D03*
X151362Y56299D02*
D03*
X148638D02*
D03*
X180740Y26575D02*
D03*
X39189Y169291D02*
D03*
X31315Y165354D02*
D03*
X35252Y161417D02*
D03*
X34630Y140748D02*
D03*
X18692Y127059D02*
D03*
X18511Y130996D02*
D03*
X31677Y161417D02*
D03*
X146835Y158465D02*
D03*
X15117Y127059D02*
D03*
X35614Y169291D02*
D03*
X27740Y165354D02*
D03*
X38205Y140748D02*
D03*
X181102Y35418D02*
D03*
X177528D02*
D03*
X141157Y33465D02*
D03*
X137583D02*
D03*
X154937Y56299D02*
D03*
X145063D02*
D03*
X14936Y130996D02*
D03*
X172228Y68898D02*
D03*
X169504Y55118D02*
D03*
X175803Y68898D02*
D03*
X165929Y55118D02*
D03*
X150409Y154528D02*
D03*
X181102Y39370D02*
D03*
X146835Y154528D02*
D03*
X177165Y26575D02*
D03*
X177528Y39370D02*
D03*
D34*
X58650Y182852D02*
D03*
D35*
X187106Y55807D02*
D03*
X179035Y53248D02*
D03*
Y55807D02*
D03*
X187106Y53248D02*
D03*
Y58366D02*
D03*
Y60925D02*
D03*
X179035D02*
D03*
Y58366D02*
D03*
D36*
X159700Y40817D02*
D03*
Y28517D02*
D03*
X151826Y40817D02*
D03*
X153794D02*
D03*
X155763D02*
D03*
X157731D02*
D03*
X161669D02*
D03*
X163637D02*
D03*
X165605D02*
D03*
X167574D02*
D03*
X169543D02*
D03*
Y28517D02*
D03*
X167574D02*
D03*
X165605D02*
D03*
X163637D02*
D03*
X161669D02*
D03*
X157731D02*
D03*
X155763D02*
D03*
X153794D02*
D03*
X151826D02*
D03*
D37*
X151584Y37619D02*
D03*
X169784D02*
D03*
Y35651D02*
D03*
Y33682D02*
D03*
Y31714D02*
D03*
X151584D02*
D03*
Y33682D02*
D03*
Y35651D02*
D03*
D38*
X148622Y7874D02*
D03*
X140748D02*
D03*
D39*
X34449Y146850D02*
D03*
Y155512D02*
D03*
D40*
X145200Y50787D02*
D03*
X154800D02*
D03*
D41*
X19533Y64631D02*
D03*
X184941Y147638D02*
D03*
D42*
X5705Y29774D02*
D03*
Y4084D02*
D03*
D43*
X181197Y185039D02*
D03*
D44*
X19467Y64553D02*
D03*
X185800Y147559D02*
D03*
D45*
X14937Y64613D02*
D03*
D46*
X126390Y183289D02*
D03*
D49*
X45400Y118494D02*
D03*
X10754D02*
D03*
Y81093D02*
D03*
X45400D02*
D03*
D50*
X41069Y118494D02*
D03*
X36738D02*
D03*
X32408D02*
D03*
X28077D02*
D03*
X23746D02*
D03*
X19415D02*
D03*
X15085D02*
D03*
Y81093D02*
D03*
X19415D02*
D03*
X23746D02*
D03*
X28077D02*
D03*
X32408D02*
D03*
X36738D02*
D03*
X41069D02*
D03*
D56*
X17717Y163287D02*
D03*
X20571Y154528D02*
D03*
X5866D02*
D03*
X17717Y149705D02*
D03*
X21654Y160433D02*
D03*
Y158465D02*
D03*
Y156496D02*
D03*
X20571Y152559D02*
D03*
X15748Y148622D02*
D03*
X13780D02*
D03*
X11811Y149705D02*
D03*
X9843D02*
D03*
X6988Y152559D02*
D03*
X5866Y156496D02*
D03*
X6988Y158465D02*
D03*
Y160433D02*
D03*
X9843Y164409D02*
D03*
X11811D02*
D03*
X13780D02*
D03*
X15748Y163287D02*
D03*
D57*
X13780Y156496D02*
D03*
D65*
X159449Y116142D02*
D03*
X159843Y175098D02*
D03*
X157480Y120079D02*
D03*
X155512Y116142D02*
D03*
X153543Y122047D02*
D03*
X46260Y21654D02*
D03*
Y5906D02*
D03*
Y13780D02*
D03*
Y29528D02*
D03*
X175197Y174522D02*
D03*
Y161024D02*
D03*
Y167773D02*
D03*
X174213Y187992D02*
D03*
X166339D02*
D03*
X175197Y181271D02*
D03*
X150591Y187992D02*
D03*
X142717D02*
D03*
X158465D02*
D03*
X44291Y175197D02*
D03*
X137795Y74803D02*
D03*
X167323Y49213D02*
D03*
X186024Y27559D02*
D03*
X43307Y35433D02*
D03*
X16732Y180118D02*
D03*
X5906Y186024D02*
D03*
X1687Y185039D02*
D03*
X13780Y158465D02*
D03*
X11811Y156496D02*
D03*
X15748D02*
D03*
X13780Y154528D02*
D03*
X35433Y35433D02*
D03*
X27559D02*
D03*
X155905Y161319D02*
D03*
X177559Y110138D02*
D03*
X183465Y108169D02*
D03*
X141732Y130905D02*
D03*
Y133858D02*
D03*
X38386Y160433D02*
D03*
X27559Y161417D02*
D03*
X13780Y168307D02*
D03*
X32480D02*
D03*
X1969Y160433D02*
D03*
X42323Y142717D02*
D03*
X2953Y141732D02*
D03*
X6890Y133858D02*
D03*
X23622Y138779D02*
D03*
X13780D02*
D03*
X9843Y129921D02*
D03*
X110331Y208661D02*
D03*
Y232283D02*
D03*
X118205Y208661D02*
D03*
Y232283D02*
D03*
X126079Y208661D02*
D03*
Y232283D02*
D03*
X133953Y208661D02*
D03*
Y232283D02*
D03*
X141827Y208661D02*
D03*
Y232283D02*
D03*
X149701Y208661D02*
D03*
Y232283D02*
D03*
X157575Y208661D02*
D03*
Y232283D02*
D03*
X165449Y208661D02*
D03*
Y232283D02*
D03*
X173323D02*
D03*
Y208661D02*
D03*
X181197Y232283D02*
D03*
X47244Y45276D02*
D03*
X43307Y129921D02*
D03*
X37402D02*
D03*
X183071Y104331D02*
D03*
X163969Y32917D02*
D03*
X163386Y98425D02*
D03*
X141732Y127953D02*
D03*
X3937Y110236D02*
D03*
X39370D02*
D03*
X157480Y167323D02*
D03*
X183071Y100394D02*
D03*
X175197Y58071D02*
D03*
X169543D02*
D03*
X175197Y72835D02*
D03*
X179134Y13780D02*
D03*
X159369Y33016D02*
D03*
X159449Y94488D02*
D03*
X183465Y112106D02*
D03*
X153937Y169193D02*
D03*
X171260Y92520D02*
D03*
X172244Y104528D02*
D03*
X165354Y90551D02*
D03*
X42323Y104331D02*
D03*
Y71850D02*
D03*
D66*
X143327Y97047D02*
G03*
X143917Y96457I590J0D01*
G01*
X157480D02*
G03*
X159449Y98425I0J1969D01*
G01*
X143720Y102362D02*
G03*
X143327Y101969I0J-393D01*
G01*
X155512Y102362D02*
G03*
X157480Y104331I0J1969D01*
G01*
X143327Y106890D02*
G03*
X143917Y106299I591J0D01*
G01*
X151575D02*
G03*
X155512Y110236I0J3937D01*
G01*
X143721Y112205D02*
G03*
X143327Y111811I0J-394D01*
G01*
X151575Y112205D02*
G03*
X153543Y114173I0J1969D01*
G01*
X159843Y175098D02*
G03*
X156280Y178661I-3563J0D01*
G01*
X190846Y106890D02*
G03*
X189567Y108169I-1280J0D01*
G01*
X42520Y64945D02*
G03*
X42323Y65142I-197J0D01*
G01*
X32480Y118422D02*
G03*
X32408Y118494I-73J0D01*
G01*
X32480Y105315D02*
G03*
X33465Y104331I984J0D01*
G01*
X136811Y128937D02*
G03*
X137795Y127953I984J0D01*
G01*
X136811Y168307D02*
G03*
X135827Y169291I-984J0D01*
G01*
X138779Y131890D02*
G03*
X139764Y130905I984J0D01*
G01*
X138779Y170276D02*
G03*
X137795Y171260I-984J0D01*
G01*
X140748Y134843D02*
G03*
X141732Y133858I984J0D01*
G01*
X140748Y172244D02*
G03*
X139764Y173228I-984J0D01*
G01*
X179528Y110138D02*
G03*
X181496Y112106I0J1969D01*
G01*
X183465Y116043D02*
G03*
X181496Y114075I0J-1969D01*
G01*
X190157Y116043D02*
G03*
X190846Y116733I0J690D01*
G01*
X158819Y168661D02*
G03*
X157480Y167323I0J-1339D01*
G01*
X158248Y163661D02*
G03*
X155905Y161319I0J-2342D01*
G01*
X153937Y169193D02*
G03*
X149469Y173661I-4468J0D01*
G01*
X150409Y154528D02*
G03*
X155905Y160024I0J5496D01*
G01*
X147149Y163661D02*
G03*
X146835Y163347I0J-314D01*
G01*
X142717Y159449D02*
G03*
X143701Y158465I984J0D01*
G01*
X142717Y176181D02*
G03*
X141732Y177165I-984J0D01*
G01*
X49213Y171260D02*
G03*
X47244Y169291I0J-1969D01*
G01*
X177528Y35418D02*
G03*
X177294Y35651I-233J0D01*
G01*
X151969Y28374D02*
G03*
X151826Y28517I-143J0D01*
G01*
X141375Y33682D02*
G03*
X141157Y33465I0J-218D01*
G01*
X147052Y31714D02*
G03*
X142717Y27378I0J-4336D01*
G01*
X194882Y66929D02*
G03*
X192913Y68898I-1969J0D01*
G01*
X165354Y70866D02*
G03*
X163386Y72835I-1969J0D01*
G01*
X187886Y59146D02*
G03*
X187106Y58366I0J-779D01*
G01*
X165354Y55693D02*
G03*
X165929Y55118I575J0D01*
G01*
X142717Y80528D02*
G03*
X142535Y80709I-181J0D01*
G01*
X187189Y53331D02*
G03*
X187106Y53248I0J-83D01*
G01*
X192913Y13780D02*
G03*
X194882Y15748I0J1969D01*
G01*
X153794Y40817D02*
G03*
X153543Y40565I0J-251D01*
G01*
X44291Y177165D02*
G03*
X42323Y175197I0J-1969D01*
G01*
X38386Y140551D02*
G03*
X38189Y140748I-197J0D01*
G01*
X37402Y133858D02*
G03*
X38386Y134843I0J984D01*
G01*
X32874Y145669D02*
G03*
X33465Y146260I0J591D01*
G01*
X15748Y146653D02*
G03*
X16732Y145669I984J0D01*
G01*
X15748Y133858D02*
G03*
X15085Y133195I0J-663D01*
G01*
X133858Y35827D02*
G03*
X134071Y35614I213J0D01*
G01*
X137795Y80709D02*
G03*
X133858Y76772I0J-3937D01*
G01*
X20475Y160433D02*
G03*
X23622Y163581I0J3147D01*
G01*
X43307Y133858D02*
G03*
X41069Y131620I0J-2238D01*
G01*
X43307Y133858D02*
G03*
X45276Y135827I0J1969D01*
G01*
X36738Y118494D02*
G03*
X37402Y119158I0J663D01*
G01*
X43307Y129921D02*
G03*
X47244Y133858I0J3937D01*
G01*
X172228Y83185D02*
G03*
X172145Y83268I-83J0D01*
G01*
X169784Y37619D02*
G03*
X172228Y40064I0J2444D01*
G01*
Y61024D02*
G03*
X172327Y60925I98J0D01*
G01*
X167574Y29311D02*
G03*
X163969Y32917I-3605J0D01*
G01*
X181102Y96457D02*
G03*
X179134Y98425I-1969J0D01*
G01*
X181102Y94488D02*
G03*
X183071Y92520I1969J0D01*
G01*
X190846Y92126D02*
G03*
X190452Y92520I-394J0D01*
G01*
X51181Y169291D02*
G03*
X49213Y167323I0J-1969D01*
G01*
X47244Y110236D02*
G03*
X49213Y112205I0J1969D01*
G01*
X175492Y58366D02*
G03*
X175197Y58071I0J-295D01*
G01*
Y72835D02*
G03*
X177067Y74705I0J1870D01*
G01*
X161669Y30716D02*
G03*
X159369Y33016I-2300J0D01*
G01*
X161669Y23371D02*
G03*
X163386Y21654I1717J0D01*
G01*
X168307Y21472D02*
G03*
X168126Y21654I-181J0D01*
G01*
X179134Y92520D02*
G03*
X177165Y94488I-1969J0D01*
G01*
X179134Y92520D02*
G03*
X181102Y90551I1969J0D01*
G01*
X181988Y89665D02*
G03*
X181102Y90551I-886J0D01*
G01*
X190846Y111811D02*
G03*
X190551Y112106I-295J0D01*
G01*
X47244Y173228D02*
G03*
X45276Y171260I0J-1969D01*
G01*
X10189Y117929D02*
G03*
X10754Y118494I0J565D01*
G01*
X179035Y55807D02*
G03*
X175197Y51969I0J-3839D01*
G01*
Y41339D02*
G03*
X177165Y39370I1969J0D01*
G01*
X157731Y47981D02*
G03*
X154925Y50787I-2806J0D01*
G01*
X155512Y41068D02*
G03*
X155763Y40817I251J0D01*
G01*
X155512Y43307D02*
G03*
X153543Y45276I-1969J0D01*
G01*
X145075Y45870D02*
G03*
X145669Y45276I594J0D01*
G01*
X157874Y28374D02*
G03*
X157731Y28517I-143J0D01*
G01*
X143917Y96457D02*
X157480D01*
X159449Y98425D02*
Y116142D01*
X143720Y102362D02*
X155512D01*
X157480Y104331D02*
Y120079D01*
X143917Y106299D02*
X151575D01*
X155512Y110236D02*
Y116142D01*
X143721Y112205D02*
X151575D01*
X153543Y114173D02*
Y122047D01*
X147149Y178661D02*
X156280D01*
X15085Y118494D02*
Y133195D01*
X15748Y146653D02*
Y149801D01*
X155905Y160024D02*
Y161319D01*
X183465Y108169D02*
X189567D01*
X177559Y110138D02*
X179528D01*
X42520Y57087D02*
Y64945D01*
X42323Y68717D02*
Y71850D01*
X32480Y105315D02*
Y118422D01*
X33465Y104331D02*
X42323D01*
X137795Y127953D02*
X141732D01*
X136811Y128937D02*
Y168307D01*
X139764Y130905D02*
X141732D01*
X138779Y131890D02*
Y170276D01*
X49213Y171260D02*
X137795D01*
X140748Y134843D02*
Y172244D01*
X47244Y173228D02*
X139764D01*
X181496Y112106D02*
Y114075D01*
X183465Y116043D02*
X190157D01*
X158819Y168661D02*
X168599D01*
X158248Y163661D02*
X168599D01*
X147149Y173661D02*
X149469D01*
X146835Y154528D02*
Y158465D01*
X187886Y59146D02*
X194882D01*
X187189Y53331D02*
X194882D01*
X146835Y158465D02*
Y163347D01*
X143701Y158465D02*
X146835D01*
X142717Y159449D02*
Y176181D01*
X137008Y177165D02*
X141732D01*
X47244Y133858D02*
Y169291D01*
X51181D02*
X135827D01*
X169784Y35651D02*
X177294D01*
X151969Y21472D02*
Y28374D01*
X141375Y33682D02*
X151584D01*
X147052Y31714D02*
X151584D01*
X194882Y59146D02*
Y66929D01*
X175803Y68898D02*
X192913D01*
X165354Y55693D02*
Y70866D01*
X142717Y80528D02*
X143343Y80704D01*
X179134Y13780D02*
X192913D01*
X147244Y35651D02*
X151584D01*
X52165Y177165D02*
X137008Y177165D01*
X44291Y177165D02*
X52165D01*
X42323Y142717D02*
Y175197D01*
X38386Y134843D02*
Y140551D01*
X38189Y140748D02*
Y142717D01*
X33465Y146260D02*
X38189D01*
X16732Y145669D02*
X32874D01*
X23622Y133858D02*
X37402D01*
X15748D02*
X23622D01*
X137795Y80709D02*
X142535D01*
X134071Y35614D02*
X147244D01*
X133858Y72835D02*
X163386D01*
X133858Y33465D02*
Y35827D01*
Y72835D02*
Y76772D01*
Y35827D02*
Y72835D01*
X38189Y142717D02*
Y146260D01*
X23622Y163581D02*
Y179134D01*
X38189Y142717D02*
X42323D01*
X23622Y131709D02*
Y133858D01*
X41069Y118494D02*
Y131620D01*
X37402Y119158D02*
Y129921D01*
X47244Y133858D02*
Y133858D01*
X172228Y68898D02*
Y83185D01*
Y40064D02*
Y61024D01*
Y68898D01*
X172327Y60925D02*
X179035D01*
X167574Y28517D02*
Y29311D01*
X163386Y98425D02*
X179134D01*
X181102Y94488D02*
Y96457D01*
X183071Y92520D02*
X190452D01*
X3937Y110236D02*
Y114354D01*
X49213Y112205D02*
Y167323D01*
X39370Y110236D02*
X47244D01*
X175492Y58366D02*
X179035D01*
X177067Y74705D02*
Y83268D01*
X169543Y40817D02*
Y58071D01*
X194882Y53331D02*
Y59146D01*
X143343Y80704D02*
X151189D01*
X194882Y35418D02*
Y39370D01*
Y53331D01*
X181102Y35418D02*
X194882D01*
X181102Y39370D02*
X194882D01*
Y15748D02*
Y35418D01*
X168307Y13780D02*
X179134D01*
X168307D02*
Y17898D01*
X147244Y35614D02*
Y35651D01*
X133858Y33465D02*
X137583D01*
X133858Y13780D02*
X168307D01*
X133858D02*
Y33465D01*
X163386Y21654D02*
X168126D01*
X161669Y23371D02*
Y28517D01*
Y30716D01*
X159449Y94488D02*
X177165D01*
X179134Y92520D02*
Y92520D01*
X181988Y83268D02*
Y89665D01*
X183465Y112106D02*
X190551D01*
X45276Y135827D02*
Y171260D01*
X3937Y117929D02*
X10189D01*
X23622Y118494D02*
X23746D01*
X23622D02*
Y128134D01*
X175197Y41339D02*
Y51969D01*
X177165Y39370D02*
X177528D01*
X145063Y56299D02*
X145075D01*
Y50787D02*
Y56299D01*
X154937Y50787D02*
Y56299D01*
X154925Y50787D02*
X154937D01*
X157731Y40817D02*
Y47981D01*
X155512Y41068D02*
Y43307D01*
X145669Y45276D02*
X153543D01*
X145075Y45870D02*
Y50787D01*
X157874Y21472D02*
Y28374D01*
D67*
X1969Y205709D02*
G03*
X984Y204724I0J-984D01*
G01*
Y185742D02*
G03*
X1687Y185039I703J0D01*
G01*
X26575Y161417D02*
G03*
X25200Y160043I0J-1375D01*
G01*
X24665Y158465D02*
G03*
X25200Y159000I0J535D01*
G01*
X27756Y165354D02*
G03*
X27559Y165157I0J-197D01*
G01*
X8071Y192717D02*
G03*
X7874Y192913I-197J0D01*
G01*
X4921D02*
G03*
X3937Y191929I0J-984D01*
G01*
Y164370D02*
G03*
X5116Y163191I1179J0D01*
G01*
X11811Y165354D02*
G03*
X10827Y166339I-984J0D01*
G01*
X5906Y167323D02*
G03*
X6890Y166339I984J0D01*
G01*
X153347Y144488D02*
G03*
X153134Y144701I-213J0D01*
G01*
X145669Y137303D02*
G03*
X152460Y130512I6791J0D01*
G01*
X151584Y35651D02*
G03*
X153543Y37610I0J1959D01*
G01*
X37402Y159449D02*
G03*
X38386Y160433I0J984D01*
G01*
X28543Y159449D02*
G03*
X26575Y157480I0J-1969D01*
G01*
X25591Y156496D02*
G03*
X26575Y157480I0J984D01*
G01*
X13780Y143701D02*
G03*
X14764Y142717I984J0D01*
G01*
X23622Y141732D02*
G03*
X22638Y142717I-984J0D01*
G01*
X11811Y140748D02*
G03*
X13780Y138779I1969J0D01*
G01*
X35433Y169472D02*
G03*
X35614Y169291I181J0D01*
G01*
X34630Y168307D02*
G03*
X35614Y169291I0J984D01*
G01*
X6100Y134648D02*
G03*
X6890Y133858I790J0D01*
G01*
X984Y142717D02*
G03*
X1969Y141732I984J0D01*
G01*
Y156496D02*
G03*
X984Y155512I0J-984D01*
G01*
X183071Y104331D02*
G03*
X185433Y101969I2362J0D01*
G01*
X183071Y100394D02*
G03*
X186418Y97047I3347J0D01*
G01*
X171260Y92520D02*
G03*
X167224Y88484I0J-4036D01*
G01*
X172145Y104627D02*
G03*
X172244Y104528I99J0D01*
G01*
X165354Y90551D02*
G03*
X162303Y87500I0J-3051D01*
G01*
X177165Y26575D02*
G03*
X176181Y27559I-984J0D01*
G01*
X173228Y29528D02*
G03*
X175197Y27559I1969J0D01*
G01*
X173228Y31496D02*
G03*
X171042Y33682I-2186J0D01*
G01*
X1969Y205709D02*
X8366D01*
X984Y185742D02*
Y204724D01*
X1969Y160433D02*
X6988D01*
X25200Y159000D02*
Y160043D01*
X21654Y158465D02*
X24665D01*
X27559Y161417D02*
Y165157D01*
Y161417D02*
X31693D01*
X26575D02*
X27559D01*
X4921Y192913D02*
X7874D01*
X3937Y164370D02*
Y191929D01*
X5116Y163191D02*
X9843D01*
X6890Y166339D02*
X10827D01*
X11811Y163191D02*
Y165354D01*
X5906Y167323D02*
Y179512D01*
X145669Y144701D02*
X153134D01*
X145669Y137303D02*
Y141126D01*
X153543Y37610D02*
Y40565D01*
X28543Y159449D02*
X37402D01*
X20475Y156496D02*
X25591D01*
X13780Y143701D02*
Y149801D01*
X14764Y142717D02*
X22638D01*
X23622Y138779D02*
Y141732D01*
X11811Y140748D02*
Y149801D01*
X9843Y129921D02*
Y149801D01*
X13780Y163191D02*
Y168307D01*
X35433Y169472D02*
Y173409D01*
X32480Y168307D02*
X34630D01*
X6100Y134648D02*
Y152559D01*
X1969Y141732D02*
X2953D01*
X984Y142717D02*
Y155512D01*
X1969Y156496D02*
X6100D01*
X185433Y101969D02*
X190846D01*
X186418Y97047D02*
X190846D01*
X167224Y83268D02*
Y88484D01*
X172145Y104627D02*
Y130512D01*
X162303Y83268D02*
Y87500D01*
X175197Y27559D02*
X176181D01*
X173228Y29528D02*
Y31496D01*
X169784Y33682D02*
X171042D01*
D68*
X31693Y183071D02*
G03*
X29528Y180905I0J-2166D01*
G01*
X10827Y188976D02*
G03*
X9843Y187992I0J-984D01*
G01*
X31693Y186811D02*
G03*
X29528Y188976I-2166J0D01*
G01*
X15748Y173228D02*
G03*
X9843Y179134I-5906J0D01*
G01*
X131890Y1969D02*
G03*
X133858Y3937I0J1969D01*
G01*
X49213Y3937D02*
G03*
X51181Y1969I1969J0D01*
G01*
X49213Y43307D02*
G03*
X47244Y45276I-1969J0D01*
G01*
X31102Y152559D02*
G03*
X33465Y154921I0J2362D01*
G01*
X31693Y183071D02*
Y186811D01*
X10827Y188976D02*
X29528D01*
X9843Y179134D02*
Y187992D01*
X15748Y163191D02*
Y173228D01*
X35433Y176969D02*
Y176984D01*
X29528Y176969D02*
X35433D01*
X29528D02*
Y180905D01*
X19490Y152559D02*
X31102D01*
X49213Y3937D02*
Y43307D01*
X51181Y1969D02*
X131890D01*
X47244Y45276D02*
X47244D01*
X133858Y7874D02*
X140748D01*
X133858Y3937D02*
Y7874D01*
Y13780D01*
D69*
X92738Y183289D02*
G03*
X92520Y183071I0J-219D01*
G01*
X15085Y81093D02*
Y82677D01*
Y72038D02*
Y81093D01*
X181197Y185039D02*
Y232283D01*
X173323Y208661D02*
Y232283D01*
X165449Y208661D02*
Y232283D01*
X157575Y208661D02*
Y232283D01*
X149701Y208661D02*
Y232283D01*
X141827Y208661D02*
Y232283D01*
X133953Y208661D02*
Y232283D01*
X126079Y208661D02*
Y232283D01*
X118205Y208661D02*
Y232283D01*
X110331Y208661D02*
Y232283D01*
X39173Y183071D02*
X45276D01*
X92738Y183289D02*
X126390D01*
X14937Y64613D02*
X14967D01*
Y51394D02*
Y64613D01*
Y37354D02*
Y43913D01*
X14827Y37354D02*
X14967D01*
X5705Y29774D02*
X14827D01*
Y37354D01*
D70*
X181496Y163189D02*
G03*
X181102Y163583I-394J0D01*
G01*
Y179134D02*
X181197Y179228D01*
Y185039D01*
X181102Y171063D02*
Y179134D01*
X181496Y147539D02*
Y163189D01*
D71*
X23622Y179134D02*
D03*
X9843D02*
D03*
D72*
X181496Y140059D02*
X181713Y139843D01*
Y130512D02*
Y139843D01*
Y130512D02*
X181713Y130512D01*
D73*
X12402Y199213D02*
D03*
X4528D02*
D03*
D74*
X92520Y183071D02*
D03*
X45276D02*
D03*
M02*
