G04*
G04 #@! TF.GenerationSoftware,Altium Limited,Altium Designer,25.8.1 (18)*
G04*
G04 Layer_Color=16711935*
%FSLAX25Y25*%
%MOIN*%
G70*
G04*
G04 #@! TF.SameCoordinates,505960B2-D5C5-487F-9968-D24D6DC54575*
G04*
G04*
G04 #@! TF.FilePolarity,Positive*
G04*
G01*
G75*
%ADD14C,0.00787*%
G36*
X30640Y99459D02*
X29184D01*
X29181D01*
X29169D01*
X29152D01*
X29130D01*
X29103Y99457D01*
X29073D01*
X29039Y99454D01*
X29002Y99452D01*
X28921Y99444D01*
X28842Y99435D01*
X28802Y99427D01*
X28766Y99420D01*
X28731Y99410D01*
X28699Y99400D01*
X28697D01*
X28692Y99398D01*
X28684Y99393D01*
X28675Y99388D01*
X28645Y99373D01*
X28611Y99351D01*
X28574Y99321D01*
X28534Y99287D01*
X28495Y99243D01*
X28461Y99191D01*
Y99189D01*
X28458Y99184D01*
X28453Y99176D01*
X28448Y99164D01*
X28441Y99149D01*
X28433Y99132D01*
X28426Y99112D01*
X28419Y99090D01*
X28411Y99063D01*
X28404Y99036D01*
X28389Y98975D01*
X28379Y98903D01*
X28377Y98827D01*
Y98792D01*
X28379Y98768D01*
X28382Y98736D01*
X28387Y98702D01*
X28392Y98665D01*
X28397Y98623D01*
X28416Y98537D01*
X28431Y98495D01*
X28446Y98451D01*
X28466Y98409D01*
X28488Y98369D01*
X28512Y98335D01*
X28542Y98303D01*
X28544Y98300D01*
X28549Y98296D01*
X28561Y98288D01*
X28576Y98278D01*
X28596Y98266D01*
X28620Y98254D01*
X28650Y98239D01*
X28684Y98224D01*
X28726Y98210D01*
X28773Y98195D01*
X28825Y98182D01*
X28884Y98170D01*
X28948Y98160D01*
X29019Y98153D01*
X29098Y98148D01*
X29184Y98146D01*
X30640D01*
Y97811D01*
X29184D01*
X29179D01*
X29167D01*
X29147D01*
X29120Y97813D01*
X29088D01*
X29051Y97816D01*
X29009Y97818D01*
X28965Y97821D01*
X28918Y97826D01*
X28869Y97833D01*
X28768Y97848D01*
X28670Y97868D01*
X28623Y97882D01*
X28579Y97897D01*
X28576D01*
X28569Y97902D01*
X28556Y97907D01*
X28542Y97914D01*
X28522Y97924D01*
X28500Y97936D01*
X28475Y97951D01*
X28448Y97968D01*
X28421Y97988D01*
X28392Y98010D01*
X28362Y98037D01*
X28330Y98064D01*
X28301Y98096D01*
X28271Y98131D01*
X28242Y98168D01*
X28215Y98210D01*
X28212Y98212D01*
X28210Y98219D01*
X28202Y98232D01*
X28192Y98249D01*
X28183Y98273D01*
X28170Y98300D01*
X28158Y98330D01*
X28146Y98367D01*
X28133Y98406D01*
X28121Y98451D01*
X28109Y98500D01*
X28099Y98551D01*
X28089Y98608D01*
X28082Y98667D01*
X28079Y98731D01*
X28077Y98797D01*
Y98832D01*
X28079Y98857D01*
X28082Y98886D01*
X28084Y98920D01*
X28087Y98960D01*
X28092Y99002D01*
X28099Y99048D01*
X28106Y99095D01*
X28128Y99191D01*
X28141Y99240D01*
X28158Y99287D01*
X28175Y99334D01*
X28197Y99378D01*
X28200Y99380D01*
X28202Y99388D01*
X28210Y99400D01*
X28220Y99415D01*
X28232Y99432D01*
X28249Y99454D01*
X28266Y99476D01*
X28288Y99501D01*
X28310Y99528D01*
X28338Y99555D01*
X28367Y99582D01*
X28399Y99607D01*
X28433Y99631D01*
X28470Y99656D01*
X28510Y99678D01*
X28552Y99698D01*
X28554D01*
X28561Y99703D01*
X28576Y99708D01*
X28593Y99713D01*
X28618Y99720D01*
X28645Y99727D01*
X28679Y99737D01*
X28716Y99744D01*
X28761Y99754D01*
X28807Y99764D01*
X28859Y99772D01*
X28916Y99779D01*
X28977Y99784D01*
X29041Y99789D01*
X29110Y99794D01*
X29184D01*
X30640D01*
Y99459D01*
D02*
G37*
G36*
X28188Y97420D02*
X28220Y97415D01*
X28256Y97410D01*
X28293Y97400D01*
X28333Y97388D01*
X28335D01*
X28340Y97385D01*
X28350Y97381D01*
X28362Y97376D01*
X28377Y97368D01*
X28394Y97361D01*
X28438Y97339D01*
X28490Y97309D01*
X28547Y97275D01*
X28606Y97233D01*
X28667Y97184D01*
X28670Y97181D01*
X28675Y97176D01*
X28684Y97169D01*
X28697Y97157D01*
X28712Y97142D01*
X28731Y97125D01*
X28753Y97105D01*
X28778Y97080D01*
X28802Y97053D01*
X28832Y97024D01*
X28864Y96989D01*
X28898Y96955D01*
X28933Y96916D01*
X28970Y96874D01*
X29009Y96827D01*
X29048Y96780D01*
X29053Y96775D01*
X29063Y96763D01*
X29081Y96741D01*
X29105Y96714D01*
X29132Y96679D01*
X29167Y96643D01*
X29204Y96601D01*
X29243Y96556D01*
X29329Y96463D01*
X29417Y96372D01*
X29462Y96330D01*
X29506Y96291D01*
X29545Y96254D01*
X29585Y96224D01*
X29587Y96222D01*
X29595Y96217D01*
X29605Y96210D01*
X29619Y96202D01*
X29636Y96190D01*
X29656Y96178D01*
X29681Y96165D01*
X29705Y96150D01*
X29762Y96123D01*
X29823Y96099D01*
X29858Y96091D01*
X29890Y96084D01*
X29924Y96079D01*
X29956Y96077D01*
X29959D01*
X29964D01*
X29974D01*
X29988Y96079D01*
X30003Y96082D01*
X30020Y96084D01*
X30064Y96094D01*
X30114Y96109D01*
X30165Y96133D01*
X30190Y96148D01*
X30217Y96165D01*
X30242Y96185D01*
X30266Y96210D01*
X30269Y96212D01*
X30271Y96214D01*
X30279Y96224D01*
X30286Y96234D01*
X30296Y96246D01*
X30306Y96264D01*
X30318Y96281D01*
X30330Y96303D01*
X30343Y96325D01*
X30355Y96352D01*
X30374Y96411D01*
X30389Y96478D01*
X30392Y96514D01*
X30394Y96554D01*
Y96576D01*
X30392Y96591D01*
X30389Y96610D01*
X30387Y96633D01*
X30382Y96657D01*
X30377Y96682D01*
X30362Y96741D01*
X30338Y96800D01*
X30323Y96829D01*
X30303Y96859D01*
X30283Y96886D01*
X30259Y96913D01*
X30256Y96916D01*
X30254Y96918D01*
X30244Y96925D01*
X30234Y96933D01*
X30222Y96943D01*
X30205Y96955D01*
X30185Y96967D01*
X30163Y96979D01*
X30138Y96992D01*
X30111Y97004D01*
X30079Y97014D01*
X30047Y97026D01*
X30013Y97034D01*
X29974Y97041D01*
X29934Y97043D01*
X29890Y97046D01*
X29922Y97363D01*
X29927D01*
X29937Y97361D01*
X29956Y97358D01*
X29981Y97356D01*
X30010Y97348D01*
X30045Y97341D01*
X30082Y97331D01*
X30123Y97321D01*
X30165Y97307D01*
X30210Y97289D01*
X30254Y97270D01*
X30301Y97248D01*
X30345Y97221D01*
X30387Y97191D01*
X30426Y97157D01*
X30463Y97120D01*
X30465Y97117D01*
X30470Y97110D01*
X30480Y97098D01*
X30492Y97080D01*
X30507Y97058D01*
X30522Y97034D01*
X30539Y97002D01*
X30556Y96967D01*
X30574Y96928D01*
X30591Y96886D01*
X30606Y96839D01*
X30620Y96788D01*
X30633Y96733D01*
X30643Y96675D01*
X30648Y96613D01*
X30650Y96547D01*
Y96529D01*
X30648Y96512D01*
Y96485D01*
X30645Y96456D01*
X30640Y96421D01*
X30633Y96382D01*
X30625Y96337D01*
X30613Y96293D01*
X30601Y96246D01*
X30584Y96197D01*
X30564Y96150D01*
X30542Y96101D01*
X30515Y96057D01*
X30483Y96013D01*
X30448Y95971D01*
X30446Y95968D01*
X30438Y95961D01*
X30429Y95951D01*
X30411Y95939D01*
X30392Y95922D01*
X30369Y95904D01*
X30343Y95885D01*
X30310Y95865D01*
X30276Y95845D01*
X30237Y95826D01*
X30197Y95809D01*
X30153Y95791D01*
X30106Y95779D01*
X30055Y95769D01*
X30003Y95762D01*
X29949Y95759D01*
X29946D01*
X29941D01*
X29934D01*
X29924D01*
X29910Y95762D01*
X29895D01*
X29855Y95767D01*
X29811Y95774D01*
X29759Y95786D01*
X29705Y95801D01*
X29651Y95823D01*
X29649D01*
X29644Y95826D01*
X29636Y95831D01*
X29627Y95836D01*
X29612Y95843D01*
X29597Y95850D01*
X29558Y95872D01*
X29513Y95899D01*
X29459Y95937D01*
X29403Y95978D01*
X29344Y96030D01*
X29341Y96032D01*
X29336Y96037D01*
X29327Y96045D01*
X29314Y96057D01*
X29297Y96074D01*
X29277Y96091D01*
X29255Y96116D01*
X29228Y96143D01*
X29199Y96173D01*
X29164Y96210D01*
X29127Y96246D01*
X29088Y96291D01*
X29046Y96337D01*
X28999Y96389D01*
X28953Y96446D01*
X28901Y96505D01*
X28898Y96507D01*
X28891Y96517D01*
X28879Y96532D01*
X28864Y96549D01*
X28844Y96571D01*
X28822Y96596D01*
X28773Y96655D01*
X28721Y96714D01*
X28670Y96773D01*
X28645Y96800D01*
X28620Y96825D01*
X28601Y96847D01*
X28584Y96864D01*
X28581Y96866D01*
X28569Y96876D01*
X28552Y96891D01*
X28532Y96911D01*
X28505Y96930D01*
X28478Y96952D01*
X28448Y96975D01*
X28416Y96994D01*
Y95757D01*
X28119D01*
Y97422D01*
X28121D01*
X28124D01*
X28138D01*
X28158D01*
X28188Y97420D01*
D02*
G37*
D14*
X49534Y77156D02*
Y122432D01*
X6620Y77156D02*
X49534D01*
X6620D02*
Y122432D01*
X49534D01*
M02*
