G04*
G04 #@! TF.GenerationSoftware,Altium Limited,Altium Designer,25.8.1 (18)*
G04*
G04 Layer_Color=65535*
%FSLAX25Y25*%
%MOIN*%
G70*
G04*
G04 #@! TF.SameCoordinates,505960B2-D5C5-487F-9968-D24D6DC54575*
G04*
G04*
G04 #@! TF.FilePolarity,Positive*
G04*
G01*
G75*
%ADD13C,0.00600*%
%ADD14C,0.00787*%
D13*
X177165Y185039D02*
G03*
X179134Y183071I1969J0D01*
G01*
X183071D02*
G03*
X185039Y185039I0J1969D01*
G01*
X171653Y162106D02*
Y180217D01*
X143701D02*
X171653D01*
X143701Y162106D02*
Y180217D01*
Y162106D02*
X166142D01*
X168110D01*
X171653D01*
X150842Y27186D02*
Y42147D01*
Y27186D02*
X170527D01*
Y42147D01*
X150842D02*
X170527D01*
X179134Y183071D02*
X183071D01*
X106299Y204724D02*
Y236221D01*
X185039D01*
X106299Y204724D02*
X177165D01*
Y185039D02*
Y204724D01*
X185039Y185039D02*
Y236221D01*
X116142Y179134D02*
Y187008D01*
X135827D01*
Y179134D02*
Y187008D01*
X116142Y179134D02*
X135827D01*
X49213D02*
Y187008D01*
X68898D01*
Y179134D02*
Y187008D01*
X49213Y179134D02*
X68898D01*
X186634Y89173D02*
X196476D01*
X137421D02*
X149232D01*
X137421Y124606D02*
X149232D01*
X196476Y89173D02*
Y124606D01*
X137421Y89173D02*
Y124606D01*
X149232Y77362D02*
Y89173D01*
X184665Y124606D02*
X196476D01*
X149232Y77362D02*
X184665D01*
Y124606D02*
Y136417D01*
Y77362D02*
Y89173D01*
X149232Y136417D02*
X184665D01*
Y89173D02*
X186634D01*
X149232Y124606D02*
Y136417D01*
D14*
X49534Y77156D02*
Y122432D01*
X6620Y77156D02*
X49534D01*
X6620D02*
Y122432D01*
X49534D01*
M02*
