G04*
G04 #@! TF.GenerationSoftware,Altium Limited,Altium Designer,25.8.1 (18)*
G04*
G04 Layer_Color=255*
%FSLAX25Y25*%
%MOIN*%
G70*
G04*
G04 #@! TF.SameCoordinates,505960B2-D5C5-487F-9968-D24D6DC54575*
G04*
G04*
G04 #@! TF.FilePolarity,Positive*
G04*
G01*
G75*
%ADD24R,0.03740X0.04331*%
%ADD25R,0.04331X0.04331*%
%ADD26R,0.05118X0.06299*%
%ADD27R,0.06299X0.05118*%
%ADD28R,0.05750X0.02200*%
%ADD29R,0.08661X0.04134*%
%ADD30R,0.02254X0.01438*%
%ADD31R,0.09055X0.03543*%
%ADD32R,0.03543X0.09055*%
%ADD33R,0.01438X0.02254*%
%ADD34R,0.19685X0.07874*%
%ADD35R,0.01968X0.01378*%
%ADD36R,0.01575X0.01900*%
%ADD37R,0.01500X0.01575*%
G04:AMPARAMS|DCode=38|XSize=59.06mil|YSize=59.06mil|CornerRadius=14.76mil|HoleSize=0mil|Usage=FLASHONLY|Rotation=270.000|XOffset=0mil|YOffset=0mil|HoleType=Round|Shape=RoundedRectangle|*
%AMROUNDEDRECTD38*
21,1,0.05906,0.02953,0,0,270.0*
21,1,0.02953,0.05906,0,0,270.0*
1,1,0.02953,-0.01476,-0.01476*
1,1,0.02953,-0.01476,0.01476*
1,1,0.02953,0.01476,0.01476*
1,1,0.02953,0.01476,-0.01476*
%
%ADD38ROUNDEDRECTD38*%
%ADD39R,0.12598X0.03937*%
%ADD40R,0.04300X0.07500*%
%ADD41R,0.04134X0.03937*%
%ADD42R,0.08503X0.03791*%
G04:AMPARAMS|DCode=43|XSize=19.68mil|YSize=19.68mil|CornerRadius=4.92mil|HoleSize=0mil|Usage=FLASHONLY|Rotation=0.000|XOffset=0mil|YOffset=0mil|HoleType=Round|Shape=RoundedRectangle|*
%AMROUNDEDRECTD43*
21,1,0.01968,0.00984,0,0,0.0*
21,1,0.00984,0.01968,0,0,0.0*
1,1,0.00984,0.00492,-0.00492*
1,1,0.00984,-0.00492,-0.00492*
1,1,0.00984,-0.00492,0.00492*
1,1,0.00984,0.00492,0.00492*
%
%ADD43ROUNDEDRECTD43*%
%ADD44R,0.03937X0.05118*%
%ADD45R,0.01968X0.03937*%
%ADD46R,0.19685X0.07874*%
%ADD49R,0.02756X0.07087*%
%ADD50R,0.03150X0.07087*%
%ADD56C,0.00992*%
%ADD57R,0.08071X0.08071*%
%ADD71R,0.03150X0.16929*%
%ADD73C,0.02756*%
D24*
X9350Y205709D02*
D03*
D25*
X9055Y192717D02*
D03*
D26*
X22307Y37354D02*
D03*
X14827D02*
D03*
X7427Y57954D02*
D03*
X14907D02*
D03*
X173425Y155512D02*
D03*
X180905D02*
D03*
X188779Y179134D02*
D03*
X181299D02*
D03*
X39173Y183071D02*
D03*
X31693D02*
D03*
X160827Y144488D02*
D03*
X153347D02*
D03*
D27*
X181102Y171063D02*
D03*
Y163583D02*
D03*
X14967Y43913D02*
D03*
Y51394D02*
D03*
X181496Y140059D02*
D03*
Y147539D02*
D03*
X15085Y72038D02*
D03*
Y64558D02*
D03*
X42323Y49410D02*
D03*
Y56890D02*
D03*
D28*
X168599Y178661D02*
D03*
X147149Y163661D02*
D03*
Y168661D02*
D03*
Y173661D02*
D03*
Y178661D02*
D03*
X168599Y173661D02*
D03*
Y168661D02*
D03*
Y163661D02*
D03*
D29*
X190945Y141831D02*
D03*
Y153445D02*
D03*
X25537Y70438D02*
D03*
Y58824D02*
D03*
D30*
X190945Y62811D02*
D03*
X142717Y76953D02*
D03*
X190945Y56724D02*
D03*
X157874Y17898D02*
D03*
X151969D02*
D03*
X147244Y39189D02*
D03*
X142717Y23803D02*
D03*
X29528Y173409D02*
D03*
X5906Y183087D02*
D03*
X23622Y131709D02*
D03*
Y128134D02*
D03*
X5906Y179512D02*
D03*
X29528Y176984D02*
D03*
X35433Y173409D02*
D03*
Y176984D02*
D03*
X145669Y141126D02*
D03*
Y144701D02*
D03*
X142717Y27378D02*
D03*
X190945Y53150D02*
D03*
Y59236D02*
D03*
X142717Y80528D02*
D03*
X3937Y114354D02*
D03*
X147244Y35614D02*
D03*
X168307Y21472D02*
D03*
Y17898D02*
D03*
X42323Y65142D02*
D03*
Y68717D02*
D03*
X151969Y21472D02*
D03*
X3937Y117929D02*
D03*
X157874Y21472D02*
D03*
D31*
X190571Y121654D02*
D03*
X143327D02*
D03*
X190571Y116733D02*
D03*
Y101969D02*
D03*
Y92126D02*
D03*
Y106890D02*
D03*
X143327Y101969D02*
D03*
X190571Y97047D02*
D03*
X143327Y106890D02*
D03*
X190571Y111811D02*
D03*
X143327D02*
D03*
Y97047D02*
D03*
Y92126D02*
D03*
Y116733D02*
D03*
D32*
X176792Y130512D02*
D03*
X157106Y83268D02*
D03*
X171870D02*
D03*
X181713Y130512D02*
D03*
X176792Y83268D02*
D03*
X152185D02*
D03*
X181713D02*
D03*
X152185Y130512D02*
D03*
X166949Y83268D02*
D03*
X171870Y130512D02*
D03*
X162028Y83268D02*
D03*
X157106Y130512D02*
D03*
X162028D02*
D03*
X166949D02*
D03*
D33*
X150409Y158465D02*
D03*
X151362Y56299D02*
D03*
X148638D02*
D03*
X180740Y26575D02*
D03*
X39189Y169291D02*
D03*
X31315Y165354D02*
D03*
X35252Y161417D02*
D03*
X34630Y140748D02*
D03*
X18692Y127059D02*
D03*
X18511Y130996D02*
D03*
X31677Y161417D02*
D03*
X146835Y158465D02*
D03*
X15117Y127059D02*
D03*
X35614Y169291D02*
D03*
X27740Y165354D02*
D03*
X38205Y140748D02*
D03*
X181102Y35418D02*
D03*
X177528D02*
D03*
X141157Y33465D02*
D03*
X137583D02*
D03*
X154937Y56299D02*
D03*
X145063D02*
D03*
X14936Y130996D02*
D03*
X172228Y68898D02*
D03*
X169504Y55118D02*
D03*
X175803Y68898D02*
D03*
X165929Y55118D02*
D03*
X150409Y154528D02*
D03*
X181102Y39370D02*
D03*
X146835Y154528D02*
D03*
X177165Y26575D02*
D03*
X177528Y39370D02*
D03*
D34*
X58650Y182852D02*
D03*
D35*
X187106Y55807D02*
D03*
X179035Y53248D02*
D03*
Y55807D02*
D03*
X187106Y53248D02*
D03*
Y58366D02*
D03*
Y60925D02*
D03*
X179035D02*
D03*
Y58366D02*
D03*
D36*
X159700Y40817D02*
D03*
Y28517D02*
D03*
X151826Y40817D02*
D03*
X153794D02*
D03*
X155763D02*
D03*
X157731D02*
D03*
X161669D02*
D03*
X163637D02*
D03*
X165605D02*
D03*
X167574D02*
D03*
X169543D02*
D03*
Y28517D02*
D03*
X167574D02*
D03*
X165605D02*
D03*
X163637D02*
D03*
X161669D02*
D03*
X157731D02*
D03*
X155763D02*
D03*
X153794D02*
D03*
X151826D02*
D03*
D37*
X151584Y37619D02*
D03*
X169784D02*
D03*
Y35651D02*
D03*
Y33682D02*
D03*
Y31714D02*
D03*
X151584D02*
D03*
Y33682D02*
D03*
Y35651D02*
D03*
D38*
X148622Y7874D02*
D03*
X140748D02*
D03*
D39*
X34449Y146850D02*
D03*
Y155512D02*
D03*
D40*
X145200Y50787D02*
D03*
X154800D02*
D03*
D41*
X19533Y64631D02*
D03*
X184941Y147638D02*
D03*
D42*
X5705Y29774D02*
D03*
Y4084D02*
D03*
D43*
X181197Y185039D02*
D03*
D44*
X19467Y64553D02*
D03*
X185800Y147559D02*
D03*
D45*
X14937Y64613D02*
D03*
D46*
X126390Y183289D02*
D03*
D49*
X45400Y118494D02*
D03*
X10754D02*
D03*
Y81093D02*
D03*
X45400D02*
D03*
D50*
X41069Y118494D02*
D03*
X36738D02*
D03*
X32408D02*
D03*
X28077D02*
D03*
X23746D02*
D03*
X19415D02*
D03*
X15085D02*
D03*
Y81093D02*
D03*
X19415D02*
D03*
X23746D02*
D03*
X28077D02*
D03*
X32408D02*
D03*
X36738D02*
D03*
X41069D02*
D03*
D56*
X17717Y163287D02*
D03*
X20571Y154528D02*
D03*
X5866D02*
D03*
X17717Y149705D02*
D03*
X21654Y160433D02*
D03*
Y158465D02*
D03*
Y156496D02*
D03*
X20571Y152559D02*
D03*
X15748Y148622D02*
D03*
X13780D02*
D03*
X11811Y149705D02*
D03*
X9843D02*
D03*
X6988Y152559D02*
D03*
X5866Y156496D02*
D03*
X6988Y158465D02*
D03*
Y160433D02*
D03*
X9843Y164409D02*
D03*
X11811D02*
D03*
X13780D02*
D03*
X15748Y163287D02*
D03*
D57*
X13780Y156496D02*
D03*
D71*
X23622Y179134D02*
D03*
X9843D02*
D03*
D73*
X12402Y199213D02*
D03*
X4528D02*
D03*
M02*
