G04*
G04 #@! TF.GenerationSoftware,Altium Limited,Altium Designer,25.8.1 (18)*
G04*
G04 Layer_Color=128*
%FSLAX25Y25*%
%MOIN*%
G70*
G04*
G04 #@! TF.SameCoordinates,A86E57CF-C6E6-4710-AEDF-4A901DF70E31*
G04*
G04*
G04 #@! TF.FilePolarity,Positive*
G04*
G01*
G75*
%ADD16C,0.00500*%
D16*
X6102Y165748D02*
X9646D01*
X7874Y163976D02*
Y167520D01*
X6102Y192520D02*
X9646D01*
X7874Y190748D02*
Y194291D01*
X154823Y116142D02*
X156201D01*
X155512Y115453D02*
Y116831D01*
X166732Y49213D02*
X167913D01*
X167323Y48622D02*
Y49803D01*
X185335Y27559D02*
X186713D01*
X186024Y26870D02*
Y28248D01*
X137106Y74803D02*
X138484D01*
X137795Y74114D02*
Y75492D01*
X45571Y29528D02*
X46949D01*
X46260Y28839D02*
Y30217D01*
X45571Y21654D02*
X46949D01*
X46260Y20965D02*
Y22343D01*
X45571Y13780D02*
X46949D01*
X46260Y13091D02*
Y14469D01*
X45571Y5906D02*
X46949D01*
X46260Y5217D02*
Y6594D01*
X42618Y35433D02*
X43996D01*
X43307Y34744D02*
Y36122D01*
X34744Y35433D02*
X36122D01*
X35433Y34744D02*
Y36122D01*
X26870Y35433D02*
X28248D01*
X27559Y34744D02*
Y36122D01*
X173524Y187992D02*
X174902D01*
X174213Y187303D02*
Y188681D01*
X165650Y187992D02*
X167027D01*
X166339Y187303D02*
Y188681D01*
X157776Y187992D02*
X159153D01*
X158465Y187303D02*
Y188681D01*
X149902Y187992D02*
X151279D01*
X150591Y187303D02*
Y188681D01*
X142028Y187992D02*
X143405D01*
X142717Y187303D02*
Y188681D01*
X174508Y181271D02*
X175886D01*
X175197Y180582D02*
Y181960D01*
X174508Y174522D02*
X175886D01*
X175197Y173833D02*
Y175211D01*
X174508Y167773D02*
X175886D01*
X175197Y167084D02*
Y168462D01*
X174508Y161024D02*
X175886D01*
X175197Y160335D02*
Y161713D01*
X158760Y116142D02*
X160138D01*
X159449Y115453D02*
Y116831D01*
X36713Y129921D02*
X38091D01*
X37402Y129232D02*
Y130610D01*
X42618Y129921D02*
X43996D01*
X43307Y129232D02*
Y130610D01*
X176870Y110138D02*
X178248D01*
X177559Y109449D02*
Y110827D01*
X141043Y130905D02*
X142421D01*
X141732Y130217D02*
Y131595D01*
X33760Y70866D02*
X35138D01*
X34449Y70177D02*
Y71555D01*
X33760Y102362D02*
X35138D01*
X34449Y101673D02*
Y103051D01*
X182776Y112106D02*
X184153D01*
X183465Y111417D02*
Y112795D01*
X141043Y133858D02*
X142421D01*
X141732Y133169D02*
Y134547D01*
X152854Y122047D02*
X154232D01*
X153543Y121358D02*
Y122736D01*
X41634Y142717D02*
X43012D01*
X42323Y142028D02*
Y143405D01*
X109583Y208661D02*
X111079D01*
X110331Y207913D02*
Y209409D01*
X109583Y232283D02*
X111079D01*
X110331Y231535D02*
Y233032D01*
X117457Y208661D02*
X118953D01*
X118205Y207913D02*
Y209409D01*
X117457Y232283D02*
X118953D01*
X118205Y231535D02*
Y233032D01*
X125331Y208661D02*
X126827D01*
X126079Y207913D02*
Y209409D01*
X125331Y232283D02*
X126827D01*
X126079Y231535D02*
Y233032D01*
X133205Y208661D02*
X134701D01*
X133953Y207913D02*
Y209409D01*
X133205Y232283D02*
X134701D01*
X133953Y231535D02*
Y233032D01*
X141079Y208661D02*
X142575D01*
X141827Y207913D02*
Y209409D01*
X141079Y232283D02*
X142575D01*
X141827Y231535D02*
Y233032D01*
X148953Y208661D02*
X150449D01*
X149701Y207913D02*
Y209409D01*
X148953Y232283D02*
X150449D01*
X149701Y231535D02*
Y233032D01*
X156827Y208661D02*
X158323D01*
X157575Y207913D02*
Y209409D01*
X156827Y232283D02*
X158323D01*
X157575Y231535D02*
Y233032D01*
X164701Y208661D02*
X166197D01*
X165449Y207913D02*
Y209409D01*
X164701Y232283D02*
X166197D01*
X165449Y231535D02*
Y233032D01*
X172575Y232283D02*
X174071D01*
X173323Y231535D02*
Y233032D01*
X172575Y208661D02*
X174071D01*
X173323Y207913D02*
Y209409D01*
X180449Y232283D02*
X181945D01*
X181197Y231535D02*
Y233032D01*
X46555Y45276D02*
X47933D01*
X47244Y44587D02*
Y45965D01*
X182382Y104331D02*
X183760D01*
X183071Y103642D02*
Y105020D01*
X163279Y32917D02*
X164657D01*
X163969Y32228D02*
Y33606D01*
X162697Y98425D02*
X164075D01*
X163386Y97736D02*
Y99114D01*
X182776Y108169D02*
X184153D01*
X183465Y107480D02*
Y108858D01*
X141043Y127953D02*
X142421D01*
X141732Y127264D02*
Y128642D01*
X3248Y110236D02*
X4626D01*
X3937Y109547D02*
Y110925D01*
X38681Y110236D02*
X40059D01*
X39370Y109547D02*
Y110925D01*
X156791Y120079D02*
X158169D01*
X157480Y119390D02*
Y120768D01*
X156791Y167323D02*
X158169D01*
X157480Y166634D02*
Y168012D01*
X182382Y100394D02*
X183760D01*
X183071Y99705D02*
Y101083D01*
X174508Y58071D02*
X175886D01*
X175197Y57382D02*
Y58760D01*
X168853Y58071D02*
X170231D01*
X169543Y57382D02*
Y58760D01*
X174508Y72835D02*
X175886D01*
X175197Y72146D02*
Y73524D01*
X178445Y13780D02*
X179823D01*
X179134Y13091D02*
Y14469D01*
X155217Y161319D02*
X156595D01*
X155905Y160630D02*
Y162008D01*
X158679Y33016D02*
X160057D01*
X159369Y32328D02*
Y33705D01*
X158760Y94488D02*
X160138D01*
X159449Y93799D02*
Y95177D01*
X153248Y169193D02*
X154626D01*
X153937Y168504D02*
Y169882D01*
X170571Y92520D02*
X171949D01*
X171260Y91831D02*
Y93209D01*
X159153Y175098D02*
X160531D01*
X159843Y174409D02*
Y175787D01*
X171555Y104528D02*
X172933D01*
X172244Y103839D02*
Y105217D01*
X164665Y90551D02*
X166043D01*
X165354Y89862D02*
Y91240D01*
X91535Y183071D02*
X93504D01*
X92520Y182087D02*
Y184055D01*
X44291Y183071D02*
X46260D01*
X45276Y182087D02*
Y184055D01*
M02*
