G04*
G04 #@! TF.GenerationSoftware,Altium Limited,Altium Designer,25.8.1 (18)*
G04*
G04 Layer_Color=8421504*
%FSLAX25Y25*%
%MOIN*%
G70*
G04*
G04 #@! TF.SameCoordinates,A86E57CF-C6E6-4710-AEDF-4A901DF70E31*
G04*
G04*
G04 #@! TF.FilePolarity,Positive*
G04*
G01*
G75*
%ADD20R,0.05118X0.06299*%
%ADD21R,0.06299X0.05118*%
%ADD22R,0.01968X0.01378*%
%ADD23R,0.09055X0.03543*%
%ADD24R,0.03543X0.09055*%
%ADD25R,0.19685X0.07874*%
%ADD26R,0.02254X0.01438*%
%ADD27R,0.01438X0.02254*%
%ADD28R,0.08661X0.04134*%
G04:AMPARAMS|DCode=29|XSize=59.06mil|YSize=59.06mil|CornerRadius=14.76mil|HoleSize=0mil|Usage=FLASHONLY|Rotation=270.000|XOffset=0mil|YOffset=0mil|HoleType=Round|Shape=RoundedRectangle|*
%AMROUNDEDRECTD29*
21,1,0.05906,0.02953,0,0,270.0*
21,1,0.02953,0.05906,0,0,270.0*
1,1,0.02953,-0.01476,-0.01476*
1,1,0.02953,-0.01476,0.01476*
1,1,0.02953,0.01476,0.01476*
1,1,0.02953,0.01476,-0.01476*
%
%ADD29ROUNDEDRECTD29*%
%ADD30R,0.05750X0.02200*%
G04:AMPARAMS|DCode=31|XSize=76.94mil|YSize=20.31mil|CornerRadius=10.15mil|HoleSize=0mil|Usage=FLASHONLY|Rotation=90.000|XOffset=0mil|YOffset=0mil|HoleType=Round|Shape=RoundedRectangle|*
%AMROUNDEDRECTD31*
21,1,0.07694,0.00000,0,0,90.0*
21,1,0.05664,0.02031,0,0,90.0*
1,1,0.02031,0.00000,0.02832*
1,1,0.02031,0.00000,-0.02832*
1,1,0.02031,0.00000,-0.02832*
1,1,0.02031,0.00000,0.02832*
%
%ADD31ROUNDEDRECTD31*%
%ADD32R,0.01575X0.01900*%
%ADD33R,0.01500X0.01575*%
%ADD34R,0.10630X0.03150*%
%ADD35R,0.09843X0.04724*%
%ADD36R,0.02031X0.07694*%
G04:AMPARAMS|DCode=37|XSize=19.68mil|YSize=19.68mil|CornerRadius=4.92mil|HoleSize=0mil|Usage=FLASHONLY|Rotation=0.000|XOffset=0mil|YOffset=0mil|HoleType=Round|Shape=RoundedRectangle|*
%AMROUNDEDRECTD37*
21,1,0.01968,0.00984,0,0,0.0*
21,1,0.00984,0.01968,0,0,0.0*
1,1,0.00984,0.00492,-0.00492*
1,1,0.00984,-0.00492,-0.00492*
1,1,0.00984,-0.00492,0.00492*
1,1,0.00984,0.00492,0.00492*
%
%ADD37ROUNDEDRECTD37*%
%ADD38R,0.08503X0.03791*%
%ADD39R,0.04134X0.03937*%
%ADD40R,0.04300X0.07500*%
%ADD41R,0.03937X0.05118*%
%ADD42R,0.01968X0.03937*%
%ADD43R,0.19685X0.07874*%
G36*
X12132Y75187D02*
X9376D01*
Y80699D01*
X9770D01*
Y84242D01*
X11738D01*
Y80699D01*
X12132D01*
Y75187D01*
D02*
G37*
G36*
X16659D02*
X13510D01*
Y80699D01*
X13904D01*
Y84242D01*
X16266D01*
Y80699D01*
X16659D01*
Y75187D01*
D02*
G37*
G36*
X20990D02*
X17841D01*
Y80699D01*
X18234D01*
Y84242D01*
X20596D01*
Y80699D01*
X20990D01*
Y75187D01*
D02*
G37*
G36*
X25321D02*
X22171D01*
Y80699D01*
X22565D01*
Y84242D01*
X24927D01*
Y80699D01*
X25321D01*
Y75187D01*
D02*
G37*
G36*
X29652D02*
X26502D01*
Y80699D01*
X26896D01*
Y84242D01*
X29258D01*
Y80699D01*
X29652D01*
Y75187D01*
D02*
G37*
G36*
X33982D02*
X30833D01*
Y80699D01*
X31226D01*
Y84242D01*
X33589D01*
Y80699D01*
X33982D01*
Y75187D01*
D02*
G37*
G36*
X38313D02*
X35164D01*
Y80699D01*
X35557D01*
Y84242D01*
X37919D01*
Y80699D01*
X38313D01*
Y75187D01*
D02*
G37*
G36*
X42644D02*
X39494D01*
Y80699D01*
X39888D01*
Y84242D01*
X42250D01*
Y80699D01*
X42644D01*
Y75187D01*
D02*
G37*
G36*
X46778D02*
X44022D01*
Y80699D01*
X44415D01*
Y84242D01*
X46384D01*
Y80699D01*
X46778D01*
Y75187D01*
D02*
G37*
G36*
X9376Y124400D02*
X12132D01*
Y118888D01*
X11738D01*
Y115345D01*
X9770D01*
Y118888D01*
X9376D01*
Y124400D01*
D02*
G37*
G36*
X13510D02*
X16659D01*
Y118888D01*
X16266D01*
Y115345D01*
X13904D01*
Y118888D01*
X13510D01*
Y124400D01*
D02*
G37*
G36*
X17841D02*
X20990D01*
Y118888D01*
X20596D01*
Y115345D01*
X18234D01*
Y118888D01*
X17841D01*
Y124400D01*
D02*
G37*
G36*
X22171D02*
X25321D01*
Y118888D01*
X24927D01*
Y115345D01*
X22565D01*
Y118888D01*
X22171D01*
Y124400D01*
D02*
G37*
G36*
X26502D02*
X29652D01*
Y118888D01*
X29258D01*
Y115345D01*
X26896D01*
Y118888D01*
X26502D01*
Y124400D01*
D02*
G37*
G36*
X30833D02*
X33982D01*
Y118888D01*
X33589D01*
Y115345D01*
X31226D01*
Y118888D01*
X30833D01*
Y124400D01*
D02*
G37*
G36*
X35164D02*
X38313D01*
Y118888D01*
X37919D01*
Y115345D01*
X35557D01*
Y118888D01*
X35164D01*
Y124400D01*
D02*
G37*
G36*
X44022D02*
X46778D01*
Y118888D01*
X46384D01*
Y115345D01*
X44415D01*
Y118888D01*
X44022D01*
Y124400D01*
D02*
G37*
G36*
X39494D02*
X42644D01*
Y118888D01*
X42250D01*
Y115345D01*
X39888D01*
Y118888D01*
X39494D01*
Y124400D01*
D02*
G37*
D20*
X29725Y183071D02*
D03*
X37205D02*
D03*
X22307Y37354D02*
D03*
X14827D02*
D03*
X7427Y57954D02*
D03*
X14907D02*
D03*
X173425Y155512D02*
D03*
X180905D02*
D03*
X188779Y179134D02*
D03*
X181299D02*
D03*
X160827Y144488D02*
D03*
X16929Y140748D02*
D03*
X24409D02*
D03*
X153347Y144488D02*
D03*
D21*
X181496Y147539D02*
D03*
Y140059D02*
D03*
X15085Y64558D02*
D03*
Y72038D02*
D03*
X181102Y171063D02*
D03*
Y163583D02*
D03*
X14967Y43913D02*
D03*
Y51394D02*
D03*
X42323Y68701D02*
D03*
X31496Y149803D02*
D03*
Y157283D02*
D03*
X42323Y61221D02*
D03*
D22*
X187106Y55807D02*
D03*
X179035Y53248D02*
D03*
Y60925D02*
D03*
Y58366D02*
D03*
X187106Y60925D02*
D03*
Y58366D02*
D03*
Y53248D02*
D03*
X179035Y55807D02*
D03*
D23*
X143602Y121654D02*
D03*
X190846D02*
D03*
Y116733D02*
D03*
Y111811D02*
D03*
Y101969D02*
D03*
Y92126D02*
D03*
Y106890D02*
D03*
X143602Y101969D02*
D03*
X190846Y97047D02*
D03*
X143602Y106890D02*
D03*
Y111811D02*
D03*
Y97047D02*
D03*
Y92126D02*
D03*
Y116733D02*
D03*
D24*
X177067Y130512D02*
D03*
X157381Y83268D02*
D03*
X152460Y130512D02*
D03*
X172145Y83268D02*
D03*
X181988Y130512D02*
D03*
X177067Y83268D02*
D03*
X152460D02*
D03*
X181988D02*
D03*
X167224D02*
D03*
X172145Y130512D02*
D03*
X162303Y83268D02*
D03*
X157381Y130512D02*
D03*
X162303D02*
D03*
X167224D02*
D03*
D25*
X58650Y182852D02*
D03*
D26*
X147244Y39189D02*
D03*
X157874Y17898D02*
D03*
X151969D02*
D03*
X142717Y23803D02*
D03*
Y76953D02*
D03*
X190945Y62811D02*
D03*
Y56724D02*
D03*
X34449Y64598D02*
D03*
X145669Y140929D02*
D03*
Y144504D02*
D03*
X190945Y53150D02*
D03*
Y59236D02*
D03*
X142717Y80528D02*
D03*
Y27378D02*
D03*
X3937Y114354D02*
D03*
X147244Y35614D02*
D03*
X168307Y17898D02*
D03*
X23622Y131709D02*
D03*
X168307Y21472D02*
D03*
X34449Y61024D02*
D03*
X151969Y21472D02*
D03*
X3937Y117929D02*
D03*
X23622Y128134D02*
D03*
X157874Y21472D02*
D03*
D27*
X180740Y26575D02*
D03*
X15126Y131890D02*
D03*
Y127953D02*
D03*
X148638Y56299D02*
D03*
X151362D02*
D03*
X150409Y158465D02*
D03*
X146835Y154528D02*
D03*
X150409D02*
D03*
X146835Y158465D02*
D03*
X154937Y56299D02*
D03*
X145063D02*
D03*
X18701Y127953D02*
D03*
Y131890D02*
D03*
X177528Y35418D02*
D03*
X181102D02*
D03*
X137583Y33465D02*
D03*
X141157D02*
D03*
X172228Y68898D02*
D03*
X169504Y55118D02*
D03*
X175803Y68898D02*
D03*
X165929Y55118D02*
D03*
X181102Y39370D02*
D03*
X177165Y26575D02*
D03*
X177528Y39370D02*
D03*
D28*
X190945Y141831D02*
D03*
Y153445D02*
D03*
X25537Y58824D02*
D03*
Y70438D02*
D03*
D29*
X148622Y7874D02*
D03*
X140748D02*
D03*
D30*
X168599Y178661D02*
D03*
Y168661D02*
D03*
Y173661D02*
D03*
Y163661D02*
D03*
X147149Y168661D02*
D03*
Y163661D02*
D03*
Y178661D02*
D03*
Y173661D02*
D03*
D31*
X8169Y157088D02*
D03*
X5610Y140156D02*
D03*
X8169D02*
D03*
X10728D02*
D03*
Y157088D02*
D03*
X5610D02*
D03*
X3051D02*
D03*
D32*
X159700Y40817D02*
D03*
Y28517D02*
D03*
X151826D02*
D03*
X153794D02*
D03*
X155763D02*
D03*
X157731D02*
D03*
X161669D02*
D03*
X163637D02*
D03*
X165605D02*
D03*
X167574D02*
D03*
X169543D02*
D03*
Y40817D02*
D03*
X167574D02*
D03*
X165605D02*
D03*
X163637D02*
D03*
X161669D02*
D03*
X157731D02*
D03*
X155763D02*
D03*
X153794D02*
D03*
X151826D02*
D03*
D33*
X151584Y37619D02*
D03*
Y35651D02*
D03*
Y33682D02*
D03*
Y31714D02*
D03*
X169784D02*
D03*
Y33682D02*
D03*
Y35651D02*
D03*
Y37619D02*
D03*
D34*
X19685Y157874D02*
D03*
Y149212D02*
D03*
D35*
X18701Y169291D02*
D03*
Y179134D02*
D03*
Y188976D02*
D03*
D36*
X3051Y140156D02*
D03*
D37*
X181197Y185039D02*
D03*
D38*
X5705Y29774D02*
D03*
Y4084D02*
D03*
D39*
X19533Y64631D02*
D03*
X184941Y147638D02*
D03*
D40*
X145200Y50787D02*
D03*
X154800D02*
D03*
D41*
X19467Y64553D02*
D03*
X185800Y147559D02*
D03*
D42*
X14937Y64613D02*
D03*
D43*
X126390Y183289D02*
D03*
M02*
