G04*
G04 #@! TF.GenerationSoftware,Altium Limited,Altium Designer,25.8.1 (18)*
G04*
G04 Layer_Color=16711935*
%FSLAX25Y25*%
%MOIN*%
G70*
G04*
G04 #@! TF.SameCoordinates,A86E57CF-C6E6-4710-AEDF-4A901DF70E31*
G04*
G04*
G04 #@! TF.FilePolarity,Negative*
G04*
G01*
G75*
%ADD47R,0.07099X0.05918*%
%ADD50R,0.20485X0.08674*%
%ADD51R,0.09461X0.04934*%
%ADD54R,0.04934X0.04737*%
%ADD58R,0.20485X0.08674*%
%ADD59C,0.03543*%
%ADD60C,0.02769*%
%ADD73O,0.08674X0.07099*%
G04:AMPARAMS|DCode=74|XSize=70.99mil|YSize=86.74mil|CornerRadius=19.75mil|HoleSize=0mil|Usage=FLASHONLY|Rotation=90.000|XOffset=0mil|YOffset=0mil|HoleType=Round|Shape=RoundedRectangle|*
%AMROUNDEDRECTD74*
21,1,0.07099,0.04724,0,0,90.0*
21,1,0.03150,0.08674,0,0,90.0*
1,1,0.03950,0.02362,0.01575*
1,1,0.03950,0.02362,-0.01575*
1,1,0.03950,-0.02362,-0.01575*
1,1,0.03950,-0.02362,0.01575*
%
%ADD74ROUNDEDRECTD74*%
D47*
X151575Y70669D02*
D03*
Y63189D02*
D03*
D50*
X126390Y182852D02*
D03*
D51*
X137795Y49114D02*
D03*
Y37500D02*
D03*
Y57185D02*
D03*
Y68799D02*
D03*
Y17815D02*
D03*
Y29429D02*
D03*
D54*
X143799Y43307D02*
D03*
Y23622D02*
D03*
Y62992D02*
D03*
D58*
X58650Y183289D02*
D03*
D59*
X7874Y165748D02*
D03*
Y192520D02*
D03*
D60*
X46260Y29528D02*
D03*
Y21654D02*
D03*
Y13780D02*
D03*
Y5906D02*
D03*
X43307Y35433D02*
D03*
X35433D02*
D03*
X27559D02*
D03*
X174213Y187992D02*
D03*
X166339D02*
D03*
X158465D02*
D03*
X150591D02*
D03*
X142717D02*
D03*
X175197Y181271D02*
D03*
Y174522D02*
D03*
Y167773D02*
D03*
Y161024D02*
D03*
X34449Y70866D02*
D03*
Y102362D02*
D03*
X110331Y208661D02*
D03*
Y232283D02*
D03*
X118205Y208661D02*
D03*
Y232283D02*
D03*
X126079Y208661D02*
D03*
Y232283D02*
D03*
X133953Y208661D02*
D03*
Y232283D02*
D03*
X141827Y208661D02*
D03*
Y232283D02*
D03*
X149701Y208661D02*
D03*
Y232283D02*
D03*
X157575Y208661D02*
D03*
Y232283D02*
D03*
X165449Y208661D02*
D03*
Y232283D02*
D03*
X173323D02*
D03*
Y208661D02*
D03*
X181197Y232283D02*
D03*
D73*
X190945Y84803D02*
D03*
Y24803D02*
D03*
Y74803D02*
D03*
Y64803D02*
D03*
Y44803D02*
D03*
Y54803D02*
D03*
Y34803D02*
D03*
D74*
Y14803D02*
D03*
M02*
