G04*
G04 #@! TF.GenerationSoftware,Altium Limited,Altium Designer,25.8.1 (18)*
G04*
G04 Layer_Color=65535*
%FSLAX25Y25*%
%MOIN*%
G70*
G04*
G04 #@! TF.SameCoordinates,A86E57CF-C6E6-4710-AEDF-4A901DF70E31*
G04*
G04*
G04 #@! TF.FilePolarity,Positive*
G04*
G01*
G75*
%ADD10C,0.00984*%
%ADD11C,0.01500*%
%ADD12C,0.00787*%
%ADD13C,0.00598*%
%ADD14C,0.00600*%
%ADD15C,0.01000*%
%ADD16C,0.00500*%
%ADD17C,0.00315*%
%ADD18C,0.00197*%
%ADD19C,0.00300*%
G36*
X162418Y26566D02*
X160918D01*
Y25567D01*
X162418D01*
Y26566D01*
D02*
G37*
G36*
X168324Y42766D02*
X166824D01*
Y43766D01*
X168324D01*
Y42766D01*
D02*
G37*
D10*
X45892Y126861D02*
G03*
X45892Y126861I-492J0D01*
G01*
X3543Y133858D02*
G03*
X3543Y133858I-492J0D01*
G01*
X176279Y53248D02*
G03*
X176279Y53248I-492J0D01*
G01*
D11*
X153551Y89567D02*
G03*
X153551Y89567I-500J0D01*
G01*
D12*
X48254Y119085D02*
X49140D01*
X7014D02*
X7900D01*
X7014Y80502D02*
Y119085D01*
X48254Y80502D02*
X49140D01*
X7014D02*
X7900D01*
X49140D02*
Y119085D01*
X787Y196850D02*
X14961D01*
X787Y161417D02*
X14961D01*
X787D02*
Y196850D01*
X14961Y161417D02*
Y165453D01*
Y192815D02*
Y196850D01*
X984Y145972D02*
Y151272D01*
X12795D01*
Y145972D02*
Y151272D01*
X984Y145972D02*
X12795D01*
X30655Y62466D02*
Y66797D01*
X196063Y145472D02*
Y149803D01*
X177953Y50984D02*
X188189D01*
X177953Y63189D02*
X188189D01*
X124934Y192388D02*
X124409Y192912D01*
X123359D01*
X122835Y192388D01*
Y191863D01*
X123359Y191338D01*
X124409D01*
X124934Y190813D01*
Y190289D01*
X124409Y189764D01*
X123359D01*
X122835Y190289D01*
X125983Y191338D02*
X128082D01*
X127033Y192388D02*
Y190289D01*
X59973Y192388D02*
X59448Y192912D01*
X58399D01*
X57874Y192388D01*
Y191863D01*
X58399Y191338D01*
X59448D01*
X59973Y190813D01*
Y190289D01*
X59448Y189764D01*
X58399D01*
X57874Y190289D01*
X61023Y191338D02*
X63122D01*
D13*
X135827Y96457D02*
Y98425D01*
Y96457D02*
X137795D01*
X135827Y108268D02*
Y114173D01*
X137795D01*
X41339Y178150D02*
Y179134D01*
X29528Y178150D02*
X41339D01*
X26575Y158465D02*
Y160433D01*
X23622D02*
X26575D01*
X34449Y145669D02*
X35433D01*
X36417D01*
Y161417D01*
X34449D02*
X36417D01*
X26575Y135827D02*
X28543D01*
Y140748D01*
X24606Y126969D02*
X25591D01*
Y130905D01*
X13780Y126969D02*
Y129921D01*
X15748D01*
X13780D02*
X15748D01*
X13780D02*
Y132874D01*
X1969Y114173D02*
Y120079D01*
X4921D01*
D14*
X149934Y26667D02*
Y30262D01*
X171434Y26667D02*
Y30262D01*
Y39071D02*
Y42667D01*
X149934Y39071D02*
Y42667D01*
X149524Y181511D02*
X166224D01*
X149524Y160811D02*
X166224D01*
X164173Y57480D02*
X167323D01*
X164173Y54331D02*
Y57480D01*
X855Y7144D02*
Y26714D01*
X10555Y7144D02*
Y26714D01*
X8858Y62992D02*
X9843D01*
X8858D02*
Y75787D01*
X9843D01*
X3937Y54134D02*
X5906D01*
X3937D02*
Y62008D01*
X5906D01*
X19685Y44291D02*
X20669D01*
Y52165D01*
X19685D02*
X20669D01*
X9843Y35433D02*
X10827D01*
X9843D02*
Y40354D01*
X10827D01*
X46260Y57087D02*
Y58071D01*
X42323Y57087D02*
X46260D01*
X32480Y59055D02*
X36417D01*
X32480D02*
Y60039D01*
X13679Y121363D02*
Y122347D01*
X8758D02*
X13679D01*
X8758Y121363D02*
Y122347D01*
X144193Y82677D02*
Y83661D01*
X141240D02*
X144193D01*
X141240Y82677D02*
Y83661D01*
X170276Y70866D02*
X175197D01*
X170276Y67913D02*
Y70866D01*
X192913Y62008D02*
Y64961D01*
X189961D02*
X192913D01*
Y50197D02*
Y53150D01*
X189961Y50197D02*
X192913D01*
X183071Y41339D02*
Y42323D01*
X176181D02*
X183071D01*
X182087Y32480D02*
Y33465D01*
X176181Y32480D02*
X182087D01*
X175197Y24606D02*
X176181D01*
X175197D02*
Y25591D01*
X182087Y24606D02*
Y25591D01*
X176181Y24606D02*
X182087D01*
X170276Y16732D02*
X171260D01*
Y22638D01*
X170276D02*
X171260D01*
X159449Y16732D02*
X160433D01*
Y22638D01*
X159449D02*
X160433D01*
X149606Y16732D02*
X150591D01*
X149606D02*
Y22638D01*
X150591D01*
X142717Y31496D02*
Y32480D01*
X135827Y31496D02*
X142717D01*
X135827D02*
Y32480D01*
X140748Y21654D02*
X143701D01*
X140748D02*
Y25591D01*
X143701Y35433D02*
X144685D01*
X143701D02*
Y39370D01*
X144685D01*
X140748Y47244D02*
X141732D01*
X140748D02*
Y54134D01*
X141732D01*
X156496Y58071D02*
Y59055D01*
X151575D02*
X156496D01*
X143701D02*
X148622D01*
X143701Y58071D02*
Y59055D01*
X192913Y179134D02*
Y184055D01*
X189961D02*
X192913D01*
X186024Y160433D02*
X187008D01*
Y173228D01*
X186024D02*
X187008D01*
X175197Y140748D02*
X176181D01*
X175197D02*
Y147638D01*
X176181D01*
X169291Y150591D02*
X172244D01*
X169291D02*
Y153543D01*
D15*
X165354Y147638D02*
Y148622D01*
X149606D02*
X165354D01*
X149606Y147638D02*
Y148622D01*
X143701Y139764D02*
X144685D01*
X143701D02*
Y146653D01*
X144685D01*
Y152559D02*
X145669D01*
X144685D02*
Y155512D01*
Y157480D02*
Y160433D01*
X145669D01*
D16*
X156300Y47837D02*
Y53737D01*
X143700D02*
X156300D01*
X143700Y47837D02*
Y53737D01*
Y47837D02*
X156300D01*
D17*
X135840Y102021D02*
X135512Y101693D01*
Y101037D01*
X135840Y100709D01*
X136168D01*
X136496Y101037D01*
Y101693D01*
X136824Y102021D01*
X137152D01*
X137480Y101693D01*
Y101037D01*
X137152Y100709D01*
X137480Y102676D02*
X135512D01*
Y103660D01*
X135840Y103988D01*
X136496D01*
X136824Y103660D01*
Y102676D01*
X135512Y104644D02*
Y105300D01*
Y104972D01*
X137480D01*
Y104644D01*
Y105300D01*
X84304Y189947D02*
X83976Y190275D01*
X83320D01*
X82992Y189947D01*
Y189619D01*
X83320Y189291D01*
X83976D01*
X84304Y188963D01*
Y188635D01*
X83976Y188307D01*
X83320D01*
X82992Y188635D01*
X85288Y188307D02*
X85944D01*
X86272Y188635D01*
Y189291D01*
X85944Y189619D01*
X85288D01*
X84960Y189291D01*
Y188635D01*
X85288Y188307D01*
X86928D02*
X87584D01*
X87256D01*
Y190275D01*
X86928D01*
X88896Y189619D02*
X89552D01*
X89880Y189291D01*
Y188307D01*
X88896D01*
X88568Y188635D01*
X88896Y188963D01*
X89880D01*
X90536Y189619D02*
Y188307D01*
Y188963D01*
X90864Y189291D01*
X91192Y189619D01*
X91519D01*
X147296Y2939D02*
X146968Y3267D01*
X146312D01*
X145984Y2939D01*
Y1627D01*
X146312Y1299D01*
X146968D01*
X147296Y1627D01*
Y2283D01*
X146640D01*
X147952Y1299D02*
Y3267D01*
X149264Y1299D01*
Y3267D01*
X149920D02*
Y1299D01*
X150904D01*
X151232Y1627D01*
Y2939D01*
X150904Y3267D01*
X149920D01*
X138110D02*
Y1955D01*
X138766Y1299D01*
X139422Y1955D01*
Y3267D01*
X141390Y2939D02*
X141062Y3267D01*
X140406D01*
X140078Y2939D01*
Y1627D01*
X140406Y1299D01*
X141062D01*
X141390Y1627D01*
X143358Y2939D02*
X143030Y3267D01*
X142374D01*
X142046Y2939D01*
Y1627D01*
X142374Y1299D01*
X143030D01*
X143358Y1627D01*
X172821Y75834D02*
X173149Y76162D01*
Y76818D01*
X172821Y77146D01*
X171509D01*
X171181Y76818D01*
Y76162D01*
X171509Y75834D01*
X178267Y77146D02*
X176299D01*
Y76162D01*
X176627Y75834D01*
X177939D01*
X178267Y76162D01*
Y77146D01*
X153228Y76102D02*
Y76758D01*
Y76430D01*
X151260D01*
X151588Y76102D01*
X2953Y200459D02*
X2625Y200787D01*
X1969D01*
X1641Y200459D01*
Y200131D01*
X1969Y199803D01*
X2625D01*
X2953Y199475D01*
Y199147D01*
X2625Y198819D01*
X1969D01*
X1641Y199147D01*
X3609Y200787D02*
Y198819D01*
X4265Y199475D01*
X4921Y198819D01*
Y200787D01*
X5577Y198819D02*
X6233D01*
X5905D01*
Y200787D01*
X5577Y200459D01*
X25263Y164370D02*
Y162402D01*
X26575D01*
X27231D02*
X27887D01*
X27559D01*
Y164370D01*
X27231Y164042D01*
X37730Y152723D02*
X37402Y152395D01*
Y151739D01*
X37730Y151411D01*
X39042D01*
X39370Y151739D01*
Y152395D01*
X39042Y152723D01*
X39370Y153379D02*
Y154035D01*
Y153707D01*
X37402D01*
X37730Y153379D01*
X39370Y155019D02*
Y155675D01*
Y155347D01*
X37402D01*
X37730Y155019D01*
X31168Y140092D02*
X31496Y140420D01*
Y141076D01*
X31168Y141404D01*
X29856D01*
X29528Y141076D01*
Y140420D01*
X29856Y140092D01*
X31168Y139436D02*
X31496Y139108D01*
Y138452D01*
X31168Y138124D01*
X30840D01*
X30512Y138452D01*
X30184Y138124D01*
X29856D01*
X29528Y138452D01*
Y139108D01*
X29856Y139436D01*
X30184D01*
X30512Y139108D01*
X30840Y139436D01*
X31168D01*
X30512Y139108D02*
Y138452D01*
X985Y128281D02*
X2624D01*
X2952Y128609D01*
Y129265D01*
X2624Y129593D01*
X985D01*
X2952Y131233D02*
X985D01*
X1969Y130249D01*
Y131561D01*
X31825Y175197D02*
Y177165D01*
X32809D01*
X33137Y176837D01*
Y176181D01*
X32809Y175853D01*
X31825D01*
X32481D02*
X33137Y175197D01*
X33792Y177165D02*
X35105D01*
Y176837D01*
X33792Y175525D01*
Y175197D01*
X3609Y39042D02*
X3281Y39370D01*
X2625D01*
X2297Y39042D01*
Y37730D01*
X2625Y37402D01*
X3281D01*
X3609Y37730D01*
X5577Y39370D02*
X4921Y39042D01*
X4265Y38386D01*
Y37730D01*
X4593Y37402D01*
X5249D01*
X5577Y37730D01*
Y38058D01*
X5249Y38386D01*
X4265D01*
X1312Y57743D02*
X985Y57415D01*
Y56759D01*
X1312Y56431D01*
X2624D01*
X2952Y56759D01*
Y57415D01*
X2624Y57743D01*
X985Y59711D02*
Y58399D01*
X1969D01*
X1640Y59055D01*
Y59383D01*
X1969Y59711D01*
X2624D01*
X2952Y59383D01*
Y58727D01*
X2624Y58399D01*
X165683Y152231D02*
X165355Y151903D01*
Y151247D01*
X165683Y150919D01*
X166995D01*
X167323Y151247D01*
Y151903D01*
X166995Y152231D01*
X167323Y153871D02*
X165355D01*
X166339Y152887D01*
Y154199D01*
X194226Y186680D02*
X193898Y186352D01*
Y185696D01*
X194226Y185368D01*
X195538D01*
X195866Y185696D01*
Y186352D01*
X195538Y186680D01*
X194226Y187336D02*
X193898Y187664D01*
Y188320D01*
X194226Y188648D01*
X194554D01*
X194882Y188320D01*
Y187992D01*
Y188320D01*
X195210Y188648D01*
X195538D01*
X195866Y188320D01*
Y187664D01*
X195538Y187336D01*
X189305Y166995D02*
X188977Y166667D01*
Y166011D01*
X189305Y165683D01*
X190617D01*
X190945Y166011D01*
Y166667D01*
X190617Y166995D01*
X190945Y168963D02*
Y167651D01*
X189633Y168963D01*
X189305D01*
X188977Y168635D01*
Y167979D01*
X189305Y167651D01*
X24278Y51181D02*
X24606Y51509D01*
Y52165D01*
X24278Y52493D01*
X22966D01*
X22638Y52165D01*
Y51509D01*
X22966Y51181D01*
X22638Y50525D02*
Y49869D01*
Y50197D01*
X24606D01*
X24278Y50525D01*
X38386Y53478D02*
X40354D01*
Y54462D01*
X40026Y54790D01*
X38714D01*
X38386Y54462D01*
Y53478D01*
X40354Y56758D02*
Y55446D01*
X39042Y56758D01*
X38714D01*
X38386Y56430D01*
Y55774D01*
X38714Y55446D01*
X155184Y152559D02*
Y150591D01*
X156168D01*
X156496Y150919D01*
Y152231D01*
X156168Y152559D01*
X155184D01*
X157152Y150591D02*
X157808D01*
X157480D01*
Y152559D01*
X157152Y152231D01*
X2953Y96785D02*
X4593D01*
X4921Y97113D01*
Y97769D01*
X4593Y98097D01*
X2953D01*
X4921Y100065D02*
Y98753D01*
X3609Y100065D01*
X3281D01*
X2953Y99737D01*
Y99081D01*
X3281Y98753D01*
X24935Y73819D02*
Y75787D01*
X25919D01*
X26247Y75459D01*
Y74803D01*
X25919Y74475D01*
X24935D01*
X28215Y75787D02*
X26903D01*
Y74803D01*
X27559Y75131D01*
X27887D01*
X28215Y74803D01*
Y74147D01*
X27887Y73819D01*
X27231D01*
X26903Y74147D01*
X142783Y126870D02*
Y125230D01*
X143111Y124902D01*
X143766D01*
X144095Y125230D01*
Y126870D01*
X144750Y124902D02*
X145406D01*
X145078D01*
Y126870D01*
X144750Y126542D01*
X136811Y49869D02*
X137139D01*
X137795Y50525D01*
X137139Y51181D01*
X136811D01*
X137795Y50525D02*
X138779D01*
Y51837D02*
Y52493D01*
Y52165D01*
X136811D01*
X137139Y51837D01*
X168928Y184488D02*
Y182848D01*
X169256Y182520D01*
X169912D01*
X170239Y182848D01*
Y184488D01*
X172207D02*
X171551Y184160D01*
X170896Y183504D01*
Y182848D01*
X171223Y182520D01*
X171879D01*
X172207Y182848D01*
Y183176D01*
X171879Y183504D01*
X170896D01*
X179069Y66732D02*
Y65092D01*
X179397Y64764D01*
X180053D01*
X180381Y65092D01*
Y66732D01*
X182349D02*
X181037D01*
Y65748D01*
X181693Y66076D01*
X182021D01*
X182349Y65748D01*
Y65092D01*
X182021Y64764D01*
X181365D01*
X181037Y65092D01*
X162140Y45078D02*
Y43439D01*
X162468Y43111D01*
X163124D01*
X163452Y43439D01*
Y45078D01*
X164108Y44750D02*
X164436Y45078D01*
X165091D01*
X165419Y44750D01*
Y44423D01*
X165091Y44094D01*
X164763D01*
X165091D01*
X165419Y43766D01*
Y43439D01*
X165091Y43111D01*
X164436D01*
X164108Y43439D01*
X137304Y153544D02*
Y155511D01*
X138288D01*
X138616Y155183D01*
Y154528D01*
X138288Y154200D01*
X137304D01*
X137960D02*
X138616Y153544D01*
X139272D02*
X139928D01*
X139600D01*
Y155511D01*
X139272Y155183D01*
X140912D02*
X141240Y155511D01*
X141896D01*
X142224Y155183D01*
Y154856D01*
X141896Y154528D01*
X142224Y154200D01*
Y153872D01*
X141896Y153544D01*
X141240D01*
X140912Y153872D01*
Y154200D01*
X141240Y154528D01*
X140912Y154856D01*
Y155183D01*
X141240Y154528D02*
X141896D01*
X178642Y20670D02*
Y22637D01*
X179627D01*
X179954Y22309D01*
Y21654D01*
X179627Y21326D01*
X178642D01*
X179298D02*
X179954Y20670D01*
X180610D02*
X181266D01*
X180938D01*
Y22637D01*
X180610Y22309D01*
X182250Y22637D02*
X183562D01*
Y22309D01*
X182250Y20998D01*
Y20670D01*
X173229Y22145D02*
X175197D01*
Y21161D01*
X174869Y20833D01*
X174213D01*
X173885Y21161D01*
Y22145D01*
Y21489D02*
X173229Y20833D01*
Y20177D02*
Y19521D01*
Y19849D01*
X175197D01*
X174869Y20177D01*
X175197Y17225D02*
Y18537D01*
X174213D01*
X174541Y17881D01*
Y17553D01*
X174213Y17225D01*
X173557D01*
X173229Y17553D01*
Y18209D01*
X173557Y18537D01*
X174869Y39142D02*
Y37174D01*
X173885D01*
X173557Y37502D01*
Y38158D01*
X173885Y38486D01*
X174869D01*
X174213D02*
X173557Y39142D01*
X172901D02*
X172246D01*
X172573D01*
Y37174D01*
X172901Y37502D01*
X170278Y39142D02*
Y37174D01*
X171262Y38158D01*
X169950D01*
X147637Y17225D02*
X145670D01*
Y18209D01*
X145998Y18537D01*
X146653D01*
X146982Y18209D01*
Y17225D01*
Y17881D02*
X147637Y18537D01*
Y19193D02*
Y19849D01*
Y19521D01*
X145670D01*
X145998Y19193D01*
Y20833D02*
X145670Y21161D01*
Y21817D01*
X145998Y22145D01*
X146326D01*
X146653Y21817D01*
Y21489D01*
Y21817D01*
X146982Y22145D01*
X147310D01*
X147637Y21817D01*
Y21161D01*
X147310Y20833D01*
X184548Y41536D02*
Y43504D01*
X185532D01*
X185860Y43176D01*
Y42520D01*
X185532Y42192D01*
X184548D01*
X185204D02*
X185860Y41536D01*
X186516D02*
X187172D01*
X186844D01*
Y43504D01*
X186516Y43176D01*
X189468Y41536D02*
X188156D01*
X189468Y42848D01*
Y43176D01*
X189140Y43504D01*
X188484D01*
X188156Y43176D01*
X139284Y21068D02*
X137316D01*
Y22052D01*
X137644Y22380D01*
X138300D01*
X138628Y22052D01*
Y21068D01*
Y21724D02*
X139284Y22380D01*
Y23036D02*
Y23692D01*
Y23364D01*
X137316D01*
X137644Y23036D01*
X139284Y24676D02*
Y25332D01*
Y25004D01*
X137316D01*
X137644Y24676D01*
X136320Y27559D02*
Y29527D01*
X137304D01*
X137632Y29199D01*
Y28543D01*
X137304Y28215D01*
X136320D01*
X136976D02*
X137632Y27559D01*
X138288D02*
X138944D01*
X138616D01*
Y29527D01*
X138288Y29199D01*
X139927D02*
X140255Y29527D01*
X140911D01*
X141239Y29199D01*
Y27887D01*
X140911Y27559D01*
X140255D01*
X139927Y27887D01*
Y29199D01*
X159384Y54528D02*
Y56496D01*
X160368D01*
X160696Y56168D01*
Y55512D01*
X160368Y55184D01*
X159384D01*
X160040D02*
X160696Y54528D01*
X161352Y54856D02*
X161680Y54528D01*
X162336D01*
X162663Y54856D01*
Y56168D01*
X162336Y56496D01*
X161680D01*
X161352Y56168D01*
Y55840D01*
X161680Y55512D01*
X162663D01*
X164699Y67914D02*
Y69882D01*
X165683D01*
X166011Y69554D01*
Y68898D01*
X165683Y68570D01*
X164699D01*
X165355D02*
X166011Y67914D01*
X166667Y69554D02*
X166995Y69882D01*
X167650D01*
X167979Y69554D01*
Y69226D01*
X167650Y68898D01*
X167979Y68570D01*
Y68242D01*
X167650Y67914D01*
X166995D01*
X166667Y68242D01*
Y68570D01*
X166995Y68898D01*
X166667Y69226D01*
Y69554D01*
X166995Y68898D02*
X167650D01*
X3937Y121392D02*
X1969D01*
Y122376D01*
X2297Y122704D01*
X2953D01*
X3281Y122376D01*
Y121392D01*
Y122048D02*
X3937Y122704D01*
X1969Y124671D02*
X2297Y124015D01*
X2953Y123360D01*
X3609D01*
X3937Y123688D01*
Y124343D01*
X3609Y124671D01*
X3281D01*
X2953Y124343D01*
Y123360D01*
X26903Y127953D02*
Y129921D01*
X27887D01*
X28215Y129593D01*
Y128937D01*
X27887Y128609D01*
X26903D01*
X27559D02*
X28215Y127953D01*
X30183Y129921D02*
X28871D01*
Y128937D01*
X29527Y129265D01*
X29855D01*
X30183Y128937D01*
Y128281D01*
X29855Y127953D01*
X29199D01*
X28871Y128281D01*
X148622Y143569D02*
X150590D01*
Y142585D01*
X150262Y142257D01*
X149606D01*
X149278Y142585D01*
Y143569D01*
Y142913D02*
X148622Y142257D01*
Y140617D02*
X150590D01*
X149606Y141601D01*
Y140289D01*
X35433Y51329D02*
X33465D01*
Y52312D01*
X33793Y52640D01*
X34449D01*
X34777Y52312D01*
Y51329D01*
Y51985D02*
X35433Y52640D01*
X33793Y53297D02*
X33465Y53624D01*
Y54280D01*
X33793Y54608D01*
X34121D01*
X34449Y54280D01*
Y53952D01*
Y54280D01*
X34777Y54608D01*
X35105D01*
X35433Y54280D01*
Y53624D01*
X35105Y53297D01*
X173228Y143045D02*
X171260D01*
Y144029D01*
X171588Y144357D01*
X172244D01*
X172572Y144029D01*
Y143045D01*
Y143701D02*
X173228Y144357D01*
Y146325D02*
Y145013D01*
X171916Y146325D01*
X171588D01*
X171260Y145997D01*
Y145341D01*
X171588Y145013D01*
X6889Y69554D02*
X4922D01*
Y70538D01*
X5249Y70866D01*
X5906D01*
X6233Y70538D01*
Y69554D01*
Y70210D02*
X6889Y70866D01*
Y71522D02*
Y72178D01*
Y71850D01*
X4922D01*
X5249Y71522D01*
X138616Y160105D02*
X138288Y160433D01*
X137632D01*
X137304Y160105D01*
Y158793D01*
X137632Y158465D01*
X138288D01*
X138616Y158793D01*
X139272Y158465D02*
X139928D01*
X139600D01*
Y160433D01*
X139272Y160105D01*
X140912D02*
X141240Y160433D01*
X141896D01*
X142224Y160105D01*
Y159777D01*
X141896Y159449D01*
X142224Y159121D01*
Y158793D01*
X141896Y158465D01*
X141240D01*
X140912Y158793D01*
Y159121D01*
X141240Y159449D01*
X140912Y159777D01*
Y160105D01*
X141240Y159449D02*
X141896D01*
X163648Y20833D02*
X163976Y21161D01*
Y21817D01*
X163648Y22145D01*
X162336D01*
X162008Y21817D01*
Y21161D01*
X162336Y20833D01*
X162008Y20177D02*
Y19521D01*
Y19849D01*
X163976D01*
X163648Y20177D01*
X163976Y18537D02*
Y17225D01*
X163648D01*
X162336Y18537D01*
X162008D01*
X153380Y62664D02*
X153052Y62992D01*
X152396D01*
X152068Y62664D01*
Y61352D01*
X152396Y61024D01*
X153052D01*
X153380Y61352D01*
X154036Y61024D02*
X154692D01*
X154364D01*
Y62992D01*
X154036Y62664D01*
X156987Y62992D02*
X156331Y62664D01*
X155675Y62008D01*
Y61352D01*
X156003Y61024D01*
X156659D01*
X156987Y61352D01*
Y61680D01*
X156659Y62008D01*
X155675D01*
X140092Y36254D02*
X139764Y35926D01*
Y35270D01*
X140092Y34942D01*
X141404D01*
X141732Y35270D01*
Y35926D01*
X141404Y36254D01*
X141732Y36910D02*
Y37566D01*
Y37238D01*
X139764D01*
X140092Y36910D01*
X139764Y39861D02*
Y38550D01*
X140748D01*
X140420Y39205D01*
Y39533D01*
X140748Y39861D01*
X141404D01*
X141732Y39533D01*
Y38877D01*
X141404Y38550D01*
X143537Y62664D02*
X143209Y62992D01*
X142553D01*
X142225Y62664D01*
Y61352D01*
X142553Y61024D01*
X143209D01*
X143537Y61352D01*
X144193Y61024D02*
X144849D01*
X144521D01*
Y62992D01*
X144193Y62664D01*
X146817Y61024D02*
Y62992D01*
X145833Y62008D01*
X147145D01*
X189797Y48294D02*
X189469Y48622D01*
X188813D01*
X188485Y48294D01*
Y46982D01*
X188813Y46654D01*
X189469D01*
X189797Y46982D01*
X190453Y46654D02*
X191109D01*
X190781D01*
Y48622D01*
X190453Y48294D01*
X192093D02*
X192421Y48622D01*
X193077D01*
X193405Y48294D01*
Y47966D01*
X193077Y47638D01*
X192749D01*
X193077D01*
X193405Y47310D01*
Y46982D01*
X193077Y46654D01*
X192421D01*
X192093Y46982D01*
X190289Y67750D02*
X189961Y67422D01*
Y66766D01*
X190289Y66438D01*
X191601D01*
X191929Y66766D01*
Y67422D01*
X191601Y67750D01*
X191929Y68406D02*
Y69062D01*
Y68734D01*
X189961D01*
X190289Y68406D01*
X191929Y71358D02*
Y70046D01*
X190617Y71358D01*
X190289D01*
X189961Y71030D01*
Y70373D01*
X190289Y70046D01*
X8695Y128609D02*
X8367Y128937D01*
X7711D01*
X7383Y128609D01*
Y127297D01*
X7711Y126969D01*
X8367D01*
X8695Y127297D01*
X9351Y126969D02*
X10007D01*
X9679D01*
Y128937D01*
X9351Y128609D01*
X10990D02*
X11318Y128937D01*
X11974D01*
X12302Y128609D01*
Y127297D01*
X11974Y126969D01*
X11318D01*
X10990Y127297D01*
Y128609D01*
X10499Y132546D02*
X10171Y132874D01*
X9515D01*
X9187Y132546D01*
Y131234D01*
X9515Y130906D01*
X10171D01*
X10499Y131234D01*
X11155D02*
X11483Y130906D01*
X12139D01*
X12467Y131234D01*
Y132546D01*
X12139Y132874D01*
X11483D01*
X11155Y132546D01*
Y132218D01*
X11483Y131890D01*
X12467D01*
X136483Y84317D02*
X136155Y84645D01*
X135499D01*
X135171Y84317D01*
Y83005D01*
X135499Y82678D01*
X136155D01*
X136483Y83005D01*
X137139Y84645D02*
X138451D01*
Y84317D01*
X137139Y83005D01*
Y82678D01*
D18*
X148676Y41294D02*
X149201Y40769D01*
X148676D02*
X149201Y41294D01*
X148676Y41031D02*
X149201D01*
X148939Y40769D02*
Y41294D01*
D19*
X170849Y157796D02*
X167517Y161128D01*
X170849D02*
X167517Y157796D01*
X170849Y159462D02*
X167517D01*
X169183Y161128D02*
Y157796D01*
M02*
