G04*
G04 #@! TF.GenerationSoftware,Altium Limited,Altium Designer,25.8.1 (18)*
G04*
G04 Layer_Color=128*
%FSLAX25Y25*%
%MOIN*%
G70*
G04*
G04 #@! TF.SameCoordinates,A86E57CF-C6E6-4710-AEDF-4A901DF70E31*
G04*
G04*
G04 #@! TF.FilePolarity,Positive*
G04*
G01*
G75*
%ADD21R,0.06299X0.05118*%
%ADD25R,0.19685X0.07874*%
%ADD28R,0.08661X0.04134*%
%ADD39R,0.04134X0.03937*%
%ADD43R,0.19685X0.07874*%
%ADD71O,0.07874X0.06299*%
G04:AMPARAMS|DCode=72|XSize=62.99mil|YSize=78.74mil|CornerRadius=15.75mil|HoleSize=0mil|Usage=FLASHONLY|Rotation=90.000|XOffset=0mil|YOffset=0mil|HoleType=Round|Shape=RoundedRectangle|*
%AMROUNDEDRECTD72*
21,1,0.06299,0.04724,0,0,90.0*
21,1,0.03150,0.07874,0,0,90.0*
1,1,0.03150,0.02362,0.01575*
1,1,0.03150,0.02362,-0.01575*
1,1,0.03150,-0.02362,-0.01575*
1,1,0.03150,-0.02362,0.01575*
%
%ADD72ROUNDEDRECTD72*%
D21*
X151575Y70669D02*
D03*
Y63189D02*
D03*
D25*
X126390Y182852D02*
D03*
D28*
X137795Y49114D02*
D03*
Y37500D02*
D03*
Y57185D02*
D03*
Y68799D02*
D03*
Y17815D02*
D03*
Y29429D02*
D03*
D39*
X143799Y43307D02*
D03*
Y23622D02*
D03*
Y62992D02*
D03*
D43*
X58650Y183289D02*
D03*
D71*
X190945Y84803D02*
D03*
Y24803D02*
D03*
Y74803D02*
D03*
Y64803D02*
D03*
Y44803D02*
D03*
Y54803D02*
D03*
Y34803D02*
D03*
D72*
Y14803D02*
D03*
M02*
