M48
;Layer_Color=9474304
;FILE_FORMAT=2:4
INCH,TZ
;TYPE=PLATED
T01F00S00C0.0118
T02F00S00C0.0138
T03F00S00C0.0150
T04F00S00C0.0197
;TYPE=NON_PLATED
T05F00S00C0.0354
%
T01
X16732Y4921
T02
X4626Y591
Y1378
Y2165
Y2953
X4331Y3543
X3543
X2756
X4724Y4528
X3445Y7087
Y10236
X3937Y11024
X3740Y12992
X4331
X4232Y14272
X394Y11024
X14173Y12795
Y13091
Y13386
X15354Y12205
X15551Y11614
X13780Y7480
X17520Y7283
Y5807
X16954
X16397Y3292
X15937Y3302
X18602Y2756
X17913Y1378
X17126Y9252
X16535Y9055
X16339Y9843
X15945Y9449
Y11614
X15748Y12008
X17756Y11014
X18346Y11211
Y10817
X18307Y10433
Y10039
X17224Y10453
X17520Y16102
Y16777
Y17452
Y18127
X17421Y18799
X16634
X15846
X15984Y17510
X15748Y16732
X15394Y16919
X15591Y16132
X15059Y18799
X14272
T03
X15757Y20866
X16545
X17332
Y23228
X16545
X15757
X18120
X14970
X14183
X13395
X12608
X11820
X11033
Y20866
X11820
X12608
X13395
X14183
X14970
T04
X4528Y18307
X9252
T05
X787Y16575
Y19252
M30
