G04*
G04 #@! TF.GenerationSoftware,Altium Limited,Altium Designer,25.8.1 (18)*
G04*
G04 Layer_Physical_Order=1*
G04 Layer_Color=255*
%FSLAX25Y25*%
%MOIN*%
G70*
G04*
G04 #@! TF.SameCoordinates,A86E57CF-C6E6-4710-AEDF-4A901DF70E31*
G04*
G04*
G04 #@! TF.FilePolarity,Positive*
G04*
G01*
G75*
%ADD15C,0.01000*%
%ADD20R,0.05118X0.06299*%
%ADD21R,0.06299X0.05118*%
%ADD22R,0.01968X0.01378*%
%ADD23R,0.09055X0.03543*%
%ADD24R,0.03543X0.09055*%
%ADD25R,0.19685X0.07874*%
%ADD26R,0.02254X0.01438*%
%ADD27R,0.01438X0.02254*%
%ADD28R,0.08661X0.04134*%
G04:AMPARAMS|DCode=29|XSize=59.06mil|YSize=59.06mil|CornerRadius=14.76mil|HoleSize=0mil|Usage=FLASHONLY|Rotation=270.000|XOffset=0mil|YOffset=0mil|HoleType=Round|Shape=RoundedRectangle|*
%AMROUNDEDRECTD29*
21,1,0.05906,0.02953,0,0,270.0*
21,1,0.02953,0.05906,0,0,270.0*
1,1,0.02953,-0.01476,-0.01476*
1,1,0.02953,-0.01476,0.01476*
1,1,0.02953,0.01476,0.01476*
1,1,0.02953,0.01476,-0.01476*
%
%ADD29ROUNDEDRECTD29*%
%ADD30R,0.05750X0.02200*%
G04:AMPARAMS|DCode=31|XSize=76.94mil|YSize=20.31mil|CornerRadius=10.15mil|HoleSize=0mil|Usage=FLASHONLY|Rotation=90.000|XOffset=0mil|YOffset=0mil|HoleType=Round|Shape=RoundedRectangle|*
%AMROUNDEDRECTD31*
21,1,0.07694,0.00000,0,0,90.0*
21,1,0.05664,0.02031,0,0,90.0*
1,1,0.02031,0.00000,0.02832*
1,1,0.02031,0.00000,-0.02832*
1,1,0.02031,0.00000,-0.02832*
1,1,0.02031,0.00000,0.02832*
%
%ADD31ROUNDEDRECTD31*%
%ADD32R,0.01575X0.01900*%
%ADD33R,0.01500X0.01575*%
%ADD34R,0.10630X0.03150*%
%ADD35R,0.09843X0.04724*%
%ADD36R,0.02031X0.07694*%
G04:AMPARAMS|DCode=37|XSize=19.68mil|YSize=19.68mil|CornerRadius=4.92mil|HoleSize=0mil|Usage=FLASHONLY|Rotation=0.000|XOffset=0mil|YOffset=0mil|HoleType=Round|Shape=RoundedRectangle|*
%AMROUNDEDRECTD37*
21,1,0.01968,0.00984,0,0,0.0*
21,1,0.00984,0.01968,0,0,0.0*
1,1,0.00984,0.00492,-0.00492*
1,1,0.00984,-0.00492,-0.00492*
1,1,0.00984,-0.00492,0.00492*
1,1,0.00984,0.00492,0.00492*
%
%ADD37ROUNDEDRECTD37*%
%ADD38R,0.08503X0.03791*%
%ADD39R,0.04134X0.03937*%
%ADD40R,0.04300X0.07500*%
%ADD41R,0.03937X0.05118*%
%ADD42R,0.01968X0.03937*%
%ADD43R,0.19685X0.07874*%
%ADD44R,0.02756X0.07087*%
%ADD45R,0.03150X0.07087*%
%ADD59C,0.03543*%
%ADD61C,0.01002*%
%ADD62C,0.01968*%
%ADD63C,0.01181*%
%ADD64C,0.00591*%
%ADD65C,0.03937*%
%ADD66C,0.05118*%
%ADD67C,0.03543*%
%ADD68C,0.01693*%
%ADD69C,0.01968*%
%ADD70C,0.03937*%
G36*
X184467Y137477D02*
X184319Y137371D01*
X184188Y137194D01*
X184074Y136945D01*
X183978Y136627D01*
X183899Y136237D01*
X183838Y135776D01*
X183768Y134642D01*
X183760Y133969D01*
X180216D01*
X180199Y134642D01*
X180146Y135245D01*
X180057Y135776D01*
X179933Y136237D01*
X179773Y136627D01*
X179579Y136945D01*
X179348Y137194D01*
X179083Y137371D01*
X178781Y137477D01*
X178445Y137512D01*
X184634D01*
X184467Y137477D01*
D02*
G37*
G36*
X196850Y0D02*
X45702D01*
Y33858D01*
X45577Y34160D01*
X45276Y34284D01*
X20281D01*
Y40897D01*
X20125Y41273D01*
X19748Y41429D01*
X18609D01*
Y45981D01*
X18887Y46096D01*
X19043Y46472D01*
Y48835D01*
X18887Y49211D01*
X18609Y49327D01*
Y54445D01*
X17958D01*
Y61502D01*
X21928D01*
Y62171D01*
X22092D01*
Y67092D01*
X21928D01*
Y67605D01*
X19161D01*
Y69479D01*
X19005Y69855D01*
X18726Y69971D01*
Y74460D01*
X18747Y74492D01*
X18736Y74539D01*
X18755Y74585D01*
X18726Y75089D01*
X18539D01*
X18539Y75089D01*
X18539D01*
X18038Y75294D01*
X17961Y75435D01*
X17856Y75723D01*
X17763Y76107D01*
X17688Y76576D01*
X17597Y77798D01*
X17594Y78036D01*
Y81093D01*
X17402Y82053D01*
X17152Y82428D01*
Y85128D01*
X13018D01*
Y82429D01*
X12767Y82053D01*
X12576Y81093D01*
Y78298D01*
X12538Y77139D01*
X12482Y76582D01*
X12406Y76107D01*
X12313Y75723D01*
X12209Y75435D01*
X12131Y75295D01*
X11631Y75089D01*
X11630D01*
X11630Y75089D01*
X11443D01*
X11415Y74585D01*
X11433Y74539D01*
X11423Y74492D01*
X11443Y74460D01*
Y69971D01*
X11165Y69855D01*
X11009Y69479D01*
Y67116D01*
X11165Y66740D01*
X11443Y66625D01*
Y62029D01*
X9986D01*
X9610Y61874D01*
X9454Y61497D01*
Y54410D01*
X9610Y54034D01*
X9986Y53878D01*
X11326D01*
Y49327D01*
X11047Y49211D01*
X10891Y48835D01*
Y46472D01*
X11047Y46096D01*
X11326Y45981D01*
Y40862D01*
X11776D01*
Y34284D01*
X0D01*
Y188550D01*
X13386D01*
Y186221D01*
X24016D01*
Y188550D01*
X178788D01*
Y186913D01*
X178532Y186578D01*
X178224Y185836D01*
X178119Y185039D01*
Y179852D01*
X178025Y179134D01*
Y174114D01*
X177461D01*
Y168996D01*
X177182Y168881D01*
X177026Y168504D01*
Y166142D01*
X177182Y165765D01*
X177461Y165650D01*
Y160532D01*
X178419D01*
Y159636D01*
X178346Y159588D01*
X175984D01*
X175608Y159432D01*
X175452Y159055D01*
Y151969D01*
X175608Y151592D01*
X175984Y151436D01*
X178346D01*
X178419Y151388D01*
Y150591D01*
X177854D01*
Y145472D01*
X177576Y145357D01*
X177420Y144981D01*
Y142618D01*
X177576Y142242D01*
X177854Y142126D01*
Y137008D01*
X178829D01*
X178891Y136986D01*
X179070Y136867D01*
X179237Y136687D01*
X179392Y136433D01*
X179528Y136100D01*
X179640Y135686D01*
X179722Y135191D01*
X179773Y134618D01*
X179780Y134343D01*
Y130512D01*
X179823Y130297D01*
Y125591D01*
X184153D01*
Y130298D01*
X184196Y130512D01*
X184196Y130513D01*
Y134649D01*
X184263Y135735D01*
X184320Y136167D01*
X184392Y136523D01*
X184474Y136794D01*
X184557Y136976D01*
X184581Y137008D01*
X185138D01*
Y142126D01*
X185416Y142242D01*
X185572Y142618D01*
Y144508D01*
X188261D01*
Y150610D01*
X184574D01*
Y160532D01*
X184744D01*
Y165650D01*
X185022Y165765D01*
X185178Y166142D01*
Y168504D01*
X185022Y168881D01*
X184744Y168996D01*
Y174114D01*
X184180D01*
Y175058D01*
X186221D01*
X186597Y175214D01*
X186753Y175591D01*
Y182677D01*
X186597Y183054D01*
X186221Y183210D01*
X184274D01*
Y185039D01*
X184169Y185836D01*
X183862Y186578D01*
X183605Y186913D01*
Y188550D01*
X196850D01*
Y0D01*
D02*
G37*
G36*
X17065Y77774D02*
X17158Y76514D01*
X17240Y76002D01*
X17345Y75569D01*
X17474Y75214D01*
X17626Y74939D01*
X17801Y74742D01*
X18000Y74624D01*
X18222Y74585D01*
X11947D01*
X12169Y74624D01*
X12368Y74742D01*
X12543Y74939D01*
X12695Y75214D01*
X12824Y75569D01*
X12929Y76002D01*
X13011Y76514D01*
X13069Y77104D01*
X13116Y78522D01*
X17053D01*
X17065Y77774D01*
D02*
G37*
%LPC*%
G36*
X34646Y187040D02*
X32283D01*
X31982Y186916D01*
X31857Y186614D01*
Y186614D01*
X26772D01*
Y180711D01*
X26767Y180707D01*
X25853Y180526D01*
X25788Y180539D01*
X24016D01*
Y181890D01*
X13386D01*
Y176378D01*
X24016D01*
Y177729D01*
X25788D01*
Y177710D01*
X27175Y177893D01*
X28468Y178428D01*
X29578Y179280D01*
X29768Y179528D01*
X31857D01*
Y179528D01*
X31982Y179226D01*
X32283Y179101D01*
X34646D01*
X34947Y179226D01*
X35072Y179528D01*
Y179528D01*
X40157D01*
Y180662D01*
X45276D01*
X45508Y180709D01*
X45746D01*
X45965Y180799D01*
X46197Y180846D01*
X46395Y180977D01*
X46614Y181068D01*
X46781Y181236D01*
X46979Y181368D01*
X47110Y181565D01*
X47278Y181733D01*
X47369Y181952D01*
X47501Y182149D01*
X47547Y182382D01*
X47638Y182601D01*
Y182838D01*
X47684Y183071D01*
X47638Y183303D01*
Y183541D01*
X47547Y183760D01*
X47501Y183993D01*
X47369Y184190D01*
X47278Y184409D01*
X47110Y184577D01*
X46979Y184774D01*
X46781Y184906D01*
X46614Y185073D01*
X46395Y185164D01*
X46197Y185296D01*
X45965Y185342D01*
X45746Y185433D01*
X45508D01*
X45276Y185479D01*
X40157D01*
Y186614D01*
X35072D01*
Y186614D01*
X34947Y186916D01*
X34646Y187040D01*
D02*
G37*
G36*
X136626Y187620D02*
X116154D01*
Y185698D01*
X92738D01*
X92381Y185627D01*
X92064Y185585D01*
X91966Y185544D01*
X91817Y185514D01*
X91690Y185430D01*
X91437Y185325D01*
X90898Y184911D01*
X90484Y184372D01*
X90224Y183745D01*
X90215Y183681D01*
X90158Y183541D01*
Y183240D01*
X90135Y183071D01*
X90111D01*
X90158Y182601D01*
X90183Y182539D01*
X90248Y182382D01*
X90294Y182149D01*
X90426Y181952D01*
X90517Y181733D01*
X90685Y181565D01*
X90817Y181368D01*
X91014Y181236D01*
X91182Y181068D01*
X91401Y180977D01*
X91598Y180846D01*
X91831Y180799D01*
X92050Y180709D01*
X92220D01*
X92289Y180708D01*
X92520Y180662D01*
X92729Y180704D01*
X92738Y180696D01*
X92990Y180709D01*
X93205Y180798D01*
X93247Y180807D01*
X93247Y180807D01*
X93441Y180846D01*
X93494Y180881D01*
X116154D01*
Y178959D01*
X136626D01*
Y187620D01*
D02*
G37*
G36*
X150418Y180155D02*
X143880D01*
Y177682D01*
X143880Y177673D01*
X143880Y177673D01*
X143880Y177339D01*
X143329Y177172D01*
X143086Y177535D01*
X142465Y177950D01*
X141732Y178096D01*
Y178077D01*
X137008D01*
X52165Y178077D01*
X44291D01*
Y178084D01*
X43544Y177985D01*
X42848Y177697D01*
X42250Y177238D01*
X41791Y176640D01*
X41503Y175944D01*
X41404Y175197D01*
X41412D01*
Y144122D01*
X27362D01*
Y144291D01*
X21457D01*
Y137205D01*
X23201D01*
Y136248D01*
X12366D01*
X12058Y136771D01*
X12060Y136799D01*
X12165Y137325D01*
Y142988D01*
X12056Y143538D01*
X11744Y144004D01*
X11278Y144316D01*
X10728Y144425D01*
X10178Y144316D01*
X9806Y144067D01*
X9449Y144020D01*
X9091Y144067D01*
X8719Y144316D01*
X8169Y144425D01*
X7620Y144316D01*
X7247Y144067D01*
X6890Y144020D01*
X6532Y144067D01*
X6160Y144316D01*
X5610Y144425D01*
X5060Y144316D01*
X5012Y144283D01*
X4814Y144324D01*
X4456Y144575D01*
Y149437D01*
X5007Y149624D01*
X5277Y149273D01*
X6037Y148689D01*
X6923Y148322D01*
X7874Y148197D01*
Y148201D01*
X13976D01*
Y147244D01*
X25394D01*
Y151181D01*
X13976D01*
Y151011D01*
X7874D01*
Y151018D01*
X7548Y151083D01*
X7271Y151268D01*
X7087Y151544D01*
X7022Y151870D01*
X7015D01*
Y154096D01*
X7047Y154256D01*
Y159920D01*
X6938Y160469D01*
X6626Y160935D01*
X6160Y161247D01*
X5610Y161356D01*
X5060Y161247D01*
X4688Y160998D01*
X4331Y160951D01*
X3973Y160998D01*
X3601Y161247D01*
X3051Y161356D01*
X2501Y161247D01*
X2035Y160935D01*
X1724Y160469D01*
X1615Y159920D01*
Y154256D01*
X1646Y154096D01*
Y144397D01*
X1642D01*
Y135915D01*
X1750D01*
X1757Y135865D01*
X2084Y135075D01*
X2605Y134396D01*
X3283Y133876D01*
X4073Y133548D01*
X4921Y133437D01*
Y133438D01*
X17048D01*
X17588Y133410D01*
Y130369D01*
X17789D01*
Y129473D01*
X17588D01*
Y126432D01*
X17789D01*
Y122841D01*
X17447Y122432D01*
X17053D01*
Y122432D01*
X16896Y122432D01*
X13116D01*
Y122432D01*
X13077Y122428D01*
X12526Y122432D01*
Y122432D01*
X8982D01*
Y118840D01*
X5458D01*
Y119042D01*
X2416D01*
Y116816D01*
X5458D01*
Y117018D01*
X8982D01*
Y114558D01*
X12458D01*
X12526Y114558D01*
X13059Y114548D01*
X13360Y114423D01*
X20860D01*
X21161Y114548D01*
X21165Y114558D01*
X21384Y114558D01*
X21778D01*
X21935Y114558D01*
X25557D01*
X25715Y114558D01*
X26108D01*
X26266Y114558D01*
X29888D01*
X30045Y114558D01*
X30439D01*
X30597Y114558D01*
X31496D01*
Y104403D01*
X31489D01*
X31589Y103637D01*
X31885Y102923D01*
X32356Y102310D01*
X32969Y101840D01*
X33216Y101737D01*
X33281Y101582D01*
X33668Y101194D01*
X34175Y100984D01*
X34723D01*
X35229Y101194D01*
X35617Y101582D01*
X35827Y102088D01*
Y102636D01*
X35617Y103143D01*
X35229Y103530D01*
X34723Y103740D01*
X34175D01*
X33737Y103559D01*
X33658Y103612D01*
X33415Y103975D01*
X33330Y104403D01*
X33319D01*
Y114558D01*
X34219D01*
X34376Y114558D01*
X34770D01*
X34927Y114558D01*
X38549D01*
X38707Y114558D01*
X39101D01*
X39258Y114558D01*
X43038D01*
Y122432D01*
X41980D01*
Y128520D01*
X42527Y128753D01*
X43033Y128543D01*
X43581D01*
X44088Y128753D01*
X44474Y129139D01*
X44568Y129152D01*
X45743Y129639D01*
X46752Y130413D01*
X47527Y131422D01*
X47750Y131962D01*
X48301Y131852D01*
Y112205D01*
X48289D01*
X48209Y111805D01*
X47983Y111466D01*
X47644Y111239D01*
X47244Y111160D01*
Y111147D01*
X40408D01*
X40151Y111404D01*
X39644Y111614D01*
X39096D01*
X38590Y111404D01*
X38202Y111017D01*
X37992Y110510D01*
Y109962D01*
X38202Y109456D01*
X38590Y109068D01*
X39096Y108858D01*
X39644D01*
X40151Y109068D01*
X40408Y109325D01*
X47244D01*
Y109318D01*
X47991Y109416D01*
X48687Y109705D01*
X49285Y110163D01*
X49744Y110761D01*
X50033Y111458D01*
X50131Y112205D01*
X50124D01*
Y167323D01*
X50136D01*
X50216Y167723D01*
X50442Y168062D01*
X50781Y168288D01*
X51181Y168368D01*
Y168380D01*
X135827D01*
Y168351D01*
X135858Y168338D01*
X135871Y168307D01*
X135900D01*
Y128937D01*
X135880D01*
X136026Y128204D01*
X136441Y127583D01*
X137063Y127168D01*
X137795Y127022D01*
Y127042D01*
X140695D01*
X140952Y126785D01*
X141458Y126575D01*
X142006D01*
X142513Y126785D01*
X142901Y127172D01*
X143110Y127679D01*
Y128227D01*
X142901Y128733D01*
X142513Y129121D01*
X142489Y129131D01*
Y129727D01*
X142513Y129737D01*
X142901Y130125D01*
X143110Y130631D01*
Y131180D01*
X142901Y131686D01*
X142513Y132074D01*
X142489Y132084D01*
Y132680D01*
X142513Y132690D01*
X142901Y133078D01*
X143110Y133584D01*
Y134132D01*
X142901Y134639D01*
X142513Y135026D01*
X142006Y135236D01*
X141659D01*
Y158132D01*
X142210Y158299D01*
X142347Y158095D01*
X142968Y157680D01*
X143701Y157534D01*
Y157553D01*
X145722D01*
Y156944D01*
X145923D01*
Y156048D01*
X145722D01*
Y153007D01*
X147948D01*
Y156048D01*
X147746D01*
Y156944D01*
X147948D01*
Y159985D01*
X147746D01*
Y162168D01*
X150418D01*
Y165155D01*
X143880D01*
X143628Y165602D01*
Y166721D01*
X143880Y167168D01*
X144179Y167168D01*
X150418D01*
Y170155D01*
X144179D01*
X143880Y170155D01*
X143628Y170602D01*
Y171721D01*
X143880Y172168D01*
X144179Y172168D01*
X150418D01*
Y172168D01*
X150831Y172444D01*
X151246Y172272D01*
X151982Y171707D01*
X152547Y170970D01*
X152903Y170113D01*
X152903Y170108D01*
X152769Y169974D01*
X152559Y169467D01*
Y168919D01*
X152769Y168412D01*
X153156Y168025D01*
X153663Y167815D01*
X154211D01*
X154718Y168025D01*
X155105Y168412D01*
X155315Y168919D01*
Y169467D01*
X155105Y169974D01*
X154724Y170355D01*
X154693Y170593D01*
X154152Y171897D01*
X153293Y173017D01*
X152173Y173877D01*
X150868Y174417D01*
X150418Y174476D01*
Y175155D01*
X144179D01*
X143880Y175155D01*
X143628Y175602D01*
Y176162D01*
X143647Y176181D01*
X143647D01*
X143551Y176663D01*
X143532Y176761D01*
X143913Y177137D01*
X143970Y177168D01*
X144361Y177168D01*
X150418D01*
Y177750D01*
X156280D01*
Y177740D01*
X156963Y177650D01*
X157600Y177386D01*
X158148Y176967D01*
X158568Y176419D01*
X158757Y175962D01*
X158674Y175879D01*
X158465Y175373D01*
Y174824D01*
X158674Y174318D01*
X159062Y173930D01*
X159568Y173721D01*
X160117D01*
X160623Y173930D01*
X161011Y174318D01*
X161221Y174824D01*
Y175373D01*
X161011Y175879D01*
X160623Y176267D01*
X160619Y176268D01*
X160172Y177346D01*
X159458Y178277D01*
X158527Y178991D01*
X157443Y179440D01*
X156280Y179594D01*
Y179573D01*
X150418D01*
Y180155D01*
D02*
G37*
G36*
X171868Y175155D02*
X165330D01*
Y172168D01*
X171868D01*
Y175155D01*
D02*
G37*
G36*
Y170155D02*
X165330D01*
Y169573D01*
X158819D01*
Y169599D01*
X157948Y169426D01*
X157210Y168932D01*
X156997Y168614D01*
X156700Y168491D01*
X156312Y168103D01*
X156102Y167597D01*
Y167049D01*
X156312Y166542D01*
X156700Y166155D01*
X157206Y165945D01*
X157754D01*
X158261Y166155D01*
X158649Y166542D01*
X158858Y167049D01*
X158858Y167597D01*
X159368Y167750D01*
X165330D01*
Y167168D01*
X171868D01*
Y170155D01*
D02*
G37*
G36*
Y165155D02*
X165330D01*
Y164573D01*
X158248D01*
Y164583D01*
X157403Y164472D01*
X156616Y164146D01*
X155940Y163627D01*
X155421Y162951D01*
X155251Y162539D01*
X155125Y162487D01*
X154737Y162099D01*
X154528Y161593D01*
Y161045D01*
X154737Y160538D01*
X154994Y160281D01*
Y160024D01*
X154998Y160003D01*
X154845Y158835D01*
X154386Y157728D01*
X153656Y156777D01*
X152705Y156047D01*
X152074Y155786D01*
X151522Y156048D01*
Y156048D01*
X149297D01*
Y153007D01*
X151522D01*
Y153713D01*
X151662Y153726D01*
X152866Y154092D01*
X153977Y154685D01*
X154950Y155483D01*
X155748Y156456D01*
X156341Y157566D01*
X156707Y158771D01*
X156830Y160024D01*
X156830D01*
X157028Y160493D01*
X157074Y160538D01*
X157283Y161045D01*
Y161593D01*
X157079Y162087D01*
X157239Y162327D01*
X157702Y162637D01*
X158248Y162745D01*
Y162750D01*
X165330D01*
Y162168D01*
X171868D01*
Y165155D01*
D02*
G37*
G36*
X8305Y167913D02*
X7443D01*
X6647Y167584D01*
X6038Y166975D01*
X5709Y166179D01*
Y165317D01*
X6038Y164522D01*
X6647Y163912D01*
X7443Y163583D01*
X8305D01*
X9101Y163912D01*
X9710Y164522D01*
X10039Y165317D01*
Y166179D01*
X9710Y166975D01*
X9101Y167584D01*
X8305Y167913D01*
D02*
G37*
G36*
X24016Y172047D02*
X13386D01*
Y166535D01*
X17296D01*
Y159843D01*
X13976D01*
Y159279D01*
X12165D01*
Y159920D01*
X12056Y160469D01*
X11744Y160935D01*
X11278Y161247D01*
X10728Y161356D01*
X10178Y161247D01*
X9712Y160935D01*
X9401Y160469D01*
X9292Y159920D01*
Y154256D01*
X9401Y153706D01*
X9712Y153240D01*
X10178Y152929D01*
X10728Y152819D01*
X11278Y152929D01*
X11744Y153240D01*
X12056Y153706D01*
X12165Y154256D01*
Y156469D01*
X13976D01*
Y155906D01*
X20081D01*
X20276Y155867D01*
Y155878D01*
X27953D01*
Y154331D01*
X35039D01*
Y160236D01*
X27953D01*
Y158688D01*
X25394D01*
Y159843D01*
X20106D01*
Y166535D01*
X24016D01*
Y172047D01*
D02*
G37*
G36*
X156299Y148031D02*
X150394D01*
Y145415D01*
X147190D01*
Y145617D01*
X144149D01*
Y143391D01*
X147190D01*
Y143593D01*
X150394D01*
Y140945D01*
X156299D01*
Y148031D01*
D02*
G37*
G36*
X169389Y135433D02*
X165059D01*
Y125591D01*
X169389D01*
Y135433D01*
D02*
G37*
G36*
X164468D02*
X160138D01*
Y125591D01*
X164468D01*
Y135433D01*
D02*
G37*
G36*
X159546D02*
X155216D01*
Y125591D01*
X159546D01*
Y135433D01*
D02*
G37*
G36*
X147190Y142042D02*
X144149D01*
Y139816D01*
X144758D01*
Y137303D01*
X144738D01*
X144887Y135796D01*
X145326Y134348D01*
X146040Y133013D01*
X147000Y131843D01*
X148170Y130882D01*
X149505Y130169D01*
X150295Y129929D01*
Y125591D01*
X154625D01*
Y135433D01*
X150295D01*
Y132455D01*
X149744Y132125D01*
X149196Y132417D01*
X148306Y133148D01*
X147575Y134038D01*
X147032Y135054D01*
X146698Y136156D01*
X146585Y137303D01*
X146581D01*
Y139816D01*
X147190D01*
Y142042D01*
D02*
G37*
G36*
X195767Y118898D02*
X185925D01*
Y116955D01*
X183465D01*
Y116962D01*
X182717Y116863D01*
X182021Y116575D01*
X181423Y116116D01*
X180964Y115518D01*
X180676Y114822D01*
X180578Y114075D01*
X180585D01*
Y112106D01*
X180572D01*
X180493Y111706D01*
X180266Y111367D01*
X179927Y111141D01*
X179528Y111061D01*
Y111049D01*
X178597D01*
X178340Y111306D01*
X177833Y111516D01*
X177285D01*
X176778Y111306D01*
X176391Y110918D01*
X176181Y110412D01*
Y109864D01*
X176391Y109357D01*
X176778Y108970D01*
X177285Y108760D01*
X177833D01*
X178340Y108970D01*
X178597Y109227D01*
X179528D01*
Y109219D01*
X180275Y109318D01*
X180971Y109606D01*
X181569Y110065D01*
X182028Y110663D01*
X182111Y110863D01*
X182551Y110951D01*
X182730Y110919D01*
X183191Y110728D01*
X183739D01*
X184245Y110938D01*
X184502Y111195D01*
X185925D01*
Y109646D01*
X188793D01*
X189029Y109094D01*
X189016Y109081D01*
X184502D01*
X184245Y109337D01*
X183739Y109547D01*
X183191D01*
X182684Y109337D01*
X182296Y108950D01*
X182087Y108443D01*
Y107895D01*
X182296Y107389D01*
X182684Y107001D01*
X183191Y106791D01*
X183739D01*
X184245Y107001D01*
X184502Y107258D01*
X185925D01*
Y104725D01*
X195767D01*
Y109055D01*
X190173D01*
X190132Y109094D01*
X190354Y109646D01*
X195767D01*
Y113976D01*
X185925D01*
Y113017D01*
X184502D01*
X184245Y113275D01*
X183739Y113484D01*
X183191D01*
X183110Y113451D01*
X182561Y113711D01*
X182420Y114075D01*
X182499Y114475D01*
X182726Y114814D01*
X183065Y115040D01*
X183465Y115120D01*
Y115132D01*
X185925D01*
Y114568D01*
X195767D01*
Y118898D01*
D02*
G37*
G36*
X148523D02*
X138681D01*
Y114568D01*
X148523D01*
Y118898D01*
D02*
G37*
G36*
X153817Y123425D02*
X153269D01*
X152763Y123215D01*
X152375Y122828D01*
X152165Y122321D01*
Y121773D01*
X152375Y121267D01*
X152632Y121010D01*
Y114173D01*
X152620D01*
X152540Y113773D01*
X152314Y113434D01*
X151975Y113208D01*
X151575Y113128D01*
Y113116D01*
X148523D01*
Y113976D01*
X138681D01*
Y109646D01*
X148523D01*
Y111293D01*
X151575D01*
Y111286D01*
X152322Y111385D01*
X153018Y111673D01*
X153616Y112132D01*
X154049Y112697D01*
X154108Y112699D01*
X154601Y112422D01*
Y108268D01*
X154588D01*
X154509Y107868D01*
X154282Y107529D01*
X153943Y107302D01*
X153543Y107223D01*
Y107210D01*
X148523D01*
Y109055D01*
X138681D01*
Y104725D01*
X148523D01*
Y105388D01*
X153543D01*
Y105381D01*
X154290Y105479D01*
X154987Y105768D01*
X155585Y106226D01*
X156018Y106791D01*
X156076Y106794D01*
X156569Y106516D01*
Y104331D01*
X156557D01*
X156477Y103931D01*
X156251Y103592D01*
X155912Y103365D01*
X155512Y103286D01*
Y103273D01*
X148523D01*
Y104134D01*
X138681D01*
Y99804D01*
X148523D01*
Y101451D01*
X155512D01*
Y101444D01*
X156259Y101542D01*
X156955Y101831D01*
X157553Y102289D01*
X157986Y102854D01*
X158045Y102857D01*
X158538Y102579D01*
Y98425D01*
X158525D01*
X158446Y98025D01*
X158219Y97686D01*
X157880Y97460D01*
X157480Y97380D01*
Y97368D01*
X148523D01*
Y99212D01*
X138681D01*
Y94882D01*
X148523D01*
Y95546D01*
X157480D01*
Y95538D01*
X157862Y95588D01*
X157905Y95555D01*
X158201Y95077D01*
X158071Y94762D01*
Y94214D01*
X158281Y93708D01*
X158668Y93320D01*
X159175Y93110D01*
X159723D01*
X160229Y93320D01*
X160486Y93577D01*
X169125D01*
X169585Y93026D01*
X169561Y92894D01*
X168877Y92611D01*
X167890Y91854D01*
X167242Y91008D01*
X166762Y91023D01*
X166627Y91081D01*
X166523Y91332D01*
X166135Y91719D01*
X165628Y91929D01*
X165080D01*
X164574Y91719D01*
X164186Y91332D01*
X164052Y91009D01*
X163468Y90767D01*
X162687Y90167D01*
X162087Y89386D01*
X161711Y88476D01*
X161673Y88189D01*
X160138D01*
Y78347D01*
X164468D01*
Y88189D01*
X163697D01*
X163402Y88740D01*
X163687Y89167D01*
X164348Y89609D01*
X164574Y89383D01*
X165080Y89173D01*
X165628D01*
X166052Y89349D01*
X166351Y89209D01*
X166567Y89036D01*
X166494Y88484D01*
X166066Y88189D01*
X165059D01*
Y78347D01*
X169389D01*
Y88189D01*
X168364D01*
X168342Y88204D01*
X167968Y88740D01*
X168048Y89345D01*
X168380Y90147D01*
X168909Y90835D01*
X169597Y91364D01*
X170212Y91619D01*
X170479Y91351D01*
X170986Y91142D01*
X171534D01*
X172040Y91351D01*
X172428Y91739D01*
X172638Y92246D01*
Y92794D01*
X172542Y93026D01*
X172871Y93577D01*
X177165D01*
Y93565D01*
X177565Y93485D01*
X177904Y93259D01*
X178070Y93011D01*
X178200Y92573D01*
X178210Y92520D01*
X178216Y92520D01*
X178314Y91773D01*
X178602Y91076D01*
X179061Y90478D01*
X179659Y90020D01*
X180355Y89731D01*
X181050Y89640D01*
X181058Y89621D01*
X181077Y89613D01*
Y88189D01*
X179823D01*
Y78347D01*
X184153D01*
Y88189D01*
X182899D01*
Y89665D01*
X182917D01*
X182779Y90360D01*
X182385Y90948D01*
X182200Y91072D01*
X182280Y91682D01*
X182324Y91700D01*
X182379Y91692D01*
X183071Y91601D01*
Y91609D01*
X185925D01*
Y89961D01*
X195767D01*
Y94291D01*
X185925D01*
Y93431D01*
X183071D01*
Y93443D01*
X182671Y93523D01*
X182332Y93749D01*
X182106Y94088D01*
X182026Y94488D01*
X182014D01*
Y96457D01*
X182021D01*
X181922Y97204D01*
X181634Y97900D01*
X181175Y98498D01*
X180577Y98957D01*
X179881Y99245D01*
X179134Y99344D01*
Y99336D01*
X164423D01*
X164166Y99593D01*
X163660Y99803D01*
X163112D01*
X162605Y99593D01*
X162218Y99206D01*
X162008Y98699D01*
Y98151D01*
X162218Y97645D01*
X162605Y97257D01*
X163112Y97047D01*
X163660D01*
X164166Y97257D01*
X164423Y97514D01*
X179134D01*
Y97502D01*
X179534Y97422D01*
X179873Y97196D01*
X180099Y96857D01*
X180179Y96457D01*
X180191D01*
Y94488D01*
X180184D01*
X180249Y93995D01*
X179712Y93851D01*
X179666Y93963D01*
X179207Y94561D01*
X178609Y95020D01*
X177912Y95308D01*
X177165Y95407D01*
Y95399D01*
X160486D01*
X160229Y95656D01*
X159723Y95866D01*
X159579Y96237D01*
X159547Y96417D01*
X159980Y96982D01*
X160269Y97678D01*
X160367Y98425D01*
X160360D01*
Y115104D01*
X160617Y115361D01*
X160827Y115868D01*
Y116416D01*
X160617Y116922D01*
X160229Y117310D01*
X159723Y117520D01*
X159175D01*
X158943Y117424D01*
X158391Y117753D01*
Y119041D01*
X158649Y119298D01*
X158858Y119805D01*
Y120353D01*
X158649Y120859D01*
X158261Y121247D01*
X157754Y121457D01*
X157206D01*
X156700Y121247D01*
X156312Y120859D01*
X156102Y120353D01*
Y119805D01*
X156312Y119298D01*
X156569Y119041D01*
Y117753D01*
X156018Y117424D01*
X155786Y117520D01*
X155238D01*
X155006Y117424D01*
X154455Y117753D01*
Y121010D01*
X154711Y121267D01*
X154921Y121773D01*
Y122321D01*
X154711Y122828D01*
X154324Y123215D01*
X153817Y123425D01*
D02*
G37*
G36*
X5458Y115467D02*
X2416D01*
Y113242D01*
X3026D01*
Y111274D01*
X2769Y111017D01*
X2559Y110510D01*
Y109962D01*
X2769Y109456D01*
X3156Y109068D01*
X3663Y108858D01*
X4211D01*
X4718Y109068D01*
X5105Y109456D01*
X5315Y109962D01*
Y110510D01*
X5105Y111017D01*
X4848Y111274D01*
Y113242D01*
X5458D01*
Y115467D01*
D02*
G37*
G36*
X174310Y135433D02*
X169980D01*
Y125591D01*
X171443D01*
Y105675D01*
X171076Y105308D01*
X170866Y104802D01*
Y104253D01*
X171076Y103747D01*
X171464Y103359D01*
X171970Y103150D01*
X172518D01*
X173025Y103359D01*
X173412Y103747D01*
X173622Y104253D01*
Y104802D01*
X173412Y105308D01*
X173025Y105696D01*
X172848Y105769D01*
Y125591D01*
X174310D01*
Y135433D01*
D02*
G37*
G36*
X183345Y105709D02*
X182797D01*
X182290Y105499D01*
X181903Y105111D01*
X181693Y104605D01*
Y104057D01*
X181903Y103550D01*
X182290Y103163D01*
X182682Y103000D01*
X182768Y102792D01*
X183128Y102323D01*
X182911Y101794D01*
X182890Y101772D01*
X182797D01*
X182290Y101562D01*
X181903Y101174D01*
X181693Y100668D01*
Y100120D01*
X181903Y99613D01*
X182290Y99225D01*
X182584Y99104D01*
X182892Y98358D01*
X183539Y97515D01*
X184382Y96868D01*
X185364Y96462D01*
X185925Y96388D01*
Y94882D01*
X195767D01*
Y99212D01*
X185925D01*
Y98372D01*
X185374Y98003D01*
X185102Y98116D01*
X184558Y98534D01*
X184140Y99079D01*
X184012Y99386D01*
X184239Y99613D01*
X184449Y100120D01*
Y100668D01*
X184363Y100875D01*
X184476Y101075D01*
X184766Y101341D01*
X185433Y101253D01*
Y101253D01*
X185925Y101111D01*
Y99804D01*
X195767D01*
Y104134D01*
X185925D01*
Y102818D01*
X185821Y102788D01*
X185374Y102688D01*
X184800Y102802D01*
X184480Y103016D01*
X184239Y103550D01*
X184449Y104057D01*
Y104605D01*
X184239Y105111D01*
X183851Y105499D01*
X183345Y105709D01*
D02*
G37*
G36*
X148523Y94291D02*
X138681D01*
Y89961D01*
X148523D01*
Y94291D01*
D02*
G37*
G36*
X39101Y85030D02*
X38707D01*
X38549Y85030D01*
X34927D01*
X34770Y85030D01*
X34376D01*
X34219Y85030D01*
X30597D01*
X30439Y85030D01*
X30045D01*
X29888Y85030D01*
X26266D01*
X26108Y85030D01*
X25715D01*
X25557Y85030D01*
X21778D01*
Y77156D01*
X25557D01*
X25715Y77156D01*
X26108D01*
X26266Y77156D01*
X29888D01*
X30045Y77156D01*
X30439D01*
X30597Y77156D01*
X34219D01*
X34376Y77156D01*
X34770D01*
X34927Y77156D01*
X38549D01*
X38707Y77156D01*
X39101D01*
X39258Y77156D01*
X43038D01*
Y85030D01*
X39258D01*
X39101Y85030D01*
D02*
G37*
G36*
X47171Y85030D02*
X43628D01*
Y77156D01*
X47171D01*
Y85030D01*
D02*
G37*
G36*
X179232Y88189D02*
X174902D01*
Y78347D01*
X176156D01*
Y74705D01*
X176142D01*
X176107Y74531D01*
X175586Y74165D01*
X175471Y74213D01*
X174923D01*
X174416Y74003D01*
X174029Y73615D01*
X173819Y73109D01*
Y72561D01*
X174029Y72054D01*
X174416Y71667D01*
X174923Y71457D01*
X175471D01*
X175977Y71667D01*
X176365Y72054D01*
X176436Y72227D01*
X176591Y72291D01*
X177168Y72734D01*
X177611Y73311D01*
X177890Y73983D01*
X177985Y74705D01*
X177978D01*
Y78347D01*
X179232D01*
Y88189D01*
D02*
G37*
G36*
X34723Y72244D02*
X34175D01*
X33668Y72034D01*
X33281Y71647D01*
X33071Y71140D01*
Y70592D01*
X33281Y70086D01*
X33538Y69829D01*
Y65711D01*
X32928D01*
Y63485D01*
X35969D01*
Y65711D01*
X35360D01*
Y69829D01*
X35617Y70086D01*
X35827Y70592D01*
Y71140D01*
X35617Y71647D01*
X35229Y72034D01*
X34723Y72244D01*
D02*
G37*
G36*
X45866Y64173D02*
X38780D01*
Y61935D01*
X35969D01*
Y62137D01*
X32928D01*
Y59911D01*
X35969D01*
Y60112D01*
X38780D01*
Y58268D01*
X45866D01*
Y64173D01*
D02*
G37*
G36*
X132433Y166765D02*
X51181D01*
X50880Y166640D01*
X50755Y166339D01*
Y43484D01*
X50204Y43448D01*
X50121Y44078D01*
X49823Y44796D01*
X49350Y45413D01*
X48733Y45886D01*
X48431Y46012D01*
X48412Y46056D01*
X48025Y46444D01*
X47518Y46654D01*
X46970D01*
X46464Y46444D01*
X46076Y46056D01*
X45866Y45550D01*
Y45002D01*
X46076Y44495D01*
X46464Y44107D01*
X46970Y43898D01*
X47518D01*
X47662Y43957D01*
X48137Y43607D01*
X48197Y43307D01*
X48209D01*
Y3937D01*
X48203D01*
X48304Y3166D01*
X48602Y2448D01*
X49075Y1831D01*
X49692Y1358D01*
X50410Y1060D01*
X51181Y959D01*
Y965D01*
X131890D01*
Y959D01*
X132661Y1060D01*
X133379Y1358D01*
X133996Y1831D01*
X134469Y2448D01*
X134766Y3166D01*
X134868Y3937D01*
X134862D01*
Y6870D01*
X137365D01*
Y6398D01*
X137510Y5668D01*
X137923Y5049D01*
X138542Y4636D01*
X139272Y4491D01*
X142224D01*
X142954Y4636D01*
X143573Y5049D01*
X143986Y5668D01*
X144131Y6398D01*
Y9350D01*
X143986Y10080D01*
X143573Y10699D01*
X142954Y11112D01*
X142224Y11257D01*
X139272D01*
X138542Y11112D01*
X137923Y10699D01*
X137510Y10080D01*
X137365Y9350D01*
Y8878D01*
X134862D01*
Y12868D01*
X178096D01*
X178353Y12611D01*
X178860Y12402D01*
X179408D01*
X179914Y12611D01*
X180171Y12868D01*
X192913D01*
Y12861D01*
X193661Y12959D01*
X194357Y13248D01*
X194955Y13707D01*
X195413Y14305D01*
X195702Y15001D01*
X195800Y15748D01*
X195793D01*
Y35418D01*
Y39370D01*
Y53331D01*
Y59146D01*
Y66929D01*
X195800D01*
X195702Y67676D01*
X195413Y68373D01*
X194955Y68971D01*
X194357Y69429D01*
X193661Y69718D01*
X192913Y69816D01*
Y69809D01*
X176916D01*
Y70418D01*
X174690D01*
Y67377D01*
X176916D01*
Y67986D01*
X192913D01*
Y67974D01*
X193313Y67895D01*
X193652Y67668D01*
X193879Y67329D01*
X193958Y66929D01*
X193971D01*
Y60057D01*
X192465D01*
Y60349D01*
X189424D01*
Y60057D01*
X188484D01*
Y62008D01*
X185728D01*
Y59843D01*
X185728Y59843D01*
Y59449D01*
X185728D01*
X185728Y59291D01*
Y57284D01*
X188484D01*
Y58235D01*
X189424D01*
Y58123D01*
X192465D01*
Y58235D01*
X193971D01*
Y54242D01*
X192465D01*
Y54263D01*
X189424D01*
Y54242D01*
X188484D01*
Y54331D01*
X185728D01*
Y52165D01*
X188484D01*
Y52420D01*
X189424D01*
Y52037D01*
X192465D01*
Y52420D01*
X193971D01*
Y40281D01*
X182215D01*
Y40891D01*
X179990D01*
Y37850D01*
X182215D01*
Y38459D01*
X193971D01*
Y36329D01*
X182215D01*
Y36938D01*
X179990D01*
Y33897D01*
X182215D01*
Y34506D01*
X193971D01*
Y15748D01*
X193958D01*
X193879Y15348D01*
X193652Y15009D01*
X193313Y14783D01*
X192913Y14703D01*
Y14691D01*
X180171D01*
X179914Y14948D01*
X179408Y15157D01*
X178860D01*
X178353Y14948D01*
X178096Y14691D01*
X169218D01*
Y16785D01*
X169828D01*
Y19011D01*
X166787D01*
Y16785D01*
X167396D01*
Y14691D01*
X134769D01*
Y32553D01*
X136470D01*
Y31944D01*
X138696D01*
Y34703D01*
X140045D01*
Y31944D01*
X142270D01*
Y32771D01*
X144967D01*
X145077Y32220D01*
X144415Y31946D01*
X143323Y31108D01*
X142484Y30015D01*
X141957Y28743D01*
X141924Y28491D01*
X141196D01*
Y26265D01*
X144237D01*
Y28491D01*
X144237D01*
X143993Y28856D01*
X144089Y29089D01*
X144633Y29797D01*
X145342Y30341D01*
X146167Y30683D01*
X147052Y30799D01*
Y30803D01*
X150440D01*
Y30533D01*
X152198D01*
X152225Y30411D01*
X151783Y29860D01*
X150645D01*
Y27173D01*
X151057D01*
Y22585D01*
X150448D01*
Y20360D01*
X153489D01*
Y22585D01*
X152880D01*
Y27173D01*
X156963D01*
Y22585D01*
X156353D01*
Y20360D01*
X159395D01*
Y22585D01*
X158785D01*
Y27173D01*
X158912D01*
Y29590D01*
X160487D01*
Y27173D01*
X160757D01*
Y23371D01*
X160752D01*
X160842Y22689D01*
X161105Y22054D01*
X161524Y21509D01*
X162069Y21090D01*
X162704Y20827D01*
X163386Y20737D01*
Y20742D01*
X166787D01*
Y20360D01*
X169828D01*
Y22585D01*
X166787D01*
Y22565D01*
X163386D01*
Y22582D01*
X163084Y22642D01*
X162828Y22813D01*
X162657Y23069D01*
X162597Y23371D01*
X162580D01*
Y27173D01*
X170724D01*
Y29860D01*
X169554D01*
X169112Y30411D01*
X169139Y30533D01*
X170928D01*
Y32436D01*
X170983Y32540D01*
X171479Y32885D01*
X171607Y32859D01*
X172085Y32539D01*
X172405Y32061D01*
X172518Y31496D01*
X172526D01*
Y29528D01*
X172517D01*
X172608Y28834D01*
X172876Y28187D01*
X173301Y27632D01*
X173857Y27206D01*
X174503Y26939D01*
X175197Y26847D01*
Y26857D01*
X176052D01*
Y25054D01*
X178278D01*
Y28095D01*
X176917D01*
X176834Y28151D01*
X176181Y28281D01*
Y28262D01*
X175197D01*
Y28274D01*
X174717Y28369D01*
X174310Y28641D01*
X174039Y29048D01*
X173943Y29528D01*
X173931D01*
Y31496D01*
X173942D01*
X173843Y32247D01*
X173554Y32946D01*
X173093Y33547D01*
X172561Y33955D01*
X172577Y34199D01*
X172713Y34506D01*
X176415D01*
Y33897D01*
X178640D01*
Y36938D01*
X176415D01*
Y36329D01*
X170928D01*
Y36924D01*
X171467Y37148D01*
X172165Y37683D01*
X172700Y38380D01*
X173036Y39192D01*
X173151Y40064D01*
X173140D01*
Y60014D01*
X177486D01*
X177657Y59842D01*
Y59449D01*
X177486Y59277D01*
X175885D01*
X175471Y59449D01*
X174923D01*
X174416Y59239D01*
X174029Y58851D01*
X173819Y58345D01*
Y57797D01*
X174029Y57290D01*
X174416Y56903D01*
X174923Y56693D01*
X175471D01*
X175977Y56903D01*
X176365Y57290D01*
X176433Y57455D01*
X177486D01*
X177657Y57284D01*
Y56890D01*
X177657Y56732D01*
Y56520D01*
X176649Y56102D01*
X175660Y55344D01*
X174902Y54355D01*
X174425Y53204D01*
X174262Y51969D01*
X174286D01*
Y41339D01*
X174278D01*
X174377Y40591D01*
X174665Y39895D01*
X175124Y39297D01*
X175722Y38838D01*
X176415Y38552D01*
Y37850D01*
X178640D01*
Y40891D01*
X176415D01*
X176124Y41321D01*
X176120Y41339D01*
X176108D01*
Y51969D01*
X176116D01*
X176215Y52724D01*
X176507Y53429D01*
X176971Y54033D01*
X177576Y54497D01*
X178124Y54725D01*
X180413D01*
Y56732D01*
X180413Y56890D01*
Y57284D01*
X180413Y57441D01*
Y59291D01*
X180413Y59449D01*
Y59842D01*
X180413Y60000D01*
Y62008D01*
X177657D01*
Y61836D01*
X173140D01*
Y67377D01*
X173341D01*
Y70418D01*
X173140D01*
Y78347D01*
X174310D01*
Y88189D01*
X169980D01*
Y78347D01*
X171317D01*
Y70418D01*
X171116D01*
Y67377D01*
X171317D01*
Y61024D01*
X171315D01*
X171317Y61014D01*
Y58828D01*
X170766Y58718D01*
X170711Y58851D01*
X170323Y59239D01*
X169817Y59449D01*
X169268D01*
X168762Y59239D01*
X168374Y58851D01*
X168165Y58345D01*
Y57797D01*
X168374Y57290D01*
X168475Y57190D01*
X168391Y56639D01*
X168391D01*
Y53597D01*
X168631D01*
Y42160D01*
X160487D01*
Y39943D01*
X158912D01*
Y42160D01*
X158642D01*
Y47981D01*
X158657D01*
X158530Y48947D01*
X158157Y49847D01*
X157564Y50620D01*
X157344Y50789D01*
Y54931D01*
X156050D01*
Y57820D01*
X153824D01*
Y54931D01*
X152256D01*
Y46644D01*
X152029Y46187D01*
X147971D01*
X147744Y46644D01*
Y54931D01*
X146176D01*
Y57820D01*
X143950D01*
Y54931D01*
X142656D01*
Y46644D01*
X144164D01*
Y45870D01*
X144152D01*
X144268Y45289D01*
X144597Y44797D01*
X145089Y44468D01*
X145669Y44353D01*
Y44364D01*
X153543D01*
Y44352D01*
X153943Y44272D01*
X154282Y44046D01*
X154509Y43707D01*
X154588Y43307D01*
X154601D01*
Y42160D01*
X150645D01*
Y39473D01*
X152342D01*
Y36917D01*
X152316Y36878D01*
X152247Y36832D01*
X150440D01*
Y36562D01*
X148765D01*
Y36727D01*
X145723D01*
Y36525D01*
X134769D01*
Y71923D01*
X163386D01*
Y71911D01*
X163786Y71832D01*
X164125Y71605D01*
X164351Y71266D01*
X164431Y70866D01*
X164443D01*
Y55693D01*
X164432D01*
X164546Y55120D01*
X164816Y54715D01*
Y53597D01*
X167042D01*
Y56639D01*
X166265D01*
Y70866D01*
X166273D01*
X166174Y71613D01*
X165886Y72310D01*
X165427Y72908D01*
X164829Y73366D01*
X164133Y73655D01*
X163386Y73753D01*
Y73746D01*
X134769D01*
Y76772D01*
X134776D01*
X134879Y77553D01*
X135181Y78281D01*
X135660Y78907D01*
X136286Y79386D01*
X137014Y79688D01*
X137795Y79791D01*
Y79798D01*
X141196D01*
Y79415D01*
X144237D01*
Y79793D01*
X150295D01*
Y78347D01*
X154625D01*
Y88189D01*
X150295D01*
Y81615D01*
X144237D01*
Y81640D01*
X141196D01*
Y81620D01*
X137795D01*
Y81644D01*
X136534Y81478D01*
X135359Y80991D01*
X134350Y80217D01*
X133576Y79208D01*
X133410Y78809D01*
X132859Y78918D01*
Y166339D01*
X132734Y166640D01*
X132433Y166765D01*
D02*
G37*
%LPD*%
G36*
X17789Y119209D02*
X17775D01*
X17900Y118581D01*
X18255Y118049D01*
X18788Y117693D01*
X19415Y117569D01*
Y117582D01*
X19764Y117652D01*
X20060Y117850D01*
X20258Y118146D01*
X20309Y118401D01*
X20860Y118346D01*
Y114849D01*
X13360D01*
Y121935D01*
X17789D01*
Y119209D01*
D02*
G37*
G36*
X188058Y60057D02*
X188071Y60026D01*
Y58265D01*
X188058Y58235D01*
Y57710D01*
X186154D01*
Y59291D01*
X186154Y59291D01*
X186154Y59291D01*
X186154Y59449D01*
X186154Y59449D01*
Y59842D01*
X186154Y59843D01*
Y61582D01*
X188058D01*
Y60057D01*
D02*
G37*
D15*
X143602Y97047D02*
G03*
X144192Y96457I590J0D01*
G01*
X157480D02*
G03*
X159449Y98425I0J1969D01*
G01*
X143996Y102362D02*
G03*
X143602Y101969I0J-393D01*
G01*
X155512Y102362D02*
G03*
X157480Y104331I0J1969D01*
G01*
X151575Y112205D02*
G03*
X153543Y114173I0J1969D01*
G01*
Y106299D02*
G03*
X155512Y108268I0J1969D01*
G01*
X143602Y106890D02*
G03*
X144193Y106299I591J0D01*
G01*
X143996Y112205D02*
G03*
X143602Y111811I0J-394D01*
G01*
X43307Y129921D02*
G03*
X47244Y133858I0J3937D01*
G01*
X36738Y118494D02*
G03*
X37402Y119158I0J663D01*
G01*
X49213Y171260D02*
G03*
X47244Y169291I0J-1969D01*
G01*
X190157Y116043D02*
G03*
X190846Y116733I0J690D01*
G01*
X183465Y116043D02*
G03*
X181496Y114075I0J-1969D01*
G01*
X179528Y110138D02*
G03*
X181496Y112106I0J1969D01*
G01*
X138779Y170276D02*
G03*
X137795Y171260I-984J0D01*
G01*
X138779Y131890D02*
G03*
X139764Y130905I984J0D01*
G01*
X32408Y104403D02*
G03*
X34449Y102362I2041J0D01*
G01*
X47244Y173228D02*
G03*
X45276Y171260I0J-1969D01*
G01*
X190846Y111811D02*
G03*
X190551Y112106I-295J0D01*
G01*
X43307Y133858D02*
G03*
X45276Y135827I0J1969D01*
G01*
X43307Y133858D02*
G03*
X41069Y131620I0J-2238D01*
G01*
X140748Y172244D02*
G03*
X139764Y173228I-984J0D01*
G01*
X140748Y134843D02*
G03*
X141732Y133858I984J0D01*
G01*
X145669Y137303D02*
G03*
X152460Y130512I6791J0D01*
G01*
X169784Y35651D02*
G03*
X170017Y35418I233J0D01*
G01*
X151969Y28374D02*
G03*
X151826Y28517I-143J0D01*
G01*
X147052Y31714D02*
G03*
X142717Y27378I0J-4336D01*
G01*
X141375Y33682D02*
G03*
X141157Y33465I0J-218D01*
G01*
X136811Y128937D02*
G03*
X137795Y127953I984J0D01*
G01*
X136811Y168307D02*
G03*
X135827Y169291I-984J0D01*
G01*
X159843Y175098D02*
G03*
X156280Y178661I-3563J0D01*
G01*
X158819Y168661D02*
G03*
X157480Y167323I0J-1339D01*
G01*
X158248Y163661D02*
G03*
X155905Y161319I0J-2342D01*
G01*
X153937Y169193D02*
G03*
X149469Y173661I-4468J0D01*
G01*
X150409Y154528D02*
G03*
X155905Y160024I0J5496D01*
G01*
X147149Y163661D02*
G03*
X146835Y163347I0J-314D01*
G01*
X142717Y159449D02*
G03*
X143701Y158465I984J0D01*
G01*
X142717Y176181D02*
G03*
X141732Y177165I-984J0D01*
G01*
X194882Y66929D02*
G03*
X192913Y68898I-1969J0D01*
G01*
X165354Y70866D02*
G03*
X163386Y72835I-1969J0D01*
G01*
X187886Y59146D02*
G03*
X187106Y58366I0J-779D01*
G01*
X165354Y55693D02*
G03*
X165929Y55118I575J0D01*
G01*
X142717Y80528D02*
G03*
X142535Y80709I-181J0D01*
G01*
X187189Y53331D02*
G03*
X187106Y53248I0J-83D01*
G01*
X192913Y13780D02*
G03*
X194882Y15748I0J1969D01*
G01*
X153794Y40817D02*
G03*
X153543Y40565I0J-251D01*
G01*
X151584Y35651D02*
G03*
X153543Y37610I0J1959D01*
G01*
X44291Y177165D02*
G03*
X42323Y175197I0J-1969D01*
G01*
X133858Y35827D02*
G03*
X134071Y35614I213J0D01*
G01*
X137795Y80709D02*
G03*
X133858Y76772I0J-3937D01*
G01*
X172228Y83185D02*
G03*
X172145Y83268I-83J0D01*
G01*
X169784Y37619D02*
G03*
X172228Y40064I0J2444D01*
G01*
Y61024D02*
G03*
X172327Y60925I98J0D01*
G01*
X167574Y29311D02*
G03*
X163969Y32917I-3605J0D01*
G01*
X181102Y96457D02*
G03*
X179134Y98425I-1969J0D01*
G01*
X181102Y94488D02*
G03*
X183071Y92520I1969J0D01*
G01*
X190846Y92126D02*
G03*
X190452Y92520I-394J0D01*
G01*
X190846Y106890D02*
G03*
X189567Y108169I-1280J0D01*
G01*
X51181Y169291D02*
G03*
X49213Y167323I0J-1969D01*
G01*
X47244Y110236D02*
G03*
X49213Y112205I0J1969D01*
G01*
X175492Y58366D02*
G03*
X175197Y58071I0J-295D01*
G01*
Y72835D02*
G03*
X177067Y74705I0J1870D01*
G01*
X161669Y30716D02*
G03*
X159369Y33016I-2300J0D01*
G01*
X161669Y23371D02*
G03*
X163386Y21654I1717J0D01*
G01*
X168307Y21472D02*
G03*
X168126Y21654I-181J0D01*
G01*
X179134Y92520D02*
G03*
X177165Y94488I-1969J0D01*
G01*
X179134Y92520D02*
G03*
X181102Y90551I1969J0D01*
G01*
X181988Y89665D02*
G03*
X181102Y90551I-886J0D01*
G01*
X42126Y61024D02*
G03*
X42323Y61221I0J197D01*
G01*
X10189Y117929D02*
G03*
X10754Y118494I0J565D01*
G01*
X179035Y55807D02*
G03*
X175197Y51969I0J-3839D01*
G01*
Y41339D02*
G03*
X177165Y39370I1969J0D01*
G01*
X157731Y47981D02*
G03*
X154925Y50787I-2806J0D01*
G01*
X155512Y41068D02*
G03*
X155763Y40817I251J0D01*
G01*
X155512Y43307D02*
G03*
X153543Y45276I-1969J0D01*
G01*
X145075Y45870D02*
G03*
X145669Y45276I594J0D01*
G01*
X157874Y28374D02*
G03*
X157731Y28517I-143J0D01*
G01*
X144192Y96457D02*
X157480D01*
X159449Y98425D02*
Y116142D01*
X153543Y114173D02*
Y122047D01*
X155512Y108268D02*
Y116142D01*
X143996Y102362D02*
X155512D01*
X157480Y104331D02*
Y120079D01*
X143996Y112205D02*
X151575D01*
X144193Y106299D02*
X153543D01*
X187886Y59146D02*
X194882D01*
X187189Y53331D02*
X194882D01*
X47244Y133858D02*
Y133858D01*
X37402Y119158D02*
Y129921D01*
X47244Y133858D02*
Y169291D01*
X183465Y116043D02*
X190157D01*
X181496Y112106D02*
Y114075D01*
X177559Y110138D02*
X179528D01*
X49213Y171260D02*
X137795D01*
X138779Y131890D02*
Y170276D01*
X139764Y130905D02*
X141732D01*
X32408Y104403D02*
Y118494D01*
X34449Y64598D02*
Y70866D01*
X45276Y135827D02*
Y171260D01*
X183465Y112106D02*
X190551D01*
X41069Y118494D02*
Y131620D01*
X47244Y173228D02*
X139764D01*
X140748Y134843D02*
Y172244D01*
X145669Y144504D02*
X153347D01*
X145669Y137303D02*
Y140929D01*
X170017Y35418D02*
X177528D01*
X151969Y21472D02*
Y28374D01*
X147052Y31714D02*
X151584D01*
X141375Y33682D02*
X151584D01*
X137795Y127953D02*
X141732D01*
X136811Y128937D02*
Y168307D01*
X147149Y178661D02*
X156280D01*
X158819Y168661D02*
X168599D01*
X158248Y163661D02*
X168599D01*
X155905Y160024D02*
Y161319D01*
X147149Y173661D02*
X149469D01*
X146835Y154528D02*
Y158465D01*
Y163347D01*
X143701Y158465D02*
X146835D01*
X142717Y159449D02*
Y176181D01*
X137008Y177165D02*
X141732D01*
X51181Y169291D02*
X135827D01*
X194882Y59146D02*
Y66929D01*
X175803Y68898D02*
X192913D01*
X165354Y55693D02*
Y70866D01*
X142717Y80528D02*
X143343Y80704D01*
X179134Y13780D02*
X192913D01*
X153543Y37610D02*
Y40565D01*
X147244Y35651D02*
X151584D01*
X52165Y177165D02*
X137008Y177165D01*
X44291Y177165D02*
X52165D01*
X42323Y142717D02*
Y175197D01*
X137795Y80709D02*
X142535D01*
X134071Y35614D02*
X147244D01*
X133858Y72835D02*
X163386D01*
X133858Y33465D02*
Y35827D01*
Y72835D02*
Y76772D01*
Y35827D02*
Y72835D01*
X172228Y68898D02*
Y83185D01*
Y40064D02*
Y61024D01*
Y68898D01*
X172327Y60925D02*
X179035D01*
X167574Y28517D02*
Y29311D01*
X163386Y98425D02*
X179134D01*
X181102Y94488D02*
Y96457D01*
X183071Y92520D02*
X190452D01*
X183465Y108169D02*
X189567D01*
X3937Y110236D02*
Y114354D01*
X49213Y112205D02*
Y167323D01*
X39370Y110236D02*
X47244D01*
X175492Y58366D02*
X179035D01*
X177067Y74705D02*
Y83268D01*
X169543Y40817D02*
Y58071D01*
X194882Y53331D02*
Y59146D01*
X143343Y80704D02*
X151189D01*
X194882Y35418D02*
Y39370D01*
Y53331D01*
X181102Y35418D02*
X194882D01*
X181102Y39370D02*
X194882D01*
Y15748D02*
Y35418D01*
X168307Y13780D02*
X179134D01*
X168307D02*
Y17898D01*
X147244Y35614D02*
Y35651D01*
X133858Y33465D02*
X137583D01*
X133858Y13780D02*
X168307D01*
X133858D02*
Y33465D01*
X163386Y21654D02*
X168126D01*
X161669Y23371D02*
Y28517D01*
Y30716D01*
X159449Y94488D02*
X177165D01*
X179134Y92520D02*
Y92520D01*
X181988Y83268D02*
Y89665D01*
X34449Y61024D02*
X42126D01*
X3937Y117929D02*
X10189D01*
X23622Y118494D02*
X23746D01*
X23622D02*
Y128134D01*
X175197Y41339D02*
Y51969D01*
X177165Y39370D02*
X177528D01*
X145063Y56299D02*
X145075D01*
Y50787D02*
Y56299D01*
X154937Y50787D02*
Y56299D01*
X154925Y50787D02*
X154937D01*
X157731Y40817D02*
Y47981D01*
X155512Y41068D02*
Y43307D01*
X145669Y45276D02*
X153543D01*
X145075Y45870D02*
Y50787D01*
X157874Y21472D02*
Y28374D01*
D20*
X29725Y183071D02*
D03*
X37205D02*
D03*
X22307Y37354D02*
D03*
X14827D02*
D03*
X7427Y57954D02*
D03*
X14907D02*
D03*
X173425Y155512D02*
D03*
X180905D02*
D03*
X188779Y179134D02*
D03*
X181299D02*
D03*
X160827Y144488D02*
D03*
X16929Y140748D02*
D03*
X24409D02*
D03*
X153347Y144488D02*
D03*
D21*
X181496Y147539D02*
D03*
Y140059D02*
D03*
X15085Y64558D02*
D03*
Y72038D02*
D03*
X181102Y171063D02*
D03*
Y163583D02*
D03*
X14967Y43913D02*
D03*
Y51394D02*
D03*
X42323Y68701D02*
D03*
X31496Y149803D02*
D03*
Y157283D02*
D03*
X42323Y61221D02*
D03*
D22*
X187106Y55807D02*
D03*
X179035Y53248D02*
D03*
Y60925D02*
D03*
Y58366D02*
D03*
X187106Y60925D02*
D03*
Y58366D02*
D03*
Y53248D02*
D03*
X179035Y55807D02*
D03*
D23*
X143602Y121654D02*
D03*
X190846D02*
D03*
Y116733D02*
D03*
Y111811D02*
D03*
Y101969D02*
D03*
Y92126D02*
D03*
Y106890D02*
D03*
X143602Y101969D02*
D03*
X190846Y97047D02*
D03*
X143602Y106890D02*
D03*
Y111811D02*
D03*
Y97047D02*
D03*
Y92126D02*
D03*
Y116733D02*
D03*
D24*
X177067Y130512D02*
D03*
X157381Y83268D02*
D03*
X152460Y130512D02*
D03*
X172145Y83268D02*
D03*
X181988Y130512D02*
D03*
X177067Y83268D02*
D03*
X152460D02*
D03*
X181988D02*
D03*
X167224D02*
D03*
X172145Y130512D02*
D03*
X162303Y83268D02*
D03*
X157381Y130512D02*
D03*
X162303D02*
D03*
X167224D02*
D03*
D25*
X58650Y182852D02*
D03*
D26*
X147244Y39189D02*
D03*
X157874Y17898D02*
D03*
X151969D02*
D03*
X142717Y23803D02*
D03*
Y76953D02*
D03*
X190945Y62811D02*
D03*
Y56724D02*
D03*
X34449Y64598D02*
D03*
X145669Y140929D02*
D03*
Y144504D02*
D03*
X190945Y53150D02*
D03*
Y59236D02*
D03*
X142717Y80528D02*
D03*
Y27378D02*
D03*
X3937Y114354D02*
D03*
X147244Y35614D02*
D03*
X168307Y17898D02*
D03*
X23622Y131709D02*
D03*
X168307Y21472D02*
D03*
X34449Y61024D02*
D03*
X151969Y21472D02*
D03*
X3937Y117929D02*
D03*
X23622Y128134D02*
D03*
X157874Y21472D02*
D03*
D27*
X180740Y26575D02*
D03*
X15126Y131890D02*
D03*
Y127953D02*
D03*
X148638Y56299D02*
D03*
X151362D02*
D03*
X150409Y158465D02*
D03*
X146835Y154528D02*
D03*
X150409D02*
D03*
X146835Y158465D02*
D03*
X154937Y56299D02*
D03*
X145063D02*
D03*
X18701Y127953D02*
D03*
Y131890D02*
D03*
X177528Y35418D02*
D03*
X181102D02*
D03*
X137583Y33465D02*
D03*
X141157D02*
D03*
X172228Y68898D02*
D03*
X169504Y55118D02*
D03*
X175803Y68898D02*
D03*
X165929Y55118D02*
D03*
X181102Y39370D02*
D03*
X177165Y26575D02*
D03*
X177528Y39370D02*
D03*
D28*
X190945Y141831D02*
D03*
Y153445D02*
D03*
X25537Y58824D02*
D03*
Y70438D02*
D03*
D29*
X148622Y7874D02*
D03*
X140748D02*
D03*
D30*
X168599Y178661D02*
D03*
Y168661D02*
D03*
Y173661D02*
D03*
Y163661D02*
D03*
X147149Y168661D02*
D03*
Y163661D02*
D03*
Y178661D02*
D03*
Y173661D02*
D03*
D31*
X8169Y157088D02*
D03*
X5610Y140156D02*
D03*
X8169D02*
D03*
X10728D02*
D03*
Y157088D02*
D03*
X5610D02*
D03*
X3051D02*
D03*
D32*
X159700Y40817D02*
D03*
Y28517D02*
D03*
X151826D02*
D03*
X153794D02*
D03*
X155763D02*
D03*
X157731D02*
D03*
X161669D02*
D03*
X163637D02*
D03*
X165605D02*
D03*
X167574D02*
D03*
X169543D02*
D03*
Y40817D02*
D03*
X167574D02*
D03*
X165605D02*
D03*
X163637D02*
D03*
X161669D02*
D03*
X157731D02*
D03*
X155763D02*
D03*
X153794D02*
D03*
X151826D02*
D03*
D33*
X151584Y37619D02*
D03*
Y35651D02*
D03*
Y33682D02*
D03*
Y31714D02*
D03*
X169784D02*
D03*
Y33682D02*
D03*
Y35651D02*
D03*
Y37619D02*
D03*
D34*
X19685Y157874D02*
D03*
Y149212D02*
D03*
D35*
X18701Y169291D02*
D03*
Y179134D02*
D03*
Y188976D02*
D03*
D36*
X3051Y140156D02*
D03*
D37*
X181197Y185039D02*
D03*
D38*
X5705Y29774D02*
D03*
Y4084D02*
D03*
D39*
X19533Y64631D02*
D03*
X184941Y147638D02*
D03*
D40*
X145200Y50787D02*
D03*
X154800D02*
D03*
D41*
X19467Y64553D02*
D03*
X185800Y147559D02*
D03*
D42*
X14937Y64613D02*
D03*
D43*
X126390Y183289D02*
D03*
D44*
X45400Y81093D02*
D03*
X10754D02*
D03*
Y118494D02*
D03*
X45400D02*
D03*
D45*
X41069Y81093D02*
D03*
X36738D02*
D03*
X32408D02*
D03*
X28077D02*
D03*
X23746D02*
D03*
X19415D02*
D03*
X15085D02*
D03*
Y118494D02*
D03*
X19415D02*
D03*
X23746D02*
D03*
X28077D02*
D03*
X32408D02*
D03*
X36738D02*
D03*
X41069D02*
D03*
D59*
X7874Y165748D02*
D03*
Y192520D02*
D03*
D61*
X18701Y119209D02*
G03*
X19415Y118494I715J0D01*
G01*
X23622Y131709D02*
G03*
X23441Y131890I-181J0D01*
G01*
X23803D02*
G03*
X23622Y131709I0J-181D01*
G01*
X30512Y131890D02*
G03*
X32480Y133858I0J1969D01*
G01*
X18701Y119209D02*
Y131890D01*
X23441D01*
X23803D02*
X30512D01*
X32480Y133858D02*
Y142717D01*
D62*
X26378D02*
G03*
X24409Y140748I0J-1969D01*
G01*
X24606Y140551D02*
G03*
X24409Y140748I-197J0D01*
G01*
X23622Y134843D02*
G03*
X24606Y135827I0J984D01*
G01*
X3051Y136713D02*
G03*
X4921Y134843I1870J0D01*
G01*
X19685Y149212D02*
G03*
X19291Y149606I-394J0D01*
G01*
X5610Y151870D02*
G03*
X7874Y149606I2264J0D01*
G01*
X11515Y157874D02*
G03*
X10728Y157088I0J-786D01*
G01*
X19685Y157874D02*
G03*
X20276Y157283I591J0D01*
G01*
X18701Y158859D02*
G03*
X19685Y157874I984J0D01*
G01*
X25788Y179134D02*
G03*
X29725Y183071I0J3937D01*
G01*
X15085Y72038D02*
X15085D01*
X32480Y142717D02*
X42323D01*
X26378D02*
X32480D01*
X24606Y135827D02*
Y140551D01*
X4921Y134843D02*
X23622D01*
X3051Y136713D02*
Y140156D01*
Y157088D01*
X7874Y149606D02*
X19291D01*
X5610Y151870D02*
Y157088D01*
X11515Y157874D02*
X19685D01*
X20276Y157283D02*
X31496D01*
X18701Y158859D02*
Y169291D01*
Y179134D02*
X25788D01*
D63*
X131890Y1969D02*
G03*
X133858Y3937I0J1969D01*
G01*
X49213Y3937D02*
G03*
X51181Y1969I1969J0D01*
G01*
X49213Y43307D02*
G03*
X47244Y45276I-1969J0D01*
G01*
X49213Y3937D02*
Y43307D01*
X51181Y1969D02*
X131890D01*
X47244Y45276D02*
X47244D01*
X133858Y7874D02*
X140748D01*
X133858Y3937D02*
Y7874D01*
Y13780D01*
D64*
X183071Y104331D02*
G03*
X185433Y101969I2362J0D01*
G01*
X183071Y100394D02*
G03*
X186418Y97047I3347J0D01*
G01*
X171260Y92520D02*
G03*
X167224Y88484I0J-4036D01*
G01*
X172145Y104627D02*
G03*
X172244Y104528I99J0D01*
G01*
X165354Y90551D02*
G03*
X162303Y87500I0J-3051D01*
G01*
X177165Y26575D02*
G03*
X176181Y27559I-984J0D01*
G01*
X173228Y29528D02*
G03*
X175197Y27559I1969J0D01*
G01*
X173228Y31496D02*
G03*
X171042Y33682I-2186J0D01*
G01*
X153347Y144488D02*
Y144504D01*
X185433Y101969D02*
X190846D01*
X186418Y97047D02*
X190846D01*
X167224Y83268D02*
Y88484D01*
X172145Y104627D02*
Y130512D01*
X162303Y83268D02*
Y87500D01*
X175197Y27559D02*
X176181D01*
X173228Y29528D02*
Y31496D01*
X169784Y33682D02*
X171042D01*
D65*
X92738Y183289D02*
G03*
X92520Y183071I0J-219D01*
G01*
X15085Y72038D02*
Y81093D01*
X181197Y185039D02*
Y232283D01*
X173323Y208661D02*
Y232283D01*
X165449Y208661D02*
Y232283D01*
X157575Y208661D02*
Y232283D01*
X149701Y208661D02*
Y232283D01*
X141827Y208661D02*
Y232283D01*
X133953Y208661D02*
Y232283D01*
X126079Y208661D02*
Y232283D01*
X118205Y208661D02*
Y232283D01*
X110331Y208661D02*
Y232283D01*
X39173Y183071D02*
X45276D01*
X92738Y183289D02*
X126390D01*
X14967Y51394D02*
Y64613D01*
Y37354D02*
Y43913D01*
X14827Y37354D02*
X14967D01*
X5705Y29774D02*
X14827D01*
Y37354D01*
D66*
X181496Y163189D02*
G03*
X181102Y163583I-394J0D01*
G01*
Y179134D02*
X181197Y179228D01*
Y185039D01*
X181102Y171063D02*
Y179134D01*
X181496Y147539D02*
Y163189D01*
D67*
Y140059D02*
X181988Y139567D01*
Y130512D02*
Y139567D01*
Y130512D02*
X181988Y130512D01*
D68*
X14937Y64613D02*
X14967D01*
D69*
X155512Y116142D02*
D03*
X167323Y49213D02*
D03*
X186024Y27559D02*
D03*
X137795Y74803D02*
D03*
X46260Y29528D02*
D03*
Y21654D02*
D03*
Y13780D02*
D03*
Y5906D02*
D03*
X43307Y35433D02*
D03*
X35433D02*
D03*
X27559D02*
D03*
X174213Y187992D02*
D03*
X166339D02*
D03*
X158465D02*
D03*
X150591D02*
D03*
X142717D02*
D03*
X175197Y181271D02*
D03*
Y174522D02*
D03*
Y167773D02*
D03*
Y161024D02*
D03*
X159449Y116142D02*
D03*
X37402Y129921D02*
D03*
X43307D02*
D03*
X177559Y110138D02*
D03*
X141732Y130905D02*
D03*
X34449Y70866D02*
D03*
Y102362D02*
D03*
X183465Y112106D02*
D03*
X141732Y133858D02*
D03*
X153543Y122047D02*
D03*
X42323Y142717D02*
D03*
X110331Y208661D02*
D03*
Y232283D02*
D03*
X118205Y208661D02*
D03*
Y232283D02*
D03*
X126079Y208661D02*
D03*
Y232283D02*
D03*
X133953Y208661D02*
D03*
Y232283D02*
D03*
X141827Y208661D02*
D03*
Y232283D02*
D03*
X149701Y208661D02*
D03*
Y232283D02*
D03*
X157575Y208661D02*
D03*
Y232283D02*
D03*
X165449Y208661D02*
D03*
Y232283D02*
D03*
X173323D02*
D03*
Y208661D02*
D03*
X181197Y232283D02*
D03*
X47244Y45276D02*
D03*
X183071Y104331D02*
D03*
X163969Y32917D02*
D03*
X163386Y98425D02*
D03*
X183465Y108169D02*
D03*
X141732Y127953D02*
D03*
X3937Y110236D02*
D03*
X39370D02*
D03*
X157480Y120079D02*
D03*
Y167323D02*
D03*
X183071Y100394D02*
D03*
X175197Y58071D02*
D03*
X169543D02*
D03*
X175197Y72835D02*
D03*
X179134Y13780D02*
D03*
X155905Y161319D02*
D03*
X159369Y33016D02*
D03*
X159449Y94488D02*
D03*
X153937Y169193D02*
D03*
X171260Y92520D02*
D03*
X159843Y175098D02*
D03*
X172244Y104528D02*
D03*
X165354Y90551D02*
D03*
D70*
X92520Y183071D02*
D03*
X45276D02*
D03*
M02*
