G04*
G04 #@! TF.GenerationSoftware,Altium Limited,Altium Designer,25.8.1 (18)*
G04*
G04 Layer_Color=16711935*
%FSLAX25Y25*%
%MOIN*%
G70*
G04*
G04 #@! TF.SameCoordinates,A86E57CF-C6E6-4710-AEDF-4A901DF70E31*
G04*
G04*
G04 #@! TF.FilePolarity,Positive*
G04*
G01*
G75*
%ADD77R,0.45276X0.33858*%
%ADD78R,0.15800X0.09500*%
G36*
X185039Y142618D02*
X177953D01*
Y144981D01*
X185039D01*
Y142618D01*
D02*
G37*
G36*
X18628Y67116D02*
X11541D01*
Y69479D01*
X18628D01*
Y67116D01*
D02*
G37*
G36*
X12348Y54410D02*
X9986D01*
Y61497D01*
X12348D01*
Y54410D01*
D02*
G37*
G36*
X18511Y46472D02*
X11424D01*
Y48835D01*
X18511D01*
Y46472D01*
D02*
G37*
G36*
X19748Y33810D02*
X17386D01*
Y40897D01*
X19748D01*
Y33810D01*
D02*
G37*
G36*
X196850Y188976D02*
X0D01*
Y208661D01*
Y236221D01*
X196850D01*
Y188976D01*
D02*
G37*
G36*
X34646Y179528D02*
X32283D01*
Y186614D01*
X34646D01*
Y179528D01*
D02*
G37*
G36*
X186221Y175591D02*
X183858D01*
Y182677D01*
X186221D01*
Y175591D01*
D02*
G37*
G36*
X184646Y166142D02*
X177559D01*
Y168504D01*
X184646D01*
Y166142D01*
D02*
G37*
G36*
X178347Y151969D02*
X175984D01*
Y159055D01*
X178347D01*
Y151969D01*
D02*
G37*
D77*
X22638Y16929D02*
D03*
D78*
X160669Y34767D02*
D03*
M02*
