G04*
G04 #@! TF.GenerationSoftware,Altium Limited,Altium Designer,25.5.2 (35)*
G04*
G04 Layer_Color=32896*
%FSLAX25Y25*%
%MOIN*%
G70*
G04*
G04 #@! TF.SameCoordinates,0BB90384-501E-406B-A6C2-AE9EDDEAC3CB*
G04*
G04*
G04 #@! TF.FilePolarity,Positive*
G04*
G01*
G75*
%ADD13C,0.00787*%
%ADD14C,0.00394*%
%ADD16C,0.01000*%
%ADD18C,0.00315*%
D13*
X145307Y130968D02*
X149638D01*
X42600Y42100D02*
Y46431D01*
X163023Y130968D02*
X167354D01*
X67455Y168373D02*
X66930Y168898D01*
Y169948D01*
X67455Y170473D01*
X67980D01*
X68504Y169948D01*
Y168898D01*
X69029Y168373D01*
X69554D01*
X70079Y168898D01*
Y169948D01*
X69554Y170473D01*
X70079Y166799D02*
Y165750D01*
X69554Y165225D01*
X68504D01*
X67980Y165750D01*
Y166799D01*
X68504Y167324D01*
X69554D01*
X70079Y166799D01*
Y164175D02*
Y163126D01*
Y163651D01*
X66930D01*
Y164175D01*
X67980Y161027D02*
Y159977D01*
X68504Y159452D01*
X70079D01*
Y161027D01*
X69554Y161551D01*
X69029Y161027D01*
Y159452D01*
X67980Y158403D02*
X70079D01*
X69029D01*
X68504Y157878D01*
X67980Y157353D01*
Y156828D01*
X70079Y152106D02*
X66930D01*
Y150531D01*
X67455Y150007D01*
X68504D01*
X69029Y150531D01*
Y152106D01*
X66930Y148957D02*
X70079D01*
X69029Y147907D01*
X70079Y146858D01*
X66930D01*
X70079Y145808D02*
X66930D01*
Y144234D01*
X67455Y143709D01*
X68504D01*
X69029Y144234D01*
Y145808D01*
Y144759D02*
X70079Y143709D01*
X68504Y139511D02*
Y137412D01*
X67455Y138462D02*
X69554D01*
X114699Y168373D02*
X114174Y168898D01*
Y169948D01*
X114699Y170473D01*
X115224D01*
X115749Y169948D01*
Y168898D01*
X116273Y168373D01*
X116798D01*
X117323Y168898D01*
Y169948D01*
X116798Y170473D01*
X117323Y166799D02*
Y165750D01*
X116798Y165225D01*
X115749D01*
X115224Y165750D01*
Y166799D01*
X115749Y167324D01*
X116798D01*
X117323Y166799D01*
Y164175D02*
Y163126D01*
Y163651D01*
X114174D01*
Y164175D01*
X115224Y161027D02*
Y159977D01*
X115749Y159452D01*
X117323D01*
Y161027D01*
X116798Y161551D01*
X116273Y161027D01*
Y159452D01*
X115224Y158403D02*
X117323D01*
X116273D01*
X115749Y157878D01*
X115224Y157353D01*
Y156828D01*
X117323Y152106D02*
X114174D01*
Y150531D01*
X114699Y150007D01*
X115749D01*
X116273Y150531D01*
Y152106D01*
X114174Y148957D02*
X117323D01*
X116273Y147907D01*
X117323Y146858D01*
X114174D01*
X117323Y145808D02*
X114174D01*
Y144234D01*
X114699Y143709D01*
X115749D01*
X116273Y144234D01*
Y145808D01*
Y144759D02*
X117323Y143709D01*
X115749Y139511D02*
Y137412D01*
D14*
X84646Y104331D02*
X110236D01*
X61024Y57087D02*
X84646D01*
X61024Y51181D02*
X84646D01*
X91535Y43307D02*
X95472Y47244D01*
X91535Y43307D02*
X103347D01*
X91535D02*
X95472Y39370D01*
X103347Y55118D02*
X107283Y51181D01*
X99410D02*
X103347Y55118D01*
Y43307D02*
Y55118D01*
X53150Y173228D02*
X70866D01*
Y181102D01*
X114173Y173228D02*
X131890D01*
X114173D02*
Y181102D01*
X23100Y42000D02*
Y47000D01*
X29500D01*
D16*
X49126Y4817D02*
Y24502D01*
X135740Y4817D02*
Y24502D01*
X49126D02*
X135740D01*
X49126Y4817D02*
X135740D01*
X71400Y12168D02*
X70400Y11169D01*
X68401D01*
X67401Y12168D01*
Y16167D01*
X68401Y17167D01*
X70400D01*
X71400Y16167D01*
Y14168D01*
X69401D01*
X73399Y17167D02*
X75398D01*
X74399D01*
Y11169D01*
X73399D01*
X78398Y13168D02*
Y16167D01*
X79397Y17167D01*
X82396D01*
Y13168D01*
X87395Y17167D02*
X85395D01*
X84396Y16167D01*
Y14168D01*
X85395Y13168D01*
X87395D01*
X88394Y14168D01*
Y15168D01*
X84396D01*
X96392Y11169D02*
Y17167D01*
Y14168D01*
X100390D01*
Y11169D01*
Y17167D01*
X105389D02*
X103390D01*
X102390Y16167D01*
Y14168D01*
X103390Y13168D01*
X105389D01*
X106388Y14168D01*
Y15168D01*
X102390D01*
X108388Y13168D02*
Y17167D01*
Y15168D01*
X109388Y14168D01*
X110387Y13168D01*
X111387D01*
X117385Y17167D02*
X115386D01*
X114386Y16167D01*
Y14168D01*
X115386Y13168D01*
X117385D01*
X118385Y14168D01*
Y15168D01*
X114386D01*
D18*
X108609Y88569D02*
X108937Y88897D01*
X109593D01*
X109921Y88569D01*
Y87257D01*
X109593Y86929D01*
X108937D01*
X108609Y87257D01*
X107953Y86929D02*
X107298D01*
X107625D01*
Y88897D01*
X107953D01*
X105985Y86929D02*
X105330D01*
X105002Y87257D01*
Y87913D01*
X105330Y88241D01*
X105985D01*
X106314Y87913D01*
Y87257D01*
X105985Y86929D01*
X103034Y88241D02*
X104018D01*
X104346Y87913D01*
Y87257D01*
X104018Y86929D01*
X103034D01*
X102378D02*
Y88897D01*
Y87585D02*
X101394Y88241D01*
X102378Y87585D02*
X101394Y86929D01*
X98442Y88897D02*
X97130D01*
X97786D01*
Y86929D01*
X96474Y88241D02*
Y86929D01*
Y87585D01*
X96146Y87913D01*
X95818Y88241D01*
X95490D01*
X94178D02*
X93522D01*
X93194Y87913D01*
Y86929D01*
X94178D01*
X94506Y87257D01*
X94178Y87585D01*
X93194D01*
X91227Y88241D02*
X92211D01*
X92538Y87913D01*
Y87257D01*
X92211Y86929D01*
X91227D01*
X89587D02*
X90243D01*
X90571Y87257D01*
Y87913D01*
X90243Y88241D01*
X89587D01*
X89259Y87913D01*
Y87585D01*
X90571D01*
X88603Y86929D02*
X87619D01*
X87291Y87257D01*
X87619Y87585D01*
X88275D01*
X88603Y87913D01*
X88275Y88241D01*
X87291D01*
X84667Y88897D02*
Y86929D01*
X84011Y87585D01*
X83355Y86929D01*
Y88897D01*
X82699Y86929D02*
X82043D01*
X82371D01*
Y88241D01*
X82699D01*
X79747Y88897D02*
Y86929D01*
X80731D01*
X81059Y87257D01*
Y87913D01*
X80731Y88241D01*
X79747D01*
X78108Y86929D02*
X78764D01*
X79091Y87257D01*
Y87913D01*
X78764Y88241D01*
X78108D01*
X77780Y87913D01*
Y87585D01*
X79091D01*
X77124Y86929D02*
Y88241D01*
X76140D01*
X75812Y87913D01*
Y86929D01*
X74172D02*
X74828D01*
X75156Y87257D01*
Y87913D01*
X74828Y88241D01*
X74172D01*
X73844Y87913D01*
Y87585D01*
X75156D01*
X71876Y88897D02*
Y86929D01*
X72860D01*
X73188Y87257D01*
Y87913D01*
X72860Y88241D01*
X71876D01*
X109921Y92834D02*
Y90866D01*
X108609D01*
X107625D02*
X106969D01*
X106641Y91194D01*
Y91850D01*
X106969Y92178D01*
X107625D01*
X107953Y91850D01*
Y91194D01*
X107625Y90866D01*
X105985D02*
Y92834D01*
X105002D01*
X104674Y92506D01*
Y91850D01*
X105002Y91522D01*
X105985D01*
X105330D02*
X104674Y90866D01*
X103690Y92178D02*
X103034D01*
X102706Y91850D01*
Y90866D01*
X103690D01*
X104018Y91194D01*
X103690Y91522D01*
X102706D01*
X100082Y90866D02*
Y92178D01*
X99426Y92834D01*
X98770Y92178D01*
Y90866D01*
Y91850D01*
X100082D01*
X98114Y90866D02*
Y92178D01*
X97130D01*
X96802Y91850D01*
Y90866D01*
X95818Y92506D02*
Y92178D01*
X96146D01*
X95490D01*
X95818D01*
Y91194D01*
X95490Y90866D01*
X93522D02*
X94178D01*
X94506Y91194D01*
Y91850D01*
X94178Y92178D01*
X93522D01*
X93194Y91850D01*
Y91522D01*
X94506D01*
X92538Y90866D02*
Y92178D01*
X91555D01*
X91227Y91850D01*
Y90866D01*
X90571D02*
Y92178D01*
X89587D01*
X89259Y91850D01*
Y90866D01*
X88275Y92178D02*
X87619D01*
X87291Y91850D01*
Y90866D01*
X88275D01*
X88603Y91194D01*
X88275Y91522D01*
X87291D01*
X84667Y92834D02*
Y91194D01*
X84339Y90866D01*
X83683D01*
X83355Y91194D01*
Y92834D01*
X82699Y90866D02*
Y92178D01*
X81715D01*
X81387Y91850D01*
Y90866D01*
X80403Y92506D02*
Y92178D01*
X80731D01*
X80075D01*
X80403D01*
Y91194D01*
X80075Y90866D01*
X78108D02*
X78764D01*
X79091Y91194D01*
Y91850D01*
X78764Y92178D01*
X78108D01*
X77780Y91850D01*
Y91522D01*
X79091D01*
X77124Y90866D02*
Y92178D01*
X76140D01*
X75812Y91850D01*
Y90866D01*
X74828Y92506D02*
Y92178D01*
X75156D01*
X74500D01*
X74828D01*
Y91194D01*
X74500Y90866D01*
X72532D02*
X73188D01*
X73516Y91194D01*
Y91850D01*
X73188Y92178D01*
X72532D01*
X72204Y91850D01*
Y91522D01*
X73516D01*
X70236Y92834D02*
Y90866D01*
X71220D01*
X71548Y91194D01*
Y91850D01*
X71220Y92178D01*
X70236D01*
X108609Y97099D02*
X108937Y97427D01*
X109593D01*
X109921Y97099D01*
Y96771D01*
X109593Y96443D01*
X108937D01*
X108609Y96115D01*
Y95787D01*
X108937Y95459D01*
X109593D01*
X109921Y95787D01*
X107953Y95459D02*
X107298D01*
X107625D01*
Y96771D01*
X107953D01*
X106314Y95459D02*
X105658D01*
X105985D01*
Y97427D01*
X106314D01*
X104674Y95459D02*
Y97427D01*
Y96115D02*
X103690Y96771D01*
X104674Y96115D02*
X103690Y95459D01*
X100738D02*
Y96771D01*
X100082Y97427D01*
X99426Y96771D01*
Y95459D01*
Y96443D01*
X100738D01*
X97458Y97427D02*
Y95459D01*
X98442D01*
X98770Y95787D01*
Y96443D01*
X98442Y96771D01*
X97458D01*
X96802Y94803D02*
X96474D01*
X96146Y95131D01*
Y96771D01*
X94834D02*
Y95787D01*
X94506Y95459D01*
X93522D01*
Y96771D01*
X92866Y95459D02*
X91882D01*
X91554Y95787D01*
X91882Y96115D01*
X92538D01*
X92866Y96443D01*
X92538Y96771D01*
X91554D01*
X90571Y97099D02*
Y96771D01*
X90899D01*
X90243D01*
X90571D01*
Y95787D01*
X90243Y95459D01*
X88275D02*
X88931D01*
X89259Y95787D01*
Y96443D01*
X88931Y96771D01*
X88275D01*
X87947Y96443D01*
Y96115D01*
X89259D01*
X85979Y97427D02*
Y95459D01*
X86963D01*
X87291Y95787D01*
Y96443D01*
X86963Y96771D01*
X85979D01*
X83027Y95459D02*
X82371D01*
X82043Y95787D01*
Y96443D01*
X82371Y96771D01*
X83027D01*
X83355Y96443D01*
Y95787D01*
X83027Y95459D01*
X81387D02*
Y96771D01*
X80403D01*
X80075Y96443D01*
Y95459D01*
X77451Y97427D02*
Y95459D01*
X76140D01*
X74172Y97427D02*
X74828Y97099D01*
X75484Y96443D01*
Y95787D01*
X75156Y95459D01*
X74500D01*
X74172Y95787D01*
Y96115D01*
X74500Y96443D01*
X75484D01*
X73516Y95787D02*
X73188Y95459D01*
X72532D01*
X72204Y95787D01*
Y97099D01*
X72532Y97427D01*
X73188D01*
X73516Y97099D01*
Y96771D01*
X73188Y96443D01*
X72204D01*
X70236Y95459D02*
X71548D01*
X70236Y96771D01*
Y97099D01*
X70564Y97427D01*
X71220D01*
X71548Y97099D01*
X69580D02*
X69252Y97427D01*
X68596D01*
X68268Y97099D01*
Y95787D01*
X68596Y95459D01*
X69252D01*
X69580Y95787D01*
Y97099D01*
X108609Y101036D02*
X108937Y101364D01*
X109593D01*
X109921Y101036D01*
Y100708D01*
X109593Y100380D01*
X108937D01*
X108609Y100052D01*
Y99724D01*
X108937Y99396D01*
X109593D01*
X109921Y99724D01*
X106969Y99396D02*
X107625D01*
X107953Y99724D01*
Y100380D01*
X107625Y100708D01*
X106969D01*
X106641Y100380D01*
Y100052D01*
X107953D01*
X105985Y100708D02*
Y99396D01*
Y100052D01*
X105658Y100380D01*
X105330Y100708D01*
X105002D01*
X104018Y99396D02*
X103362D01*
X103690D01*
Y100708D01*
X104018D01*
X102050D02*
X101394D01*
X101066Y100380D01*
Y99396D01*
X102050D01*
X102378Y99724D01*
X102050Y100052D01*
X101066D01*
X100410Y99396D02*
X99754D01*
X100082D01*
Y101364D01*
X100410D01*
X96802Y99396D02*
Y101364D01*
X95818D01*
X95490Y101036D01*
Y100380D01*
X95818Y100052D01*
X96802D01*
X94834Y99396D02*
X94178D01*
X94506D01*
Y100708D01*
X94834D01*
X93194Y99396D02*
Y100708D01*
X92211D01*
X91882Y100380D01*
Y99396D01*
X91227D02*
X90243D01*
X89915Y99724D01*
X90243Y100052D01*
X90899D01*
X91227Y100380D01*
X90899Y100708D01*
X89915D01*
X85979Y101036D02*
X86307Y101364D01*
X86963D01*
X87291Y101036D01*
Y100708D01*
X86963Y100380D01*
X86307D01*
X85979Y100052D01*
Y99724D01*
X86307Y99396D01*
X86963D01*
X87291Y99724D01*
X85323Y100708D02*
Y99724D01*
X84995Y99396D01*
X84667Y99724D01*
X84339Y99396D01*
X84011Y99724D01*
Y100708D01*
X83027D02*
X82371D01*
X82043Y100380D01*
Y99396D01*
X83027D01*
X83355Y99724D01*
X83027Y100052D01*
X82043D01*
X81387Y98740D02*
Y100708D01*
X80403D01*
X80075Y100380D01*
Y99724D01*
X80403Y99396D01*
X81387D01*
X79419Y98740D02*
Y100708D01*
X78435D01*
X78108Y100380D01*
Y99724D01*
X78435Y99396D01*
X79419D01*
X76468D02*
X77124D01*
X77451Y99724D01*
Y100380D01*
X77124Y100708D01*
X76468D01*
X76140Y100380D01*
Y100052D01*
X77451D01*
X74172Y101364D02*
Y99396D01*
X75156D01*
X75484Y99724D01*
Y100380D01*
X75156Y100708D01*
X74172D01*
X109921Y106614D02*
Y108582D01*
X108937D01*
X108609Y108254D01*
Y107598D01*
X108937Y107270D01*
X109921D01*
X109265D02*
X108609Y106614D01*
X106969D02*
X107625D01*
X107953Y106942D01*
Y107598D01*
X107625Y107926D01*
X106969D01*
X106641Y107598D01*
Y107270D01*
X107953D01*
X105985Y107926D02*
X105330Y106614D01*
X104674Y107926D01*
X100738Y106614D02*
X102050D01*
X100738Y107926D01*
Y108254D01*
X101066Y108582D01*
X101722D01*
X102050Y108254D01*
X96802Y108582D02*
X97458D01*
X97130D01*
Y106942D01*
X97458Y106614D01*
X97786D01*
X98114Y106942D01*
X96146Y107926D02*
Y106942D01*
X95818Y106614D01*
X94834D01*
Y107926D01*
X94178Y106614D02*
Y107926D01*
X93194D01*
X92866Y107598D01*
Y106614D01*
X91227D02*
X91882D01*
X92211Y106942D01*
Y107598D01*
X91882Y107926D01*
X91227D01*
X90899Y107598D01*
Y107270D01*
X92211D01*
X86963Y106614D02*
X88275D01*
X86963Y107926D01*
Y108254D01*
X87291Y108582D01*
X87947D01*
X88275Y108254D01*
X86307D02*
X85979Y108582D01*
X85323D01*
X84995Y108254D01*
Y107926D01*
X85323Y107598D01*
X85651D01*
X85323D01*
X84995Y107270D01*
Y106942D01*
X85323Y106614D01*
X85979D01*
X86307Y106942D01*
X108937Y61338D02*
Y59370D01*
X107953D01*
X107625Y59698D01*
Y60026D01*
X107953Y60354D01*
X108937D01*
X107953D01*
X107625Y60682D01*
Y61010D01*
X107953Y61338D01*
X108937D01*
X105985D02*
X106641D01*
X106969Y61010D01*
Y59698D01*
X106641Y59370D01*
X105985D01*
X105657Y59698D01*
Y61010D01*
X105985Y61338D01*
X105001Y59370D02*
Y60682D01*
X104345Y61338D01*
X103689Y60682D01*
Y59370D01*
Y60354D01*
X105001D01*
X103033Y59370D02*
Y61338D01*
X102050D01*
X101722Y61010D01*
Y60354D01*
X102050Y60026D01*
X103033D01*
X102377D02*
X101722Y59370D01*
X101066Y61338D02*
Y59370D01*
X100082D01*
X99754Y59698D01*
Y61010D01*
X100082Y61338D01*
X101066D01*
X95818Y61010D02*
X96146Y61338D01*
X96802D01*
X97130Y61010D01*
Y60682D01*
X96802Y60354D01*
X96146D01*
X95818Y60026D01*
Y59698D01*
X96146Y59370D01*
X96802D01*
X97130Y59698D01*
X95162Y61338D02*
X94506D01*
X94834D01*
Y59370D01*
X95162D01*
X94506D01*
X93522Y61338D02*
X92210D01*
Y61010D01*
X93522Y59698D01*
Y59370D01*
X92210D01*
X90242Y61338D02*
X91554D01*
Y59370D01*
X90242D01*
X91554Y60354D02*
X90898D01*
X89586Y60682D02*
X89258D01*
Y60354D01*
X89586D01*
Y60682D01*
Y59698D02*
X89258D01*
Y59370D01*
X89586D01*
Y59698D01*
X85979Y61338D02*
Y59370D01*
Y60354D01*
X84667D01*
Y61338D01*
Y59370D01*
X82043Y60026D02*
X80731D01*
X82043Y60682D02*
X80731D01*
X76795Y61338D02*
X78107D01*
Y60354D01*
X77451Y60682D01*
X77123D01*
X76795Y60354D01*
Y59698D01*
X77123Y59370D01*
X77779D01*
X78107Y59698D01*
X76139Y61010D02*
X75811Y61338D01*
X75155D01*
X74827Y61010D01*
Y59698D01*
X75155Y59370D01*
X75811D01*
X76139Y59698D01*
Y61010D01*
X108937Y65275D02*
Y63307D01*
X107953D01*
X107625Y63635D01*
Y63963D01*
X107953Y64291D01*
X108937D01*
X107953D01*
X107625Y64619D01*
Y64947D01*
X107953Y65275D01*
X108937D01*
X105985D02*
X106641D01*
X106969Y64947D01*
Y63635D01*
X106641Y63307D01*
X105985D01*
X105657Y63635D01*
Y64947D01*
X105985Y65275D01*
X105001Y63307D02*
Y64619D01*
X104345Y65275D01*
X103689Y64619D01*
Y63307D01*
Y64291D01*
X105001D01*
X103033Y63307D02*
Y65275D01*
X102050D01*
X101722Y64947D01*
Y64291D01*
X102050Y63963D01*
X103033D01*
X102377D02*
X101722Y63307D01*
X101066Y65275D02*
Y63307D01*
X100082D01*
X99754Y63635D01*
Y64947D01*
X100082Y65275D01*
X101066D01*
X95818Y64947D02*
X96146Y65275D01*
X96802D01*
X97130Y64947D01*
Y64619D01*
X96802Y64291D01*
X96146D01*
X95818Y63963D01*
Y63635D01*
X96146Y63307D01*
X96802D01*
X97130Y63635D01*
X95162Y65275D02*
X94506D01*
X94834D01*
Y63307D01*
X95162D01*
X94506D01*
X93522Y65275D02*
X92210D01*
Y64947D01*
X93522Y63635D01*
Y63307D01*
X92210D01*
X90242Y65275D02*
X91554D01*
Y63307D01*
X90242D01*
X91554Y64291D02*
X90898D01*
X89586Y64619D02*
X89258D01*
Y64291D01*
X89586D01*
Y64619D01*
Y63635D02*
X89258D01*
Y63307D01*
X89586D01*
Y63635D01*
X85979Y65275D02*
Y63307D01*
X85323Y63963D01*
X84667Y63307D01*
Y65275D01*
X82043Y63963D02*
X80731D01*
X82043Y64619D02*
X80731D01*
X76795Y65275D02*
X78107D01*
Y64291D01*
X77451Y64619D01*
X77123D01*
X76795Y64291D01*
Y63635D01*
X77123Y63307D01*
X77779D01*
X78107Y63635D01*
X76139Y64947D02*
X75811Y65275D01*
X75155D01*
X74827Y64947D01*
Y63635D01*
X75155Y63307D01*
X75811D01*
X76139Y63635D01*
Y64947D01*
X84331Y49527D02*
Y47559D01*
X83675Y48215D01*
X83019Y47559D01*
Y49527D01*
X82363D02*
X81707D01*
X82035D01*
Y47559D01*
X82363D01*
X81707D01*
X79739Y49527D02*
X80395D01*
X80723Y49199D01*
Y47887D01*
X80395Y47559D01*
X79739D01*
X79411Y47887D01*
Y49199D01*
X79739Y49527D01*
X75475D02*
X76787D01*
Y47559D01*
X75475D01*
X76787Y48543D02*
X76131D01*
X74819D02*
X73507D01*
X71540Y49527D02*
X72852D01*
Y48543D01*
X72196Y48871D01*
X71868D01*
X71540Y48543D01*
Y47887D01*
X71868Y47559D01*
X72523D01*
X72852Y47887D01*
X84331Y53465D02*
Y55432D01*
X83347D01*
X83019Y55104D01*
Y54448D01*
X83347Y54120D01*
X84331D01*
X82363Y55432D02*
X81051D01*
X81707D01*
Y53465D01*
X84331Y29842D02*
Y27874D01*
X83019D01*
X81051Y29842D02*
X81707Y29514D01*
X82363Y28858D01*
Y28202D01*
X82035Y27874D01*
X81379D01*
X81051Y28202D01*
Y28530D01*
X81379Y28858D01*
X82363D01*
X80395Y28202D02*
X80067Y27874D01*
X79411D01*
X79083Y28202D01*
Y29514D01*
X79411Y29842D01*
X80067D01*
X80395Y29514D01*
Y29186D01*
X80067Y28858D01*
X79083D01*
X77115Y27874D02*
X78427D01*
X77115Y29186D01*
Y29514D01*
X77443Y29842D01*
X78099D01*
X78427Y29514D01*
X76459D02*
X76131Y29842D01*
X75475D01*
X75147Y29514D01*
Y28202D01*
X75475Y27874D01*
X76131D01*
X76459Y28202D01*
Y29514D01*
X74491Y29842D02*
Y27874D01*
X73507D01*
X73180Y28202D01*
Y29514D01*
X73507Y29842D01*
X74491D01*
X72524D02*
Y27874D01*
X71540D01*
X71212Y28202D01*
Y28530D01*
X71540Y28858D01*
X72524D01*
X71540D01*
X71212Y29186D01*
Y29514D01*
X71540Y29842D01*
X72524D01*
X70556D02*
X69244D01*
X69900D01*
Y27874D01*
X68588D02*
Y29842D01*
X67604D01*
X67276Y29514D01*
Y28858D01*
X67604Y28530D01*
X68588D01*
X67932D02*
X67276Y27874D01*
X84331Y33779D02*
Y31811D01*
X83675Y32467D01*
X83019Y31811D01*
Y33779D01*
X81051Y31811D02*
X82363D01*
X81051Y33123D01*
Y33451D01*
X81379Y33779D01*
X82035D01*
X82363Y33451D01*
X79083Y33779D02*
X80395D01*
Y32795D01*
X79739Y33123D01*
X79411D01*
X79083Y32795D01*
Y32139D01*
X79411Y31811D01*
X80067D01*
X80395Y32139D01*
X77115D02*
Y33451D01*
X77443Y33779D01*
X78099D01*
X78427Y33451D01*
Y32139D01*
X78099Y31811D01*
X77443D01*
X77771Y32467D02*
X77115Y31811D01*
X77443D02*
X77115Y32139D01*
X76459Y31811D02*
X75803D01*
X76131D01*
Y33779D01*
X76459Y33451D01*
X73507Y33779D02*
X74163Y33451D01*
X74819Y32795D01*
Y32139D01*
X74491Y31811D01*
X73835D01*
X73507Y32139D01*
Y32467D01*
X73835Y32795D01*
X74819D01*
X71540Y33779D02*
X72196D01*
X71868D01*
Y32139D01*
X72196Y31811D01*
X72523D01*
X72852Y32139D01*
X70884Y33779D02*
Y32467D01*
X70228Y31811D01*
X69572Y32467D01*
Y33779D01*
X67604Y33451D02*
X67932Y33779D01*
X68588D01*
X68916Y33451D01*
Y33123D01*
X68588Y32795D01*
X67932D01*
X67604Y32467D01*
Y32139D01*
X67932Y31811D01*
X68588D01*
X68916Y32139D01*
X66948Y31811D02*
Y33779D01*
X65636Y31811D01*
Y33779D01*
X64980D02*
X64324D01*
X64652D01*
Y31811D01*
X64980D01*
X64324D01*
X62028Y32139D02*
Y33451D01*
X62356Y33779D01*
X63012D01*
X63340Y33451D01*
Y32139D01*
X63012Y31811D01*
X62356D01*
X62684Y32467D02*
X62028Y31811D01*
X62356D02*
X62028Y32139D01*
X84331Y37716D02*
Y35748D01*
X83347D01*
X83019Y36076D01*
Y36404D01*
X83347Y36732D01*
X84331D01*
X83347D01*
X83019Y37060D01*
Y37388D01*
X83347Y37716D01*
X84331D01*
X82363Y35748D02*
Y37716D01*
X81051Y35748D01*
Y37716D01*
X79411D02*
X80067D01*
X80395Y37388D01*
Y36076D01*
X80067Y35748D01*
X79411D01*
X79083Y36076D01*
Y37388D01*
X79411Y37716D01*
X78427Y37388D02*
X78099Y37716D01*
X77443D01*
X77115Y37388D01*
Y36076D01*
X77443Y35748D01*
X78099D01*
X78427Y36076D01*
Y37388D01*
X76459D02*
X76131Y37716D01*
X75475D01*
X75147Y37388D01*
Y37060D01*
X75475Y36732D01*
X75147Y36404D01*
Y36076D01*
X75475Y35748D01*
X76131D01*
X76459Y36076D01*
Y36404D01*
X76131Y36732D01*
X76459Y37060D01*
Y37388D01*
X76131Y36732D02*
X75475D01*
X73180Y37716D02*
X74491D01*
Y36732D01*
X73835Y37060D01*
X73507D01*
X73180Y36732D01*
Y36076D01*
X73507Y35748D01*
X74163D01*
X74491Y36076D01*
X84331Y39685D02*
Y41653D01*
X83675Y40997D01*
X83019Y41653D01*
Y39685D01*
X82363D02*
Y40997D01*
X81707Y41653D01*
X81051Y40997D01*
Y39685D01*
Y40669D01*
X82363D01*
X80395Y41653D02*
X79083Y39685D01*
Y41653D02*
X80395Y39685D01*
X76459D02*
Y41653D01*
X75803Y40997D01*
X75147Y41653D01*
Y39685D01*
X74491D02*
X73835D01*
X74163D01*
Y41653D01*
X74491Y41325D01*
X72852D02*
X72523Y41653D01*
X71868D01*
X71540Y41325D01*
Y40013D01*
X71868Y39685D01*
X72523D01*
X72852Y40013D01*
Y41325D01*
X70884Y40669D02*
X69572D01*
X67604Y41325D02*
X67932Y41653D01*
X68588D01*
X68916Y41325D01*
Y40997D01*
X68588Y40669D01*
X67932D01*
X67604Y40341D01*
Y40013D01*
X67932Y39685D01*
X68588D01*
X68916Y40013D01*
X99094Y41653D02*
Y39685D01*
Y40669D01*
X97783D01*
Y41653D01*
Y39685D01*
X106968Y49527D02*
Y47559D01*
X106313Y48215D01*
X105657Y47559D01*
Y49527D01*
X84331Y45590D02*
Y43622D01*
X83347D01*
X83019Y43950D01*
Y44278D01*
X83347Y44606D01*
X84331D01*
X83347D01*
X83019Y44934D01*
Y45262D01*
X83347Y45590D01*
X84331D01*
X82363Y43622D02*
Y45590D01*
X81707Y44934D01*
X81051Y45590D01*
Y43622D01*
X79083Y45590D02*
X80395D01*
Y43622D01*
X79083D01*
X80395Y44606D02*
X79739D01*
X77115Y43622D02*
X78427D01*
X77115Y44934D01*
Y45262D01*
X77443Y45590D01*
X78099D01*
X78427Y45262D01*
X76459D02*
X76131Y45590D01*
X75475D01*
X75147Y45262D01*
Y44934D01*
X75475Y44606D01*
X75147Y44278D01*
Y43950D01*
X75475Y43622D01*
X76131D01*
X76459Y43950D01*
Y44278D01*
X76131Y44606D01*
X76459Y44934D01*
Y45262D01*
X76131Y44606D02*
X75475D01*
X74491Y45262D02*
X74163Y45590D01*
X73507D01*
X73180Y45262D01*
Y43950D01*
X73507Y43622D01*
X74163D01*
X74491Y43950D01*
Y45262D01*
X46385Y44983D02*
Y43015D01*
X45073D01*
X144601Y115062D02*
X145257D01*
X145585Y114734D01*
Y113422D01*
X145257Y113094D01*
X144601D01*
X144273Y113422D01*
Y114734D01*
X144601Y115062D01*
X159791Y115144D02*
X160118Y115472D01*
X160774D01*
X161102Y115144D01*
Y114816D01*
X160774Y114488D01*
X160118D01*
X159791Y114160D01*
Y113832D01*
X160118Y113504D01*
X160774D01*
X161102Y113832D01*
X181893Y43638D02*
Y45606D01*
X180581Y43638D01*
Y45606D01*
X179925Y43638D02*
Y45606D01*
X178941D01*
X178613Y45278D01*
Y44622D01*
X178941Y44294D01*
X179925D01*
X179269D02*
X178613Y43638D01*
X176645Y45278D02*
X176973Y45606D01*
X177629D01*
X177957Y45278D01*
Y44950D01*
X177629Y44622D01*
X176973D01*
X176645Y44294D01*
Y43966D01*
X176973Y43638D01*
X177629D01*
X177957Y43966D01*
X175989Y45606D02*
X174677D01*
X175333D01*
Y43638D01*
X181893Y6236D02*
Y4924D01*
X181237Y4268D01*
X180581Y4924D01*
Y6236D01*
X178613Y5908D02*
X178941Y6236D01*
X179597D01*
X179925Y5908D01*
Y4596D01*
X179597Y4268D01*
X178941D01*
X178613Y4596D01*
X176645Y5908D02*
X176973Y6236D01*
X177629D01*
X177957Y5908D01*
Y4596D01*
X177629Y4268D01*
X176973D01*
X176645Y4596D01*
X180581Y36419D02*
X180909Y36747D01*
X181565D01*
X181893Y36419D01*
Y36091D01*
X181565Y35763D01*
X180909D01*
X180581Y35436D01*
Y35107D01*
X180909Y34780D01*
X181565D01*
X181893Y35107D01*
X179925Y36747D02*
Y34780D01*
X179269Y35436D01*
X178613Y34780D01*
Y36747D01*
X176645Y36419D02*
X176973Y36747D01*
X177629D01*
X177957Y36419D01*
Y35107D01*
X177629Y34780D01*
X176973D01*
X176645Y35107D01*
X175989Y36747D02*
Y34780D01*
X174677D01*
X174021Y36747D02*
Y34780D01*
Y35436D01*
X172710Y36747D01*
X173694Y35763D01*
X172710Y34780D01*
X181893Y54465D02*
Y56432D01*
X180909D01*
X180581Y56104D01*
Y55449D01*
X180909Y55120D01*
X181893D01*
X181237D02*
X180581Y54465D01*
X179925Y56432D02*
X178613Y54465D01*
Y56432D02*
X179925Y54465D01*
X181893Y66275D02*
X180581D01*
X181237D01*
Y64307D01*
X179925Y66275D02*
X178613Y64307D01*
Y66275D02*
X179925Y64307D01*
X181893Y26905D02*
Y24937D01*
X181237Y25593D01*
X180581Y24937D01*
Y26905D01*
X179925D02*
Y24937D01*
X178941D01*
X178613Y25265D01*
Y26577D01*
X178941Y26905D01*
X179925D01*
X177957D02*
X177301D01*
X177629D01*
Y24937D01*
X177957D01*
X177301D01*
X175333Y26905D02*
X175989D01*
X176317Y26577D01*
Y25265D01*
X175989Y24937D01*
X175333D01*
X175005Y25265D01*
Y26577D01*
X175333Y26905D01*
X180581Y75789D02*
X180909Y76117D01*
X181565D01*
X181893Y75789D01*
Y74478D01*
X181565Y74150D01*
X180909D01*
X180581Y74478D01*
Y75134D01*
X181237D01*
X179925Y74150D02*
Y76117D01*
X178613Y74150D01*
Y76117D01*
X177957D02*
Y74150D01*
X176973D01*
X176645Y74478D01*
Y75789D01*
X176973Y76117D01*
X177957D01*
X180581Y15750D02*
X180909Y16078D01*
X181565D01*
X181893Y15750D01*
Y14438D01*
X181565Y14110D01*
X180909D01*
X180581Y14438D01*
Y15094D01*
X181237D01*
X179925Y14110D02*
Y16078D01*
X178613Y14110D01*
Y16078D01*
X177957D02*
Y14110D01*
X176973D01*
X176645Y14438D01*
Y15750D01*
X176973Y16078D01*
X177957D01*
X21076Y43984D02*
X19108D01*
Y43000D01*
X19436Y42672D01*
X20092D01*
X20420Y43000D01*
Y43984D01*
Y43328D02*
X21076Y42672D01*
Y42016D02*
Y41360D01*
Y41688D01*
X19108D01*
X19436Y42016D01*
X19108Y39065D02*
X19436Y39720D01*
X20092Y40376D01*
X20748D01*
X21076Y40049D01*
Y39393D01*
X20748Y39065D01*
X20420D01*
X20092Y39393D01*
Y40376D01*
M02*
