G04*
G04 #@! TF.GenerationSoftware,Altium Limited,Altium Designer,25.5.2 (35)*
G04*
G04 Layer_Color=255*
%FSLAX25Y25*%
%MOIN*%
G70*
G04*
G04 #@! TF.SameCoordinates,0BB90384-501E-406B-A6C2-AE9EDDEAC3CB*
G04*
G04*
G04 #@! TF.FilePolarity,Positive*
G04*
G01*
G75*
%ADD22R,0.02254X0.01438*%
%ADD30R,0.08661X0.04134*%
%ADD31R,0.19685X0.19685*%
%ADD36R,0.19685X0.19685*%
%ADD40R,0.04134X0.03937*%
%ADD59C,0.03543*%
%ADD69O,0.11811X0.06299*%
G04:AMPARAMS|DCode=70|XSize=62.99mil|YSize=118.11mil|CornerRadius=15.75mil|HoleSize=0mil|Usage=FLASHONLY|Rotation=90.000|XOffset=0mil|YOffset=0mil|HoleType=Round|Shape=RoundedRectangle|*
%AMROUNDEDRECTD70*
21,1,0.06299,0.08661,0,0,90.0*
21,1,0.03150,0.11811,0,0,90.0*
1,1,0.03150,0.04331,0.01575*
1,1,0.03150,0.04331,-0.01575*
1,1,0.03150,-0.04331,-0.01575*
1,1,0.03150,-0.04331,0.01575*
%
%ADD70ROUNDEDRECTD70*%
%ADD71R,0.04134X0.08661*%
%ADD72R,0.03937X0.04134*%
D22*
X25492Y40437D02*
D03*
Y44012D02*
D03*
D30*
X38600Y38293D02*
D03*
Y49907D02*
D03*
D31*
X126169Y186183D02*
D03*
D36*
X58429Y186620D02*
D03*
D40*
X32596Y44100D02*
D03*
D59*
X14228Y188600D02*
D03*
X41000D02*
D03*
D69*
X190300Y75100D02*
D03*
Y65100D02*
D03*
Y55100D02*
D03*
Y45100D02*
D03*
Y35100D02*
D03*
Y25100D02*
D03*
Y15100D02*
D03*
D70*
Y5100D02*
D03*
D71*
X153445Y126969D02*
D03*
X141831D02*
D03*
X171161D02*
D03*
X159547D02*
D03*
D72*
X165354Y120965D02*
D03*
X147638D02*
D03*
M02*
