G04*
G04 #@! TF.GenerationSoftware,Altium Limited,Altium Designer,25.5.2 (35)*
G04*
G04 Layer_Color=16711935*
%FSLAX25Y25*%
%MOIN*%
G70*
G04*
G04 #@! TF.SameCoordinates,0BB90384-501E-406B-A6C2-AE9EDDEAC3CB*
G04*
G04*
G04 #@! TF.FilePolarity,Negative*
G04*
G01*
G75*
%ADD22R,0.02254X0.01438*%
%ADD47R,0.09461X0.04934*%
%ADD48R,0.20485X0.20485*%
%ADD53R,0.20485X0.20485*%
%ADD56R,0.04934X0.04737*%
%ADD59C,0.03543*%
%ADD60C,0.02769*%
%ADD73O,0.12611X0.07099*%
G04:AMPARAMS|DCode=74|XSize=70.99mil|YSize=126.11mil|CornerRadius=19.75mil|HoleSize=0mil|Usage=FLASHONLY|Rotation=90.000|XOffset=0mil|YOffset=0mil|HoleType=Round|Shape=RoundedRectangle|*
%AMROUNDEDRECTD74*
21,1,0.07099,0.08661,0,0,90.0*
21,1,0.03150,0.12611,0,0,90.0*
1,1,0.03950,0.04331,0.01575*
1,1,0.03950,0.04331,-0.01575*
1,1,0.03950,-0.04331,-0.01575*
1,1,0.03950,-0.04331,0.01575*
%
%ADD74ROUNDEDRECTD74*%
%ADD75R,0.04934X0.09461*%
%ADD76R,0.04737X0.04934*%
D22*
X25492Y40437D02*
D03*
Y44012D02*
D03*
D47*
X38600Y38293D02*
D03*
Y49907D02*
D03*
D48*
X126169Y186183D02*
D03*
D53*
X58429Y186620D02*
D03*
D56*
X32596Y44100D02*
D03*
D59*
X14228Y188600D02*
D03*
X41000D02*
D03*
D60*
X180400Y185800D02*
D03*
X149813Y143800D02*
D03*
X180400Y150800D02*
D03*
X149813D02*
D03*
X180400Y157800D02*
D03*
X149813D02*
D03*
X180400Y164800D02*
D03*
X149813D02*
D03*
X180400Y171800D02*
D03*
X149813D02*
D03*
X180400Y178800D02*
D03*
X149813D02*
D03*
X180400Y192800D02*
D03*
X149813D02*
D03*
X149900Y185800D02*
D03*
X45800Y2400D02*
D03*
Y12800D02*
D03*
Y23200D02*
D03*
Y36100D02*
D03*
X38300Y54600D02*
D03*
X26800Y37400D02*
D03*
X26500Y54600D02*
D03*
X1900Y54100D02*
D03*
Y40300D02*
D03*
X150591Y135827D02*
D03*
X153543D02*
D03*
X156496D02*
D03*
X159449D02*
D03*
X162402D02*
D03*
X165354D02*
D03*
X168307D02*
D03*
X171260D02*
D03*
X174213D02*
D03*
D73*
X190300Y75100D02*
D03*
Y65100D02*
D03*
Y55100D02*
D03*
Y45100D02*
D03*
Y35100D02*
D03*
Y25100D02*
D03*
Y15100D02*
D03*
D74*
Y5100D02*
D03*
D75*
X153445Y126969D02*
D03*
X141831D02*
D03*
X171161D02*
D03*
X159547D02*
D03*
D76*
X165354Y120965D02*
D03*
X147638D02*
D03*
M02*
