G04*
G04 #@! TF.GenerationSoftware,Altium Limited,Altium Designer,25.5.2 (35)*
G04*
G04 Layer_Color=8388736*
%FSLAX25Y25*%
%MOIN*%
G70*
G04*
G04 #@! TF.SameCoordinates,0BB90384-501E-406B-A6C2-AE9EDDEAC3CB*
G04*
G04*
G04 #@! TF.FilePolarity,Negative*
G04*
G01*
G75*
%ADD19R,0.04724X0.09843*%
%ADD20R,0.02031X0.07694*%
G04:AMPARAMS|DCode=21|XSize=76.94mil|YSize=20.31mil|CornerRadius=10.15mil|HoleSize=0mil|Usage=FLASHONLY|Rotation=90.000|XOffset=0mil|YOffset=0mil|HoleType=Round|Shape=RoundedRectangle|*
%AMROUNDEDRECTD21*
21,1,0.07694,0.00000,0,0,90.0*
21,1,0.05664,0.02031,0,0,90.0*
1,1,0.02031,0.00000,0.02832*
1,1,0.02031,0.00000,-0.02832*
1,1,0.02031,0.00000,-0.02832*
1,1,0.02031,0.00000,0.02832*
%
%ADD21ROUNDEDRECTD21*%
%ADD22R,0.02254X0.01438*%
%ADD23R,0.01968X0.01378*%
%ADD24R,0.01000X0.01900*%
%ADD25R,0.01438X0.02254*%
%ADD27R,0.05750X0.02200*%
%ADD29R,0.01500X0.01000*%
%ADD32R,0.03150X0.03150*%
%ADD37R,0.08503X0.03791*%
%ADD42R,0.03950X0.07100*%
%ADD44R,0.05918X0.07099*%
%ADD45R,0.04343X0.09855*%
%ADD46R,0.03150X0.07087*%
%ADD47R,0.09461X0.04934*%
%ADD48R,0.20485X0.20485*%
%ADD49R,0.02756X0.07087*%
%ADD50R,0.07099X0.05918*%
G04:AMPARAMS|DCode=51|XSize=29.65mil|YSize=27.69mil|CornerRadius=6.46mil|HoleSize=0mil|Usage=FLASHONLY|Rotation=270.000|XOffset=0mil|YOffset=0mil|HoleType=Round|Shape=RoundedRectangle|*
%AMROUNDEDRECTD51*
21,1,0.02965,0.01476,0,0,270.0*
21,1,0.01673,0.02769,0,0,270.0*
1,1,0.01292,-0.00738,-0.00837*
1,1,0.01292,-0.00738,0.00837*
1,1,0.01292,0.00738,0.00837*
1,1,0.01292,0.00738,-0.00837*
%
%ADD51ROUNDEDRECTD51*%
%ADD52R,0.09855X0.04343*%
%ADD53R,0.20485X0.20485*%
%ADD54R,0.02769X0.04737*%
%ADD55R,0.04737X0.04737*%
%ADD56R,0.04934X0.04737*%
G04:AMPARAMS|DCode=57|XSize=29.65mil|YSize=27.69mil|CornerRadius=6.46mil|HoleSize=0mil|Usage=FLASHONLY|Rotation=0.000|XOffset=0mil|YOffset=0mil|HoleType=Round|Shape=RoundedRectangle|*
%AMROUNDEDRECTD57*
21,1,0.02965,0.01476,0,0,0.0*
21,1,0.01673,0.02769,0,0,0.0*
1,1,0.01292,0.00837,-0.00738*
1,1,0.01292,-0.00837,-0.00738*
1,1,0.01292,-0.00837,0.00738*
1,1,0.01292,0.00837,0.00738*
%
%ADD57ROUNDEDRECTD57*%
%ADD58R,0.11430X0.03950*%
%ADD59C,0.03543*%
%ADD60C,0.02769*%
D19*
X17772Y177773D02*
D03*
X27614D02*
D03*
X37457D02*
D03*
D20*
X2461Y151934D02*
D03*
D21*
X5020D02*
D03*
X7579D02*
D03*
X10138D02*
D03*
Y168866D02*
D03*
X7579D02*
D03*
X5020D02*
D03*
X2461D02*
D03*
D22*
X166339Y5225D02*
D03*
Y1650D02*
D03*
X176181Y22819D02*
D03*
X158465Y48047D02*
D03*
X164370Y46079D02*
D03*
X151500Y53287D02*
D03*
X192520Y15535D02*
D03*
X188189D02*
D03*
X15748Y128134D02*
D03*
X138031Y19487D02*
D03*
X155700Y5225D02*
D03*
Y1650D02*
D03*
X188189Y19110D02*
D03*
X192520D02*
D03*
X151500Y49713D02*
D03*
X15748Y131709D02*
D03*
X138031Y5576D02*
D03*
X149800Y1650D02*
D03*
X2400Y115587D02*
D03*
X158465Y44472D02*
D03*
X138031Y15913D02*
D03*
Y9150D02*
D03*
X176181Y26394D02*
D03*
X164370Y42504D02*
D03*
X9400Y54487D02*
D03*
Y50913D02*
D03*
X181000Y119787D02*
D03*
Y116213D02*
D03*
X2400Y112013D02*
D03*
X149800Y5225D02*
D03*
D23*
X189075Y43209D02*
D03*
Y40650D02*
D03*
Y35531D02*
D03*
X181004D02*
D03*
X189075Y38091D02*
D03*
X181004Y43209D02*
D03*
Y38091D02*
D03*
Y40650D02*
D03*
D24*
X151826Y23100D02*
D03*
X167574D02*
D03*
X159700Y10800D02*
D03*
X149857D02*
D03*
X151826D02*
D03*
X153794D02*
D03*
X155763D02*
D03*
X161668D02*
D03*
X163637D02*
D03*
X167574D02*
D03*
X165605Y23100D02*
D03*
X163637D02*
D03*
X161668D02*
D03*
X159700D02*
D03*
X155763D02*
D03*
X153794D02*
D03*
X149857D02*
D03*
X157731D02*
D03*
Y10800D02*
D03*
X165605D02*
D03*
D25*
X151787Y27953D02*
D03*
X178772Y16900D02*
D03*
X11730Y121000D02*
D03*
X9287Y115500D02*
D03*
X14713Y112100D02*
D03*
X9287D02*
D03*
X175197Y16900D02*
D03*
X5713Y112100D02*
D03*
Y115500D02*
D03*
X147063Y41732D02*
D03*
X148213Y27953D02*
D03*
X149787Y41732D02*
D03*
X178772Y8858D02*
D03*
X15305Y121000D02*
D03*
X143488Y41732D02*
D03*
X155087Y117700D02*
D03*
X151513D02*
D03*
X153362Y41732D02*
D03*
X26713Y114600D02*
D03*
X30287D02*
D03*
X18287Y112100D02*
D03*
X175197Y8858D02*
D03*
D27*
X21755Y128327D02*
D03*
X43205Y143327D02*
D03*
Y128327D02*
D03*
X21755Y143327D02*
D03*
X43205Y138327D02*
D03*
X21755Y133327D02*
D03*
Y138327D02*
D03*
X43205Y133327D02*
D03*
D29*
X149616Y17934D02*
D03*
Y15966D02*
D03*
Y13997D02*
D03*
X167816D02*
D03*
Y15966D02*
D03*
Y17934D02*
D03*
X149616Y19903D02*
D03*
X167816D02*
D03*
D32*
X42815Y114665D02*
D03*
X168053Y117700D02*
D03*
X36909Y114665D02*
D03*
X162147Y117700D02*
D03*
D37*
X9299Y4100D02*
D03*
Y29790D02*
D03*
D42*
X153350Y36220D02*
D03*
X143500D02*
D03*
D44*
X16360Y152700D02*
D03*
X23840D02*
D03*
D45*
X151472Y60356D02*
D03*
X181000D02*
D03*
X156393D02*
D03*
X176079Y107600D02*
D03*
X171157Y60356D02*
D03*
X161315D02*
D03*
X171157Y107600D02*
D03*
X166236Y60356D02*
D03*
X176079D02*
D03*
X181000Y107600D02*
D03*
X166236D02*
D03*
X161315D02*
D03*
X156393D02*
D03*
X151472D02*
D03*
D46*
X13709Y101602D02*
D03*
X9378D02*
D03*
X13709Y64201D02*
D03*
X31032Y101602D02*
D03*
X35362D02*
D03*
Y64201D02*
D03*
X31032D02*
D03*
X26701D02*
D03*
X22370D02*
D03*
X18039D02*
D03*
X9378D02*
D03*
X18039Y101602D02*
D03*
X22370D02*
D03*
X26701D02*
D03*
D47*
X189041Y116093D02*
D03*
Y127707D02*
D03*
X17400Y54807D02*
D03*
Y43193D02*
D03*
D48*
X58430Y186183D02*
D03*
D49*
X5047Y64201D02*
D03*
X39693Y101602D02*
D03*
Y64201D02*
D03*
X5047Y101602D02*
D03*
D50*
X30512Y168110D02*
D03*
X39900Y160630D02*
D03*
X30512D02*
D03*
X39900Y168110D02*
D03*
D51*
X177628Y126600D02*
D03*
X177528Y136100D02*
D03*
X5928Y45200D02*
D03*
Y36300D02*
D03*
X9472D02*
D03*
X181172Y126600D02*
D03*
X181072Y136100D02*
D03*
X9472Y45200D02*
D03*
D52*
X189858Y98742D02*
D03*
X142614D02*
D03*
X189858Y83978D02*
D03*
Y69214D02*
D03*
Y79057D02*
D03*
X142614Y83978D02*
D03*
X189858Y74135D02*
D03*
Y93821D02*
D03*
Y88899D02*
D03*
X142614Y74135D02*
D03*
Y93821D02*
D03*
Y88899D02*
D03*
Y79057D02*
D03*
Y69214D02*
D03*
D53*
X126170Y186620D02*
D03*
D54*
X9252Y49016D02*
D03*
D55*
X181843Y121890D02*
D03*
D56*
X183037Y121900D02*
D03*
X11396Y49000D02*
D03*
D57*
X9500Y39128D02*
D03*
Y42672D02*
D03*
X181100Y133072D02*
D03*
Y129528D02*
D03*
D58*
X20000Y159838D02*
D03*
Y168500D02*
D03*
D59*
X14228Y188600D02*
D03*
X41000D02*
D03*
D60*
X180400Y185800D02*
D03*
X149813Y143800D02*
D03*
X180400Y150800D02*
D03*
X149813D02*
D03*
X180400Y157800D02*
D03*
X149813D02*
D03*
X180400Y164800D02*
D03*
X149813D02*
D03*
X180400Y171800D02*
D03*
X149813D02*
D03*
X180400Y178800D02*
D03*
X149813D02*
D03*
X180400Y192800D02*
D03*
X149813D02*
D03*
X149900Y185800D02*
D03*
X45800Y2400D02*
D03*
Y12800D02*
D03*
Y23200D02*
D03*
Y36100D02*
D03*
X38300Y54600D02*
D03*
X26800Y37400D02*
D03*
X26500Y54600D02*
D03*
X1900Y54100D02*
D03*
Y40300D02*
D03*
X150591Y135827D02*
D03*
X153543D02*
D03*
X156496D02*
D03*
X159449D02*
D03*
X162402D02*
D03*
X165354D02*
D03*
X168307D02*
D03*
X171260D02*
D03*
X174213D02*
D03*
M02*
