G04*
G04 #@! TF.GenerationSoftware,Altium Limited,Altium Designer,25.5.2 (35)*
G04*
G04 Layer_Color=128*
%FSLAX25Y25*%
%MOIN*%
G70*
G04*
G04 #@! TF.SameCoordinates,0BB90384-501E-406B-A6C2-AE9EDDEAC3CB*
G04*
G04*
G04 #@! TF.FilePolarity,Positive*
G04*
G01*
G75*
%ADD82C,0.00500*%
D82*
X12457Y188600D02*
X16000D01*
X14228Y186828D02*
Y190372D01*
X39228Y188600D02*
X42772D01*
X41000Y186828D02*
Y190372D01*
X177708Y52800D02*
X179086D01*
X178397Y52111D02*
Y53489D01*
X177708Y49600D02*
X179086D01*
X178397Y48911D02*
Y50289D01*
X179809Y185800D02*
X180991D01*
X180400Y185209D02*
Y186391D01*
X149223Y143800D02*
X150404D01*
X149813Y143209D02*
Y144391D01*
X179809Y150800D02*
X180991D01*
X180400Y150209D02*
Y151391D01*
X149223Y150800D02*
X150404D01*
X149813Y150209D02*
Y151391D01*
X179809Y157800D02*
X180991D01*
X180400Y157209D02*
Y158391D01*
X149223Y157800D02*
X150404D01*
X149813Y157209D02*
Y158391D01*
X179809Y164800D02*
X180991D01*
X180400Y164209D02*
Y165391D01*
X149223Y164800D02*
X150404D01*
X149813Y164209D02*
Y165391D01*
X179809Y171800D02*
X180991D01*
X180400Y171209D02*
Y172391D01*
X149223Y171800D02*
X150404D01*
X149813Y171209D02*
Y172391D01*
X179809Y178800D02*
X180991D01*
X180400Y178209D02*
Y179391D01*
X149223Y178800D02*
X150404D01*
X149813Y178209D02*
Y179391D01*
X179809Y192800D02*
X180991D01*
X180400Y192209D02*
Y193391D01*
X149223Y192800D02*
X150404D01*
X149813Y192209D02*
Y193391D01*
X149309Y185800D02*
X150491D01*
X149900Y185209D02*
Y186391D01*
X130217Y29528D02*
X131595D01*
X130905Y28839D02*
Y30217D01*
X35728Y141732D02*
X37106D01*
X36417Y141043D02*
Y142421D01*
X57382Y127953D02*
X58760D01*
X58071Y127264D02*
Y128642D01*
X54429Y137795D02*
X55807D01*
X55118Y137106D02*
Y138484D01*
X50492Y133858D02*
X51870D01*
X51181Y133169D02*
Y134547D01*
X76616Y186600D02*
X78584D01*
X77600Y185616D02*
Y187584D01*
X171611Y35500D02*
X172989D01*
X172300Y34811D02*
Y36189D01*
X162311Y2900D02*
X163689D01*
X163000Y2211D02*
Y3589D01*
X180311Y15500D02*
X181689D01*
X181000Y14811D02*
Y16189D01*
X113311Y118600D02*
X114689D01*
X114000Y117911D02*
Y119289D01*
X17211Y118400D02*
X18589D01*
X17900Y117711D02*
Y119089D01*
X132311Y6400D02*
X133689D01*
X133000Y5711D02*
Y7089D01*
X156711Y15300D02*
X158089D01*
X157400Y14611D02*
Y15989D01*
X184211Y10700D02*
X185589D01*
X184900Y10011D02*
Y11389D01*
X45111Y2400D02*
X46489D01*
X45800Y1711D02*
Y3089D01*
X45111Y12800D02*
X46489D01*
X45800Y12111D02*
Y13489D01*
X45111Y23200D02*
X46489D01*
X45800Y22511D02*
Y23889D01*
X45111Y36100D02*
X46489D01*
X45800Y35411D02*
Y36789D01*
X37611Y54600D02*
X38989D01*
X38300Y53911D02*
Y55289D01*
X26111Y37400D02*
X27489D01*
X26800Y36711D02*
Y38089D01*
X25811Y54600D02*
X27189D01*
X26500Y53911D02*
Y55289D01*
X1211Y54100D02*
X2589D01*
X1900Y53411D02*
Y54789D01*
X1211Y40300D02*
X2589D01*
X1900Y39611D02*
Y40989D01*
X143996Y20669D02*
X145374D01*
X144685Y19980D02*
Y21358D01*
X172638Y120079D02*
X173819D01*
X173228Y119488D02*
Y120669D01*
X149902Y135827D02*
X151279D01*
X150591Y135138D02*
Y136516D01*
X152854Y135827D02*
X154232D01*
X153543Y135138D02*
Y136516D01*
X155807Y135827D02*
X157185D01*
X156496Y135138D02*
Y136516D01*
X158760Y135827D02*
X160138D01*
X159449Y135138D02*
Y136516D01*
X161713Y135827D02*
X163091D01*
X162402Y135138D02*
Y136516D01*
X164665Y135827D02*
X166043D01*
X165354Y135138D02*
Y136516D01*
X167618Y135827D02*
X168996D01*
X168307Y135138D02*
Y136516D01*
X170571Y135827D02*
X171949D01*
X171260Y135138D02*
Y136516D01*
X173524Y135827D02*
X174902D01*
X174213Y135138D02*
Y136516D01*
X179429Y73819D02*
X180807D01*
X180118Y73130D02*
Y74508D01*
X182382Y78740D02*
X183760D01*
X183071Y78051D02*
Y79429D01*
X163011Y83700D02*
X164389D01*
X163700Y83011D02*
Y84389D01*
X1211Y118300D02*
X2589D01*
X1900Y117611D02*
Y118989D01*
X171555Y28543D02*
X172933D01*
X172244Y27854D02*
Y29232D01*
X160728Y52165D02*
X162106D01*
X161417Y51476D02*
Y52854D01*
X160728Y44291D02*
X162106D01*
X161417Y43602D02*
Y44980D01*
X160728Y35433D02*
X162106D01*
X161417Y34744D02*
Y36122D01*
X161311Y15200D02*
X162689D01*
X162000Y14511D02*
Y15889D01*
X125411Y96400D02*
X126789D01*
X126100Y95711D02*
Y97089D01*
X160711Y69200D02*
X162089D01*
X161400Y68511D02*
Y69889D01*
X174508Y94095D02*
X175886D01*
X175197Y93405D02*
Y94784D01*
X49611Y74000D02*
X50989D01*
X50300Y73311D02*
Y74689D01*
X170411Y100500D02*
X171789D01*
X171100Y99811D02*
Y101189D01*
X170571Y88976D02*
X171949D01*
X171260Y88287D02*
Y89665D01*
X49611Y78900D02*
X50989D01*
X50300Y78211D02*
Y79589D01*
X125411Y89000D02*
X126789D01*
X126100Y88311D02*
Y89689D01*
X125411Y92700D02*
X126789D01*
X126100Y92011D02*
Y93389D01*
X165511Y69300D02*
X166889D01*
X166200Y68611D02*
Y69989D01*
X125411Y100100D02*
X126789D01*
X126100Y99411D02*
Y100789D01*
M02*
