G04*
G04 #@! TF.GenerationSoftware,Altium Limited,Altium Designer,25.5.2 (35)*
G04*
G04 Layer_Physical_Order=1*
G04 Layer_Color=255*
%FSLAX25Y25*%
%MOIN*%
G70*
G04*
G04 #@! TF.SameCoordinates,0BB90384-501E-406B-A6C2-AE9EDDEAC3CB*
G04*
G04*
G04 #@! TF.FilePolarity,Positive*
G04*
G01*
G75*
%ADD10C,0.00984*%
%ADD13C,0.00787*%
%ADD16C,0.01000*%
%ADD17C,0.00591*%
%ADD19R,0.04724X0.09843*%
%ADD20R,0.02031X0.07694*%
G04:AMPARAMS|DCode=21|XSize=76.94mil|YSize=20.31mil|CornerRadius=10.15mil|HoleSize=0mil|Usage=FLASHONLY|Rotation=90.000|XOffset=0mil|YOffset=0mil|HoleType=Round|Shape=RoundedRectangle|*
%AMROUNDEDRECTD21*
21,1,0.07694,0.00000,0,0,90.0*
21,1,0.05664,0.02031,0,0,90.0*
1,1,0.02031,0.00000,0.02832*
1,1,0.02031,0.00000,-0.02832*
1,1,0.02031,0.00000,-0.02832*
1,1,0.02031,0.00000,0.02832*
%
%ADD21ROUNDEDRECTD21*%
%ADD22R,0.02254X0.01438*%
%ADD23R,0.01968X0.01378*%
%ADD24R,0.01000X0.01900*%
%ADD25R,0.01438X0.02254*%
%ADD26R,0.05118X0.06299*%
%ADD27R,0.05750X0.02200*%
%ADD28R,0.03543X0.09055*%
%ADD29R,0.01500X0.01000*%
%ADD30R,0.08661X0.04134*%
%ADD31R,0.19685X0.19685*%
%ADD32R,0.03150X0.03150*%
%ADD33R,0.06299X0.05118*%
G04:AMPARAMS|DCode=34|XSize=21.65mil|YSize=19.68mil|CornerRadius=2.46mil|HoleSize=0mil|Usage=FLASHONLY|Rotation=270.000|XOffset=0mil|YOffset=0mil|HoleType=Round|Shape=RoundedRectangle|*
%AMROUNDEDRECTD34*
21,1,0.02165,0.01476,0,0,270.0*
21,1,0.01673,0.01968,0,0,270.0*
1,1,0.00492,-0.00738,-0.00837*
1,1,0.00492,-0.00738,0.00837*
1,1,0.00492,0.00738,0.00837*
1,1,0.00492,0.00738,-0.00837*
%
%ADD34ROUNDEDRECTD34*%
%ADD35R,0.09055X0.03543*%
%ADD36R,0.19685X0.19685*%
%ADD37R,0.08503X0.03791*%
%ADD38R,0.01968X0.03937*%
%ADD39R,0.03937X0.03937*%
%ADD40R,0.04134X0.03937*%
G04:AMPARAMS|DCode=41|XSize=21.65mil|YSize=19.68mil|CornerRadius=2.46mil|HoleSize=0mil|Usage=FLASHONLY|Rotation=0.000|XOffset=0mil|YOffset=0mil|HoleType=Round|Shape=RoundedRectangle|*
%AMROUNDEDRECTD41*
21,1,0.02165,0.01476,0,0,0.0*
21,1,0.01673,0.01968,0,0,0.0*
1,1,0.00492,0.00837,-0.00738*
1,1,0.00492,-0.00837,-0.00738*
1,1,0.00492,-0.00837,0.00738*
1,1,0.00492,0.00837,0.00738*
%
%ADD41ROUNDEDRECTD41*%
%ADD42R,0.03950X0.07100*%
%ADD43R,0.10630X0.03150*%
%ADD46R,0.03150X0.07087*%
%ADD49R,0.02756X0.07087*%
%ADD59C,0.03543*%
%ADD61C,0.01575*%
%ADD62C,0.03937*%
%ADD63C,0.02000*%
%ADD64C,0.03150*%
%ADD65C,0.01693*%
%ADD66C,0.01968*%
%ADD67C,0.03937*%
G36*
X137162Y196800D02*
Y137745D01*
X137350Y137293D01*
X137802Y137106D01*
X178957D01*
X179481Y136937D01*
Y135263D01*
X179491Y135213D01*
X179474Y135172D01*
X179503Y135102D01*
X179496Y135084D01*
X179548Y134246D01*
X179475Y134136D01*
X179410Y133810D01*
Y132334D01*
X179475Y132007D01*
X179660Y131730D01*
X179855Y131600D01*
X179900Y131300D01*
X179855Y131000D01*
X179660Y130870D01*
X179475Y130593D01*
X179410Y130266D01*
Y128790D01*
X179475Y128464D01*
X179660Y128187D01*
X179662Y128186D01*
X179659Y128104D01*
X179635Y127839D01*
X179626Y127780D01*
X179613Y127728D01*
X179624Y127657D01*
X179622Y127643D01*
X179574Y127528D01*
X179591Y127487D01*
X179580Y127437D01*
Y125763D01*
X179645Y125437D01*
X179707Y125346D01*
Y124449D01*
X179283D01*
Y121097D01*
X179282D01*
Y118478D01*
X182718D01*
Y119331D01*
X184402D01*
Y119341D01*
X185694D01*
Y124459D01*
X182637D01*
Y125346D01*
X182698Y125437D01*
X182763Y125763D01*
Y127437D01*
X182753Y127487D01*
X182770Y127528D01*
X182741Y127597D01*
X182747Y127616D01*
X182697Y128422D01*
X182725Y128464D01*
X182790Y128790D01*
Y130266D01*
X182725Y130593D01*
X182540Y130870D01*
X182345Y131000D01*
X182300Y131300D01*
X182345Y131600D01*
X182540Y131730D01*
X182725Y132007D01*
X182790Y132334D01*
Y133810D01*
X182725Y134136D01*
X182576Y134359D01*
X182584Y134596D01*
X182608Y134861D01*
X182617Y134920D01*
X182630Y134971D01*
X182619Y135043D01*
X182622Y135057D01*
X182669Y135172D01*
X182653Y135213D01*
X182663Y135263D01*
Y136937D01*
X183186Y137106D01*
X196850D01*
Y0D01*
X168466D01*
X168056Y341D01*
X168056Y551D01*
Y2960D01*
X165113D01*
X164742Y2960D01*
X164547Y3481D01*
X164698Y3715D01*
X164732Y3767D01*
X164878Y3915D01*
X165013Y3915D01*
X168056D01*
Y6535D01*
X167303D01*
Y7600D01*
X167311D01*
X167211Y8102D01*
X166927Y8527D01*
X166656Y8708D01*
X166823Y9259D01*
X168665D01*
X169078Y8926D01*
X169627Y8210D01*
X169637Y8220D01*
X169930Y8024D01*
X170276Y7955D01*
X173887D01*
Y7141D01*
X176507D01*
Y10576D01*
X173887D01*
Y9761D01*
X170735D01*
X170518Y10086D01*
X170380Y10777D01*
X170382Y10783D01*
Y15800D01*
X170313Y16146D01*
X170117Y16439D01*
X170125Y16446D01*
X170075Y16480D01*
X170242Y17031D01*
X173878D01*
Y17007D01*
X173887Y17003D01*
Y15182D01*
X176507D01*
Y17754D01*
X177016Y18183D01*
X177347Y18127D01*
X177462Y17944D01*
Y15182D01*
X179457D01*
X179517Y14886D01*
X179865Y14365D01*
X180385Y14017D01*
X181000Y13894D01*
X181614Y14017D01*
X182135Y14365D01*
X182151Y14388D01*
X186471D01*
Y14226D01*
X189906D01*
Y14424D01*
X190802D01*
Y14226D01*
X194237D01*
Y14872D01*
X194261Y14882D01*
X194982Y15435D01*
X195536Y16156D01*
X195884Y16996D01*
X196002Y17898D01*
X195994D01*
Y35433D01*
X195996D01*
X195994Y35443D01*
Y40354D01*
X196000D01*
X195994Y40383D01*
Y41339D01*
X195998D01*
X195896Y42112D01*
X195598Y42832D01*
X195123Y43450D01*
X194505Y43925D01*
X193785Y44223D01*
X193012Y44325D01*
Y44321D01*
X190650D01*
Y44488D01*
X187500D01*
Y41929D01*
Y39370D01*
X190650D01*
Y39538D01*
X193770D01*
Y36643D01*
X190650D01*
Y36811D01*
X187500D01*
Y34252D01*
X190650D01*
Y34420D01*
X193770D01*
Y17898D01*
X193765D01*
X193670Y17421D01*
X193401Y17017D01*
X193143Y16845D01*
X190802D01*
Y16647D01*
X189906D01*
Y16845D01*
X186471D01*
Y16612D01*
X182151D01*
X182135Y16635D01*
X182112Y16651D01*
Y17913D01*
X182114D01*
X182021Y18615D01*
X181750Y19270D01*
X181319Y19831D01*
X180757Y20263D01*
X180102Y20534D01*
X179400Y20626D01*
Y20625D01*
X177312D01*
Y21509D01*
X177899D01*
Y24129D01*
X174464D01*
Y21509D01*
X175088D01*
Y20500D01*
X175069D01*
X175230Y19689D01*
X175578Y19169D01*
X175348Y18618D01*
X174764D01*
X174628Y18709D01*
X173878Y18858D01*
Y18837D01*
X170414D01*
X170305Y19389D01*
X170599Y19510D01*
X171752Y20395D01*
X172636Y21548D01*
X173193Y22891D01*
X173382Y24331D01*
X173356D01*
Y27392D01*
X173380Y27408D01*
X173728Y27929D01*
X173850Y28543D01*
X173728Y29158D01*
X173380Y29679D01*
X173149Y29833D01*
X173182Y30066D01*
X173329Y30375D01*
X174541Y30535D01*
X175764Y31041D01*
X176814Y31847D01*
X177077Y32190D01*
X177628Y32003D01*
Y27703D01*
X174464D01*
Y25084D01*
X177899D01*
Y25323D01*
X178455Y25434D01*
X179201Y25933D01*
X179700Y26679D01*
X179875Y27559D01*
X179852D01*
Y34936D01*
X179888Y34970D01*
Y34970D01*
X179892Y34979D01*
X179878Y35433D01*
X179897Y35976D01*
X179899Y36004D01*
X179908Y36025D01*
X180100Y36496D01*
X180194Y36637D01*
X180455Y36811D01*
X182579D01*
Y39370D01*
Y41929D01*
Y44488D01*
X179429D01*
Y44285D01*
X178284Y44172D01*
X176625Y43669D01*
X175096Y42852D01*
X173757Y41752D01*
X172657Y40412D01*
X171840Y38884D01*
X171337Y37225D01*
X171287Y36717D01*
X171165Y36635D01*
X171149Y36612D01*
X162488D01*
X162032Y36917D01*
X161417Y37039D01*
X160803Y36917D01*
X160282Y36568D01*
X160128Y36338D01*
X159576Y36505D01*
Y38258D01*
X163386D01*
Y38239D01*
X164195Y38400D01*
X164882Y38859D01*
X165340Y39545D01*
X165501Y40354D01*
X165482D01*
Y41194D01*
X166087D01*
Y41380D01*
X167819Y41516D01*
X169517Y41924D01*
X171130Y42592D01*
X172618Y43504D01*
X173945Y44638D01*
X175079Y45965D01*
X175991Y47453D01*
X176482Y48639D01*
X177104Y48700D01*
X177262Y48465D01*
X177783Y48117D01*
X178397Y47994D01*
X179012Y48117D01*
X179533Y48465D01*
X179697Y48711D01*
X180505Y48720D01*
X180528Y48720D01*
X180537Y48712D01*
X180596Y48719D01*
X181059Y48775D01*
X181566Y48815D01*
X181613Y48826D01*
X183232Y49215D01*
X184815Y49871D01*
X186276Y50766D01*
X187579Y51879D01*
X188692Y53182D01*
X189587Y54643D01*
X190243Y56226D01*
X190643Y57892D01*
X190778Y59600D01*
X190761D01*
Y66852D01*
X194976D01*
Y71222D01*
X194976Y71576D01*
X194976Y72127D01*
Y76144D01*
X194976Y76497D01*
X194976Y77048D01*
Y81065D01*
X194976Y81419D01*
X194976Y81970D01*
Y85986D01*
X194976Y86340D01*
X194976Y86891D01*
Y90908D01*
X194976Y91261D01*
X194976Y91812D01*
Y96183D01*
X184740D01*
Y95206D01*
X176348D01*
X176332Y95230D01*
X175811Y95578D01*
X175197Y95700D01*
X174582Y95578D01*
X174062Y95230D01*
X173713Y94709D01*
X173591Y94095D01*
X173713Y93480D01*
X174062Y92959D01*
X174582Y92611D01*
X175197Y92489D01*
X175811Y92611D01*
X176332Y92959D01*
X176348Y92983D01*
X184350D01*
X184740Y92593D01*
X184740Y91459D01*
X184740Y90908D01*
Y90088D01*
X172411D01*
X172395Y90112D01*
X171874Y90460D01*
X171260Y90582D01*
X170645Y90460D01*
X170124Y90112D01*
X169776Y89591D01*
X169654Y88976D01*
X169776Y88362D01*
X170124Y87841D01*
X170645Y87493D01*
X171260Y87371D01*
X171874Y87493D01*
X172395Y87841D01*
X172411Y87865D01*
X184350D01*
X184740Y87475D01*
X184740Y86537D01*
X184740Y85986D01*
Y84812D01*
X164851D01*
X164835Y84835D01*
X164314Y85183D01*
X163700Y85306D01*
X163085Y85183D01*
X162565Y84835D01*
X162217Y84315D01*
X162094Y83700D01*
X162217Y83086D01*
X162565Y82565D01*
X163085Y82217D01*
X163700Y82094D01*
X164314Y82217D01*
X164835Y82565D01*
X164851Y82588D01*
X184350D01*
X184740Y82198D01*
X184740Y81616D01*
X184740Y81065D01*
Y79960D01*
X184080D01*
X183685Y80224D01*
X183071Y80346D01*
X182456Y80224D01*
X181936Y79875D01*
X181587Y79355D01*
X181465Y78740D01*
X181587Y78126D01*
X181936Y77605D01*
X182456Y77257D01*
X183071Y77135D01*
X183685Y77257D01*
X184189Y77593D01*
X184295Y77573D01*
X184740Y77411D01*
X184740Y76695D01*
X184740Y76144D01*
Y74722D01*
X181409D01*
X181254Y74954D01*
X180733Y75302D01*
X180118Y75424D01*
X179504Y75302D01*
X178983Y74954D01*
X178635Y74433D01*
X178513Y73819D01*
X178635Y73204D01*
X178983Y72684D01*
X179504Y72335D01*
X180118Y72213D01*
X180733Y72335D01*
X181254Y72684D01*
X181409Y72916D01*
X184350D01*
X184740Y72526D01*
X184740Y71773D01*
X184740Y71222D01*
Y66852D01*
X188955D01*
Y59600D01*
X188962Y59562D01*
X188791Y57823D01*
X188273Y56115D01*
X187431Y54540D01*
X186298Y53160D01*
X184918Y52027D01*
X183344Y51185D01*
X181635Y50667D01*
X180546Y50560D01*
X180516Y50586D01*
X180497Y50578D01*
X179949Y50520D01*
X179739Y50518D01*
X179554Y50703D01*
X179533Y50735D01*
X179499Y50757D01*
X179333Y50924D01*
Y51531D01*
X179533Y51665D01*
X179881Y52185D01*
X179942Y52494D01*
X180564Y52769D01*
X180567Y52764D01*
X181026Y53071D01*
X181108Y53194D01*
X181106Y53195D01*
X181137Y53241D01*
X181445Y53642D01*
X181796Y54490D01*
X181895Y55238D01*
X183362D01*
Y65474D01*
X178638D01*
Y65474D01*
X178441D01*
Y65474D01*
X174070D01*
X173717Y65474D01*
X173166Y65474D01*
X169149D01*
X168795Y65474D01*
X168244Y65474D01*
X167312D01*
Y68149D01*
X167335Y68165D01*
X167683Y68686D01*
X167806Y69300D01*
X167683Y69915D01*
X167335Y70435D01*
X166814Y70783D01*
X166200Y70906D01*
X165585Y70783D01*
X165065Y70435D01*
X164717Y69915D01*
X164594Y69300D01*
X164717Y68686D01*
X165065Y68165D01*
X165088Y68149D01*
Y65864D01*
X164698Y65474D01*
X163874Y65474D01*
X163323Y65474D01*
X162512D01*
Y68049D01*
X162535Y68065D01*
X162883Y68585D01*
X163006Y69200D01*
X162883Y69814D01*
X162535Y70335D01*
X162014Y70683D01*
X161400Y70806D01*
X160785Y70683D01*
X160265Y70335D01*
X159917Y69814D01*
X159794Y69200D01*
X159917Y68585D01*
X160265Y68065D01*
X160288Y68049D01*
Y65474D01*
X158953D01*
Y55238D01*
X163323D01*
X163677Y55238D01*
X164228Y55238D01*
X168244D01*
X168598Y55238D01*
X169149Y55238D01*
X170148D01*
Y53277D01*
X162568D01*
X162553Y53301D01*
X162032Y53649D01*
X161417Y53771D01*
X160803Y53649D01*
X160282Y53301D01*
X159934Y52780D01*
X159812Y52165D01*
X159934Y51551D01*
X160282Y51030D01*
X160803Y50682D01*
X161417Y50560D01*
X162032Y50682D01*
X162553Y51030D01*
X162568Y51053D01*
X170276D01*
Y51034D01*
X171085Y51195D01*
X171771Y51654D01*
X172230Y52340D01*
X172391Y53150D01*
X172372D01*
Y54848D01*
X172761Y55238D01*
X173519Y55238D01*
X174070Y55238D01*
X174967D01*
Y52504D01*
X174977Y52456D01*
X174810Y50767D01*
X174304Y49097D01*
X173481Y47558D01*
X172374Y46209D01*
X171025Y45102D01*
X169486Y44279D01*
X167816Y43773D01*
X166639Y43657D01*
X166087Y43814D01*
Y43814D01*
X163362D01*
X163013Y44240D01*
X163023Y44291D01*
X163013Y44343D01*
X163362Y44769D01*
X166087D01*
Y47388D01*
X165170D01*
X165074Y47622D01*
X164583Y48261D01*
X163944Y48751D01*
X163200Y49059D01*
X162402Y49164D01*
Y49159D01*
X160182D01*
Y49357D01*
X159443D01*
X159101Y50482D01*
X158514Y51581D01*
X157723Y52545D01*
X156759Y53337D01*
X155659Y53924D01*
X154465Y54286D01*
X153224Y54409D01*
X153217Y54597D01*
X152584D01*
Y55238D01*
X153834D01*
Y65474D01*
X149110D01*
Y55238D01*
X150360D01*
Y54597D01*
X149783D01*
Y54399D01*
X115405D01*
Y117868D01*
X115483Y117985D01*
X115606Y118600D01*
X115483Y119214D01*
X115135Y119735D01*
X114614Y120083D01*
X114000Y120206D01*
X113385Y120083D01*
X112865Y119735D01*
X112517Y119214D01*
X112394Y118600D01*
X112517Y117985D01*
X112595Y117868D01*
Y53200D01*
Y30300D01*
Y25591D01*
Y19600D01*
Y16400D01*
X112587D01*
X112727Y14615D01*
X113145Y12873D01*
X113831Y11219D01*
X114767Y9691D01*
X115930Y8330D01*
X117291Y7167D01*
X118819Y6231D01*
X120473Y5545D01*
X122215Y5127D01*
X124000Y4987D01*
Y4995D01*
X132268D01*
X132386Y4917D01*
X133000Y4794D01*
X133615Y4917D01*
X134135Y5265D01*
X134483Y5785D01*
X134606Y6400D01*
X134483Y7015D01*
X134135Y7535D01*
X133615Y7883D01*
X133000Y8006D01*
X132386Y7883D01*
X132268Y7805D01*
X124000D01*
X123938Y7793D01*
X122320Y7952D01*
X120704Y8442D01*
X119215Y9238D01*
X117909Y10309D01*
X116838Y11615D01*
X116042Y13104D01*
X115552Y14720D01*
X115393Y16338D01*
X115405Y16400D01*
Y18375D01*
X136314D01*
Y18178D01*
X139749D01*
Y20797D01*
X136314D01*
Y20599D01*
X115405D01*
Y24479D01*
X148767D01*
Y21560D01*
X150161D01*
Y19222D01*
X150033Y19137D01*
X149616Y19054D01*
Y19046D01*
X149508Y19025D01*
X148275D01*
Y16816D01*
X139749D01*
Y17222D01*
X136314D01*
Y14603D01*
X138362D01*
X138549Y14052D01*
X138225Y13803D01*
X137622Y13017D01*
X137243Y12101D01*
X137113Y11119D01*
X137128D01*
Y10460D01*
X136314D01*
Y7841D01*
X139749D01*
Y10460D01*
X138935D01*
Y11119D01*
X138932Y11133D01*
X139080Y11877D01*
X139509Y12519D01*
X140152Y12949D01*
X140896Y13097D01*
X140910Y13094D01*
X148275D01*
Y12907D01*
X150161D01*
Y12341D01*
X148767D01*
Y9259D01*
X148954D01*
Y6535D01*
X148082D01*
Y3915D01*
X151517D01*
Y6535D01*
X150761D01*
Y9259D01*
X154860D01*
Y6535D01*
X153982D01*
Y3915D01*
X157418D01*
Y6535D01*
X156666D01*
Y9259D01*
X156853D01*
Y11661D01*
X158609D01*
Y9259D01*
X158797D01*
Y8700D01*
X158783D01*
X158906Y8081D01*
X159257Y7557D01*
X159781Y7206D01*
X160400Y7083D01*
Y7097D01*
X165497D01*
Y6535D01*
X164621D01*
X164621Y4360D01*
Y4360D01*
Y4360D01*
X164621Y4301D01*
X164353Y4154D01*
X164070Y4079D01*
X163614Y4383D01*
X163000Y4506D01*
X162385Y4383D01*
X161865Y4035D01*
X161517Y3514D01*
X161394Y2900D01*
X161517Y2286D01*
X161865Y1765D01*
X162385Y1417D01*
X162443Y1405D01*
X162568Y1218D01*
X163340Y703D01*
X164103Y551D01*
X164049Y0D01*
X44351D01*
X44340Y16D01*
Y33551D01*
X44153Y34003D01*
X43701Y34190D01*
X10937D01*
Y35045D01*
X10998Y35137D01*
X11063Y35463D01*
Y37137D01*
X11053Y37187D01*
X11069Y37228D01*
X11041Y37297D01*
X11047Y37316D01*
X11011Y37894D01*
X11125Y38064D01*
X11190Y38390D01*
Y39867D01*
X11125Y40193D01*
X10940Y40470D01*
X10745Y40600D01*
X10700Y40900D01*
X10745Y41200D01*
X10940Y41330D01*
X11125Y41607D01*
X11190Y41934D01*
Y43410D01*
X11125Y43736D01*
X11009Y43909D01*
X11016Y43993D01*
X11023Y44038D01*
X11033Y44080D01*
X11021Y44154D01*
X11022Y44157D01*
X11069Y44272D01*
X11053Y44313D01*
X11063Y44363D01*
Y46037D01*
X11263Y46258D01*
X11530Y46437D01*
X11548Y46441D01*
X14053D01*
Y51559D01*
X11118D01*
Y52222D01*
X9552D01*
X9400Y52253D01*
X9248Y52222D01*
X7683D01*
Y51575D01*
X7677D01*
Y50281D01*
X7646Y50205D01*
X7677Y50130D01*
Y46457D01*
X7677Y46457D01*
X7880Y46037D01*
Y44363D01*
X7891Y44313D01*
X7874Y44272D01*
X7922Y44157D01*
X7928Y44122D01*
X7921Y44100D01*
X7924Y44056D01*
X7923Y44044D01*
X7926Y44034D01*
X7941Y43834D01*
X7875Y43736D01*
X7810Y43410D01*
Y41934D01*
X7875Y41607D01*
X8060Y41330D01*
X8255Y41200D01*
X8300Y40900D01*
X8255Y40600D01*
X8060Y40470D01*
X7875Y40193D01*
X7810Y39867D01*
Y38390D01*
X7875Y38064D01*
X7963Y37932D01*
X7959Y37804D01*
X7935Y37539D01*
X7926Y37480D01*
X7914Y37429D01*
X7924Y37357D01*
X7922Y37343D01*
X7874Y37228D01*
X7891Y37187D01*
X7880Y37137D01*
Y35463D01*
X7945Y35137D01*
X8006Y35045D01*
Y34190D01*
X8D01*
X0Y34196D01*
Y116719D01*
X528Y117010D01*
X683Y116897D01*
X683Y116897D01*
X683Y116897D01*
Y114278D01*
X4118D01*
Y116897D01*
X3520D01*
X3225Y117448D01*
X3383Y117685D01*
X3506Y118300D01*
X3427Y118695D01*
X3929Y118996D01*
X4779Y118298D01*
X6233Y117522D01*
X7810Y117043D01*
X7978Y117027D01*
Y113783D01*
Y110382D01*
X8175D01*
Y106126D01*
X7786Y105736D01*
X7213Y105736D01*
X6661Y105736D01*
X3512D01*
Y110703D01*
X4118D01*
Y113322D01*
X683D01*
Y110703D01*
X1288D01*
Y104248D01*
X1277D01*
X1406Y103272D01*
X1782Y102363D01*
X2381Y101583D01*
X3079Y101048D01*
Y97469D01*
X6661D01*
X7016Y97469D01*
X7567Y97469D01*
X10992D01*
X11543Y97469D01*
Y97469D01*
X11543D01*
Y97469D01*
X19654D01*
X20205Y97469D01*
X20756Y97469D01*
X23984D01*
X24535Y97469D01*
X25087Y97469D01*
X29919D01*
Y84000D01*
X29906D01*
X30043Y82260D01*
X30450Y80562D01*
X31118Y78949D01*
X32030Y77461D01*
X33164Y76134D01*
X34492Y75000D01*
X35980Y74088D01*
X37593Y73420D01*
X39290Y73012D01*
X41031Y72875D01*
Y72888D01*
X49149D01*
X49165Y72865D01*
X49685Y72517D01*
X50300Y72394D01*
X50915Y72517D01*
X51435Y72865D01*
X51783Y73386D01*
X51906Y74000D01*
X51783Y74615D01*
X51435Y75135D01*
X50915Y75483D01*
X50300Y75606D01*
X49685Y75483D01*
X49165Y75135D01*
X49149Y75112D01*
X41031D01*
X40983Y75102D01*
X39294Y75269D01*
X37624Y75775D01*
X36085Y76598D01*
X34736Y77705D01*
X33629Y79054D01*
X32806Y80593D01*
X32299Y82263D01*
X32133Y83952D01*
X32142Y84000D01*
Y97079D01*
X32532Y97469D01*
X33197Y97469D01*
X33860Y97469D01*
X34249Y97079D01*
Y88900D01*
X34237D01*
X34374Y87160D01*
X34781Y85462D01*
X35449Y83849D01*
X36361Y82361D01*
X37495Y81034D01*
X38822Y79900D01*
X40311Y78988D01*
X41924Y78320D01*
X43621Y77912D01*
X45361Y77775D01*
Y77788D01*
X49149D01*
X49165Y77765D01*
X49685Y77417D01*
X50300Y77294D01*
X50915Y77417D01*
X51435Y77765D01*
X51783Y78285D01*
X51906Y78900D01*
X51783Y79514D01*
X51435Y80035D01*
X50915Y80383D01*
X50300Y80506D01*
X49685Y80383D01*
X49165Y80035D01*
X49149Y80012D01*
X45361D01*
X45314Y80002D01*
X43625Y80169D01*
X41955Y80675D01*
X40415Y81498D01*
X39066Y82605D01*
X37959Y83954D01*
X37137Y85493D01*
X36630Y87163D01*
X36464Y88852D01*
X36473Y88900D01*
Y97469D01*
X37528D01*
Y105736D01*
X33748D01*
X33197Y105736D01*
X32646Y105736D01*
X27812D01*
Y112882D01*
X28022D01*
Y116317D01*
X25403D01*
Y112882D01*
X25588D01*
Y106126D01*
X25198Y105736D01*
X24535Y105736D01*
X23984Y105736D01*
X20756D01*
X20205Y105736D01*
X19789Y105736D01*
X19399Y106126D01*
Y110382D01*
X19597D01*
Y113818D01*
X16978D01*
Y110382D01*
X17176D01*
Y105736D01*
X14820D01*
Y107680D01*
X14846D01*
X14657Y109118D01*
X14323Y109924D01*
X14629Y110382D01*
X16022D01*
Y113818D01*
X15824D01*
Y116895D01*
X17394D01*
X17900Y116794D01*
X18515Y116917D01*
X19035Y117265D01*
X19383Y117786D01*
X19506Y118400D01*
X19383Y119015D01*
X19168Y119337D01*
X19424Y119888D01*
X42260D01*
Y119868D01*
X43094Y120034D01*
X43801Y120506D01*
X44274Y121213D01*
X44440Y122047D01*
X44419D01*
Y126636D01*
X46671D01*
Y129794D01*
X54134D01*
Y129774D01*
X54943Y129935D01*
X55630Y130394D01*
X56088Y131080D01*
X56249Y131890D01*
X56230D01*
Y136378D01*
X56408Y136530D01*
X56959Y136277D01*
Y129104D01*
X56936Y129088D01*
X56587Y128567D01*
X56465Y127953D01*
X56587Y127338D01*
X56936Y126817D01*
X57456Y126469D01*
X58071Y126347D01*
X58685Y126469D01*
X59206Y126817D01*
X59554Y127338D01*
X59676Y127953D01*
X59554Y128567D01*
X59206Y129088D01*
X59183Y129104D01*
Y144685D01*
X59188D01*
X59083Y145484D01*
X58775Y146228D01*
X58284Y146867D01*
X57645Y147357D01*
X56901Y147665D01*
X56102Y147771D01*
Y147766D01*
X36417D01*
Y147771D01*
X35619Y147665D01*
X34875Y147357D01*
X34236Y146867D01*
X33745Y146228D01*
X33437Y145484D01*
X33332Y144685D01*
X33326D01*
X33257Y144518D01*
X33091Y144449D01*
Y144439D01*
X25221D01*
Y145017D01*
X18290D01*
Y141636D01*
X25221D01*
Y142215D01*
X33091D01*
Y142188D01*
X34046Y142378D01*
X34490Y142675D01*
X34828Y142425D01*
X34925Y142303D01*
X34812Y141732D01*
X34934Y141118D01*
X35130Y140825D01*
X34645Y140099D01*
X33895Y139599D01*
X33051Y139431D01*
X33012Y139439D01*
X25221D01*
Y140017D01*
X18290D01*
Y136636D01*
X25221D01*
Y137215D01*
X33012D01*
Y137197D01*
X34185Y137352D01*
X35279Y137805D01*
X36218Y138526D01*
X36939Y139465D01*
X37353Y140463D01*
X37553Y140597D01*
X37901Y141118D01*
X38023Y141732D01*
X37901Y142347D01*
X37553Y142868D01*
X37032Y143216D01*
X36417Y143338D01*
X35803Y143216D01*
X35647Y143112D01*
X35250Y143509D01*
X35397Y143730D01*
X35587Y144685D01*
X35587D01*
X35746Y145170D01*
X35820Y145282D01*
X36094Y145465D01*
X36417Y145529D01*
Y145542D01*
X56102D01*
Y145529D01*
X56425Y145465D01*
X56699Y145282D01*
X56882Y145008D01*
X56946Y144685D01*
X56959D01*
Y138867D01*
X56408Y138700D01*
X56253Y138931D01*
X55733Y139279D01*
X55118Y139401D01*
X54504Y139279D01*
X53983Y138931D01*
X53635Y138410D01*
X53513Y137795D01*
X53635Y137181D01*
X53983Y136660D01*
X54006Y136644D01*
Y132017D01*
X52253D01*
X52086Y132569D01*
X52316Y132723D01*
X52665Y133244D01*
X52787Y133858D01*
X52665Y134473D01*
X52316Y134994D01*
X51796Y135342D01*
X51181Y135464D01*
X50567Y135342D01*
X50046Y134994D01*
X49698Y134473D01*
X49691Y134439D01*
X46671D01*
Y135017D01*
X39740D01*
Y131636D01*
X43164D01*
X43351Y131085D01*
X43167Y130944D01*
X42579Y130177D01*
X42513Y130017D01*
X39740D01*
Y126636D01*
X42195D01*
Y122122D01*
X42188Y122119D01*
X42186Y122112D01*
X16614D01*
Y122717D01*
X13995D01*
Y119705D01*
X13040D01*
Y122717D01*
X10420D01*
Y119705D01*
X9450D01*
X9374Y119690D01*
X7998Y119871D01*
X6645Y120431D01*
X5484Y121323D01*
X4592Y122485D01*
X4032Y123838D01*
X3850Y125214D01*
X3866Y125289D01*
Y127022D01*
X14031D01*
Y126824D01*
X17466D01*
Y127215D01*
X18290D01*
Y126636D01*
X25221D01*
Y130017D01*
X18290D01*
Y129439D01*
X17466D01*
Y129444D01*
X14031D01*
Y129246D01*
X3866D01*
Y143280D01*
X8345D01*
Y143262D01*
X10186Y143443D01*
X11957Y143980D01*
X13589Y144852D01*
X15019Y146026D01*
X16193Y147456D01*
X16996Y148960D01*
X19510D01*
Y156440D01*
X13210D01*
Y148960D01*
X13210D01*
X13425Y148507D01*
X13025Y148020D01*
X12022Y147197D01*
X10878Y146585D01*
X9636Y146208D01*
X8375Y146084D01*
X8345Y146090D01*
X3866D01*
Y147279D01*
X4227Y147511D01*
X4618Y147545D01*
X5020Y147465D01*
X5646Y147590D01*
X6177Y147945D01*
X6421D01*
X6952Y147590D01*
X7579Y147465D01*
X8205Y147590D01*
X8446Y147751D01*
X8858Y147900D01*
X9270Y147751D01*
X9511Y147590D01*
X10138Y147465D01*
X10764Y147590D01*
X11296Y147945D01*
X11651Y148476D01*
X11775Y149102D01*
Y154766D01*
X11651Y155393D01*
X11296Y155924D01*
X10764Y156279D01*
X10138Y156404D01*
X9511Y156279D01*
X9270Y156118D01*
X8858Y155968D01*
X8446Y156118D01*
X8205Y156279D01*
X7579Y156404D01*
X6952Y156279D01*
X6421Y155924D01*
X6177D01*
X5646Y156279D01*
X5020Y156404D01*
X4618Y156324D01*
X4227Y156358D01*
X3866Y156589D01*
Y160003D01*
X4417Y160191D01*
X4573Y159987D01*
X5252Y159466D01*
X6042Y159139D01*
X6890Y159027D01*
Y159028D01*
X14095D01*
Y157673D01*
X25905D01*
Y162004D01*
X14095D01*
Y161838D01*
X6890D01*
X6868Y161834D01*
X6551Y161965D01*
X6420Y162281D01*
X6425Y162303D01*
Y165246D01*
X6532Y165407D01*
X6657Y166034D01*
Y171697D01*
X6532Y172324D01*
X6177Y172855D01*
X5646Y173210D01*
X5020Y173335D01*
X4393Y173210D01*
X4152Y173049D01*
X3740Y172900D01*
X3328Y173049D01*
X3087Y173210D01*
X2461Y173335D01*
X1834Y173210D01*
X1303Y172855D01*
X948Y172324D01*
X823Y171697D01*
Y166034D01*
X948Y165407D01*
X1056Y165246D01*
Y156372D01*
X855D01*
Y147496D01*
X1056D01*
Y144685D01*
Y127953D01*
Y125289D01*
X1042D01*
X1204Y123649D01*
X1682Y122072D01*
X2459Y120618D01*
X2758Y120254D01*
X2658Y120061D01*
X2415Y119803D01*
X1900Y119906D01*
X1285Y119783D01*
X765Y119435D01*
X551Y119116D01*
X0Y119283D01*
Y196850D01*
X115737D01*
Y189201D01*
X77600D01*
X76932Y189113D01*
X76309Y188855D01*
X75775Y188445D01*
X75365Y187911D01*
X75107Y187288D01*
X75019Y186620D01*
Y186600D01*
X75107Y185932D01*
X75365Y185309D01*
X75775Y184775D01*
X76309Y184365D01*
X76932Y184107D01*
X77600Y184019D01*
X77753Y184039D01*
X87719D01*
Y162601D01*
X43640D01*
Y163780D01*
X36160D01*
Y157481D01*
X39584D01*
X39900Y157439D01*
X90300D01*
X90968Y157527D01*
X91591Y157785D01*
X92125Y158195D01*
X92535Y158729D01*
X92793Y159352D01*
X92881Y160020D01*
Y184039D01*
X115737D01*
Y176187D01*
X136603D01*
Y196850D01*
X137129D01*
X137162Y196800D01*
D02*
G37*
G36*
X181919Y138525D02*
X182009Y137076D01*
X182030Y137028D01*
X180113D01*
X180134Y137076D01*
X180153Y137154D01*
X180170Y137261D01*
X180197Y137565D01*
X180221Y138241D01*
X180225Y138839D01*
X181918D01*
X181919Y138525D01*
D02*
G37*
G36*
X182009Y135124D02*
X181990Y135046D01*
X181973Y134939D01*
X181946Y134635D01*
X181923Y133959D01*
X181918Y133361D01*
X180225D01*
X180224Y133675D01*
X180134Y135124D01*
X180113Y135172D01*
X182030D01*
X182009Y135124D01*
D02*
G37*
G36*
X182019Y129025D02*
X182109Y127576D01*
X182130Y127528D01*
X180213D01*
X180234Y127576D01*
X180253Y127654D01*
X180270Y127761D01*
X180297Y128065D01*
X180321Y128741D01*
X180325Y129339D01*
X182018D01*
X182019Y129025D01*
D02*
G37*
G36*
X10464Y50188D02*
X10418Y50138D01*
X10378Y50053D01*
X10343Y49935D01*
X10314Y49782D01*
X10289Y49596D01*
X10257Y49122D01*
X10246Y48513D01*
X8553D01*
X8551Y48834D01*
X8486Y49782D01*
X8457Y49935D01*
X8422Y50053D01*
X8382Y50138D01*
X8336Y50188D01*
X8285Y50205D01*
X10515D01*
X10464Y50188D01*
D02*
G37*
G36*
X10248Y47662D02*
X10336Y46409D01*
X10364Y46289D01*
X10395Y46196D01*
X10430Y46128D01*
X8513D01*
X8521Y46156D01*
X8528Y46218D01*
X8539Y46438D01*
X8553Y47882D01*
X10246Y47961D01*
X10248Y47662D01*
D02*
G37*
G36*
X149783Y51978D02*
X153217D01*
Y51978D01*
X153769Y52111D01*
X154295Y52041D01*
X155292Y51628D01*
X156148Y50971D01*
X156805Y50115D01*
X156977Y49701D01*
X156747Y49357D01*
X156747D01*
Y46738D01*
X160182D01*
Y46935D01*
X162402D01*
Y46923D01*
X162653Y46873D01*
Y46023D01*
X162101Y45728D01*
X162032Y45775D01*
X161417Y45897D01*
X160803Y45775D01*
X160733Y45728D01*
X160182Y45782D01*
Y45782D01*
X156747D01*
Y43163D01*
X160182D01*
X160633Y42921D01*
X160803Y42808D01*
X161417Y42686D01*
X162032Y42808D01*
X162101Y42854D01*
X162653Y42560D01*
Y41194D01*
X163258D01*
Y40482D01*
X159449D01*
Y40501D01*
X158639Y40340D01*
X157953Y39882D01*
X157494Y39195D01*
X157333Y38386D01*
X157353D01*
Y33465D01*
X157339D01*
X157477Y32772D01*
X157870Y32184D01*
X158457Y31792D01*
X159150Y31654D01*
Y31668D01*
X166462D01*
Y24641D01*
X158609D01*
Y22439D01*
X156853D01*
Y24641D01*
X156766D01*
Y33808D01*
X156776D01*
X156660Y34695D01*
X156317Y35521D01*
X155916Y36044D01*
Y40361D01*
X154672D01*
Y43450D01*
X152052D01*
Y40361D01*
X150785D01*
Y32080D01*
X152232D01*
X152235Y32076D01*
X152086Y31638D01*
X151982Y31515D01*
X145246D01*
X145230Y31529D01*
X145428Y32050D01*
X145470Y32080D01*
X146066D01*
Y40361D01*
X144798D01*
Y43450D01*
X142178D01*
Y40361D01*
X140935D01*
Y32080D01*
X142081D01*
X142473Y31697D01*
X142642Y30850D01*
X143121Y30133D01*
X143839Y29653D01*
X144685Y29485D01*
Y29508D01*
X150478D01*
Y27814D01*
X150463Y27740D01*
X150454D01*
X150376Y27346D01*
X150153Y27013D01*
X149819Y26790D01*
X149425Y26711D01*
Y26702D01*
X115405D01*
Y30300D01*
Y52175D01*
X149783D01*
Y51978D01*
D02*
G37*
G36*
X10412Y44229D02*
X10395Y44161D01*
X10381Y44066D01*
X10359Y43799D01*
X10345Y43206D01*
X10346Y42681D01*
X8654Y42662D01*
X8649Y42935D01*
X8558Y44148D01*
X8537Y44222D01*
X8513Y44272D01*
X10430D01*
X10412Y44229D01*
D02*
G37*
G36*
X10319Y38725D02*
X10409Y37276D01*
X10430Y37228D01*
X8513D01*
X8534Y37276D01*
X8553Y37354D01*
X8570Y37461D01*
X8597Y37765D01*
X8621Y38441D01*
X8625Y39039D01*
X10318D01*
X10319Y38725D01*
D02*
G37*
G36*
X10327Y33045D02*
X10352Y32756D01*
X10394Y32502D01*
X10453Y32281D01*
X10530Y32094D01*
X10623Y31940D01*
X10733Y31820D01*
X10860Y31734D01*
X11004Y31681D01*
X11165Y31661D01*
X7779D01*
X7940Y31681D01*
X8083Y31734D01*
X8210Y31820D01*
X8320Y31940D01*
X8414Y32094D01*
X8490Y32281D01*
X8549Y32502D01*
X8591Y32756D01*
X8617Y33045D01*
X8625Y33366D01*
X10318D01*
X10327Y33045D01*
D02*
G37*
%LPC*%
G36*
X41000Y191008D02*
X40078Y190825D01*
X39297Y190303D01*
X38775Y189522D01*
X38592Y188600D01*
X38775Y187678D01*
X39297Y186897D01*
X40078Y186375D01*
X41000Y186191D01*
X41922Y186375D01*
X42703Y186897D01*
X43225Y187678D01*
X43409Y188600D01*
X43225Y189522D01*
X42703Y190303D01*
X41922Y190825D01*
X41000Y191008D01*
D02*
G37*
G36*
X14228D02*
X13307Y190825D01*
X12525Y190303D01*
X12003Y189522D01*
X11820Y188600D01*
X12003Y187678D01*
X12525Y186897D01*
X13307Y186375D01*
X14228Y186191D01*
X15150Y186375D01*
X15932Y186897D01*
X16454Y187678D01*
X16637Y188600D01*
X16454Y189522D01*
X15932Y190303D01*
X15150Y190825D01*
X14228Y191008D01*
D02*
G37*
G36*
X20724Y183285D02*
X14819D01*
Y172261D01*
X20724D01*
Y183285D01*
D02*
G37*
G36*
X30567D02*
X24661D01*
Y172261D01*
X29107D01*
Y171260D01*
X26772D01*
Y169515D01*
X25905D01*
Y170666D01*
X14095D01*
Y169905D01*
X11775D01*
Y171697D01*
X11651Y172324D01*
X11296Y172855D01*
X10764Y173210D01*
X10138Y173335D01*
X9511Y173210D01*
X8980Y172855D01*
X8625Y172324D01*
X8500Y171697D01*
Y166034D01*
X8625Y165407D01*
X8980Y164876D01*
X9511Y164521D01*
X10138Y164397D01*
X10764Y164521D01*
X11296Y164876D01*
X11651Y165407D01*
X11775Y166034D01*
Y167095D01*
X14095D01*
Y166334D01*
X25905D01*
Y166705D01*
X26772D01*
Y164961D01*
X34252D01*
Y171260D01*
X31917D01*
Y174876D01*
X31927D01*
X31780Y175992D01*
X31349Y177032D01*
X30664Y177925D01*
X30567Y177999D01*
Y183285D01*
D02*
G37*
G36*
X40410D02*
X34504D01*
Y172261D01*
X36918D01*
X37319Y171875D01*
Y171260D01*
X36160D01*
Y164961D01*
X39584D01*
X39900Y164919D01*
X40216Y164961D01*
X43640D01*
Y171260D01*
X42481D01*
Y171875D01*
X42493D01*
X42358Y173585D01*
X41958Y175254D01*
X41301Y176839D01*
X40410Y178294D01*
Y183285D01*
D02*
G37*
G36*
X46671Y140017D02*
X39740D01*
Y136636D01*
X46671D01*
Y140017D01*
D02*
G37*
G36*
X25221Y135017D02*
X18290D01*
Y131636D01*
X25221D01*
Y135017D01*
D02*
G37*
G36*
X164313Y119865D02*
X159982D01*
Y118603D01*
X156397D01*
Y119418D01*
X153778D01*
Y115982D01*
X156397D01*
Y116797D01*
X159982D01*
Y115535D01*
X164313D01*
Y119865D01*
D02*
G37*
G36*
X39075Y116831D02*
X34744D01*
Y115712D01*
X31597D01*
Y116317D01*
X28978D01*
Y112882D01*
X31597D01*
Y113488D01*
X34744D01*
Y112500D01*
X39075D01*
Y116831D01*
D02*
G37*
G36*
X182718Y117522D02*
X179282D01*
Y114903D01*
X179535D01*
Y112718D01*
X178638D01*
Y102482D01*
X183362D01*
Y112718D01*
X182465D01*
Y114903D01*
X182718D01*
Y117522D01*
D02*
G37*
G36*
X152822Y119418D02*
X150203D01*
Y115982D01*
X150609D01*
Y112718D01*
X149110D01*
Y102482D01*
X153480D01*
X153834Y102482D01*
X154385Y102482D01*
X158402D01*
X158755Y102482D01*
X159306Y102482D01*
X163323D01*
X163677Y102482D01*
X164228Y102482D01*
X168244D01*
X168598Y102482D01*
X169149Y102482D01*
X169988D01*
Y101651D01*
X169965Y101635D01*
X169617Y101114D01*
X169494Y100500D01*
X169617Y99885D01*
X169965Y99365D01*
X170485Y99017D01*
X171100Y98894D01*
X171714Y99017D01*
X172235Y99365D01*
X172583Y99885D01*
X172706Y100500D01*
X172583Y101114D01*
X172235Y101635D01*
X172212Y101651D01*
Y102482D01*
X173519D01*
Y112718D01*
X169149D01*
X168795Y112718D01*
X168244Y112718D01*
X164228D01*
X163874Y112718D01*
X163323Y112718D01*
X159306D01*
X158953Y112718D01*
X158402Y112718D01*
X154385D01*
X154031Y112718D01*
X153480Y112718D01*
X152416D01*
Y115982D01*
X152822D01*
Y119418D01*
D02*
G37*
G36*
X37724Y68335D02*
X37173Y68335D01*
X33748D01*
X33197Y68335D01*
X32646Y68335D01*
X25087D01*
X24535Y68335D01*
X23984Y68335D01*
X20756D01*
X20205Y68335D01*
X19654Y68335D01*
X15874D01*
Y60067D01*
X19654D01*
X20205Y60067D01*
X20756Y60067D01*
X23984D01*
X24535Y60067D01*
X25087Y60067D01*
X32646D01*
X33197Y60067D01*
X33748Y60067D01*
X37173D01*
X37528Y60067D01*
X38079Y60067D01*
X41661D01*
Y68335D01*
X37724Y68335D01*
D02*
G37*
G36*
X126100Y101706D02*
X125486Y101583D01*
X124965Y101235D01*
X124617Y100715D01*
X124494Y100100D01*
X124617Y99485D01*
X124965Y98965D01*
X125486Y98617D01*
X125747Y98565D01*
X125916Y98531D01*
Y97969D01*
X125747Y97935D01*
X125486Y97883D01*
X124965Y97535D01*
X124617Y97014D01*
X124494Y96400D01*
X124617Y95785D01*
X124965Y95265D01*
X125486Y94917D01*
X125747Y94865D01*
X125916Y94831D01*
Y94269D01*
X125747Y94235D01*
X125486Y94183D01*
X124965Y93835D01*
X124617Y93314D01*
X124494Y92700D01*
X124617Y92085D01*
X124965Y91565D01*
X125486Y91217D01*
X125747Y91165D01*
X125916Y91131D01*
Y90569D01*
X125747Y90535D01*
X125486Y90483D01*
X124965Y90135D01*
X124617Y89614D01*
X124494Y89000D01*
X124617Y88385D01*
X124965Y87865D01*
X125486Y87517D01*
X125985Y87417D01*
X126100Y87394D01*
X126517Y87463D01*
X127065Y87471D01*
X127953D01*
Y87458D01*
X128276Y87394D01*
X128550Y87211D01*
X128733Y86937D01*
X128797Y86614D01*
X128809D01*
Y76772D01*
X128799D01*
X128927Y75799D01*
X129302Y74892D01*
X129900Y74113D01*
X130678Y73516D01*
X131585Y73140D01*
X132558Y73012D01*
Y73023D01*
X137106D01*
X137496Y72633D01*
X137496Y71773D01*
X137496Y71222D01*
Y66852D01*
X147732D01*
Y71222D01*
X147732Y71576D01*
X147732Y72127D01*
Y76497D01*
X147732D01*
Y76695D01*
X147732D01*
Y81419D01*
X147732D01*
Y81616D01*
X147732D01*
Y86340D01*
X147732D01*
Y86537D01*
X147732D01*
Y90908D01*
X147732Y91261D01*
X147732Y91812D01*
Y96183D01*
X137496D01*
Y91812D01*
X137496Y91320D01*
X136945Y91060D01*
X136939Y91065D01*
Y98425D01*
X136941D01*
X136846Y99147D01*
X136567Y99820D01*
X136124Y100398D01*
X135547Y100841D01*
X134874Y101119D01*
X134152Y101214D01*
Y101212D01*
X127251D01*
X127235Y101235D01*
X126715Y101583D01*
X126100Y101706D01*
D02*
G37*
G36*
X11543Y68335D02*
X7213D01*
Y60804D01*
X7180Y60745D01*
X7191Y60706D01*
X7175Y60669D01*
X7213Y60578D01*
Y60067D01*
X7679D01*
X7738Y60034D01*
X7758Y60032D01*
X7783Y59986D01*
X7821Y59878D01*
X7858Y59720D01*
X7888Y59515D01*
X7908Y59266D01*
X7914Y58961D01*
X7935Y58915D01*
Y56946D01*
X7914Y56899D01*
X7904Y56305D01*
X7874Y55867D01*
X7865Y55797D01*
X7683D01*
Y55283D01*
X7646Y55195D01*
X7683Y55106D01*
Y55050D01*
X7678Y54993D01*
X7683Y54988D01*
Y53178D01*
X11118D01*
Y54988D01*
X11122Y54993D01*
X11118Y55050D01*
Y55106D01*
X11154Y55195D01*
X11118Y55283D01*
Y55797D01*
X10942D01*
X10888Y56590D01*
X10886Y56893D01*
X10865Y56941D01*
Y58916D01*
X10886Y58962D01*
X10892Y59267D01*
X10910Y59519D01*
X10939Y59727D01*
X10974Y59888D01*
X11012Y60000D01*
X11032Y60041D01*
X11078Y60067D01*
X11543D01*
Y60582D01*
X11579Y60669D01*
X11563Y60708D01*
X11574Y60750D01*
X11543Y60804D01*
Y68335D01*
D02*
G37*
%LPD*%
G36*
X10808Y60652D02*
X10690Y60601D01*
X10586Y60516D01*
X10496Y60398D01*
X10420Y60246D01*
X10357Y60059D01*
X10309Y59839D01*
X10274Y59585D01*
X10253Y59297D01*
X10246Y58976D01*
X8553D01*
X8546Y59297D01*
X8524Y59585D01*
X8487Y59839D01*
X8435Y60059D01*
X8369Y60246D01*
X8287Y60398D01*
X8191Y60516D01*
X8080Y60601D01*
X7955Y60652D01*
X7814Y60669D01*
X10940D01*
X10808Y60652D01*
D02*
G37*
G36*
X10249Y56566D02*
X10314Y55618D01*
X10343Y55465D01*
X10378Y55347D01*
X10418Y55262D01*
X10464Y55212D01*
X10515Y55195D01*
X8285D01*
X8336Y55212D01*
X8382Y55262D01*
X8422Y55347D01*
X8457Y55465D01*
X8486Y55618D01*
X8511Y55804D01*
X8543Y56278D01*
X8553Y56888D01*
X10246D01*
X10249Y56566D01*
D02*
G37*
D10*
X163000Y2900D02*
G03*
X164250Y1650I1250J0D01*
G01*
X166339D01*
D13*
X143500Y31697D02*
G03*
X144685Y30512I1185J0D01*
G01*
X153794Y29276D02*
G03*
X152559Y30512I-1235J0D01*
G01*
X155763Y33808D02*
G03*
X153350Y36220I-2413J0D01*
G01*
X153794Y23100D02*
Y29276D01*
X143500Y31697D02*
Y36220D01*
Y41732D01*
X144685Y30512D02*
X152559D01*
X153362Y36220D02*
Y41732D01*
X153350Y36220D02*
X153362D01*
X143488Y41732D02*
X143500D01*
X155763Y23100D02*
Y33808D01*
D16*
X11213Y118300D02*
G03*
X11730Y118817I0J517D01*
G01*
X2642Y128134D02*
G03*
X2461Y127953I0J-181D01*
G01*
X158465Y33465D02*
G03*
X159150Y32780I685J0D01*
G01*
X15941Y128327D02*
G03*
X15748Y128134I0J-193D01*
G01*
X33012Y138327D02*
G03*
X36417Y141732I0J3405D01*
G01*
X58071Y144685D02*
G03*
X56102Y146653I-1969J0D01*
G01*
X36417D02*
G03*
X34449Y144685I0J-1969D01*
G01*
X33091Y143327D02*
G03*
X34449Y144685I0J1358D01*
G01*
X54134Y130905D02*
G03*
X55118Y131890I0J984D01*
G01*
X50650Y133327D02*
G03*
X51181Y133858I0J532D01*
G01*
X45784Y130905D02*
G03*
X43205Y128327I0J-2579D01*
G01*
X43307Y128225D02*
G03*
X43205Y128327I-102J0D01*
G01*
X42260Y121000D02*
G03*
X43307Y122047I0J1047D01*
G01*
X194882Y35433D02*
G03*
X194783Y35531I-98J0D01*
G01*
X194882Y40354D02*
G03*
X194587Y40650I-295J0D01*
G01*
X194882Y41339D02*
G03*
X193012Y43209I-1870J0D01*
G01*
X192520Y15535D02*
G03*
X194882Y17898I0J2362D01*
G01*
X177575Y26394D02*
G03*
X178740Y27559I0J1165D01*
G01*
X178742Y35045D02*
G03*
X178740Y34984I998J-65D01*
G01*
X178742Y35045D02*
G03*
X178756Y35433I-5514J388D01*
G01*
X178768Y36178D02*
G03*
X178756Y36030I988J-152D01*
G01*
X180520Y38038D02*
G03*
X178768Y36178I484J-2211D01*
G01*
X173228Y31496D02*
G03*
X177165Y35433I0J3937D01*
G01*
X180009Y43209D02*
G03*
X172300Y35500I0J-7709D01*
G01*
X178445Y40650D02*
G03*
X177165Y39370I0J-1280D01*
G01*
X176200Y20500D02*
G03*
X177187Y19513I987J0D01*
G01*
X164370Y46079D02*
G03*
X162402Y48047I-1969J0D01*
G01*
X158465D02*
G03*
X153224Y53287I-5240J0D01*
G01*
X151826Y27489D02*
G03*
X151575Y27740I-251J0D01*
G01*
X181000Y17913D02*
G03*
X179400Y19513I-1600J0D01*
G01*
X14850Y118300D02*
G03*
X14713Y118163I0J-137D01*
G01*
X9450Y118300D02*
G03*
X9287Y118137I0J-163D01*
G01*
X149616Y17934D02*
G03*
X151826Y20144I0J2210D01*
G01*
X149425Y25591D02*
G03*
X151575Y27740I0J2150D01*
G01*
X13708Y107680D02*
G03*
X9287Y112100I-4420J0D01*
G01*
X114000Y30300D02*
G03*
X114100Y30200I100J0D01*
G01*
X114087Y53287D02*
G03*
X114000Y53200I0J-87D01*
G01*
X114181Y27740D02*
G03*
X114000Y27559I0J-181D01*
G01*
Y19600D02*
G03*
X114113Y19487I113J0D01*
G01*
X9287Y101691D02*
G03*
X9377Y101602I90J0D01*
G01*
X189858Y93821D02*
G03*
X189585Y94095I-274J0D01*
G01*
X189858Y88899D02*
G03*
X189781Y88976I-77J0D01*
G01*
X1900Y116087D02*
G03*
X2400Y115587I500J0D01*
G01*
X171260Y60253D02*
G03*
X171157Y60356I-103J0D01*
G01*
X170276Y52165D02*
G03*
X171260Y53150I0J984D01*
G01*
X167816Y19903D02*
G03*
X172244Y24331I0J4428D01*
G01*
X161417Y44291D02*
G03*
X161236Y44472I-181J0D01*
G01*
X133858Y94488D02*
G03*
X131947Y96400I-1912J0D01*
G01*
X133858Y86614D02*
G03*
X136494Y83978I2636J0D01*
G01*
X161315Y60356D02*
G03*
X161400Y60441I0J85D01*
G01*
X31031Y84000D02*
G03*
X41031Y74000I10000J0D01*
G01*
X35361Y88900D02*
G03*
X45361Y78900I10000J0D01*
G01*
X126100Y89000D02*
G03*
X126517Y88583I417J0D01*
G01*
X129921Y86614D02*
G03*
X127953Y88583I-1969J0D01*
G01*
X129921Y76772D02*
G03*
X132558Y74135I2637J0D01*
G01*
X167574Y32528D02*
G03*
X167323Y32780I-251J0D01*
G01*
X159449Y39370D02*
G03*
X158465Y38386I0J-984D01*
G01*
X163386Y39370D02*
G03*
X164370Y40354I0J984D01*
G01*
X166079Y42504D02*
G03*
X176079Y52504I0J10000D01*
G01*
X131890Y80709D02*
G03*
X133541Y79057I1652J0D01*
G01*
X131890Y90551D02*
G03*
X129741Y92700I-2149J0D01*
G01*
X135827Y98425D02*
G03*
X134152Y100100I-1675J0D01*
G01*
X135827Y90551D02*
G03*
X137479Y88899I1652J0D01*
G01*
X2400Y104248D02*
G03*
X5046Y101602I2646J0D01*
G01*
X18038D02*
G03*
X18287Y101851I0J249D01*
G01*
X15305Y121000D02*
X42260D01*
X11730Y118817D02*
Y121000D01*
X194882Y40354D02*
Y41339D01*
Y35433D02*
Y40354D01*
X178294Y19513D02*
X179400D01*
X2642Y128134D02*
X15748D01*
X167574Y23100D02*
Y31500D01*
X158465Y33465D02*
Y38386D01*
X167574Y31496D02*
Y31500D01*
X159150Y32780D02*
X167323D01*
X15941Y128327D02*
X21755D01*
Y138327D02*
X33012D01*
X36417Y146653D02*
X56102D01*
X58071Y127953D02*
Y144685D01*
X21755Y143327D02*
X33091D01*
X55118Y131890D02*
Y137795D01*
X45784Y130905D02*
X54134D01*
X43205Y133327D02*
X50650D01*
X43307Y122047D02*
Y128225D01*
X189075Y35531D02*
X194783D01*
X189075Y40650D02*
X194587D01*
X189075Y43209D02*
X193012D01*
X194882Y17898D02*
Y35433D01*
X176181Y26394D02*
X177575D01*
X178740Y27559D02*
Y34984D01*
X178756Y35433D02*
Y36030D01*
X180520Y38038D02*
X181004Y38091D01*
X177165Y35433D02*
Y39370D01*
X161417Y35433D02*
Y35500D01*
X172300D01*
X180009Y43209D02*
X181004D01*
X167574Y31496D02*
X173228D01*
X178445Y40650D02*
X181004D01*
X167574Y31500D02*
Y32528D01*
X158465Y48047D02*
X162402D01*
X151500Y53287D02*
X153224D01*
X151472D02*
Y60356D01*
X176181Y22819D02*
X176200D01*
Y20500D02*
Y22819D01*
X151826Y20144D02*
Y23100D01*
Y27489D01*
X188154Y15500D02*
X188189Y15535D01*
X192520D01*
X181000Y15500D02*
X188154D01*
X181000D02*
Y17913D01*
X177187Y19513D02*
X178294D01*
X14713Y112100D02*
Y118163D01*
X9287Y115500D02*
Y118137D01*
Y112100D02*
Y115500D01*
X114087Y53287D02*
X151472D01*
X114000Y25591D02*
X149425D01*
X114113Y19487D02*
X138031D01*
X13708Y101602D02*
Y107680D01*
X9287Y101691D02*
Y112100D01*
X175197Y94095D02*
X189585D01*
X171260Y88976D02*
X189781D01*
X189503Y83700D02*
X189541Y83661D01*
X163700Y83700D02*
X189503D01*
X1900Y116087D02*
Y118300D01*
X171260Y53150D02*
Y60253D01*
X172244Y24331D02*
Y28543D01*
X161417Y52165D02*
X170276D01*
X158465Y44472D02*
X161236D01*
X126100Y96400D02*
X131947D01*
X133858Y86614D02*
Y94488D01*
X136494Y83978D02*
X142614D01*
X161400Y60441D02*
Y69200D01*
X31031Y84000D02*
Y101602D01*
X41031Y74000D02*
X50300D01*
X171100Y107600D02*
X171157D01*
X171100Y100500D02*
Y107600D01*
X45361Y78900D02*
X50300D01*
X35361Y88900D02*
Y101602D01*
X126517Y88583D02*
X127953D01*
X129921Y76772D02*
Y86614D01*
X132558Y74135D02*
X142614D01*
X126100Y92700D02*
X129741D01*
X164370Y40354D02*
Y42504D01*
X159449Y39370D02*
X163386D01*
X176079Y52504D02*
Y60356D01*
X164370Y42504D02*
X166079D01*
X131890Y80709D02*
Y90551D01*
X133541Y79057D02*
X142614D01*
X135827Y90551D02*
Y98425D01*
X137479Y88899D02*
X142614D01*
X126100Y100100D02*
X134152D01*
X36909Y114600D02*
Y114665D01*
X30287Y114600D02*
X36909D01*
X166200Y60356D02*
Y69300D01*
Y60356D02*
X166236D01*
X26700Y101602D02*
Y114600D01*
X26713D01*
X2400Y104248D02*
Y112013D01*
X18287Y101851D02*
Y112100D01*
D17*
X180558Y49624D02*
G03*
X180565Y49625I-700J9975D01*
G01*
X180200Y53595D02*
G03*
X180418Y53761I-238J540D01*
G01*
X180565Y49625D02*
G03*
X189858Y59600I-707J9975D01*
G01*
X180418Y53761D02*
G03*
X180423Y53767I-2018J1639D01*
G01*
X180527Y49623D02*
G03*
X180558Y49624I-7J591D01*
G01*
X180423Y53767D02*
G03*
X181000Y55400I-2023J1633D01*
G01*
X189542Y73819D02*
G03*
X189858Y74135I0J316D01*
G01*
X183388Y79057D02*
G03*
X183071Y78740I0J-317D01*
G01*
X166400Y7600D02*
G03*
X166000Y8000I-400J0D01*
G01*
X178772Y19035D02*
G03*
X178294Y19513I-478J0D01*
G01*
X159700Y13000D02*
G03*
X157400Y15300I-2300J0D01*
G01*
X159700Y8700D02*
G03*
X160400Y8000I700J0D01*
G01*
X174913Y16900D02*
G03*
X173878Y17934I-1034J0D01*
G01*
X165605Y11595D02*
G03*
X162000Y15200I-3605J0D01*
G01*
X140910Y13997D02*
G03*
X138031Y11119I0J-2878D01*
G01*
X169478Y10783D02*
G03*
X170276Y8858I2722J0D01*
G01*
X169478Y15800D02*
G03*
X169078Y15966I-400J-400D01*
G01*
X178397Y52800D02*
X180200Y53595D01*
X178397Y49600D02*
X180527Y49623D01*
X180118Y73819D02*
X189542D01*
X183388Y79057D02*
X189858D01*
X166400Y5225D02*
Y7600D01*
X166339Y5225D02*
X166400D01*
X160400Y8000D02*
X166000D01*
X178772Y16900D02*
Y19035D01*
X181000Y55400D02*
Y60356D01*
X159700Y10800D02*
Y13000D01*
Y8700D02*
Y10800D01*
X167816Y17934D02*
X173878D01*
X155700Y5225D02*
X155763D01*
Y10800D01*
X149800Y5225D02*
X149857D01*
Y10800D01*
X189541Y83661D02*
X189858Y83978D01*
X165605Y10800D02*
Y11595D01*
X189858Y59600D02*
Y69214D01*
X149616Y15913D02*
Y15966D01*
X138031Y15913D02*
X149616D01*
X138031Y9150D02*
Y11119D01*
X170276Y8858D02*
X175197D01*
X169478Y10783D02*
Y15800D01*
X167816Y15966D02*
X169078D01*
X155087Y117700D02*
X162147D01*
X151472Y107600D02*
X151513D01*
Y117700D01*
X140910Y13997D02*
X149616D01*
D19*
X17772Y177773D02*
D03*
X27614D02*
D03*
X37457D02*
D03*
D20*
X2461Y151934D02*
D03*
D21*
X5020D02*
D03*
X7579D02*
D03*
X10138D02*
D03*
Y168866D02*
D03*
X7579D02*
D03*
X5020D02*
D03*
X2461D02*
D03*
D22*
X166339Y5225D02*
D03*
Y1650D02*
D03*
X176181Y22819D02*
D03*
X158465Y48047D02*
D03*
X164370Y46079D02*
D03*
X151500Y53287D02*
D03*
X192520Y15535D02*
D03*
X188189D02*
D03*
X15748Y128134D02*
D03*
X138031Y19487D02*
D03*
X155700Y5225D02*
D03*
Y1650D02*
D03*
X188189Y19110D02*
D03*
X192520D02*
D03*
X151500Y49713D02*
D03*
X15748Y131709D02*
D03*
X138031Y5576D02*
D03*
X149800Y1650D02*
D03*
X2400Y115587D02*
D03*
X158465Y44472D02*
D03*
X138031Y15913D02*
D03*
Y9150D02*
D03*
X176181Y26394D02*
D03*
X164370Y42504D02*
D03*
X9400Y54487D02*
D03*
Y50913D02*
D03*
X181000Y119787D02*
D03*
Y116213D02*
D03*
X2400Y112013D02*
D03*
X149800Y5225D02*
D03*
D23*
X189075Y43209D02*
D03*
Y40650D02*
D03*
Y35531D02*
D03*
X181004D02*
D03*
X189075Y38091D02*
D03*
X181004Y43209D02*
D03*
Y38091D02*
D03*
Y40650D02*
D03*
D24*
X151826Y23100D02*
D03*
X167574D02*
D03*
X159700Y10800D02*
D03*
X149857D02*
D03*
X151826D02*
D03*
X153794D02*
D03*
X155763D02*
D03*
X161668D02*
D03*
X163637D02*
D03*
X167574D02*
D03*
X165605Y23100D02*
D03*
X163637D02*
D03*
X161668D02*
D03*
X159700D02*
D03*
X155763D02*
D03*
X153794D02*
D03*
X149857D02*
D03*
X157731D02*
D03*
Y10800D02*
D03*
X165605D02*
D03*
D25*
X151787Y27953D02*
D03*
X178772Y16900D02*
D03*
X11730Y121000D02*
D03*
X9287Y115500D02*
D03*
X14713Y112100D02*
D03*
X9287D02*
D03*
X175197Y16900D02*
D03*
X5713Y112100D02*
D03*
Y115500D02*
D03*
X147063Y41732D02*
D03*
X148213Y27953D02*
D03*
X149787Y41732D02*
D03*
X178772Y8858D02*
D03*
X15305Y121000D02*
D03*
X143488Y41732D02*
D03*
X155087Y117700D02*
D03*
X151513D02*
D03*
X153362Y41732D02*
D03*
X26713Y114600D02*
D03*
X30287D02*
D03*
X18287Y112100D02*
D03*
X175197Y8858D02*
D03*
D26*
X16360Y152700D02*
D03*
X23840D02*
D03*
D27*
X21755Y128327D02*
D03*
X43205Y143327D02*
D03*
Y128327D02*
D03*
X21755Y143327D02*
D03*
X43205Y138327D02*
D03*
X21755Y133327D02*
D03*
Y138327D02*
D03*
X43205Y133327D02*
D03*
D28*
X151472Y60356D02*
D03*
X181000D02*
D03*
X156393D02*
D03*
X176079Y107600D02*
D03*
X171157Y60356D02*
D03*
X161315D02*
D03*
X171157Y107600D02*
D03*
X166236Y60356D02*
D03*
X176079D02*
D03*
X181000Y107600D02*
D03*
X166236D02*
D03*
X161315D02*
D03*
X156393D02*
D03*
X151472D02*
D03*
D29*
X149616Y17934D02*
D03*
Y15966D02*
D03*
Y13997D02*
D03*
X167816D02*
D03*
Y15966D02*
D03*
Y17934D02*
D03*
X149616Y19903D02*
D03*
X167816D02*
D03*
D30*
X189041Y116093D02*
D03*
Y127707D02*
D03*
X17400Y54807D02*
D03*
Y43193D02*
D03*
D31*
X58430Y186183D02*
D03*
D32*
X42815Y114665D02*
D03*
X168053Y117700D02*
D03*
X36909Y114665D02*
D03*
X162147Y117700D02*
D03*
D33*
X30512Y168110D02*
D03*
X39900Y160630D02*
D03*
X30512D02*
D03*
X39900Y168110D02*
D03*
D34*
X177628Y126600D02*
D03*
X177528Y136100D02*
D03*
X5928Y45200D02*
D03*
Y36300D02*
D03*
X9472D02*
D03*
X181172Y126600D02*
D03*
X181072Y136100D02*
D03*
X9472Y45200D02*
D03*
D35*
X189858Y98742D02*
D03*
X142614D02*
D03*
X189858Y83978D02*
D03*
Y69214D02*
D03*
Y79057D02*
D03*
X142614Y83978D02*
D03*
X189858Y74135D02*
D03*
Y93821D02*
D03*
Y88899D02*
D03*
X142614Y74135D02*
D03*
Y93821D02*
D03*
Y88899D02*
D03*
Y79057D02*
D03*
Y69214D02*
D03*
D36*
X126170Y186620D02*
D03*
D37*
X9299Y4100D02*
D03*
Y29790D02*
D03*
D38*
X9252Y49016D02*
D03*
D39*
X181843Y121890D02*
D03*
D40*
X183037Y121900D02*
D03*
X11396Y49000D02*
D03*
D41*
X9500Y39128D02*
D03*
Y42672D02*
D03*
X181100Y133072D02*
D03*
Y129528D02*
D03*
D42*
X153350Y36220D02*
D03*
X143500D02*
D03*
D43*
X20000Y159838D02*
D03*
Y168500D02*
D03*
D46*
X13709Y101602D02*
D03*
X9378D02*
D03*
X13709Y64201D02*
D03*
X31032Y101602D02*
D03*
X35362D02*
D03*
Y64201D02*
D03*
X31032D02*
D03*
X26701D02*
D03*
X22370D02*
D03*
X18039D02*
D03*
X9378D02*
D03*
X18039Y101602D02*
D03*
X22370D02*
D03*
X26701D02*
D03*
D49*
X5047Y64201D02*
D03*
X39693Y101602D02*
D03*
Y64201D02*
D03*
X5047Y101602D02*
D03*
D59*
X14228Y188600D02*
D03*
X41000D02*
D03*
D61*
X30512Y174876D02*
G03*
X27614Y177773I-2898J0D01*
G01*
X20000Y168500D02*
G03*
X20390Y168110I390J0D01*
G01*
X10138Y168866D02*
G03*
X10503Y168500I366J0D01*
G01*
X20000Y159838D02*
G03*
X19405Y160433I-595J0D01*
G01*
X5020Y162303D02*
G03*
X6890Y160433I1870J0D01*
G01*
X8345Y144685D02*
G03*
X16360Y152700I0J8015D01*
G01*
X2461Y125289D02*
G03*
X9450Y118300I6989J0D01*
G01*
X114000Y16400D02*
G03*
X124000Y6400I10000J0D01*
G01*
X114000Y27559D02*
Y30300D01*
Y16400D02*
Y19600D01*
X2461Y127953D02*
Y144685D01*
X11213Y118300D02*
X14850D01*
X30512Y168110D02*
Y174876D01*
X20390Y168110D02*
X30512D01*
X10503Y168500D02*
X20000D01*
X6890Y160433D02*
X19405D01*
X5020Y162303D02*
Y168866D01*
X2461Y144685D02*
X8345D01*
X2461D02*
Y151934D01*
Y168866D01*
Y125289D02*
Y127953D01*
X114000Y53200D02*
Y118600D01*
X14850Y118300D02*
X17800D01*
X9450D02*
X11213D01*
X114000Y25591D02*
Y27559D01*
Y19600D02*
Y25591D01*
X124000Y6400D02*
X133000D01*
X114000Y30300D02*
Y53200D01*
D62*
X39900Y171875D02*
G03*
X37457Y177773I-8342J0D01*
G01*
X90300Y160020D02*
Y186620D01*
X39900Y160020D02*
X90300D01*
Y186620D02*
X126170D01*
X77600D02*
X90300D01*
X77600Y186600D02*
Y186620D01*
X39900Y167500D02*
Y171875D01*
D63*
X180400Y143800D02*
D03*
D64*
X149813Y185800D02*
X180400D01*
X149813Y143800D02*
X180400D01*
X149813Y150800D02*
X180400D01*
X149813Y157800D02*
X180400D01*
X149813Y164800D02*
X180400D01*
X149813Y171800D02*
X180400D01*
X149813Y178800D02*
X180400D01*
X149813Y192800D02*
X180400D01*
D65*
X181172Y121400D02*
Y126600D01*
Y121400D02*
X182537D01*
X181172Y126600D02*
Y129528D01*
X181100D02*
X181172D01*
X9299Y29790D02*
X9472D01*
Y36300D01*
Y39128D01*
X9500D01*
X181072Y133072D02*
Y136100D01*
Y133072D02*
X181100D01*
X181072Y136100D02*
Y143700D01*
X181000Y107600D02*
Y115795D01*
X9400Y45436D02*
Y50787D01*
Y54724D02*
Y61503D01*
Y45436D02*
X9472Y45200D01*
X9500Y42672D01*
X9377Y64200D02*
X9400Y61503D01*
D66*
X178397Y52800D02*
D03*
Y49600D02*
D03*
X180400Y185800D02*
D03*
X149813Y143800D02*
D03*
X180400Y150800D02*
D03*
X149813D02*
D03*
X180400Y157800D02*
D03*
X149813D02*
D03*
X180400Y164800D02*
D03*
X149813D02*
D03*
X180400Y171800D02*
D03*
X149813D02*
D03*
X180400Y178800D02*
D03*
X149813D02*
D03*
X180400Y192800D02*
D03*
X149813D02*
D03*
X149900Y185800D02*
D03*
X130905Y29528D02*
D03*
X36417Y141732D02*
D03*
X58071Y127953D02*
D03*
X55118Y137795D02*
D03*
X51181Y133858D02*
D03*
X172300Y35500D02*
D03*
X163000Y2900D02*
D03*
X181000Y15500D02*
D03*
X114000Y118600D02*
D03*
X17900Y118400D02*
D03*
X133000Y6400D02*
D03*
X157400Y15300D02*
D03*
X184900Y10700D02*
D03*
X45800Y2400D02*
D03*
Y12800D02*
D03*
Y23200D02*
D03*
Y36100D02*
D03*
X38300Y54600D02*
D03*
X26800Y37400D02*
D03*
X26500Y54600D02*
D03*
X1900Y54100D02*
D03*
Y40300D02*
D03*
X144685Y20669D02*
D03*
X173228Y120079D02*
D03*
X150591Y135827D02*
D03*
X153543D02*
D03*
X156496D02*
D03*
X159449D02*
D03*
X162402D02*
D03*
X165354D02*
D03*
X168307D02*
D03*
X171260D02*
D03*
X174213D02*
D03*
X180118Y73819D02*
D03*
X183071Y78740D02*
D03*
X163700Y83700D02*
D03*
X1900Y118300D02*
D03*
X172244Y28543D02*
D03*
X161417Y52165D02*
D03*
Y44291D02*
D03*
Y35433D02*
D03*
X162000Y15200D02*
D03*
X126100Y96400D02*
D03*
X161400Y69200D02*
D03*
X175197Y94095D02*
D03*
X50300Y74000D02*
D03*
X171100Y100500D02*
D03*
X171260Y88976D02*
D03*
X50300Y78900D02*
D03*
X126100Y89000D02*
D03*
Y92700D02*
D03*
X166200Y69300D02*
D03*
X126100Y100100D02*
D03*
D67*
X77600Y186600D02*
D03*
M02*
