M48
;Layer_Color=9474304
;FILE_FORMAT=2:4
INCH,TZ
;TYPE=PLATED
T01F00S00C0.0118
T02F00S00C0.0138
T03F00S00C0.0197
;TYPE=NON_PLATED
T04F00S00C0.0354
%
T01
X14981Y14380
Y15080
X18040
X17323Y12008
X18040Y15780
Y16480
Y17180
Y17880
Y18580
Y19280
X14981
X14990Y18580
X14981Y17880
Y17180
Y16480
Y15780
T02
X190Y4030
Y5410
X2650Y5460
X3830
X4580Y3610
Y2320
Y1280
Y240
X2680Y3740
X5030Y7400
Y7890
X5118Y13386
X5512Y13780
X5807Y12795
X3642Y14173
X1790Y11840
X190Y11830
X11400Y11860
X12610Y10010
Y9640
Y9270
Y8900
X13091Y2953
X14468Y2067
X13300Y640
X15059Y13583
X15354
X15650
X15945
X16240
X16535
X16831
X17126
X17421
X17110Y10050
X17520Y9409
X17126Y8898
X16370Y8370
X16140Y6920
X16620Y6930
X18012Y7382
X18307Y7874
X17840Y5280
Y4960
X16142Y5217
Y4429
Y3543
X17230Y3550
X17224Y2854
X18100Y1550
X18490Y1070
X16200Y1520
X15740Y1530
X16300Y290
T03
X7760Y18660
T04
X1423Y18860
X4100
M30
