G04*
G04 #@! TF.GenerationSoftware,Altium Limited,Altium Designer,25.5.2 (35)*
G04*
G04 Layer_Color=2752767*
%FSLAX25Y25*%
%MOIN*%
G70*
G04*
G04 #@! TF.SameCoordinates,0BB90384-501E-406B-A6C2-AE9EDDEAC3CB*
G04*
G04*
G04 #@! TF.FilePolarity,Positive*
G04*
G01*
G75*
%ADD82C,0.00500*%
%ADD83C,0.00667*%
D82*
X14228Y186600D02*
X15228Y187600D01*
X16228D01*
X15228Y188600D01*
X16228Y189600D01*
X15228D01*
X14228Y190600D01*
X13228Y189600D01*
X12228D01*
X13228Y188600D01*
X12228Y187600D01*
X13228D01*
X14228Y186600D01*
X41000D02*
X42000Y187600D01*
X43000D01*
X42000Y188600D01*
X43000Y189600D01*
X42000D01*
X41000Y190600D01*
X40000Y189600D01*
X39000D01*
X40000Y188600D01*
X39000Y187600D01*
X40000D01*
X41000Y186600D01*
X176397Y50800D02*
Y54800D01*
X180397D01*
Y50800D01*
X176397D01*
Y47600D02*
Y51600D01*
X180397D01*
Y47600D01*
X176397D01*
X179400Y184800D02*
Y183800D01*
X181400D01*
Y184800D01*
X182400D01*
Y186800D01*
X181400D01*
Y187800D01*
X179400D01*
Y186800D01*
X178400D01*
Y184800D01*
X179400D01*
X148813Y142800D02*
Y141800D01*
X150813D01*
Y142800D01*
X151813D01*
Y144800D01*
X150813D01*
Y145800D01*
X148813D01*
Y144800D01*
X147813D01*
Y142800D01*
X148813D01*
X179400Y149800D02*
Y148800D01*
X181400D01*
Y149800D01*
X182400D01*
Y151800D01*
X181400D01*
Y152800D01*
X179400D01*
Y151800D01*
X178400D01*
Y149800D01*
X179400D01*
X148813D02*
Y148800D01*
X150813D01*
Y149800D01*
X151813D01*
Y151800D01*
X150813D01*
Y152800D01*
X148813D01*
Y151800D01*
X147813D01*
Y149800D01*
X148813D01*
X179400Y156800D02*
Y155800D01*
X181400D01*
Y156800D01*
X182400D01*
Y158800D01*
X181400D01*
Y159800D01*
X179400D01*
Y158800D01*
X178400D01*
Y156800D01*
X179400D01*
X148813D02*
Y155800D01*
X150813D01*
Y156800D01*
X151813D01*
Y158800D01*
X150813D01*
Y159800D01*
X148813D01*
Y158800D01*
X147813D01*
Y156800D01*
X148813D01*
X179400Y163800D02*
Y162800D01*
X181400D01*
Y163800D01*
X182400D01*
Y165800D01*
X181400D01*
Y166800D01*
X179400D01*
Y165800D01*
X178400D01*
Y163800D01*
X179400D01*
X148813D02*
Y162800D01*
X150813D01*
Y163800D01*
X151813D01*
Y165800D01*
X150813D01*
Y166800D01*
X148813D01*
Y165800D01*
X147813D01*
Y163800D01*
X148813D01*
X179400Y170800D02*
Y169800D01*
X181400D01*
Y170800D01*
X182400D01*
Y172800D01*
X181400D01*
Y173800D01*
X179400D01*
Y172800D01*
X178400D01*
Y170800D01*
X179400D01*
X148813D02*
Y169800D01*
X150813D01*
Y170800D01*
X151813D01*
Y172800D01*
X150813D01*
Y173800D01*
X148813D01*
Y172800D01*
X147813D01*
Y170800D01*
X148813D01*
X179400Y177800D02*
Y176800D01*
X181400D01*
Y177800D01*
X182400D01*
Y179800D01*
X181400D01*
Y180800D01*
X179400D01*
Y179800D01*
X178400D01*
Y177800D01*
X179400D01*
X148813D02*
Y176800D01*
X150813D01*
Y177800D01*
X151813D01*
Y179800D01*
X150813D01*
Y180800D01*
X148813D01*
Y179800D01*
X147813D01*
Y177800D01*
X148813D01*
X179400Y191800D02*
Y190800D01*
X181400D01*
Y191800D01*
X182400D01*
Y193800D01*
X181400D01*
Y194800D01*
X179400D01*
Y193800D01*
X178400D01*
Y191800D01*
X179400D01*
X148813D02*
Y190800D01*
X150813D01*
Y191800D01*
X151813D01*
Y193800D01*
X150813D01*
Y194800D01*
X148813D01*
Y193800D01*
X147813D01*
Y191800D01*
X148813D01*
X148900Y184800D02*
Y183800D01*
X150900D01*
Y184800D01*
X151900D01*
Y186800D01*
X150900D01*
Y187800D01*
X148900D01*
Y186800D01*
X147900D01*
Y184800D01*
X148900D01*
X128905Y27528D02*
Y31528D01*
X132905D01*
Y27528D01*
X128905D01*
X34417Y139732D02*
Y143732D01*
X38417D01*
Y139732D01*
X34417D01*
X56071Y125953D02*
Y129953D01*
X60071D01*
Y125953D01*
X56071D01*
X53118Y135795D02*
Y139795D01*
X57118D01*
Y135795D01*
X53118D01*
X49181Y131858D02*
Y135858D01*
X53181D01*
Y131858D01*
X49181D01*
X170300Y33500D02*
Y37500D01*
X174300D01*
Y33500D01*
X170300D01*
X161000Y900D02*
Y4900D01*
X165000D01*
Y900D01*
X161000D01*
X179000Y13500D02*
Y17500D01*
X183000D01*
Y13500D01*
X179000D01*
X112000Y116600D02*
Y120600D01*
X116000D01*
Y116600D01*
X112000D01*
X15900Y116400D02*
Y120400D01*
X19900D01*
Y116400D01*
X15900D01*
X131000Y4400D02*
Y8400D01*
X135000D01*
Y4400D01*
X131000D01*
X155400Y13300D02*
Y17300D01*
X159400D01*
Y13300D01*
X155400D01*
X182900Y8700D02*
Y12700D01*
X186900D01*
Y8700D01*
X182900D01*
X43800Y400D02*
Y4400D01*
X47800D01*
Y400D01*
X43800D01*
Y10800D02*
Y14800D01*
X47800D01*
Y10800D01*
X43800D01*
Y21200D02*
Y25200D01*
X47800D01*
Y21200D01*
X43800D01*
Y34100D02*
Y38100D01*
X47800D01*
Y34100D01*
X43800D01*
X36300Y52600D02*
Y56600D01*
X40300D01*
Y52600D01*
X36300D01*
X24800Y35400D02*
Y39400D01*
X28800D01*
Y35400D01*
X24800D01*
X24500Y52600D02*
Y56600D01*
X28500D01*
Y52600D01*
X24500D01*
X-100Y52100D02*
Y56100D01*
X3900D01*
Y52100D01*
X-100D01*
Y38300D02*
Y42300D01*
X3900D01*
Y38300D01*
X-100D01*
X142685Y18669D02*
Y22669D01*
X146685D01*
Y18669D01*
X142685D01*
X172228Y119079D02*
Y118079D01*
X174228D01*
Y119079D01*
X175228D01*
Y121079D01*
X174228D01*
Y122079D01*
X172228D01*
Y121079D01*
X171228D01*
Y119079D01*
X172228D01*
X148591Y133827D02*
Y137827D01*
X152591D01*
Y133827D01*
X148591D01*
X151543D02*
Y137827D01*
X155543D01*
Y133827D01*
X151543D01*
X154496D02*
Y137827D01*
X158496D01*
Y133827D01*
X154496D01*
X157449D02*
Y137827D01*
X161449D01*
Y133827D01*
X157449D01*
X160402D02*
Y137827D01*
X164402D01*
Y133827D01*
X160402D01*
X163354D02*
Y137827D01*
X167354D01*
Y133827D01*
X163354D01*
X166307D02*
Y137827D01*
X170307D01*
Y133827D01*
X166307D01*
X169260D02*
Y137827D01*
X173260D01*
Y133827D01*
X169260D01*
X172213D02*
Y137827D01*
X176213D01*
Y133827D01*
X172213D01*
X178118Y71819D02*
Y75819D01*
X182118D01*
Y71819D01*
X178118D01*
X181071Y76740D02*
Y80740D01*
X185071D01*
Y76740D01*
X181071D01*
X161700Y81700D02*
Y85700D01*
X165700D01*
Y81700D01*
X161700D01*
X-100Y116300D02*
Y120300D01*
X3900D01*
Y116300D01*
X-100D01*
X170244Y26543D02*
Y30543D01*
X174244D01*
Y26543D01*
X170244D01*
X159417Y50165D02*
Y54165D01*
X163417D01*
Y50165D01*
X159417D01*
Y42291D02*
Y46291D01*
X163417D01*
Y42291D01*
X159417D01*
Y33433D02*
Y37433D01*
X163417D01*
Y33433D01*
X159417D01*
X160000Y13200D02*
Y17200D01*
X164000D01*
Y13200D01*
X160000D01*
X124100Y94400D02*
Y98400D01*
X128100D01*
Y94400D01*
X124100D01*
X159400Y67200D02*
Y71200D01*
X163400D01*
Y67200D01*
X159400D01*
X173197Y92094D02*
Y96095D01*
X177197D01*
Y92094D01*
X173197D01*
X48300Y72000D02*
Y76000D01*
X52300D01*
Y72000D01*
X48300D01*
X169100Y98500D02*
Y102500D01*
X173100D01*
Y98500D01*
X169100D01*
X169260Y86976D02*
Y90976D01*
X173260D01*
Y86976D01*
X169260D01*
X48300Y76900D02*
Y80900D01*
X52300D01*
Y76900D01*
X48300D01*
X124100Y87000D02*
Y91000D01*
X128100D01*
Y87000D01*
X124100D01*
Y90700D02*
Y94700D01*
X128100D01*
Y90700D01*
X124100D01*
X164200Y67300D02*
Y71300D01*
X168200D01*
Y67300D01*
X164200D01*
X124100Y98100D02*
Y102100D01*
X128100D01*
Y98100D01*
X124100D01*
D83*
X79600Y186600D02*
G03*
X79600Y186600I-2000J0D01*
G01*
M02*
