G04*
G04 #@! TF.GenerationSoftware,Altium Limited,Altium Designer,25.5.2 (35)*
G04*
G04 Layer_Color=65535*
%FSLAX25Y25*%
%MOIN*%
G70*
G04*
G04 #@! TF.SameCoordinates,0BB90384-501E-406B-A6C2-AE9EDDEAC3CB*
G04*
G04*
G04 #@! TF.FilePolarity,Positive*
G04*
G01*
G75*
%ADD10C,0.00984*%
%ADD11C,0.01181*%
%ADD12C,0.01500*%
%ADD13C,0.00787*%
%ADD14C,0.00394*%
%ADD15C,0.00600*%
%ADD16C,0.01000*%
%ADD17C,0.00591*%
%ADD18C,0.00315*%
G36*
X160450Y8850D02*
X158950D01*
Y7850D01*
X160450D01*
Y8850D01*
D02*
G37*
G36*
X166355Y25050D02*
X164855D01*
Y26050D01*
X166355D01*
Y25050D01*
D02*
G37*
D10*
X2953Y145636D02*
G03*
X2953Y145636I-492J0D01*
G01*
X47244Y114665D02*
G03*
X47244Y114665I-492J0D01*
G01*
X178248Y35531D02*
G03*
X178248Y35531I-492J0D01*
G01*
X46362Y104402D02*
G03*
X46362Y104402I-492J0D01*
G01*
X172482Y117700D02*
G03*
X172482Y117700I-492J0D01*
G01*
D11*
X2362Y135827D02*
G03*
X2362Y135827I-394J0D01*
G01*
D12*
X146736Y57978D02*
G03*
X146736Y57978I-500J0D01*
G01*
D13*
X45331Y181513D02*
Y195687D01*
X9898Y181513D02*
Y195687D01*
X45331D01*
X9898Y181513D02*
X13933D01*
X41295D02*
X45331D01*
X394Y157750D02*
Y163050D01*
X12205D01*
Y157750D02*
Y163050D01*
X394Y157750D02*
X12205D01*
X193041Y119569D02*
Y123900D01*
X36516Y111516D02*
X43209D01*
X36516Y117815D02*
X43209D01*
X179921Y45472D02*
X190158D01*
X179921Y33268D02*
X190158D01*
X42547Y102193D02*
X43433D01*
X1307D02*
X2193D01*
X1307Y63610D02*
Y102193D01*
X42547Y63610D02*
X43433D01*
X1307D02*
X2193D01*
X43433D02*
Y102193D01*
X161754Y120850D02*
X168446D01*
X161754Y114550D02*
X168446D01*
X21400Y46669D02*
Y51000D01*
X170600Y118500D02*
Y120900D01*
X168446Y120850D02*
X170600Y120900D01*
X75687Y108036D02*
Y105937D01*
X76737Y104887D01*
X77786Y105937D01*
Y108036D01*
X80410Y104887D02*
X79361D01*
X78836Y105412D01*
Y106462D01*
X79361Y106986D01*
X80410D01*
X80935Y106462D01*
Y105937D01*
X78836D01*
X81985Y106986D02*
Y104887D01*
Y105937D01*
X82509Y106462D01*
X83034Y106986D01*
X83559D01*
X90381Y104887D02*
X88282D01*
X90381Y106986D01*
Y107511D01*
X89856Y108036D01*
X88806D01*
X88282Y107511D01*
X91430Y104887D02*
Y105412D01*
X91955D01*
Y104887D01*
X91430D01*
X94054D02*
X95104D01*
X94579D01*
Y108036D01*
X94054Y107511D01*
X96678Y104887D02*
Y105412D01*
X97203D01*
Y104887D01*
X96678D01*
X101401D02*
X99302D01*
X101401Y106986D01*
Y107511D01*
X100876Y108036D01*
X99827D01*
X99302Y107511D01*
X61811Y114172D02*
Y111024D01*
X63385D01*
X63910Y111548D01*
Y113647D01*
X63385Y114172D01*
X61811D01*
X66534Y111024D02*
X65484D01*
X64960Y111548D01*
Y112598D01*
X65484Y113123D01*
X66534D01*
X67059Y112598D01*
Y112073D01*
X64960D01*
X70207Y113647D02*
X69683Y114172D01*
X68633D01*
X68108Y113647D01*
Y113123D01*
X68633Y112598D01*
X69683D01*
X70207Y112073D01*
Y111548D01*
X69683Y111024D01*
X68633D01*
X68108Y111548D01*
X73356Y113647D02*
X72831Y114172D01*
X71782D01*
X71257Y113647D01*
Y111548D01*
X71782Y111024D01*
X72831D01*
X73356Y111548D01*
X76504Y114172D02*
X74405D01*
Y111024D01*
X76504D01*
X74405Y112598D02*
X75455D01*
X77554Y111024D02*
Y114172D01*
X79653Y111024D01*
Y114172D01*
X80703D02*
X82802D01*
X81752D01*
Y111024D01*
X89099Y113647D02*
X88574Y114172D01*
X87524D01*
X87000Y113647D01*
Y111548D01*
X87524Y111024D01*
X88574D01*
X89099Y111548D01*
X90148Y114172D02*
Y111024D01*
Y112598D01*
X92247D01*
Y114172D01*
Y111024D01*
X93297Y114172D02*
X94346D01*
X93822D01*
Y111024D01*
X93297D01*
X94346D01*
X95921D02*
Y114172D01*
X97495D01*
X98020Y113647D01*
Y112598D01*
X97495Y112073D01*
X95921D01*
X101168Y113647D02*
X100644Y114172D01*
X99594D01*
X99069Y113647D01*
Y113123D01*
X99594Y112598D01*
X100644D01*
X101168Y112073D01*
Y111548D01*
X100644Y111024D01*
X99594D01*
X99069Y111548D01*
X102218Y111024D02*
Y113123D01*
X103268Y114172D01*
X104317Y113123D01*
Y111024D01*
Y112598D01*
X102218D01*
X105367Y114172D02*
X107466D01*
X106416D01*
Y111024D01*
X70340Y168373D02*
X70865Y168898D01*
Y169948D01*
X70340Y170472D01*
X69816D01*
X69291Y169948D01*
Y168898D01*
X68766Y168373D01*
X68241D01*
X67716Y168898D01*
Y169948D01*
X68241Y170472D01*
X67716Y166799D02*
Y165750D01*
X68241Y165225D01*
X69291D01*
X69816Y165750D01*
Y166799D01*
X69291Y167324D01*
X68241D01*
X67716Y166799D01*
Y164175D02*
Y163126D01*
Y163651D01*
X70865D01*
Y164175D01*
X69816Y161027D02*
Y159977D01*
X69291Y159452D01*
X67716D01*
Y161027D01*
X68241Y161551D01*
X68766Y161027D01*
Y159452D01*
X69816Y158403D02*
X67716D01*
X68766D01*
X69291Y157878D01*
X69816Y157353D01*
Y156828D01*
X67716Y152106D02*
X70865D01*
Y150531D01*
X70340Y150007D01*
X69291D01*
X68766Y150531D01*
Y152106D01*
X70865Y148957D02*
X67716D01*
X68766Y147907D01*
X67716Y146858D01*
X70865D01*
X67716Y145808D02*
X70865D01*
Y144234D01*
X70340Y143709D01*
X69291D01*
X68766Y144234D01*
Y145808D01*
Y144759D02*
X67716Y143709D01*
X69291Y139511D02*
Y137412D01*
X117585Y168373D02*
X118109Y168898D01*
Y169948D01*
X117585Y170472D01*
X117060D01*
X116535Y169948D01*
Y168898D01*
X116010Y168373D01*
X115485D01*
X114961Y168898D01*
Y169948D01*
X115485Y170472D01*
X114961Y166799D02*
Y165750D01*
X115485Y165225D01*
X116535D01*
X117060Y165750D01*
Y166799D01*
X116535Y167324D01*
X115485D01*
X114961Y166799D01*
Y164175D02*
Y163126D01*
Y163651D01*
X118109D01*
Y164175D01*
X117060Y161027D02*
Y159977D01*
X116535Y159452D01*
X114961D01*
Y161027D01*
X115485Y161551D01*
X116010Y161027D01*
Y159452D01*
X117060Y158403D02*
X114961D01*
X116010D01*
X116535Y157878D01*
X117060Y157353D01*
Y156828D01*
X114961Y152106D02*
X118109D01*
Y150531D01*
X117585Y150007D01*
X116535D01*
X116010Y150531D01*
Y152106D01*
X118109Y148957D02*
X114961D01*
X116010Y147907D01*
X114961Y146858D01*
X118109D01*
X114961Y145808D02*
X118109D01*
Y144234D01*
X117585Y143709D01*
X116535D01*
X116010Y144234D01*
Y145808D01*
Y144759D02*
X114961Y143709D01*
X116535Y139511D02*
Y137412D01*
X117585Y138462D02*
X115485D01*
D14*
X144882Y61024D02*
X147244Y62598D01*
X144882Y64567D02*
X147244Y62598D01*
X45276Y155905D02*
Y171260D01*
X35039Y171653D02*
X35100Y156900D01*
X146653Y29626D02*
X152461D01*
X146653Y26969D02*
Y29626D01*
X142126Y40551D02*
Y43701D01*
X148031D01*
X154724Y40551D02*
Y43701D01*
X149213D02*
X154724D01*
X172244Y50197D02*
Y52165D01*
X169291Y44291D02*
Y46260D01*
X172244D01*
Y48228D01*
X169291D02*
X172244D01*
X169291D02*
Y50197D01*
X172244D01*
X166339Y40354D02*
Y48228D01*
X162402Y40354D02*
X166339D01*
X168307Y355D02*
Y7245D01*
X164370D02*
X168307D01*
X147600Y355D02*
Y7245D01*
X150553D01*
X156496Y42323D02*
X159449D01*
X156496D02*
Y49213D01*
X136811Y21654D02*
X137585D01*
X178150D02*
Y28543D01*
X174213D02*
X178150D01*
X43307Y171260D02*
X45276D01*
X15748Y147638D02*
X27559D01*
Y153543D01*
X62992Y102362D02*
X104331D01*
X112205Y114173D01*
X70866Y177165D02*
Y181102D01*
X114173Y177165D02*
Y181102D01*
X129921Y173228D02*
X131890D01*
X114173D02*
X129921D01*
X114173D02*
Y177165D01*
X53150Y173228D02*
X70866D01*
Y177165D01*
X10827Y111221D02*
Y113189D01*
Y115157D02*
Y117126D01*
X4921D02*
X10827D01*
X21000Y40000D02*
X22900D01*
X22800Y57000D02*
X22900Y40000D01*
X193350Y113000D02*
X194250D01*
Y121700D01*
X194300Y128000D02*
Y130600D01*
X193500D02*
X194300D01*
X178500Y115500D02*
Y119300D01*
Y115500D02*
X179300D01*
X7200Y50400D02*
Y55000D01*
X7700D01*
X11900Y35000D02*
Y37500D01*
X11500D02*
X11900D01*
X7200Y38900D02*
Y43000D01*
X7500D01*
X3900Y47100D02*
X6900D01*
X3900Y46100D02*
Y47100D01*
X175700Y124400D02*
X178800D01*
X175700D02*
Y124900D01*
X178600Y128900D02*
Y133800D01*
Y128900D02*
X179000D01*
X183500Y134500D02*
Y137200D01*
X183000Y134500D02*
X183500D01*
X16732Y119685D02*
Y122835D01*
X10827D02*
X16732D01*
X190945Y14567D02*
X193701D01*
X190945D02*
Y19685D01*
X189764Y14567D02*
Y19685D01*
X187008Y14567D02*
X189764D01*
X172400Y14824D02*
Y17776D01*
Y14824D02*
X179290D01*
X180118Y6890D02*
Y9843D01*
X174213Y6890D02*
X180118D01*
X157480Y355D02*
Y7245D01*
X154528D02*
X157480D01*
X149606Y48228D02*
X153543D01*
X149606D02*
Y53150D01*
X13000Y158300D02*
Y171300D01*
X25400D01*
X28000Y156900D02*
X35100D01*
X13821Y127000D02*
X14021Y132800D01*
X13821Y127000D02*
X16621D01*
X700Y116600D02*
X4000D01*
X3900Y111100D02*
X4000Y116600D01*
X19685Y111989D02*
Y114389D01*
X14385D02*
X19685D01*
X25000Y113000D02*
X30800D01*
X25000D02*
Y115600D01*
X136831Y4363D02*
X139831D01*
Y9563D01*
Y15800D02*
Y21654D01*
X137585D02*
X139831D01*
D15*
X147966Y8950D02*
Y12545D01*
X169466Y8950D02*
Y12545D01*
Y21355D02*
Y24950D01*
X147966Y21355D02*
Y24950D01*
X14149Y7160D02*
Y26730D01*
X4449Y7160D02*
Y26730D01*
X146781Y39871D02*
X150069D01*
X146781Y32570D02*
X150069D01*
X24130Y146177D02*
X40830D01*
X24130Y125477D02*
X40830D01*
D16*
X135474Y4817D02*
Y24502D01*
X48859Y4817D02*
Y24502D01*
X135474D01*
X48859Y4817D02*
X135474D01*
X113194Y12170D02*
X114194Y11171D01*
X116193D01*
X117193Y12170D01*
Y16169D01*
X116193Y17169D01*
X114194D01*
X113194Y16169D01*
Y14170D01*
X115194D01*
X111195Y17169D02*
X109196D01*
X110195D01*
Y11171D01*
X111195D01*
X106197Y13170D02*
Y16169D01*
X105197Y17169D01*
X102198D01*
Y13170D01*
X97199Y17169D02*
X99199D01*
X100199Y16169D01*
Y14170D01*
X99199Y13170D01*
X97199D01*
X96200Y14170D01*
Y15169D01*
X100199D01*
X88202Y11171D02*
Y17169D01*
Y14170D01*
X84204D01*
Y11171D01*
Y17169D01*
X79205D02*
X81205D01*
X82204Y16169D01*
Y14170D01*
X81205Y13170D01*
X79205D01*
X78206Y14170D01*
Y15169D01*
X82204D01*
X76206Y13170D02*
Y17169D01*
Y15169D01*
X75207Y14170D01*
X74207Y13170D01*
X73207D01*
X67209Y17169D02*
X69209D01*
X70208Y16169D01*
Y14170D01*
X69209Y13170D01*
X67209D01*
X66210Y14170D01*
Y15169D01*
X70208D01*
D17*
X149200Y119800D02*
X156200Y119700D01*
X149100Y115900D02*
X149200Y119800D01*
D18*
X5249Y191929D02*
X4922Y191602D01*
Y190945D01*
X5249Y190618D01*
X5578D01*
X5906Y190945D01*
Y191602D01*
X6233Y191929D01*
X6561D01*
X6889Y191602D01*
Y190945D01*
X6561Y190618D01*
X4922Y192585D02*
X6889D01*
X6233Y193241D01*
X6889Y193897D01*
X4922D01*
X6889Y194553D02*
Y195209D01*
Y194881D01*
X4922D01*
X5249Y194553D01*
X171706Y71246D02*
X171378Y71574D01*
X170722D01*
X170394Y71246D01*
Y69934D01*
X170722Y69606D01*
X171378D01*
X171706Y69934D01*
X175512Y71574D02*
Y69606D01*
X176496D01*
X176824Y69934D01*
Y71246D01*
X176496Y71574D01*
X175512D01*
X144685Y24278D02*
X145997Y22966D01*
X144685D02*
X145997Y24278D01*
X144685Y23622D02*
X145997D01*
X145341Y22966D02*
Y24278D01*
X45455Y124987D02*
X44143Y126299D01*
X45455D02*
X44143Y124987D01*
X45455Y125643D02*
X44143D01*
X44799Y126299D02*
Y124987D01*
X45604Y109252D02*
Y107612D01*
X45932Y107284D01*
X46588D01*
X46916Y107612D01*
Y109252D01*
X48884Y107284D02*
X47572D01*
X48884Y108596D01*
Y108924D01*
X48556Y109252D01*
X47900D01*
X47572Y108924D01*
X175672Y122656D02*
X175344Y122984D01*
X174688D01*
X174360Y122656D01*
Y121344D01*
X174688Y121016D01*
X175344D01*
X175672Y121344D01*
X177312Y121016D02*
Y122984D01*
X176328Y122000D01*
X177640D01*
X186372Y136556D02*
X186044Y136884D01*
X185388D01*
X185060Y136556D01*
Y135244D01*
X185388Y134916D01*
X186044D01*
X186372Y135244D01*
X187028Y136556D02*
X187356Y136884D01*
X188012D01*
X188340Y136556D01*
Y136228D01*
X188012Y135900D01*
X187684D01*
X188012D01*
X188340Y135572D01*
Y135244D01*
X188012Y134916D01*
X187356D01*
X187028Y135244D01*
X175344Y131472D02*
X175016Y131144D01*
Y130488D01*
X175344Y130160D01*
X176656D01*
X176984Y130488D01*
Y131144D01*
X176656Y131472D01*
X176984Y133440D02*
Y132128D01*
X175672Y133440D01*
X175344D01*
X175016Y133112D01*
Y132456D01*
X175344Y132128D01*
X14672Y37056D02*
X14344Y37384D01*
X13688D01*
X13360Y37056D01*
Y35744D01*
X13688Y35416D01*
X14344D01*
X14672Y35744D01*
X16640Y37384D02*
X15984Y37056D01*
X15328Y36400D01*
Y35744D01*
X15656Y35416D01*
X16312D01*
X16640Y35744D01*
Y36072D01*
X16312Y36400D01*
X15328D01*
X844Y45572D02*
X516Y45244D01*
Y44588D01*
X844Y44260D01*
X2156D01*
X2484Y44588D01*
Y45244D01*
X2156Y45572D01*
X516Y47540D02*
Y46228D01*
X1500D01*
X1172Y46884D01*
Y47212D01*
X1500Y47540D01*
X2156D01*
X2484Y47212D01*
Y46556D01*
X2156Y46228D01*
X4144Y40900D02*
X3816Y40572D01*
Y39916D01*
X4144Y39588D01*
X5456D01*
X5784Y39916D01*
Y40572D01*
X5456Y40900D01*
X5784Y41556D02*
Y42212D01*
Y41884D01*
X3816D01*
X4144Y41556D01*
X24560Y48516D02*
Y50484D01*
X25544D01*
X25872Y50156D01*
Y49500D01*
X25544Y49172D01*
X24560D01*
X27840Y50484D02*
X26528D01*
Y49500D01*
X27184Y49828D01*
X27512D01*
X27840Y49500D01*
Y48844D01*
X27512Y48516D01*
X26856D01*
X26528Y48844D01*
X192560Y109816D02*
Y111784D01*
X193544D01*
X193872Y111456D01*
Y110800D01*
X193544Y110472D01*
X192560D01*
X195512Y109816D02*
Y111784D01*
X194528Y110800D01*
X195840D01*
X50196Y164324D02*
X48229D01*
Y165308D01*
X48557Y165636D01*
X49213D01*
X49541Y165308D01*
Y164324D01*
Y164980D02*
X50196Y165636D01*
X48229Y166292D02*
Y167604D01*
X48557D01*
X49869Y166292D01*
X50196D01*
X142389Y107283D02*
Y105643D01*
X142717Y105315D01*
X143373D01*
X143701Y105643D01*
Y107283D01*
X144357Y105315D02*
X145013D01*
X144685D01*
Y107283D01*
X144357Y106955D01*
X137796Y36090D02*
X138124D01*
X138779Y36746D01*
X138124Y37402D01*
X137796D01*
X138779Y36746D02*
X139763D01*
Y38058D02*
Y38713D01*
Y38385D01*
X137796D01*
X138124Y38058D01*
X47115Y126211D02*
Y124571D01*
X47443Y124243D01*
X48099D01*
X48427Y124571D01*
Y126211D01*
X50395D02*
X49739Y125883D01*
X49083Y125227D01*
Y124571D01*
X49411Y124243D01*
X50067D01*
X50395Y124571D01*
Y124899D01*
X50067Y125227D01*
X49083D01*
X187513Y50193D02*
Y48553D01*
X187841Y48225D01*
X188497D01*
X188825Y48553D01*
Y50193D01*
X190793D02*
X189481D01*
Y49209D01*
X190137Y49537D01*
X190465D01*
X190793Y49209D01*
Y48553D01*
X190465Y48225D01*
X189809D01*
X189481Y48553D01*
X157809Y30512D02*
Y28872D01*
X158137Y28544D01*
X158793D01*
X159121Y28872D01*
Y30512D01*
X159777Y30184D02*
X160105Y30512D01*
X160761D01*
X161089Y30184D01*
Y29855D01*
X160761Y29528D01*
X160433D01*
X160761D01*
X161089Y29200D01*
Y28872D01*
X160761Y28544D01*
X160105D01*
X159777Y28872D01*
X18210Y121063D02*
Y123031D01*
X19193D01*
X19521Y122703D01*
Y122047D01*
X19193Y121719D01*
X18210D01*
X18865D02*
X19521Y121063D01*
X20177D02*
X20833D01*
X20505D01*
Y123031D01*
X20177Y122703D01*
X21817D02*
X22145Y123031D01*
X22801D01*
X23129Y122703D01*
Y122375D01*
X22801Y122047D01*
X23129Y121719D01*
Y121391D01*
X22801Y121063D01*
X22145D01*
X21817Y121391D01*
Y121719D01*
X22145Y122047D01*
X21817Y122375D01*
Y122703D01*
X22145Y122047D02*
X22801D01*
X175690Y2953D02*
Y4921D01*
X176674D01*
X177002Y4593D01*
Y3937D01*
X176674Y3609D01*
X175690D01*
X176346D02*
X177002Y2953D01*
X177658D02*
X178314D01*
X177986D01*
Y4921D01*
X177658Y4593D01*
X179297Y4921D02*
X180609D01*
Y4593D01*
X179297Y3281D01*
Y2953D01*
X172244Y1140D02*
X170276D01*
Y2124D01*
X170604Y2452D01*
X171260D01*
X171588Y2124D01*
Y1140D01*
Y1796D02*
X172244Y2452D01*
Y3108D02*
Y3764D01*
Y3436D01*
X170276D01*
X170604Y3108D01*
X170276Y6060D02*
Y4748D01*
X171260D01*
X170932Y5404D01*
Y5732D01*
X171260Y6060D01*
X171916D01*
X172244Y5732D01*
Y5076D01*
X171916Y4748D01*
X174424Y11416D02*
Y13384D01*
X175408D01*
X175736Y13056D01*
Y12400D01*
X175408Y12072D01*
X174424D01*
X175080D02*
X175736Y11416D01*
X176392D02*
X177048D01*
X176720D01*
Y13384D01*
X176392Y13056D01*
X179016Y11416D02*
Y13384D01*
X178032Y12400D01*
X179344D01*
X146084Y1140D02*
X144116D01*
Y2124D01*
X144444Y2452D01*
X145100D01*
X145428Y2124D01*
Y1140D01*
Y1796D02*
X146084Y2452D01*
Y3108D02*
Y3764D01*
Y3436D01*
X144116D01*
X144444Y3108D01*
Y4748D02*
X144116Y5076D01*
Y5732D01*
X144444Y6060D01*
X144772D01*
X145100Y5732D01*
Y5404D01*
Y5732D01*
X145428Y6060D01*
X145756D01*
X146084Y5732D01*
Y5076D01*
X145756Y4748D01*
X180118Y25098D02*
X182086D01*
Y24114D01*
X181758Y23786D01*
X181102D01*
X180774Y24114D01*
Y25098D01*
Y24442D02*
X180118Y23786D01*
Y23130D02*
Y22474D01*
Y22802D01*
X182086D01*
X181758Y23130D01*
X180118Y20178D02*
Y21490D01*
X181430Y20178D01*
X181758D01*
X182086Y20506D01*
Y21162D01*
X181758Y21490D01*
X137632Y22638D02*
Y24606D01*
X138616D01*
X138944Y24278D01*
Y23622D01*
X138616Y23294D01*
X137632D01*
X138288D02*
X138944Y22638D01*
X139600D02*
X140256D01*
X139928D01*
Y24606D01*
X139600Y24278D01*
X141240Y22638D02*
X141896D01*
X141568D01*
Y24606D01*
X141240Y24278D01*
X134351Y985D02*
Y2952D01*
X135335D01*
X135663Y2624D01*
Y1969D01*
X135335Y1640D01*
X134351D01*
X135007D02*
X135663Y985D01*
X136319D02*
X136975D01*
X136647D01*
Y2952D01*
X136319Y2624D01*
X137959D02*
X138287Y2952D01*
X138943D01*
X139271Y2624D01*
Y1313D01*
X138943Y985D01*
X138287D01*
X137959Y1313D01*
Y2624D01*
X163715Y36418D02*
Y38385D01*
X164698D01*
X165026Y38058D01*
Y37402D01*
X164698Y37074D01*
X163715D01*
X164370D02*
X165026Y36418D01*
X165682Y36746D02*
X166010Y36418D01*
X166666D01*
X166994Y36746D01*
Y38058D01*
X166666Y38385D01*
X166010D01*
X165682Y38058D01*
Y37730D01*
X166010Y37402D01*
X166994D01*
X156628Y38780D02*
Y40748D01*
X157612D01*
X157940Y40420D01*
Y39764D01*
X157612Y39436D01*
X156628D01*
X157284D02*
X157940Y38780D01*
X158596Y40420D02*
X158924Y40748D01*
X159580D01*
X159908Y40420D01*
Y40092D01*
X159580Y39764D01*
X159908Y39436D01*
Y39108D01*
X159580Y38780D01*
X158924D01*
X158596Y39108D01*
Y39436D01*
X158924Y39764D01*
X158596Y40092D01*
Y40420D01*
X158924Y39764D02*
X159580D01*
X2984Y121360D02*
X1016D01*
Y122344D01*
X1344Y122672D01*
X2000D01*
X2328Y122344D01*
Y121360D01*
Y122016D02*
X2984Y122672D01*
X1016Y124640D02*
X1344Y123984D01*
X2000Y123328D01*
X2656D01*
X2984Y123656D01*
Y124312D01*
X2656Y124640D01*
X2328D01*
X2000Y124312D01*
Y123328D01*
X16260Y115316D02*
Y117284D01*
X17244D01*
X17572Y116956D01*
Y116300D01*
X17244Y115972D01*
X16260D01*
X16916D02*
X17572Y115316D01*
X19540Y117284D02*
X18228D01*
Y116300D01*
X18884Y116628D01*
X19212D01*
X19540Y116300D01*
Y115644D01*
X19212Y115316D01*
X18556D01*
X18228Y115644D01*
X144029Y117126D02*
Y119094D01*
X145013D01*
X145341Y118766D01*
Y118110D01*
X145013Y117782D01*
X144029D01*
X144685D02*
X145341Y117126D01*
X146981D02*
Y119094D01*
X145997Y118110D01*
X147309D01*
X26660Y109216D02*
Y111184D01*
X27644D01*
X27972Y110856D01*
Y110200D01*
X27644Y109872D01*
X26660D01*
X27316D02*
X27972Y109216D01*
X28628Y110856D02*
X28956Y111184D01*
X29612D01*
X29940Y110856D01*
Y110528D01*
X29612Y110200D01*
X29284D01*
X29612D01*
X29940Y109872D01*
Y109544D01*
X29612Y109216D01*
X28956D01*
X28628Y109544D01*
X177084Y115460D02*
X175116D01*
Y116444D01*
X175444Y116772D01*
X176100D01*
X176428Y116444D01*
Y115460D01*
Y116116D02*
X177084Y116772D01*
Y118740D02*
Y117428D01*
X175772Y118740D01*
X175444D01*
X175116Y118412D01*
Y117756D01*
X175444Y117428D01*
X5784Y51988D02*
X3816D01*
Y52972D01*
X4144Y53300D01*
X4800D01*
X5128Y52972D01*
Y51988D01*
Y52644D02*
X5784Y53300D01*
Y53956D02*
Y54612D01*
Y54284D01*
X3816D01*
X4144Y53956D01*
X10499Y176181D02*
Y174213D01*
X11811D01*
X12467D02*
X13123D01*
X12795D01*
Y176181D01*
X12467Y175853D01*
X49922Y115649D02*
Y113681D01*
X50906D01*
X51234Y114009D01*
Y115321D01*
X50906Y115649D01*
X49922D01*
X53202Y113681D02*
X51890D01*
X53202Y114993D01*
Y115321D01*
X52874Y115649D01*
X52218D01*
X51890Y115321D01*
X158137Y124015D02*
Y122048D01*
X159121D01*
X159449Y122376D01*
Y123688D01*
X159121Y124015D01*
X158137D01*
X160105Y122048D02*
X160761D01*
X160433D01*
Y124015D01*
X160105Y123688D01*
X11155Y130742D02*
X10827Y130414D01*
Y129758D01*
X11155Y129430D01*
X12467D01*
X12795Y129758D01*
Y130414D01*
X12467Y130742D01*
X12795Y131398D02*
Y132054D01*
Y131726D01*
X10827D01*
X11155Y131398D01*
Y133038D02*
X10827Y133366D01*
Y134022D01*
X11155Y134350D01*
X11483D01*
X11811Y134022D01*
X12139Y134350D01*
X12467D01*
X12795Y134022D01*
Y133366D01*
X12467Y133038D01*
X12139D01*
X11811Y133366D01*
X11483Y133038D01*
X11155D01*
X11811Y133366D02*
Y134022D01*
X159444Y2452D02*
X159116Y2124D01*
Y1468D01*
X159444Y1140D01*
X160756D01*
X161084Y1468D01*
Y2124D01*
X160756Y2452D01*
X161084Y3108D02*
Y3764D01*
Y3436D01*
X159116D01*
X159444Y3108D01*
X159116Y4748D02*
Y6060D01*
X159444D01*
X160756Y4748D01*
X161084D01*
X150624Y46522D02*
X150296Y46850D01*
X149640D01*
X149312Y46522D01*
Y45210D01*
X149640Y44882D01*
X150296D01*
X150624Y45210D01*
X151280Y44882D02*
X151936D01*
X151608D01*
Y46850D01*
X151280Y46522D01*
X154232Y46850D02*
X153576Y46522D01*
X152920Y45866D01*
Y45210D01*
X153248Y44882D01*
X153903D01*
X154232Y45210D01*
Y45538D01*
X153903Y45866D01*
X152920D01*
X141372Y28904D02*
X141044Y29232D01*
X140388D01*
X140060Y28904D01*
Y27592D01*
X140388Y27264D01*
X141044D01*
X141372Y27592D01*
X142028Y27264D02*
X142684D01*
X142356D01*
Y29232D01*
X142028Y28904D01*
X144980Y29232D02*
X143668D01*
Y28248D01*
X144324Y28576D01*
X144651D01*
X144980Y28248D01*
Y27592D01*
X144651Y27264D01*
X143996D01*
X143668Y27592D01*
X143045Y46522D02*
X142717Y46850D01*
X142061D01*
X141733Y46522D01*
Y45210D01*
X142061Y44882D01*
X142717D01*
X143045Y45210D01*
X143701Y44882D02*
X144357D01*
X144029D01*
Y46850D01*
X143701Y46522D01*
X146325Y44882D02*
Y46850D01*
X145341Y45866D01*
X146653D01*
X187533Y9482D02*
X187205Y9154D01*
Y8498D01*
X187533Y8170D01*
X188845D01*
X189173Y8498D01*
Y9154D01*
X188845Y9482D01*
X189173Y10138D02*
Y10794D01*
Y10466D01*
X187205D01*
X187533Y10138D01*
Y11778D02*
X187205Y12106D01*
Y12762D01*
X187533Y13090D01*
X187861D01*
X188189Y12762D01*
Y12434D01*
Y12762D01*
X188517Y13090D01*
X188845D01*
X189173Y12762D01*
Y12106D01*
X188845Y11778D01*
X191864Y9482D02*
X191536Y9154D01*
Y8498D01*
X191864Y8170D01*
X193176D01*
X193504Y8498D01*
Y9154D01*
X193176Y9482D01*
X193504Y10138D02*
Y10794D01*
Y10466D01*
X191536D01*
X191864Y10138D01*
X193504Y13090D02*
Y11778D01*
X192192Y13090D01*
X191864D01*
X191536Y12762D01*
Y12106D01*
X191864Y11778D01*
X32645Y155183D02*
X32317Y155511D01*
X31661D01*
X31333Y155183D01*
Y153872D01*
X31661Y153544D01*
X32317D01*
X32645Y153872D01*
X33301Y153544D02*
X33957D01*
X33629D01*
Y155511D01*
X33301Y155183D01*
X34940Y153544D02*
X35596D01*
X35269D01*
Y155511D01*
X34940Y155183D01*
X7710Y109908D02*
X7382Y110236D01*
X6726D01*
X6398Y109908D01*
Y108596D01*
X6726Y108268D01*
X7382D01*
X7710Y108596D01*
X8366Y108268D02*
X9022D01*
X8694D01*
Y110236D01*
X8366Y109908D01*
X10006D02*
X10334Y110236D01*
X10990D01*
X11318Y109908D01*
Y108596D01*
X10990Y108268D01*
X10334D01*
X10006Y108596D01*
Y109908D01*
X6562Y123688D02*
X6234Y124015D01*
X5578D01*
X5250Y123688D01*
Y122376D01*
X5578Y122048D01*
X6234D01*
X6562Y122376D01*
X7218D02*
X7546Y122048D01*
X8202D01*
X8530Y122376D01*
Y123688D01*
X8202Y124015D01*
X7546D01*
X7218Y123688D01*
Y123360D01*
X7546Y123031D01*
X8530D01*
X30972Y149456D02*
X30644Y149784D01*
X29988D01*
X29660Y149456D01*
Y148144D01*
X29988Y147816D01*
X30644D01*
X30972Y148144D01*
X31628Y149456D02*
X31956Y149784D01*
X32612D01*
X32940Y149456D01*
Y149128D01*
X32612Y148800D01*
X32940Y148472D01*
Y148144D01*
X32612Y147816D01*
X31956D01*
X31628Y148144D01*
Y148472D01*
X31956Y148800D01*
X31628Y149128D01*
Y149456D01*
X31956Y148800D02*
X32612D01*
X145998Y50853D02*
X145670Y50525D01*
Y49869D01*
X145998Y49541D01*
X147310D01*
X147637Y49869D01*
Y50525D01*
X147310Y50853D01*
X145670Y51509D02*
Y52821D01*
X145998D01*
X147310Y51509D01*
X147637D01*
M02*
